<svg width="32" height="32" viewBox="0 0 32 32" fill="none" xmlns="http://www.w3.org/2000/svg">
<g clip-path="url(#clip0_1365_4482)">
<path d="M31.9619 17.9975C32.0251 17.469 31.997 16.8764 31.9702 16.3037C31.9466 15.7943 31.9217 15.2683 31.9626 14.7992C31.9664 14.7525 31.9504 14.7071 31.9179 14.6738C31.7188 14.4696 31.5197 14.2649 31.3206 14.0601C30.0851 12.7898 28.8068 11.4767 27.4851 10.2609C27.4558 10.234 27.4175 10.2186 27.3773 10.2186H22.2827V9.51664H24.8297C24.9918 9.51664 25.3396 9.16788 25.3396 9.00534V0.511635C25.3396 0.380451 25.2247 0.258866 24.9982 0.0668887L24.9662 0.0400119C24.9375 0.0150549 24.8999 0.000976562 24.8616 0.000976562H7.15543C7.11522 0.000976562 7.07629 0.0163347 7.04694 0.0438514L6.79869 0.274224C6.76869 0.30238 6.75019 0.340776 6.74763 0.382371C6.6468 2.08905 6.66148 3.84116 6.67616 5.53567C6.68509 6.60626 6.69466 7.71269 6.67488 8.79544C6.63212 8.97974 6.75848 9.18324 6.81719 9.26451C6.88548 9.35921 7.02396 9.51791 7.18734 9.51791H9.73429V10.2199H4.63974C4.60017 10.2199 4.56252 10.2346 4.53317 10.2609C3.62313 11.0819 2.74819 11.9727 1.90197 12.834C1.36782 13.3779 0.815159 13.9404 0.259947 14.4786C0.148267 14.5874 0.0825347 14.7122 0.0589222 14.8606C-0.0374422 15.4737 -0.00425711 17.4229 0.0710475 18.0148C0.167412 18.7763 0.632003 19.3977 1.07107 19.9231V31.3643C1.07873 31.6548 1.27273 31.9018 1.55417 31.9786C1.56757 31.9824 1.58161 31.9843 1.59629 31.9843L30.2427 32.001C30.2542 32.001 30.265 32.0016 30.2759 32.0016C30.5394 32.0016 30.757 31.8717 30.8777 31.6407C30.8892 31.6189 30.8949 31.5953 30.8955 31.5709C30.9645 29.1834 30.9542 26.7478 30.944 24.3923C30.9377 22.9269 30.9313 21.4122 30.944 19.9237C31.4042 19.3721 31.8751 18.7149 31.9613 17.9988L31.9619 17.9975ZM24.0013 1.34226V8.17472H8.01569V1.34226H24.0013ZM18.6962 11.5599C21.3823 11.5676 24.1596 11.5753 26.8891 11.5625L26.9969 11.622L29.6383 14.3065H2.37869L5.02328 11.6201C9.57156 11.5343 14.2105 11.5478 18.6968 11.5605L18.6962 11.5599ZM18.9061 9.51664V10.2186H13.1109V9.51664H18.9061ZM20.2444 10.2186V9.51664H20.9445V10.2186H20.2444ZM11.7726 9.51664V10.2186H11.0725V9.51664H11.7726ZM27.2037 22.4776C25.8437 22.3541 24.3689 22.4104 22.9426 22.4648C21.6433 22.5141 20.3006 22.5653 19.0542 22.4802C18.894 22.4508 18.723 22.5621 18.6336 22.6331C18.5449 22.7029 18.3969 22.8424 18.3969 22.9921V30.6552H13.6208V22.9921C13.6208 22.6511 13.16 22.4988 12.9373 22.4783C11.5773 22.3548 10.1025 22.4111 8.6762 22.4655C7.37751 22.5148 6.03415 22.5659 4.7878 22.4808C4.62762 22.4514 4.45658 22.5627 4.36724 22.6338C4.27853 22.7035 4.13048 22.843 4.13048 22.9928V30.6559H2.41123V20.6743C3.75715 20.9732 5.02967 20.5336 5.81015 19.4988C5.82356 19.5193 5.83951 19.5404 5.85866 19.5609C6.30921 20.0274 6.70487 20.3998 7.34816 20.6046C8.69024 21.0314 10.0661 20.5969 10.9047 19.4982C10.9181 19.5193 10.9341 19.5404 10.9538 19.5609C11.4044 20.0274 11.8007 20.4004 12.4433 20.6046C13.7854 21.0314 15.1607 20.5969 15.9999 19.4982C16.0133 19.5193 16.0292 19.5404 16.049 19.5615C16.4996 20.028 16.8959 20.4011 17.5385 20.6052C18.8806 21.0321 20.2559 20.5975 21.0951 19.4988C21.1085 19.5199 21.1244 19.541 21.1442 19.5621C21.1755 19.5948 21.2087 19.63 21.2438 19.6658C21.3803 19.8098 21.5354 19.973 21.6745 20.0837C22.3631 20.6327 23.2604 20.8682 24.1373 20.73C24.958 20.6007 25.6963 20.156 26.1909 19.5001C26.2043 19.5206 26.2196 19.5417 26.2394 19.5615C27.2713 20.6289 28.2586 20.9585 29.6058 20.6718V30.6565H27.8865V22.9934C27.8865 22.6523 27.4258 22.5 27.2031 22.4796L27.2037 22.4776ZM10.2442 17.755C10.2442 18.5991 9.20205 19.4086 8.39476 19.4201C8.38838 19.4201 8.38264 19.4201 8.37625 19.4201C7.91868 19.4201 7.37432 19.1731 6.98376 18.7866C6.66339 18.4698 6.48726 18.1038 6.48726 17.7544V15.6471H10.2442V17.7544V17.755ZM15.3394 17.755C15.3394 18.5991 14.2972 19.4086 13.49 19.4201C13.4836 19.4201 13.4778 19.4201 13.4714 19.4201C13.0139 19.4201 12.4695 19.1731 12.0789 18.7866C11.7586 18.4698 11.5824 18.1038 11.5824 17.755V15.6477H15.3394V17.755ZM20.4346 17.755C20.4346 18.5991 19.3924 19.4086 18.5851 19.4201C18.5788 19.4201 18.573 19.4201 18.5666 19.4201C18.1091 19.4201 17.5647 19.1731 17.1741 18.7866C16.8538 18.4698 16.6776 18.1038 16.6776 17.755V15.6477H20.4346V17.755ZM25.5298 17.755C25.5298 18.5991 24.4876 19.4086 23.6803 19.4201C23.6739 19.4201 23.6682 19.4201 23.6618 19.4201C23.2042 19.4201 22.6599 19.1731 22.2693 18.7866C21.949 18.4698 21.7728 18.1038 21.7728 17.755V15.6477H25.5298V17.755ZM28.757 19.4201C28.2994 19.4201 27.7551 19.1731 27.3645 18.7866C27.0441 18.4698 26.868 18.1038 26.868 17.7544V15.6471H30.6249V17.7544C30.6249 18.5984 29.5828 19.4079 28.7755 19.4194C28.7691 19.4194 28.7634 19.4194 28.757 19.4194V19.4201ZM5.149 17.755C5.149 18.5991 4.10687 19.4086 3.29957 19.4201C3.29319 19.4201 3.28745 19.4201 3.28107 19.4201C2.8235 19.4201 2.27913 19.1731 1.88857 18.7866C1.56821 18.4698 1.39207 18.1038 1.39207 17.7544V15.6471H5.149V17.7544V17.755ZM8.2065 23.8221V30.6546H5.46873V23.8221H8.2065ZM12.2825 23.8221V30.6546H9.54475V23.8221H12.2825ZM22.4729 23.8221V30.6546H19.7351V23.8221H22.4729ZM26.5489 23.8221V30.6546H23.8112V23.8221H26.5489Z" fill="#BB3413"/>
<path d="M12.9509 7.47194H13.9701C14.0581 7.47194 14.1296 7.40026 14.1296 7.31195V6.44998H14.8297V7.31195C14.8297 7.40026 14.9012 7.47194 14.9892 7.47194H16.0084C16.0965 7.47194 16.1679 7.40026 16.1679 7.31195V3.38411C16.1679 3.25932 15.9165 2.82865 15.9139 2.82481C15.5827 2.30712 15.0186 2.01275 14.4079 2.03323C13.8073 2.05435 13.277 2.38263 12.9892 2.9112C12.9873 2.91504 12.792 3.29452 12.792 3.38411V7.31195C12.792 7.40026 12.8635 7.47194 12.9515 7.47194H12.9509ZM14.8297 3.67207V5.10806H14.1424C14.1507 4.90648 14.1373 4.68891 14.1239 4.4771C14.106 4.18977 14.0875 3.89221 14.1271 3.66759C14.1507 3.53321 14.27 3.45002 14.374 3.41674C14.4768 3.38411 14.621 3.38283 14.7225 3.47498C14.7454 3.51209 14.8054 3.6228 14.8297 3.67207Z" fill="#BB3413"/>
<path d="M20.9551 7.28138C21.061 7.35305 21.2499 7.47272 21.3265 7.47272H23.1415C23.2295 7.47272 23.301 7.40105 23.301 7.31274V6.29078C23.301 6.20247 23.2295 6.1308 23.1415 6.1308H21.7726V5.4288H23.1415C23.2295 5.4288 23.301 5.35713 23.301 5.26882V4.24686C23.301 4.15856 23.2295 4.08688 23.1415 4.08688H21.7726V3.38489H23.1415C23.2295 3.38489 23.301 3.31322 23.301 3.22491V2.20295C23.301 2.11464 23.2295 2.04297 23.1415 2.04297H21.3265C21.0004 2.04297 20.4873 2.67905 20.4407 2.9811C20.3392 3.63894 20.3622 5.68093 20.4324 6.40469C20.4669 6.76048 20.6577 7.0798 20.9551 7.28074V7.28138Z" fill="#BB3413"/>
<path d="M9.58156 7.27498C9.58539 7.2769 9.9651 7.47272 10.0532 7.47272H11.932C12.02 7.47272 12.0915 7.40105 12.0915 7.31274V6.29078C12.0915 6.20247 12.02 6.1308 11.932 6.1308H10.3078C10.1751 6.1308 10.0659 5.85947 10.0493 5.67261C10.0104 5.23939 9.99701 4.15216 10.0557 3.73045C10.0768 3.58134 10.2319 3.38489 10.3078 3.38489H11.932C12.02 3.38489 12.0915 3.31322 12.0915 3.22491V2.20295C12.0915 2.11464 12.02 2.04297 11.932 2.04297H10.0532C9.56305 2.04297 8.87127 2.82495 8.76342 3.26202C8.64025 3.76052 8.6728 5.35009 8.713 5.88955C8.75767 6.48276 9.08187 7.00045 9.58092 7.2737L9.58156 7.27498Z" fill="#BB3413"/>
<path d="M17.0272 7.47272H18.0464C18.1345 7.47272 18.2059 7.40105 18.2059 7.31274V5.4288H19.5748C19.6629 5.4288 19.7344 5.35713 19.7344 5.26882V4.24686C19.7344 4.15856 19.6629 4.08688 19.5748 4.08688H18.2059V3.38489H19.5748C19.6629 3.38489 19.7344 3.31322 19.7344 3.22491V2.20295C19.7344 2.11464 19.6629 2.04297 19.5748 2.04297H17.7598C17.5097 2.04297 16.8677 2.68673 16.8677 2.93758V7.3121C16.8677 7.40041 16.9392 7.47272 17.0272 7.47272Z" fill="#BB3413"/>
</g>
<defs>
<clipPath id="clip0_1365_4482">
<rect width="32" height="32" fill="white"/>
</clipPath>
</defs>
</svg>
