<svg width="40" height="41" viewBox="0 0 40 41" fill="none" xmlns="http://www.w3.org/2000/svg">
<path d="M13.0341 0.950195C13.753 0.950406 14.3484 1.5453 14.3485 2.26367V7.31934C14.3485 8.03784 13.7531 8.63358 13.0341 8.63379C12.3148 8.63379 11.7186 8.03796 11.7186 7.31934V2.26367C11.7188 1.54517 12.3149 0.950195 13.0341 0.950195Z" fill="#375000" stroke="#375000" stroke-width="0.1"/>
<path d="M26.5302 0.950195C27.2491 0.950406 27.8444 1.5453 27.8446 2.26367V7.31934C27.8446 8.03784 27.2492 8.63358 26.5302 8.63379C25.8109 8.63379 25.2147 8.03796 25.2147 7.31934V2.26367C25.2149 1.54517 25.811 0.950195 26.5302 0.950195Z" fill="#375000" stroke="#375000" stroke-width="0.1"/>
<path d="M10.9423 20.3753C11.6059 19.7128 12.7981 19.7141 13.4774 20.3743L13.4803 20.3772C13.8004 20.7147 13.9969 21.1774 13.9969 21.6429C13.9969 21.7525 13.9793 21.8785 13.9628 21.9944L13.9618 21.9964C13.9439 22.1037 13.9073 22.209 13.8563 22.3138L13.8573 22.3147C13.8204 22.4253 13.765 22.5344 13.6932 22.6419L13.6893 22.6497L13.6102 22.5872L13.6884 22.6497C13.6548 22.6916 13.6214 22.7337 13.5878 22.7757C13.5541 22.8177 13.5199 22.8596 13.4862 22.9016L13.4774 22.9124L13.4081 22.8391L13.4764 22.9124C13.1386 23.232 12.6756 23.428 12.2098 23.428C11.7443 23.4279 11.2819 23.2318 10.9442 22.9124L10.9403 22.9085C10.6206 22.5714 10.4237 22.1257 10.4237 21.6429C10.4237 21.4086 10.4777 21.1766 10.5663 20.9641C10.6551 20.7511 10.7792 20.5558 10.9384 20.3792L10.9413 20.3753H10.9423Z" fill="#375000" stroke="#375000" stroke-width="0.2"/>
<path d="M19.1042 19.9993C19.7633 19.733 20.5477 19.8743 21.0496 20.3753L21.0515 20.3772C21.3715 20.7147 21.5681 21.1774 21.5681 21.6429C21.5681 21.7525 21.5505 21.8785 21.5339 21.9944L21.533 21.9964C21.5151 22.1037 21.4785 22.209 21.4275 22.3138L21.4285 22.3147C21.392 22.4239 21.3367 22.5309 21.2664 22.637L21.2673 22.638C21.2376 22.6875 21.1992 22.7348 21.1628 22.7776C21.1244 22.8228 21.0899 22.861 21.0574 22.9016L21.0486 22.9124L20.9792 22.8391L21.0476 22.9124C20.7098 23.232 20.2467 23.428 19.781 23.428C19.5474 23.4279 19.3163 23.3735 19.1042 23.2854V23.2864C18.8708 23.1966 18.6919 23.0712 18.5173 22.9143L18.5105 22.9085V22.9075C18.1912 22.5705 17.9949 22.1253 17.9949 21.6429C17.9949 21.4086 18.0489 21.1766 18.1375 20.9641C18.2263 20.7511 18.3504 20.5558 18.5095 20.3792L18.5164 20.3714L18.5173 20.3723C18.6483 20.2546 18.7813 20.1541 18.9382 20.0735L19.1042 19.9993Z" fill="#375000" stroke="#375000" stroke-width="0.2"/>
<path d="M11.5331 27.564C11.9573 27.3882 12.4552 27.3689 12.8866 27.564C13.1176 27.6528 13.3158 27.7786 13.4784 27.941C13.6403 28.1027 13.7655 28.2993 13.8544 28.5289C13.943 28.7413 13.9969 28.9743 13.9969 29.2086C13.9969 29.4427 13.9429 29.6749 13.8544 29.8873C13.7655 30.117 13.6404 30.3133 13.4784 30.4752C13.3158 30.6375 13.1186 30.7633 12.8876 30.8521L12.8866 30.8511C12.6747 30.939 12.4433 30.9937 12.2098 30.9937C11.9763 30.9936 11.7451 30.9391 11.5331 30.8511C11.3022 30.7623 11.1047 30.6375 10.9423 30.4752C10.7803 30.3134 10.6551 30.117 10.5663 29.8873L10.5067 29.7242C10.4542 29.5584 10.4237 29.3841 10.4237 29.2086C10.4237 28.9743 10.4777 28.7413 10.5663 28.5289C10.6551 28.2993 10.7804 28.1027 10.9423 27.941C11.1048 27.7786 11.3021 27.6528 11.5331 27.564Z" fill="#375000" stroke="#375000" stroke-width="0.2"/>
<path d="M35.7875 12.8987C36.5066 12.8987 37.1027 13.4937 37.1029 14.2122C37.1029 14.9308 36.5067 15.5267 35.7875 15.5267H3.77576C3.05652 15.5267 2.46033 14.9308 2.46033 14.2122C2.46049 13.4937 3.05662 12.8987 3.77576 12.8987H35.7875Z" fill="#375000" stroke="#375000" stroke-width="0.1"/>
<path d="M31.5704 24.5238C33.8789 24.5239 36.0858 25.5238 37.6134 27.2533V27.2543C38.9201 28.7462 39.6329 30.6283 39.6329 32.5785C39.6329 34.0538 39.226 35.4956 38.462 36.7338L38.4611 36.7328C37.0349 39.141 34.388 40.634 31.5704 40.6342C29.5846 40.6342 27.6994 39.9218 26.256 38.6156V38.6146C25.6448 38.1054 25.1021 37.4614 24.6613 36.7162C23.9143 35.4949 23.507 34.0536 23.507 32.5785C23.5071 28.1355 27.123 24.5238 31.5704 24.5238ZM31.5704 27.1517C28.5784 27.1517 26.1369 29.5896 26.1368 32.5785C26.1368 33.4408 26.3421 34.2903 26.7404 35.0482L26.923 35.3666L26.924 35.3685C27.2074 35.8682 27.5743 36.2852 27.9757 36.6361L27.9767 36.6371C28.9794 37.5385 30.2331 38.0062 31.5704 38.0062C33.4927 38.0061 35.2307 37.0206 36.2169 35.3842C36.7351 34.5325 37.0031 33.5805 37.0031 32.5785C37.003 31.2766 36.5184 30.007 35.6486 28.9877C34.6122 27.8192 33.1246 27.1519 31.5704 27.1517Z" fill="#375000" stroke="#375000" stroke-width="0.1"/>
<path d="M29.9908 35.3354C30.2174 35.5621 30.5275 35.7053 30.8852 35.7055L33.2459 35.7067C33.9374 35.7071 34.5094 35.1351 34.5091 34.4435C34.5087 33.752 33.9361 33.1794 33.2446 33.1791L32.1 33.1785L32.1483 29.5062C32.1241 28.8147 31.5277 28.2659 30.8362 28.2894C30.1447 28.3129 29.5965 28.9088 29.6207 29.6003L29.6207 34.4888C29.6447 34.8226 29.7761 35.1207 29.9908 35.3354Z" fill="#375000"/>
<path d="M28.1959 3.48825C31.284 3.48825 33.7232 4.37573 35.3903 6.04099C37.0574 7.70641 37.9459 10.1433 37.9459 13.2285V28.1396C37.9459 28.6828 37.6125 29.1725 37.0865 29.3652C36.5779 29.5577 35.9994 29.4181 35.6315 28.998V28.997C34.5951 27.8288 33.1074 27.1621 31.5533 27.1621C28.5612 27.1621 26.1207 29.5998 26.1207 32.5888C26.1207 33.4509 26.3252 34.2998 26.7233 35.0576L26.9059 35.3769L26.9069 35.3789C27.1901 35.8781 27.5567 36.2948 27.9576 36.6455C28.378 36.9954 28.5355 37.5721 28.3444 38.0966L28.3453 38.0976C28.1866 38.6086 27.6937 38.9589 27.1334 38.959H11.3668C8.27859 38.959 5.83959 38.0707 4.17249 36.4052C2.5055 34.7399 1.61691 32.3036 1.61682 29.2187V13.2285C1.61682 10.1433 2.50537 7.70641 4.17249 6.04099C5.83959 4.37567 8.27868 3.48825 11.3668 3.48825H28.1959ZM11.3668 6.11618C8.96195 6.11618 7.18489 6.69988 6.00842 7.87497C4.83197 9.05023 4.2467 10.8259 4.2467 13.2285V29.2187C4.24678 31.6211 4.83204 33.3961 6.00842 34.5713C7.18489 35.7465 8.9618 36.331 11.3668 36.331H24.4362C23.8332 35.1958 23.5065 33.9169 23.5065 32.5888C23.5065 28.1458 27.1225 24.5342 31.5699 24.5341C32.8826 24.5341 34.179 24.8587 35.316 25.4609V13.2285C35.316 10.826 34.7317 9.05023 33.5553 7.87497C32.3788 6.6997 30.601 6.11618 28.1959 6.11618H11.3668Z" fill="#375000" stroke="#375000" stroke-width="0.1"/>
</svg>
