<svg width="32" height="32" viewBox="0 0 32 32" fill="none" xmlns="http://www.w3.org/2000/svg">
<g clip-path="url(#clip0_1334_3595)">
<path d="M27.9712 1.99298C27.9311 1.64602 27.773 1.48762 27.4269 1.4474C26.6097 1.35249 24.8699 1.38328 24.0778 1.44551C23.2424 1.51151 22.5218 1.95904 22.1016 2.67433C21.7943 3.19728 21.7435 3.68504 21.6902 4.20108C21.6833 4.26456 21.6771 4.3293 21.6695 4.3953H13.8012L15.6319 2.52662L15.6457 2.51028C15.7767 2.33303 15.8175 2.13629 15.7617 1.94144C15.6632 1.59511 15.2907 1.33803 15.0009 1.223C14.8097 1.14695 14.6466 1.14443 14.503 1.14192C14.3995 1.14004 14.3104 1.13878 14.2189 1.11112C14.1562 1.09227 14.0295 1.00301 13.9279 0.931356C13.8231 0.857187 13.7146 0.781132 13.6212 0.737134C12.6874 0.299033 11.6607 0.031899 10.8053 0.00424272C10.6353 -0.00141424 10.4885 -0.00141424 10.3562 0.00424272C8.19501 0.0941256 6.27402 1.201 5.08493 3.04203C3.89709 4.8818 3.66943 7.18607 4.47659 9.20686C4.52739 9.3332 4.64843 9.54817 4.77637 9.7757C4.88549 9.9693 5.04981 10.2609 5.06486 10.3257C5.06862 10.3577 5.05608 10.4049 5.04291 10.4552C5.02598 10.5193 5.00591 10.5916 5.00842 10.6733C5.01782 11.0139 5.24047 11.5363 5.58352 11.7858C5.76916 11.9209 5.97173 11.9618 6.16866 11.9033L6.19688 11.8952L6.22009 11.877C6.78955 11.437 7.29629 10.9109 7.78673 10.4024C8.09216 10.0856 8.40637 9.75999 8.73437 9.45703L10.5801 28.8648C10.5074 30.1716 10.4239 31.7913 12.5074 31.9372C13.1759 31.9843 13.8614 32.0007 14.5519 32.0007C15.423 32.0007 16.3023 31.9743 17.1653 31.9479C18.5676 31.9051 20.0182 31.8611 21.3942 31.9334H21.4086L21.4231 31.9321C21.8125 31.88 22.1493 31.8347 22.5243 31.5525C23.2537 31.0031 23.2343 30.3124 23.2149 29.6442C23.2092 29.4336 23.2029 29.2162 23.218 28.9974C23.5065 24.8622 23.9549 20.6616 24.3889 16.5993C24.7802 12.9373 25.1848 9.14967 25.4707 5.42047C25.5278 5.06471 25.4814 4.80826 25.3309 4.63541C25.0951 4.36576 24.6805 4.37707 24.2409 4.39027C24.2453 4.32616 24.2453 4.26708 24.2459 4.21491C24.2472 3.988 24.2472 3.96977 24.4761 3.95406C24.9364 3.922 25.4237 3.93709 25.8947 3.95155C26.4717 3.96914 27.0681 3.988 27.6426 3.92326L27.6827 3.91886L27.716 3.89498C27.8157 3.82395 27.9342 3.71961 27.9668 3.54487C28.0189 3.26768 28.002 2.25886 27.9712 1.99298ZM22.0276 30.3011C22.0214 30.3482 21.9129 30.5016 21.7555 30.609C21.6513 30.6801 21.5855 30.6895 21.5654 30.6845L21.5466 30.6801L12.2784 30.6813C11.7736 30.616 11.7479 30.2156 11.7661 29.5663C11.7661 29.5612 11.7661 29.5562 11.7661 29.5518H22.027V30.3011H22.0276ZM22.1775 11.4784L22.7646 5.65115H22.8881L22.3525 11.42L22.1775 11.4784ZM21.2249 8.78259C21.1314 9.73296 21.0348 10.7148 20.9132 11.6739C19.8069 11.7343 18.7269 11.5312 17.7034 11.0699C17.5472 10.9995 17.4011 10.914 17.2462 10.8241C17.0932 10.7349 16.9351 10.6425 16.767 10.5664C15.7165 10.09 14.6102 9.85176 13.4299 9.85176C12.3719 9.85176 11.2543 10.0428 10.0646 10.425L9.59671 5.65052H21.5673C21.43 6.69077 21.3258 7.75303 21.2249 8.78196V8.78259ZM12.5381 11.1082C14.4152 10.8989 15.2286 11.271 16.7049 11.9467C16.8486 12.0127 16.9984 12.0812 17.1559 12.1523C19.2067 13.0775 21.5278 13.1372 23.5673 12.3257L22.1035 28.296H11.6933L10.1492 11.7186C11.0009 11.3949 11.8037 11.1899 12.5381 11.1082ZM23.7272 10.9348L23.6181 10.992L24.0916 5.66749C24.0929 5.65932 24.0941 5.65429 24.0948 5.65115C24.1136 5.64298 24.1606 5.64298 24.2033 5.64423L23.7272 10.9341V10.9348ZM23.5366 3.01752C23.0769 3.34562 23.0336 3.90692 23.0292 4.39593H22.9038C22.9182 3.32048 23.287 2.98923 23.6125 2.82204C23.684 2.78558 24.027 2.6561 24.1023 2.63976H26.7821V2.76484H24.0929C23.9831 2.76484 23.5636 2.99929 23.5372 3.01752H23.5366ZM8.56943 7.85045L7.22354 9.14715C6.83471 8.6022 6.57882 7.96359 6.47534 7.28161H8.52114C8.52866 7.34949 8.54121 7.41549 8.55375 7.48023C8.58072 7.61977 8.60455 7.74171 8.56943 7.84982V7.85045ZM10.0175 2.53291V4.39593H9.18342C9.02475 4.27022 8.41138 3.5983 8.1486 3.29471C8.71242 2.88301 9.35275 2.62216 10.0175 2.53291ZM7.26556 4.17405C7.391 4.30919 7.56096 4.45753 7.73719 4.61152C7.97488 4.81957 8.24456 5.05528 8.30978 5.18916C8.37752 5.3287 8.38253 5.51852 8.38755 5.71966C8.39069 5.84223 8.39382 5.96794 8.41201 6.08925H6.47346C6.57569 5.36767 6.84725 4.71209 7.26556 4.17405ZM13.9799 2.41851C13.916 2.43045 13.8081 2.34497 13.6939 2.25509C13.598 2.17966 13.4895 2.09418 13.3572 2.02064C12.1054 1.32734 10.7701 1.10484 9.49574 1.377C8.34616 1.62276 7.2825 2.27143 6.50043 3.20357C5.10186 4.87112 4.54118 7.61286 6.39444 10.0259L6.25772 10.1553C6.20629 9.8593 6.05452 9.60159 5.90714 9.34955C5.82561 9.21064 5.74157 9.06733 5.67885 8.92276C5.1928 7.80834 5.06988 6.6254 5.32451 5.50155C5.56094 4.4569 6.10469 3.50402 6.89742 2.74598C7.68701 1.99109 8.65723 1.49328 9.70396 1.30597C10.0056 1.25192 10.3104 1.22489 10.6158 1.22489C11.4468 1.22489 12.2816 1.42414 13.0699 1.8151C13.1803 1.86978 13.2957 1.95024 13.4186 2.03572C13.6143 2.17212 13.8269 2.32045 14.0533 2.37828C14.0207 2.40531 13.9969 2.41474 13.9812 2.41788L13.9799 2.41851ZM12.0414 4.3953H11.2073V2.50651C11.6344 2.55176 12.8147 3.02255 13.1 3.26705C12.8517 3.55619 12.2057 4.26519 12.0414 4.3953Z" fill="#375000"/>
<path d="M14.6428 23.465C14.4359 23.7509 14.4359 23.9345 14.6428 24.2198C14.8924 24.5637 16.1863 25.8453 16.5212 26.1011C16.6824 26.2243 16.8097 26.2752 16.9257 26.2752C17.0869 26.2752 17.2261 26.1765 17.4036 26.0382C17.7391 25.7768 18.9326 24.5938 19.1559 24.2821C19.4525 23.8679 19.3152 23.629 19.0888 23.3367C18.7978 22.9615 17.7736 21.9351 17.4036 21.6466C17.2807 21.551 17.0518 21.3731 16.8272 21.4071C16.7118 21.4247 16.6303 21.4932 16.5644 21.5485C16.55 21.5604 16.5356 21.5724 16.5218 21.5837C16.1976 21.8301 14.8868 23.1293 14.6435 23.465H14.6428ZM15.9674 23.8402L16.9301 22.8848C17.1508 23.0671 17.7128 23.6416 17.8777 23.854C17.7648 24.0043 17.3942 24.3544 17.1847 24.553C17.0931 24.6397 17.0122 24.7158 16.9489 24.778L15.968 23.8408L15.9674 23.8402Z" fill="#375000"/>
<path d="M13.6187 16.8511C13.7692 16.9567 13.8953 17.0095 14.0213 17.0095C14.1474 17.0095 14.2734 16.9567 14.424 16.8511C14.6736 16.6757 15.9661 15.384 16.1524 15.1232C16.387 14.7951 16.3863 14.6197 16.1487 14.3054C15.9066 13.9861 15.5673 13.68 15.2393 13.384C14.937 13.1112 14.624 12.829 14.3976 12.5442L14.387 12.531L14.3738 12.5203C14.19 12.3714 13.9536 12.4248 13.8752 12.4418C13.7592 12.4682 13.6864 12.5279 13.6281 12.5757C13.6137 12.5876 13.5986 12.6002 13.5823 12.6121C13.2888 12.8308 12.0865 14.0345 11.8902 14.3067C11.6864 14.5895 11.6858 14.8334 11.8877 15.1232C12.052 15.3582 13.3779 16.6826 13.6187 16.8517V16.8511ZM13.1878 14.7102C13.3013 14.5732 13.588 14.2985 13.7548 14.1389C13.8677 14.0307 13.958 13.944 14.0257 13.8761L14.8561 14.7184C14.7426 14.856 14.4559 15.1301 14.2891 15.2897C14.1762 15.3978 14.0859 15.4846 14.0188 15.5518L13.1885 14.7096L13.1878 14.7102Z" fill="#375000"/>
<path d="M19.196 20.5476C19.265 20.5689 19.3246 20.5777 19.3785 20.5777C19.5259 20.5777 19.6244 20.508 19.7341 20.4307L19.741 20.4256C19.8602 20.3414 20.9426 19.2722 21.0091 19.1559C21.154 18.9045 21.1295 18.6361 20.9364 18.3571C20.8423 18.2207 19.7799 17.1465 19.5491 17.0855C19.4293 17.0541 19.3221 17.0528 19.1922 17.0824C19.0762 17.1081 19.0028 17.1685 18.9445 17.2169C18.9301 17.2288 18.915 17.2408 18.8994 17.2527C18.7131 17.3916 17.9141 18.1817 17.7698 18.3835C17.5761 18.6544 17.5184 18.8498 17.741 19.1647C17.7987 19.2465 19.0072 20.4885 19.1966 20.5469L19.196 20.5476ZM19.053 18.7945C19.1044 18.7323 19.2098 18.6361 19.2719 18.5796C19.297 18.5563 19.3196 18.5356 19.3403 18.5167L19.6438 18.8216C19.6143 18.853 19.5817 18.8894 19.5441 18.9309C19.4977 18.9825 19.4287 19.0592 19.3804 19.1069C19.2882 19.0353 19.1302 18.8819 19.053 18.7952V18.7945Z" fill="#375000"/>
</g>
<defs>
<clipPath id="clip0_1334_3595">
<rect width="32" height="32" fill="white"/>
</clipPath>
</defs>
</svg>
