<svg width="42" height="43" viewBox="0 0 42 43" fill="none" xmlns="http://www.w3.org/2000/svg">
<g clip-path="url(#clip0_859_4069)">
<path d="M22.4472 42.9993C20.7759 41.8771 19.1346 40.7119 17.6013 39.3959C15.0031 37.166 12.6554 34.7099 10.956 31.6738C9.88406 29.7599 9.21803 27.7231 9.06251 25.5066C8.79715 21.7408 11.7451 18.5207 15.4556 18.5207C17.4906 18.5207 19.1355 19.4148 20.6406 20.6922C21.0791 21.0648 21.4797 21.4777 21.8602 21.9131C22.325 22.4446 22.7503 22.4454 23.223 21.9131C24.396 20.5908 25.7298 19.4974 27.3975 18.8986C31.1837 17.5413 35.1183 19.8071 35.903 23.8171C36.2193 25.4357 35.9372 27.0246 35.4601 28.575C34.5331 31.5895 32.767 34.0743 30.6776 36.3428C28.4133 38.8007 25.8362 40.8717 23.0684 42.703C22.9418 42.7874 22.7635 42.817 22.7116 42.9993H22.4489H22.4472ZM21.9753 32.2888C21.84 32.2304 21.8505 32.1299 21.8259 32.0473C21.3181 30.3228 20.8058 28.6001 20.305 26.8738C20.189 26.4743 19.9728 26.1987 19.552 26.1853C19.1443 26.1727 18.9351 26.4447 18.7963 26.811C18.4334 27.7688 18.0486 28.7186 17.6883 29.6774C17.5969 29.9215 17.4766 30.0203 17.2095 30.0113C16.5522 29.9898 15.895 30.0023 15.2369 30.005C14.6754 30.0068 14.3345 30.2833 14.3195 30.7402C14.3046 31.2133 14.6596 31.523 15.2395 31.5266C16.1015 31.532 16.9634 31.5302 17.8254 31.5266C18.4079 31.5248 18.5969 31.3929 18.8174 30.8417C19.016 30.347 19.2093 29.8506 19.4369 29.2752C19.4984 29.4395 19.5282 29.5068 19.5485 29.5759C20.0467 31.2717 20.5457 32.9683 21.0404 34.665C21.1441 35.0214 21.3225 35.2889 21.7187 35.3212C22.1282 35.3544 22.3716 35.1345 22.5254 34.7691C22.7318 34.2763 22.9462 33.787 23.1589 33.2969C23.6861 32.0877 24.215 30.8794 24.7686 29.6118C24.86 29.8192 24.9267 29.9664 24.9891 30.1154C25.4223 31.1406 25.8581 32.1649 26.2851 33.1937C26.4117 33.4989 26.5725 33.7439 26.9266 33.7879C27.3141 33.8355 27.5548 33.6317 27.7508 33.3202C28.075 32.8058 28.422 32.3076 28.7384 31.7887C28.8631 31.5841 29.0064 31.5176 29.2366 31.5221C29.9527 31.5365 30.6688 31.5338 31.384 31.5248C31.9182 31.5176 32.2785 31.1846 32.2618 30.7366C32.246 30.3004 31.9007 30.0068 31.3814 30.0041C30.4904 29.9996 29.5986 30.0158 28.7076 29.9969C28.2964 29.9889 28.017 30.1531 27.7973 30.4952C27.6031 30.7968 27.4502 31.1361 27.1445 31.4C26.6059 30.1199 26.0804 28.8784 25.5629 27.6324C25.4126 27.2706 25.2369 26.9582 24.7941 26.9537C24.353 26.9492 24.1641 27.2464 24.0094 27.6117C23.6395 28.487 23.2555 29.3551 22.8759 30.2258C22.5763 30.9135 22.2749 31.5993 21.9744 32.2861L21.9753 32.2888Z" fill="#BB3413"/>
<path d="M0.0878906 0.716009C0.123037 0.672021 0.161698 0.629829 0.192451 0.583148C0.401573 0.270748 0.682744 0.0912069 1.05178 0.211499C1.42697 0.333587 1.59128 0.627136 1.58952 1.03739C1.58337 2.97822 1.58689 4.91906 1.58777 6.85989C1.58777 7.5601 1.78898 8.17952 2.28894 8.68043C2.933 9.32499 3.85559 9.52607 4.6745 9.16699C5.54789 8.78457 6.0417 8.09513 6.05312 7.12202C6.07684 5.16682 6.06191 3.21073 6.06191 1.25463C6.06191 1.06073 6.05488 0.86772 6.13835 0.683691C6.28772 0.354234 6.52496 0.152251 6.89136 0.190852C7.24634 0.228556 7.48446 0.435027 7.55036 0.803983C7.58199 0.978138 7.58726 1.15947 7.58814 1.33812C7.59078 3.18918 7.59429 5.04114 7.58814 6.89221C7.58551 7.83659 7.94663 8.5754 8.75412 9.0476C10.1459 9.86181 11.9604 8.90217 12.0192 7.26565C12.0878 5.35714 12.0447 3.44413 12.0509 1.53382C12.0509 1.35428 12.043 1.17474 12.0588 0.99699C12.1027 0.498764 12.4085 0.18008 12.8258 0.18367C13.2564 0.187261 13.5745 0.536468 13.5753 1.05355C13.5797 4.3535 13.6017 7.65346 13.5666 10.9525C13.5446 13.0226 11.9674 14.6125 9.94998 14.7004C9.7022 14.7112 9.45354 14.7022 9.20488 14.7112C8.59772 14.7328 8.32973 15.0101 8.32797 15.634C8.32446 17.4707 8.32358 19.3066 8.32973 21.1433C8.33061 21.4458 8.28228 21.7223 8.16806 22.0077C7.38253 23.9683 7.43877 25.9873 7.94751 27.9811C8.23923 29.1238 8.34115 30.2522 8.33412 31.4184C8.31392 34.5684 8.30074 37.7193 8.34291 40.8694C8.35609 41.856 8.08195 42.575 7.19011 42.9996H6.48894C5.61643 42.6675 5.31768 42.022 5.32032 41.083C5.3414 32.782 5.33262 24.4809 5.33262 16.179C5.33262 14.8117 5.25442 14.7247 3.93115 14.7094C2.27576 14.6906 1.09659 13.9123 0.392786 12.3897C0.257472 12.098 0.188058 11.7748 0.0887693 11.466C0.0887693 7.88238 0.0887693 4.29964 0.0887693 0.716009H0.0878906Z" fill="#BB3413"/>
<path d="M37.8792 42.9994C37.0119 42.6287 36.7211 41.959 36.7325 41.0128C36.7685 38.0432 36.7589 35.0727 36.7404 32.1031C36.7307 30.5967 36.8116 29.1254 37.1938 27.6442C37.7008 25.6791 37.6533 23.6844 36.8195 21.7768C36.7501 21.6188 36.7457 21.4608 36.7457 21.2974C36.7457 14.4022 36.7483 7.50692 36.7395 0.611654C36.7395 0.259754 36.7923 0.160109 37.171 0.243595C40.0002 0.864806 41.9878 3.29848 41.9939 6.23936C42.0053 11.8356 41.9983 17.4328 41.9966 23.0291C41.9966 23.9502 41.4729 24.5373 40.5793 24.6396C40.0046 24.7051 39.7823 24.9466 39.7595 25.5346C39.7542 25.6684 39.7577 25.803 39.7577 25.9377C39.7577 30.937 39.7437 35.9372 39.7692 40.9365C39.7744 41.9096 39.4766 42.6116 38.5803 42.9985H37.8792V42.9994Z" fill="#BB3413"/>
</g>
<defs>
<clipPath id="clip0_859_4069">
<rect width="42" height="43" fill="white"/>
</clipPath>
</defs>
</svg>
