<svg width="32" height="32" viewBox="0 0 32 32" fill="none" xmlns="http://www.w3.org/2000/svg">
<path d="M11.2142 2C11.2884 2 11.3626 2 11.4369 2C11.4876 2.01699 11.5373 2.04329 11.5898 2.04931C12.9787 2.21972 14.3682 2.38575 15.7571 2.5567C19.5467 3.02354 23.3351 3.49696 27.1264 3.94955C27.4406 3.98681 27.4858 4.09201 27.4852 4.36598C27.4779 11.4552 27.4791 18.5443 27.4791 25.6335V26.0045H28.8178V27.9573C25.8412 28.0773 22.9356 28.5913 20.0098 28.9206C17.078 29.2504 14.1522 29.6356 11.1969 30V29.6077C11.1969 20.5229 11.1969 11.4382 11.1975 2.35397C11.1975 2.23616 11.2081 2.11781 11.2136 2L11.2142 2ZM14.2688 14.0129V17.9865H16.2688V14.0129H14.2688Z" fill="#313036"/>
<path d="M3.36365 26.0071H4.74867V4.01797H9.13367V5.99383H6.79552V25.9967H9.14092V27.9748C9.06949 27.9824 8.99918 27.9967 8.92943 27.9967C7.15713 27.9978 5.38483 27.9978 3.61253 27.9967C3.52938 27.9967 3.44679 27.9835 3.36365 27.9764C3.36365 27.32 3.36365 26.6641 3.36365 26.0077L3.36365 26.0071Z" fill="#313036"/>
</svg>
