<svg width="32" height="32" viewBox="0 0 32 32" fill="none" xmlns="http://www.w3.org/2000/svg">
<g clip-path="url(#clip0_1931_4864)">
<path d="M11.259 31.9994H6.38618C6.08323 31.8053 5.8072 31.6131 5.76025 31.2199L5.79092 19.5004C5.87855 19.1642 6.28416 18.9275 6.61027 18.8831C7.98355 18.6959 9.78623 18.9889 11.1996 18.9056C11.5708 18.9839 11.9407 19.3902 11.9488 19.7809C11.9025 23.6544 12.0264 27.5492 11.8862 31.4096C11.7711 31.7233 11.5326 31.8504 11.2584 32L11.259 31.9994Z" fill="#BB3413"/>
<path d="M31.9998 7.38074V7.94296C31.5021 8.75686 30.7679 9.40046 30.2033 10.1687C30.2115 10.9863 30.4725 11.988 30.3767 12.7869C30.3091 13.3504 29.7164 13.6816 29.1843 13.5388L26.8565 12.5828C26.1235 12.7919 25.3161 13.3228 24.5994 13.5069C23.7156 13.7348 23.2136 13.1482 23.3169 12.286L23.4903 10.1111C22.9282 9.19386 20.7287 7.8359 22.239 6.83418L24.8135 6.15989C25.5258 5.32033 26.0947 2.85296 27.5632 3.97489L28.939 6.16052C29.8916 6.62319 31.4239 6.3809 31.9991 7.38012L31.9998 7.38074Z" fill="#BB3413"/>
<path d="M4.93283 3.7084C6.13149 3.48739 6.57402 5.4827 7.23562 6.18703C7.87845 6.46626 9.63419 6.55767 10.0623 7.04601C10.349 7.37282 10.3815 7.76913 10.1881 8.15166L8.52379 10.1107L8.69279 12.7796C8.17264 14.5013 6.21098 12.8072 5.15754 12.5818L2.82971 13.5378C2.29767 13.6812 1.70492 13.3493 1.63731 12.7859C1.54217 11.9914 1.79505 10.9796 1.8107 10.1676C1.7794 10.0005 0.479346 8.64376 0.265278 8.34637C-0.0232755 7.94568 -0.12405 7.51807 0.201433 7.0986C0.662117 6.50508 2.43976 6.53826 3.10762 6.13131C3.59898 5.56471 3.94825 4.53983 4.42207 4.00954C4.5435 3.87368 4.75256 3.74095 4.93221 3.70777L4.93283 3.7084Z" fill="#BB3413"/>
<path d="M15.7401 0.0222926C15.9948 -0.0302978 16.3053 0.0103972 16.5288 0.141873C17.0395 0.44239 17.6204 2.02949 18.1067 2.49968C18.7971 2.80144 20.218 2.82899 20.7857 3.25723C21.9944 4.16879 19.8431 5.64633 19.393 6.42517C19.3749 7.29354 19.5213 8.16191 19.5639 9.02965C19.0412 10.8415 17.1278 9.15111 16.0274 8.89504L13.6495 9.86546C13.0905 10.0182 12.4702 9.5374 12.4427 8.97205C12.4152 8.4067 12.6086 7.58028 12.6324 6.97424C12.6392 6.79205 12.6455 6.60611 12.6205 6.42517C12.1892 5.79471 11.4907 5.21935 11.0713 4.60016C10.8672 4.29902 10.814 4.00288 10.9248 3.64226C11.1733 2.83525 13.2633 2.84089 13.9418 2.47338C14.4294 1.8711 14.7574 0.972676 15.23 0.387295C15.3514 0.237037 15.5461 0.0629876 15.7395 0.0229187L15.7401 0.0222926Z" fill="#BB3413"/>
<path d="M19.7555 19.5022H24.7222C26.2457 19.5022 27.1684 21.1425 27.0569 22.5249C26.8779 24.7406 26.1105 27.2292 25.8013 29.4549C25.345 30.6902 24.219 31.5585 22.9026 31.6794C20.6011 31.8903 17.889 31.6117 15.568 31.5961C14.8964 31.4527 14.3136 31.1297 13.8311 30.6463V20.1063C14.1021 19.8753 14.4376 19.7883 14.7255 19.5635C16.2002 18.4128 16.3223 15.3181 17.1504 13.6784C17.7882 12.4162 19.3774 13.1312 20.0672 13.9739C21.5062 15.7326 20.2061 17.6415 19.7561 19.5028L19.7555 19.5022Z" fill="#BB3413"/>
</g>
<defs>
<clipPath id="clip0_1931_4864">
<rect width="32" height="32" fill="white"/>
</clipPath>
</defs>
</svg>
