<svg width="32" height="32" viewBox="0 0 32 32" fill="none" xmlns="http://www.w3.org/2000/svg">
<g clip-path="url(#clip0_1332_3533)">
<path d="M31.2196 17.2293C31.2075 17.0405 31.1086 16.0662 30.9873 15.7976C30.9243 15.6586 30.7781 15.5249 30.6371 15.3952C30.5597 15.3246 30.4799 15.2516 30.4337 15.1943C30.1627 14.8579 29.935 14.4683 29.824 14.1522C29.7466 13.9316 29.7061 13.7145 29.6697 13.5235C29.5565 12.922 29.4496 12.3546 28.2412 12.5196C27.8286 12.5764 26.8902 12.9666 26.6399 13.3741C26.477 13.6399 26.4545 14.0579 26.4308 14.5007C26.4088 14.9048 26.3845 15.3628 26.2343 15.4919C26.1973 15.5237 26.1401 15.548 26.08 15.5741C26.0112 15.6036 25.9332 15.6372 25.8656 15.691C25.7419 15.79 25.5986 16.1322 25.2583 17.0475C25.1606 17.3103 25.0681 17.5581 25.0173 17.6687C24.93 17.858 24.8214 18.0768 24.7364 18.2326C24.5798 17.9246 24.3995 17.6438 24.2239 17.3699C23.7887 16.6914 23.3773 16.05 23.4351 15.1428C23.4524 14.8724 23.4975 14.6026 23.546 14.3172C23.5963 14.0202 23.6483 13.7128 23.6645 13.4066C23.7159 12.4461 23.6645 11.0485 23.1247 9.84321C22.6029 8.67781 21.743 7.9333 20.5665 7.62936C20.6549 6.95953 21.056 6.29607 21.5951 5.94524C21.6795 5.89024 21.7927 5.84103 21.9129 5.78893C22.2793 5.62972 22.7809 5.41204 22.6711 4.83021C22.6093 4.50427 22.4278 4.36185 22.2868 4.29933C21.787 4.07933 21.03 4.50948 20.8098 4.64669C19.884 5.22331 19.2414 6.25092 19.0692 7.41631C17.8453 7.44757 16.8196 7.9553 16.0192 8.92791C15.3506 9.73958 14.8507 10.8795 14.5734 12.2238C14.5127 12.5185 14.4792 12.8195 14.4474 13.1107C14.3711 13.806 14.2989 14.4631 13.8713 14.9928C13.5829 15.35 13.2298 15.6656 12.8559 16.0002C12.2989 16.4981 11.7239 17.0122 11.3563 17.6907C10.7715 17.4851 10.1636 17.363 9.57361 17.2449L9.56321 17.2426C9.70189 16.626 10.0249 16.1079 10.4843 15.7709C10.5745 15.7043 10.738 15.6302 10.8958 15.5585C11.1841 15.4276 11.4326 15.3147 11.5251 15.1509C11.6996 14.8423 11.6378 14.4203 11.3841 14.1899C10.9593 13.8037 10.4294 14.0781 10.1128 14.242C10.0781 14.2599 10.0371 14.2813 10.0007 14.2987C9.57939 12.9585 8.50165 11.95 7.21646 11.7097C6.78594 11.6292 5.70359 11.5823 5.29156 11.9673C4.76454 12.46 4.98298 13.8685 5.07024 14.2188C5.40309 15.5515 6.68539 16.6353 8.10407 16.8147C8.09656 16.853 8.08905 16.8929 8.08154 16.9346C8.06536 17.0214 8.0382 17.1696 8.01277 17.2455C5.44932 17.4967 3.24184 19.0344 2.0965 21.3704C0.950576 23.7075 1.10256 26.4071 2.50217 28.5932C3.56834 30.2576 5.21355 31.4027 7.13556 31.8184C9.10264 32.2439 11.1333 31.8746 12.8646 30.7781C14.0255 31.2476 14.9449 31.5382 15.8349 31.7183C16.7647 31.9064 17.6835 32.0002 18.5827 32.0002C20.6694 32.0002 22.6503 31.4971 24.4169 30.5066C26.8844 29.1223 28.8376 26.8488 30.065 23.9316C30.7394 22.3285 31.1393 20.737 31.2219 19.3291C31.26 18.6731 31.26 17.829 31.2219 17.2281L31.2196 17.2293ZM8.61549 15.3332C8.56522 15.3373 8.46698 15.3298 8.43057 15.3269C7.27251 15.2366 6.45251 14.3276 6.46985 13.1848C6.97491 13.1675 7.46379 13.3348 7.85732 13.6648C8.30113 14.037 8.56926 14.5627 8.61145 15.1457C8.61896 15.2499 8.61838 15.3049 8.61549 15.3338V15.3332ZM22.952 18.1926C23.2877 18.7223 23.605 19.2237 23.7922 19.7598C21.9482 22.3963 19.1519 24.3507 16.0776 25.1572C16.1914 23.8581 15.9343 22.545 15.3292 21.3438C14.7346 20.1639 13.8331 19.1397 12.7161 18.3738C13.0466 17.8672 13.5274 17.4261 13.9932 16.9988C14.7259 16.3273 15.4841 15.6326 15.7407 14.6379C15.8771 14.11 15.9504 13.5982 16.0209 13.1038C16.1712 12.0547 16.3133 11.0642 17.0328 10.0684C17.654 9.20869 18.6491 8.7907 19.6956 8.94991C20.7329 9.10854 21.5523 9.79805 21.8869 10.7944C22.2834 11.9754 22.1556 12.8809 22.021 13.8402C21.9517 14.334 21.8794 14.844 21.8719 15.4178C21.858 16.4656 22.414 17.3439 22.952 18.1926ZM14.511 25.4461L13.7863 25.4883C13.947 24.584 13.8568 23.5599 13.5436 22.8195C13.4032 22.4877 13.1634 22.2533 12.9022 22.193C12.7542 22.1589 12.5271 22.1629 12.2833 22.3754C11.8943 22.7147 12.0521 23.1906 12.1792 23.5726C12.2203 23.6954 12.2584 23.8112 12.2781 23.9154C12.3838 24.4694 12.3688 24.9719 12.2289 25.4849C11.8464 25.4461 11.4309 25.3911 10.9339 25.3123C10.7311 25.2805 10.5595 25.2348 10.4075 25.1948C9.89837 25.0611 9.53027 24.9638 8.87265 25.5468C8.56868 25.816 7.60941 26.9687 7.97521 27.6055C8.18786 27.976 9.46843 28.8618 9.85561 29.1246C10.0515 29.2578 10.2902 29.3909 10.5202 29.52C10.7669 29.6584 11.0212 29.8008 11.2177 29.9398C10.9738 30.0359 10.5658 30.1852 10.4635 30.2165C8.94777 30.6727 7.46321 30.5743 6.16993 29.9317C5.0084 29.3551 4.04509 28.3558 3.45681 27.1175C2.37908 24.8486 2.56284 21.6946 5.40194 19.7627C6.4161 19.0726 7.56029 18.727 8.70506 18.727C9.84983 18.727 10.8831 19.0396 11.8603 19.6672C13.8343 20.9339 14.8409 23.1384 14.5098 25.4449L14.511 25.4461ZM9.929 26.6613C10.1382 26.6943 10.3514 26.7383 10.5577 26.7811C10.849 26.8413 11.1506 26.9038 11.4534 26.9386C14.6774 27.3079 17.8366 26.5906 20.589 24.8654C23.2484 23.1987 25.3478 20.7197 26.6596 17.6965C26.7012 17.6004 26.7486 17.4493 26.7983 17.2895C26.8491 17.1274 26.9237 16.8865 26.967 16.813C26.9861 16.7985 27.0283 16.7719 27.0601 16.7511C27.1704 16.6804 27.3074 16.593 27.3987 16.4905C27.8448 15.9892 27.8928 15.3292 27.9396 14.6912C27.9517 14.5216 27.9639 14.3601 27.9829 14.2043L28.2557 14.1163C28.3828 14.7584 28.6833 15.4189 29.0976 15.9556C29.1647 16.043 29.2491 16.1189 29.3305 16.193C29.4068 16.2619 29.479 16.3273 29.5195 16.3858C29.6882 16.6324 29.7518 18.078 29.7223 18.7669C29.5611 22.5398 27.9043 25.9567 25.1774 28.1422C22.7301 30.103 19.6182 30.8643 16.4145 30.2842C14.2278 29.8888 11.9885 28.8329 9.57187 27.0584C9.65855 26.9287 9.84174 26.7174 9.929 26.6613Z" fill="#375000"/>
<path d="M18.0238 29.4717C18.1394 29.4925 18.27 29.5024 18.4127 29.5024C19.4275 29.5024 21.034 29.0172 21.7713 28.6918L21.843 28.6606C22.2013 28.5043 22.6913 28.2901 22.8213 27.8981C22.8814 27.7163 22.8548 27.5236 22.7427 27.3267C22.3752 26.6829 21.5916 27.0592 21.0727 27.3082C20.9328 27.3753 20.8005 27.439 20.6948 27.4767C20.1446 27.6723 19.5991 27.8055 18.8704 27.9219C18.7918 27.9346 18.6757 27.9421 18.552 27.9496C18.114 27.9774 17.7909 28.0093 17.6234 28.1656C17.4124 28.3613 17.3356 28.6449 17.4165 28.924C17.4997 29.2094 17.732 29.4196 18.0232 29.4722L18.0238 29.4717Z" fill="#375000"/>
<path d="M23.4444 27.61C23.4669 27.61 23.4895 27.6094 23.5131 27.6077C23.8027 27.5862 24.0321 27.4299 24.143 27.1793C24.2621 26.9095 24.2222 26.5743 24.0436 26.3456C23.8789 26.1343 23.6195 26.0422 23.3323 26.0926C22.8752 26.1731 22.6758 26.6003 22.7209 26.9616C22.7608 27.2817 23.0029 27.61 23.4444 27.61Z" fill="#375000"/>
<path d="M20.3198 9.85124C20.0222 9.7065 19.7061 9.71287 19.4743 9.86861C19.2559 10.0157 19.1421 10.275 19.1611 10.5807C19.1808 10.891 19.3616 11.0242 19.5067 11.1313C19.5893 11.1921 19.6673 11.2494 19.7217 11.3391C20.0713 11.9163 19.958 12.8843 19.8667 13.6618C19.8395 13.8951 19.8135 14.1151 19.8008 14.3119C19.7991 14.3362 19.7974 14.36 19.7956 14.3843C19.7783 14.6251 19.7586 14.8978 19.9522 15.13C20.088 15.2926 20.2932 15.3922 20.5157 15.4026C20.5289 15.4032 20.5422 15.4038 20.5555 15.4038C20.7491 15.4038 20.9259 15.3343 21.0554 15.2064C21.3761 14.8891 21.4715 13.3075 21.472 13.2918C21.5292 12.244 21.4559 10.4035 20.3198 9.85124Z" fill="#375000"/>
<path d="M11.6123 20.7812C11.1789 20.8814 11.0281 21.3161 11.1061 21.6739C11.1726 21.9796 11.4199 22.2696 11.8204 22.2696C11.8793 22.2696 11.9417 22.2633 12.0076 22.25C12.2717 22.1955 12.4693 22.0207 12.5502 21.7706C12.6375 21.5002 12.5722 21.1934 12.3844 20.9879C12.1966 20.7829 11.9226 20.7094 11.6129 20.7812H11.6123Z" fill="#375000"/>
<path d="M5.3968 0C5.42557 0.0261068 5.45271 0.0435114 5.47714 0.0761449C5.69647 0.375829 6.09876 1.09594 6.26163 1.43914C6.33655 1.59687 6.32895 1.69477 6.13676 1.7323C5.62644 1.69586 5.05531 1.77853 4.55205 1.73284C4.42067 1.72087 4.34086 1.66213 4.36421 1.5229L5.19158 0.0761449L5.27193 0H5.3968Z" fill="#375000"/>
<path d="M10.6667 5.27916V5.40425C10.6406 5.43308 10.6232 5.46027 10.5906 5.48475C10.2915 5.70448 9.57272 6.10751 9.23015 6.27067C9.07271 6.34573 8.97499 6.33812 8.93753 6.14558C8.97391 5.63432 8.89139 5.06215 8.93699 4.55796C8.94893 4.42634 9.00757 4.34638 9.14655 4.36977L10.5906 5.19866L10.6667 5.27916Z" fill="#375000"/>
<path d="M5.14271 2.4053C7.53633 2.23289 9.11236 4.94092 7.78824 6.95441C6.62807 8.7188 4.04009 8.71771 2.88047 6.95441C1.63887 5.06602 2.91901 2.5652 5.14271 2.4053Z" fill="#375000"/>
<path d="M6.26596 8.99915C6.29962 9.03287 6.32948 9.13132 6.29745 9.17483L5.46899 10.6199C5.28387 10.7815 5.21221 10.6319 5.12263 10.4889C4.85552 10.063 4.63348 9.6045 4.3718 9.17483C4.32566 9.03178 4.41904 8.96217 4.55259 8.9502C5.05531 8.90451 5.62698 8.98719 6.1373 8.95074C6.1715 8.95455 6.24316 8.97576 6.26651 8.99915H6.26596Z" fill="#375000"/>
<path d="M1.68338 4.40908C1.70619 4.43193 1.72736 4.50372 1.7317 4.53853C1.69533 5.04979 1.77785 5.62196 1.73224 6.12615C1.7203 6.25995 1.65081 6.3535 1.50803 6.30726L0.0785861 5.4849C-0.0251068 5.41909 -0.0272784 5.2668 0.0785861 5.19881L1.50803 4.37699C1.55146 4.3449 1.64972 4.37482 1.68338 4.40854V4.40908Z" fill="#375000"/>
<path d="M1.64211 1.65241C1.6736 1.64534 1.70454 1.6448 1.73603 1.65296C2.20237 1.8357 2.82616 1.88411 3.27731 2.07121C3.40163 2.12288 3.43095 2.20011 3.37774 2.32793L2.21052 3.49566C2.12528 3.58377 1.99553 3.55712 1.94939 3.44345C1.83429 3.00072 1.69042 2.5618 1.58673 2.1169C1.5547 1.98038 1.43418 1.69864 1.64211 1.65296V1.65241Z" fill="#375000"/>
<path d="M8.9327 1.65315C9.1086 1.63575 9.16072 1.71896 9.14063 1.88322C9.082 2.36238 8.81272 2.94 8.72477 3.42787C8.68623 3.55133 8.54996 3.5894 8.45821 3.49586L7.29099 2.32812C7.24104 2.21825 7.26438 2.12416 7.37514 2.0763C7.82248 1.88539 8.46744 1.84079 8.93216 1.65315H8.9327Z" fill="#375000"/>
<path d="M2.05856 7.41089C2.11339 7.39947 2.15845 7.41144 2.19971 7.44896L3.36748 8.61616C3.45651 8.7951 3.36422 8.84948 3.21004 8.89898C2.72089 9.05671 2.20514 9.14264 1.71545 9.302C1.54118 9.31342 1.50426 9.20628 1.52815 9.05018C1.60199 8.56503 1.85552 8.0157 1.93858 7.52076C1.95595 7.47289 2.0097 7.42122 2.0591 7.41089H2.05856Z" fill="#375000"/>
<path d="M8.53632 7.41046C8.61613 7.3936 8.68779 7.43548 8.72362 7.50619L9.14056 9.04975C9.17802 9.19334 9.11233 9.32387 8.95327 9.30157L7.37941 8.87408C7.27301 8.84851 7.24043 8.71471 7.29092 8.6266L8.45815 7.45887C8.48041 7.4382 8.50646 7.41699 8.53632 7.41046Z" fill="#375000"/>
</g>
<defs>
<clipPath id="clip0_1332_3533">
<rect width="32" height="32" fill="white"/>
</clipPath>
</defs>
</svg>
