<svg width="36" height="30" viewBox="0 0 36 30" fill="none" xmlns="http://www.w3.org/2000/svg">
<circle cx="15" cy="9" r="6" fill="#BB3413" stroke="#BB3413" stroke-width="1.5"/>
<path d="M3 24.2492C3 23.122 3.5263 22.0566 4.51943 21.5236C6.42943 20.4985 10.0654 19 15 19C19.9346 19 23.5706 20.4985 25.4806 21.5236C26.4737 22.0566 27 23.122 27 24.2492C27 25.526 26.3243 26.7064 25.1373 27.1768C23.1519 27.9636 19.6534 29 15 29C10.3466 29 6.84809 27.9636 4.86274 27.1768C3.67569 26.7064 3 25.526 3 24.2492Z" stroke="#BB3413" stroke-width="1.5"/>
<path d="M30.002 7.5C30.1326 7.5 30.2559 7.55173 30.3477 7.64551L30.3564 7.6543C30.4485 7.74433 30.502 7.87118 30.502 8.00391V12.501H35C35.1337 12.501 35.2631 12.5551 35.3545 12.6465C35.4491 12.7411 35.5 12.8649 35.5 13C35.5 13.104 35.4702 13.2003 35.418 13.2783L35.3584 13.3496L35.3506 13.3584C35.2605 13.4505 35.133 13.5039 35 13.5039H30.502V18.001C30.5019 18.1337 30.4486 18.2606 30.3564 18.3506L30.3516 18.3545C30.2585 18.4474 30.1332 18.5 30.002 18.5C29.8684 18.4999 29.7398 18.4457 29.6484 18.3545L29.6436 18.3506L29.582 18.2764C29.5282 18.1966 29.4981 18.1005 29.498 18.001V13.5039H25C24.867 13.5039 24.7395 13.4505 24.6494 13.3584L24.6455 13.3535L24.584 13.2783C24.5304 13.1973 24.5 13.0999 24.5 13C24.5 12.8717 24.5505 12.7458 24.6455 12.6465C24.7369 12.5551 24.8663 12.501 25 12.501H29.498V8.00391C29.498 7.87118 29.5515 7.74433 29.6436 7.6543L29.6523 7.64551C29.7424 7.55348 29.8691 7.50007 30.002 7.5Z" fill="#375000" stroke="#BB3413"/>
</svg>
