<svg width="196" height="175" viewBox="0 0 196 175" fill="none" xmlns="http://www.w3.org/2000/svg">
<g clip-path="url(#clip0_859_3824)">
<path d="M123.967 26.6823C123.933 30.5772 123.35 34.4313 123.127 38.3112C122.947 41.4443 122.759 44.5838 122.407 47.7019C122 51.2835 121.958 54.8886 121.516 58.4702C121.216 60.9037 121.207 63.3802 120.995 65.8351C120.661 69.6721 120.472 73.5219 120.098 77.3524C119.651 81.9319 119.445 86.5285 118.948 91.1037C118.69 93.4728 118.654 95.8741 118.448 98.2583C118.108 102.166 117.887 106.085 117.555 109.992C117.019 116.325 114.272 121.422 109.108 125.134C105.575 127.675 101.614 128.86 97.3027 128.731C91.7199 128.566 87.0044 126.362 83.2329 122.216C80.9155 119.668 79.4231 116.688 78.6173 113.276C77.937 110.391 78.0242 107.469 77.7117 104.572C77.1653 99.5051 76.8357 94.4127 76.4446 89.3268C76.2128 86.3032 76.0598 83.2774 75.7813 80.2559C75.3114 75.1421 74.9308 70.0197 74.5397 64.8995C74.3079 61.878 74.14 58.8501 73.8636 55.8307C73.398 50.7169 73.0387 45.5924 72.622 40.4722C72.3797 37.485 72.3074 34.4871 71.9396 31.5085C71.6866 29.4484 71.6228 27.3776 71.6823 25.3046C71.8333 20.1522 73.4682 15.4933 76.3553 11.2765C79.304 6.96961 83.2541 3.87944 88.0057 1.85581C90.6186 0.74421 93.3824 0.156219 96.2206 0.0296085C105.809 -0.397435 113.456 3.38373 119.158 11.0963C121.292 13.9826 122.672 17.268 123.397 20.856C123.791 22.8003 123.967 24.7188 123.967 26.6801V26.6823ZM98.1871 47.9272C95.164 48.1074 92.5596 49.3006 90.3741 51.4208C89.7512 52.026 89.6491 52.7899 90.1083 53.5753C90.5314 54.2985 91.2011 54.4037 91.9473 54.305C92.4512 54.2384 92.7148 53.82 93.0486 53.5217C95.1215 51.6805 97.4409 50.8736 100.169 51.7384C101.47 52.1504 102.499 53.0131 103.543 53.8543C104.372 54.5217 105.18 54.4208 105.875 53.6333C106.336 53.1118 106.296 51.9594 105.722 51.3843C103.64 49.3135 101.155 48.1203 98.1893 47.9272H98.1871ZM91.7645 38.6932C91.7688 36.4635 90.0297 34.7081 87.825 34.7189C85.7012 34.7296 83.8303 36.6266 83.8643 38.7339C83.8983 40.8155 85.7649 42.6846 87.8208 42.6975C89.9489 42.7104 91.7603 40.8713 91.7645 38.6932ZM111.572 38.6739C111.566 36.4421 109.806 34.6824 107.616 34.7189C105.524 34.7532 103.704 36.573 103.679 38.6567C103.653 40.7511 105.571 42.6975 107.654 42.6954C109.793 42.6954 111.581 40.8584 111.575 38.6739H111.572Z" fill="#F0611F"/>
<path d="M186.745 60.1399C184.522 60.4875 182.708 59.3266 180.818 58.4939C176.828 56.7364 172.814 55.0433 168.704 53.5862C165.858 52.5776 163.038 51.4896 160.168 50.5539C157.63 49.7256 155.049 49.0325 152.474 48.3307C149.57 47.5389 146.664 46.7406 143.73 46.0646C140.99 45.4337 138.222 44.9315 135.456 44.423C133.034 43.9766 130.604 43.5753 128.17 43.2126C127.468 43.1075 127.292 42.8092 127.375 42.1525C127.779 38.8971 127.908 35.616 128.321 32.3584C128.589 30.2404 128.608 28.0901 128.872 25.9635C128.982 25.0622 129.063 24.4656 130.334 24.6716C132.873 25.0837 135.413 25.4957 137.95 25.9206C140.735 26.3884 143.496 26.9571 146.249 27.5558C149.234 28.2039 152.19 29 155.151 29.749C159.105 30.7468 162.985 31.9829 166.876 33.1739C171.426 34.5645 175.871 36.2941 180.295 38.0688C183.584 39.3886 186.837 40.792 190.092 42.189C194.724 44.1783 197.116 49.378 195.492 53.8372C194.401 56.8308 192.437 58.7386 189.571 59.8545C188.648 60.215 187.685 60.0884 186.745 60.1377V60.1399Z" fill="#F0611F"/>
<path d="M9.13331 60.1164C4.96636 60.2709 1.41382 57.3031 0.386958 53.5584C-0.905648 48.8373 1.06728 44.2986 5.82313 42.1827C9.80088 40.4144 13.8126 38.7277 17.8924 37.2256C21.9828 35.7213 26.0839 34.232 30.2891 33.0581C32.7574 32.3693 35.1704 31.4594 37.6536 30.8328C40.7533 30.0517 43.8445 29.2319 46.9654 28.5259C49.5719 27.9357 52.1826 27.3542 54.8019 26.8327C57.6996 26.2576 60.5995 25.6525 63.544 25.337C64.4539 25.2404 65.3617 25.0709 66.2482 24.8413C66.8988 24.6718 67.1454 24.9615 67.1475 25.5044C67.156 27.9379 67.6238 30.3263 67.8194 32.7405C68.0787 35.9702 68.3679 39.1998 68.6634 42.4273C68.7144 42.9917 68.6953 43.2922 67.9767 43.4231C65.4467 43.8909 62.8977 44.2407 60.3677 44.6978C57.7421 45.1742 55.1399 45.7879 52.5377 46.3866C49.5251 47.0798 46.4956 47.7214 43.5256 48.5712C39.6754 49.6742 35.8252 50.7772 32.0239 52.0541C28.1546 53.3545 24.2981 54.6786 20.5138 56.2108C17.7797 57.3181 15.0478 58.4297 12.3414 59.6035C11.2955 60.0563 10.2303 60.1121 9.13544 60.11L9.13331 60.1164Z" fill="#F0611F"/>
<path d="M116.281 156.386C116.103 166.76 108.186 175.009 97.8043 174.998C87.4784 174.99 79.4081 166.82 79.389 156.371C79.3698 146.221 87.4188 137.789 97.8617 137.807C108.198 137.824 116.158 146.234 116.281 156.388V156.386Z" fill="#F0611F"/>
<path d="M166.091 80.4321C166.291 84.9815 161.206 89.4751 155.642 88.7841C153.708 88.5438 151.99 87.5223 150.197 86.797C147.565 85.7283 144.889 84.7862 142.214 83.8334C139.729 82.9471 137.197 82.2239 134.678 81.4686C132.388 80.784 130.026 80.3484 127.694 79.8162C126.699 79.5887 125.702 79.3569 124.694 79.2024C124.09 79.1102 123.931 78.8119 123.982 78.2604C124.082 77.196 124.148 76.1273 124.25 75.0629C124.664 70.7002 125.094 66.3375 125.498 61.9726C125.64 60.4426 125.606 60.5177 127.154 60.7151C129.85 61.0563 132.482 61.7087 135.105 62.3546C139.812 63.5134 144.459 64.889 149.049 66.4834C153.136 67.9019 157.22 69.3418 161.097 71.2388C164.389 72.8483 166.06 75.7367 166.087 80.4364L166.091 80.4321Z" fill="#F0611F"/>
<path d="M120.706 113.521C121.127 109.373 121.554 105.225 121.962 101.075C122.066 100.01 122.06 98.9329 122.196 97.875C122.351 96.6668 122.555 96.5488 123.797 96.9072C125.353 97.3578 126.914 97.8106 128.432 98.3707C130.271 99.0488 132.169 99.5724 133.859 100.654C137.086 102.721 138.632 107.238 137.482 110.965C136.553 113.978 134.648 115.983 131.823 117.109C129.907 117.871 127.889 117.963 125.916 117.283C124.49 116.792 123.1 116.204 121.641 115.8C120.897 115.594 120.434 115.167 120.748 114.276C120.827 114.055 120.761 113.781 120.761 113.53L120.706 113.523V113.521Z" fill="#F0611F"/>
<path d="M67.5068 117.774C62.6382 117.518 58.4713 113.926 58.2183 108.902C57.9844 104.231 61.0714 100.516 65.0278 99.3079C67.443 98.5697 69.8496 97.7757 72.2584 97.001C73.551 96.5869 73.6636 96.6341 73.8103 97.9324C74.1059 100.585 74.3376 103.246 74.5885 105.905C74.8606 108.776 75.12 111.649 75.4006 114.518C75.4474 115.001 75.5239 115.405 74.9074 115.615C72.4242 116.46 69.9899 117.478 67.5046 117.774H67.5068Z" fill="#F0611F"/>
<path d="M72.0395 78.4473C71.7823 76.7155 71.7716 74.958 71.5505 73.2327C71.0722 69.4837 70.9871 65.7004 70.4216 61.96C70.2303 60.6939 70.1941 60.4922 68.9759 60.8248C66.8308 61.4106 64.6134 61.6231 62.4661 62.1853C59.4089 62.9836 56.3348 63.7068 53.2988 64.5931C50.0864 65.5308 46.8996 66.5394 43.7574 67.6875C41.2827 68.591 38.842 69.5867 36.361 70.4708C32.3896 71.8893 29.7045 75.6125 29.8746 79.8529C29.9915 82.7971 31.3351 85.2028 33.6716 86.9946C34.1436 87.3552 34.4752 87.3036 34.5348 86.5483C34.6177 85.5032 35.3745 85.044 36.2016 85.4324C37.3496 85.971 37.7535 87.235 37.0711 88.3766C37.8194 88.6513 38.5125 88.7328 39.2268 88.72C41.136 88.6813 42.8262 87.9431 44.5759 87.2543C50.0057 85.1191 55.5162 83.2092 61.1735 81.7521C64.5517 80.8808 67.9299 80.016 71.3677 79.4216C72.0012 79.3121 72.116 78.9623 72.0395 78.4495V78.4473Z" fill="#F0611F"/>
<path d="M35.7976 85.909C35.4234 85.7931 35.0982 86.1493 35.1215 86.527C35.1619 87.1815 35.6297 87.6086 36.1973 87.806C36.5949 87.9433 36.8138 87.6 36.884 87.145C36.7522 86.5678 36.3844 86.0871 35.7976 85.909Z" fill="#F0611F"/>
<path d="M98.1871 47.9277C101.153 48.1209 103.64 49.314 105.719 51.3849C106.296 51.9578 106.334 53.1123 105.873 53.6338C105.177 54.4192 104.367 54.5222 103.54 53.8548C102.496 53.0136 101.467 52.151 100.166 51.7389C97.4387 50.8741 95.1193 51.681 93.0464 53.5222C92.7126 53.8184 92.449 54.239 91.9451 54.3055C91.1989 54.4042 90.5292 54.3012 90.1062 53.5759C89.6469 52.7905 89.749 52.0265 90.3719 51.4213C92.5574 49.3011 95.1618 48.108 98.1849 47.9277H98.1871Z" fill="#1F2937"/>
<path d="M91.7644 38.6941C91.7602 40.8722 89.9488 42.7113 87.8207 42.6984C85.7627 42.6855 83.8961 40.8164 83.8642 38.7348C83.8302 36.6275 85.7032 34.7305 87.825 34.7198C90.0296 34.709 91.7687 36.4644 91.7644 38.6941Z" fill="#1F2937"/>
<path d="M111.572 38.6742C111.579 40.861 109.791 42.6957 107.652 42.6957C105.569 42.6957 103.651 40.7494 103.677 38.6571C103.702 36.5733 105.522 34.7514 107.614 34.7192C109.804 34.6849 111.564 36.4446 111.57 38.6742H111.572Z" fill="#1F2937"/>
</g>
<defs>
<clipPath id="clip0_859_3824">
<rect width="196" height="175" fill="white"/>
</clipPath>
</defs>
</svg>
