<svg width="43" height="38" viewBox="0 0 43 38" fill="none" xmlns="http://www.w3.org/2000/svg">
<g clip-path="url(#clip0_1116_1085)">
<path d="M0 8.93731C0.310092 8.33366 0.912247 8.39457 1.44409 8.33725C5.13094 7.93959 8.81959 7.55538 12.5073 7.16668C13.6224 7.04935 14.7375 6.93203 15.8534 6.8156C16.406 6.75828 16.7621 7.05204 16.8234 7.6118C16.8676 8.01035 16.9063 8.40979 16.9622 8.80744C17.0514 9.44781 16.7981 9.81232 16.1482 9.89024C15.2134 10.0031 14.2741 10.0864 13.3376 10.1849C11.1967 10.4097 9.05576 10.6399 6.91487 10.862C4.96688 11.0644 3.01799 11.2677 1.06819 11.4558C0.533646 11.5077 0.25871 11.2686 0.172173 10.7447C0.112679 10.381 0.0576915 10.0165 0 9.65201C0 9.41377 0 9.17554 0 8.93731Z" fill="#8DCA0A"/>
<path d="M8.09634 0C8.575 0.282118 9.06268 0.550803 9.52601 0.855311C9.65942 0.943081 9.72433 1.13474 9.86315 1.34253C8.3848 1.49836 6.98218 1.64614 5.52637 1.80018C5.74451 0.98428 6.21145 0.471988 6.9317 0.176436C7.07953 0.115534 7.22827 0.0582149 7.377 0C7.61678 0 7.85656 0 8.09634 0Z" fill="#8DCA0A"/>
<path d="M18.1359 36.3001C17.8862 35.9284 17.9331 35.4412 18.2314 35.1071C18.8805 34.3799 18.8444 33.4386 18.6921 32.4615C18.6632 32.277 18.6335 32.0934 18.6037 31.9089C18.5334 31.4781 18.7624 31.0536 19.1617 30.8745C20.4237 30.3075 20.6346 29.7236 20.5175 27.9915C20.4922 27.6207 20.4697 27.2463 20.3976 26.8836C20.1506 25.6405 19.0067 24.8739 17.7275 25.0503C17.5094 25.0807 17.2912 25.1067 17.0677 25.1309C16.3691 25.2079 15.8219 24.5425 16.0364 23.877C16.1563 23.5063 16.2834 23.1462 16.4367 22.7978C18.4829 18.172 22.0328 15.3589 27.033 14.5152C34.5293 13.2506 41.6911 18.4819 42.8278 25.9477C43.4201 29.8409 42.47 33.3419 40.1037 36.4864C39.3276 37.5181 38.345 38.0036 37.0289 37.9964C31.843 37.9659 26.6562 37.9597 21.4703 38C20.0316 38.0116 18.9445 37.5217 18.1602 36.3377C18.1521 36.3252 18.1431 36.3126 18.135 36.2992L18.1359 36.3001ZM29.7066 15.8882C29.5417 15.8882 29.3767 15.8837 29.2126 15.8882C28.7385 15.9025 28.4284 16.1945 28.4275 16.6217C28.4275 17.0328 28.7087 17.3211 29.1649 17.3579C29.5976 17.3928 30.0366 17.3829 30.4638 17.4483C34.2093 18.0161 36.9938 19.9507 38.7678 23.2832C39.3736 24.4216 39.7314 25.6441 39.8639 26.9293C39.9297 27.5643 40.2497 27.8652 40.7582 27.8052C41.217 27.7515 41.4487 27.4129 41.3792 26.8021C41.3225 26.3024 41.2296 25.8035 41.116 25.3127C39.9 20.0411 35.0079 16.0082 29.7057 15.8873L29.7066 15.8882Z" fill="#8DCA0A"/>
<path d="M42.065 17.8827C42.1272 18.5213 41.3285 18.8643 40.903 18.3807C40.5262 17.9526 40.1593 17.5164 39.8204 17.0597C39.55 16.6951 39.5824 16.1004 39.5031 15.607C39.2291 13.891 39.0181 12.1633 38.6873 10.459C38.3457 8.70447 36.8195 7.50614 35.023 7.49987C31.2009 7.48643 27.3789 7.49181 23.5568 7.49539C21.2897 7.49718 19.8123 8.88449 19.5121 11.2041C19.2723 13.0598 18.9703 14.9084 18.6891 16.7587C18.672 16.8707 18.6251 16.9943 18.5521 17.0794C18.1906 17.5003 17.8282 17.9194 17.4641 18.3386C17.0404 18.8267 16.2363 18.4837 16.2994 17.8424C16.3066 17.7717 16.3138 17.7 16.321 17.6293C16.5194 15.6616 16.7249 13.6948 16.916 11.7272C16.9448 11.4271 17.0187 11.2346 17.3216 11.0671C18.169 10.5978 18.5593 9.8419 18.4764 8.87374C18.4241 8.26741 18.3276 7.66377 18.278 7.05744C18.2663 6.91682 18.3204 6.72695 18.416 6.62754C19.2651 5.7364 20.3072 5.19904 21.5493 5.19456C26.6307 5.17665 31.7111 5.17844 36.7925 5.19187C39.0578 5.19814 41.0103 7.11296 41.2095 9.3914C41.434 11.9538 41.7251 14.5098 41.9838 17.0686C42.0118 17.3409 42.0379 17.6131 42.065 17.8845V17.8827Z" fill="#8DCA0A"/>
<path d="M11.6103 25.688C10.7062 25.783 9.81109 25.877 8.90154 25.9719C8.37962 26.0266 7.91177 25.6504 7.85679 25.1327C7.43852 21.2073 7.02296 17.2988 6.602 13.3465C6.54701 12.8279 6.92471 12.3631 7.44664 12.3084C8.34807 12.2135 9.24679 12.1195 10.1581 12.0236C10.6801 11.969 11.1479 12.3452 11.2029 12.8637C11.6212 16.7964 12.0358 20.7066 12.455 24.6509C12.51 25.1695 12.1314 25.6343 11.6094 25.6889L11.6103 25.688Z" fill="#8DCA0A"/>
<path d="M19.0697 28.6624C19.076 29.2391 18.8489 29.5257 18.3206 29.5857C16.6854 29.7711 15.0493 29.9431 13.4133 30.1159C11.5843 30.3094 9.75345 30.4975 7.92445 30.69C6.37759 30.853 4.83164 31.0277 3.28298 31.1799C2.60691 31.2462 2.31305 30.9793 2.24634 30.3192C2.20578 29.9198 2.1562 29.5221 2.10482 29.1236C2.03631 28.5826 2.2869 28.2101 2.82866 28.1483C4.46296 27.9611 6.09995 27.7945 7.73695 27.6208C9.58127 27.4246 11.4256 27.2285 13.2699 27.0332C14.787 26.8729 16.3032 26.7027 17.8221 26.5577C18.5866 26.4842 18.8335 26.6884 18.9399 27.4291C19.0012 27.8554 19.031 28.2862 19.0688 28.6615L19.0697 28.6624Z" fill="#8DCA0A"/>
<path d="M1.80761 4.56853C1.78868 3.96847 2.04559 3.67381 2.66848 3.60485C3.90163 3.46693 5.13749 3.35229 6.37155 3.22242C8.51245 2.99673 10.6551 2.7773 12.7942 2.53459C13.6596 2.43607 13.9382 2.61341 14.0671 3.46782C14.122 3.83502 14.1626 4.20491 14.1978 4.5739C14.2537 5.16053 14.0184 5.48654 13.4261 5.55639C11.8369 5.74179 10.2459 5.90389 8.65487 6.07316C6.79612 6.2702 4.93647 6.45648 3.07953 6.66516C2.38633 6.74308 2.06001 6.53351 1.96176 5.85463C1.89775 5.41399 1.85449 4.96977 1.80671 4.56853H1.80761Z" fill="#8DCA0A"/>
<path d="M6.17044 35.4789C5.34654 35.5066 5.11307 35.306 5.02833 34.6495C4.97515 34.2367 4.91836 33.8247 4.87689 33.4109C4.821 32.8476 5.11307 32.5045 5.67376 32.4445C8.95947 32.0943 12.2452 31.7477 15.5309 31.3904C16.9164 31.2399 17.0804 31.3671 17.1859 32.7562C17.2048 33.0079 17.258 33.2578 17.267 33.5094C17.2851 34.0172 17.021 34.3397 16.5198 34.3934C14.4681 34.6128 12.4155 34.8197 10.363 35.0338C8.90538 35.186 7.44867 35.3427 6.17225 35.4789H6.17044Z" fill="#8DCA0A"/>
<path d="M9.26367 36.6664C10.6915 36.5159 12.0806 36.37 13.4752 36.2231C13.4436 37.0148 12.6648 37.7752 11.7282 37.9588C10.7402 38.1522 9.69996 37.6256 9.26367 36.6664Z" fill="#8DCA0A"/>
</g>
<defs>
<clipPath id="clip0_1116_1085">
<rect width="43" height="38" fill="white"/>
</clipPath>
</defs>
</svg>
