<svg width="47" height="34" viewBox="0 0 47 34" fill="none" xmlns="http://www.w3.org/2000/svg">
<g clip-path="url(#clip0_859_6335)">
<path d="M23.5014 25.9906C30.2769 25.9906 37.0524 25.9906 43.8279 25.9906C44.1572 25.9906 44.4873 25.9918 44.8166 26.0048C46.0919 26.0552 47.0133 26.9882 47.0001 28.2109C46.9876 29.4077 46.0074 30.3543 44.7453 30.3589C43.0523 30.3647 41.3593 30.3459 39.6669 30.3466C36.4115 30.3485 33.1561 30.3602 29.9007 30.3608C22.3773 30.3621 14.854 30.3589 7.33069 30.3576C5.63831 30.3576 3.94592 30.3673 2.2542 30.3589C1.07468 30.3531 0.109673 29.4996 0.010004 28.3997C-0.095605 27.2346 0.687882 26.2227 1.8608 26.0209C2.02186 25.9931 2.18885 25.9912 2.35387 25.9918C5.42247 25.9938 8.49041 25.9996 11.559 26.0009C15.5398 26.0028 19.5213 26.0009 23.5021 26.0009V25.9893L23.5014 25.9906Z" fill="#F0611F"/>
<path d="M23.4887 33.9996C16.075 33.9996 8.66122 33.9996 1.24812 33.9996C0.500939 33.9996 0.00127644 33.5605 0.00391666 32.9114C0.00655689 32.2564 0.50424 31.8135 1.24086 31.8135C16.0789 31.8135 30.9177 31.8135 45.7557 31.8135C46.4963 31.8135 46.994 32.2512 46.9993 32.9043C47.0046 33.5567 46.5056 33.9996 45.763 33.9996C38.3387 33.9996 30.9137 33.9996 23.4894 33.9996H23.4887Z" fill="#F0611F"/>
<path d="M18.2434 21.2211C18.349 21.5896 18.3952 21.9174 18.5332 22.2026C18.9794 23.1246 19.7424 23.6012 20.7892 23.6024C24.7925 23.6063 28.7957 23.605 32.799 23.6031C34.2082 23.6024 35.3098 22.5524 35.3045 21.223C35.2993 19.8917 34.2042 18.8397 32.797 18.8365C29.9046 18.83 27.0123 18.8339 24.1192 18.8332C23.9001 18.8332 23.6816 18.8332 23.3819 18.8332C23.8948 18.3509 24.4433 18.0935 25.0624 17.9778C25.3093 17.9319 25.5647 17.9157 25.8162 17.9151C28.1806 17.9106 30.5455 17.9073 32.9099 17.9138C34.3692 17.9183 35.6616 18.8384 36.1045 20.1885C36.8115 22.3448 35.2121 24.5536 32.7508 24.5413C27.7687 24.5174 22.7866 24.5355 17.8045 24.5329C16.4969 24.5322 15.19 24.5122 13.8824 24.5135C11.8164 24.5154 9.75045 24.5264 7.68447 24.5348C6.92012 24.5381 6.33267 24.2335 6.02245 23.5384C5.73136 22.8867 5.85215 22.2724 6.34192 21.7435C6.71485 21.3413 7.20065 21.2185 7.7419 21.2191C11.1405 21.2237 14.5385 21.2211 17.9371 21.2211C18.046 21.2211 18.1543 21.2211 18.2434 21.2211Z" fill="#F0611F"/>
<path d="M18.8227 6.82934C17.9685 6.63084 17.2405 6.88107 16.6352 7.46752C15.7032 8.37015 15.6616 9.83596 16.587 10.7599C18.5269 12.6977 20.4913 14.6129 22.4701 16.5126C22.7176 16.7499 22.814 16.9419 22.7322 17.2523C22.6945 17.3971 22.6695 17.5529 22.6813 17.7004C22.7196 18.1872 22.3229 18.4342 22.0833 18.7653C22.0424 18.8215 21.9078 18.8267 21.8154 18.8299C21.387 18.8429 20.9573 18.8274 20.5302 18.8578C19.7157 18.9153 19.0999 19.3149 18.6735 19.986C18.5613 20.1632 18.4458 20.2324 18.2312 20.2311C16.8458 20.222 15.4597 20.2279 14.0742 20.2279C13.9884 20.2279 13.9026 20.2149 13.7891 20.2059C13.8683 19.5496 13.9435 18.9101 14.0234 18.2713C14.3237 15.8563 14.624 13.4413 14.9263 11.0263C15.028 10.2142 15.1125 9.39951 15.2432 8.59258C15.4385 7.38088 16.5395 6.5442 17.7923 6.64377C18.1388 6.67093 18.4794 6.76662 18.8233 6.83063L18.8227 6.82934Z" fill="#F0611F"/>
<path d="M30.5665 16.1362C30.5606 16.7886 29.9414 17.2968 29.2919 17.1443C27.8616 16.8093 26.4365 16.4518 25.0108 16.1007C24.5976 15.9992 24.1831 15.8989 23.7772 15.7735C23.6267 15.7269 23.4749 15.6345 23.3627 15.5246C21.4386 13.6488 19.5178 11.7692 17.6023 9.8844C17.2182 9.50615 17.1832 8.94298 17.4875 8.52464C17.7924 8.1063 18.3555 7.95888 18.836 8.19682C18.9984 8.277 19.1423 8.40567 19.2729 8.53304C21.0082 10.2284 22.7363 11.9308 24.4768 13.621C24.6306 13.7704 24.8504 13.8887 25.0603 13.9417C26.5903 14.3277 28.1263 14.6924 29.6596 15.0668C30.2503 15.211 30.5718 15.595 30.5672 16.1356L30.5665 16.1362Z" fill="#F0611F"/>
<path d="M26.8286 20.1685C28.8398 20.1685 30.8516 20.1666 32.8628 20.1705C33.3427 20.1718 33.715 20.4375 33.8727 20.8617C34.0311 21.2884 33.9295 21.7566 33.5506 22.0204C33.3486 22.1607 33.0734 22.2732 32.8305 22.2745C28.8299 22.2913 24.8286 22.2906 20.8273 22.2874C20.1402 22.2874 19.6683 21.8387 19.6689 21.2238C19.6696 20.5908 20.1422 20.1692 20.8597 20.1685C22.8491 20.1673 24.8385 20.1685 26.8279 20.1685H26.8286Z" fill="#F0611F"/>
<path d="M37.672 19.2714C37.6879 17.6763 39.0007 16.4142 40.633 16.4239C42.2469 16.4336 43.561 17.7481 43.5419 19.3322C43.5228 20.9364 42.1941 22.1927 40.5373 22.1746C38.9341 22.1565 37.6562 20.862 37.672 19.2714Z" fill="#F0611F"/>
<path d="M21.5267 5.75138C19.9095 5.75396 18.6006 4.49312 18.5841 2.91675C18.5676 1.32163 19.8765 0.0038883 21.4818 8.78923e-06C23.1478 -0.00387072 24.4606 1.27701 24.46 2.90576C24.4593 4.46985 23.1418 5.74815 21.5273 5.75073L21.5267 5.75138Z" fill="#F0611F"/>
<path d="M18.8228 6.83006C19.061 6.8333 19.3006 6.81778 19.5363 6.843C20.2458 6.91929 20.9574 6.99236 21.6623 7.10098C22.9692 7.30272 23.8517 8.50019 23.6623 9.7772C23.6141 10.1031 23.5778 10.4302 23.521 10.8712C22.923 10.2673 22.393 9.72741 21.8577 9.19333C21.3263 8.66313 20.7897 8.13811 20.2538 7.61179C19.8531 7.21802 19.4234 6.87274 18.8228 6.82812V6.82942V6.83006Z" fill="#F0611F"/>
</g>
<defs>
<clipPath id="clip0_859_6335">
<rect width="47" height="34" fill="white"/>
</clipPath>
</defs>
</svg>
