<svg width="33" height="37" viewBox="0 0 33 37" fill="none" xmlns="http://www.w3.org/2000/svg">
<path d="M16.5092 0.791626C21.3107 0.791626 25.2579 4.56457 25.4584 9.34534H25.4115C25.4172 9.48427 25.3903 9.62268 25.3334 9.74963H25.6137C27.878 9.74966 30.253 11.3801 31.0922 15.3405L32.4701 26.4391C33.4834 33.6751 29.4135 36.6246 23.9506 36.6246H9.09806C3.61942 36.6246 -0.577043 34.5877 0.5629 26.4391L1.95645 15.3405C2.66897 11.2662 5.12344 9.7498 7.41935 9.74963H7.55997C7.5364 9.61597 7.53637 9.47899 7.55997 9.34534C7.76049 4.56459 11.7077 0.791662 16.5092 0.791626ZM11.2992 15.7145C10.4248 15.7145 9.71639 16.4444 9.71622 17.3444C9.71622 18.2445 10.4247 18.9742 11.2992 18.9742C12.1737 18.9742 12.8822 18.2445 12.8822 17.3444C12.8821 16.4444 12.1736 15.7145 11.2992 15.7145ZM21.6713 15.7145C20.7969 15.7145 20.0875 16.4444 20.0873 17.3444C20.0873 18.2445 20.7968 18.9742 21.6713 18.9742C22.5456 18.974 23.2543 18.2443 23.2543 17.3444C23.2541 16.4446 22.5455 15.7147 21.6713 15.7145ZM16.4389 3.12463C12.9917 3.12472 10.1968 5.91 10.1967 9.34534C10.2203 9.479 10.2203 9.61596 10.1967 9.74963H22.7592C22.7094 9.6206 22.6828 9.48357 22.6811 9.34534C22.6809 5.90995 19.8861 3.12463 16.4389 3.12463Z" fill="#8DCA0A"/>
</svg>
