<svg width="33" height="37" viewBox="0 0 33 37" fill="none" xmlns="http://www.w3.org/2000/svg">
<path fill-rule="evenodd" clip-rule="evenodd" d="M25.3335 9.74935C25.3904 9.62237 25.4171 9.48398 25.4115 9.34501H25.4583C25.258 4.5641 21.3104 0.791016 16.5089 0.791016C11.7073 0.791016 7.75975 4.5641 7.55938 9.34501C7.53576 9.47876 7.53576 9.6156 7.55938 9.74935H7.41932C5.12331 9.74935 2.66895 11.265 1.9564 15.3395L0.562954 26.4383C-0.577134 34.5871 3.61902 36.6243 9.09778 36.6243H23.9506C29.4135 36.6243 33.483 33.6745 32.4696 26.4383L31.092 15.3395C30.2528 11.3791 27.8776 9.74935 25.6132 9.74935H25.3335ZM22.7587 9.74935C22.7088 9.62025 22.6824 9.48334 22.6806 9.34501C22.6806 5.90949 19.886 3.12445 16.4386 3.12445C12.9913 3.12445 10.1966 5.90949 10.1966 9.34501C10.2203 9.47876 10.2203 9.6156 10.1966 9.74935H22.7587ZM11.2988 18.9738C10.4243 18.9738 9.71537 18.2442 9.71537 17.3441C9.71537 16.444 10.4243 15.7143 11.2988 15.7143C12.1733 15.7143 12.8823 16.444 12.8823 17.3441C12.8823 18.2442 12.1733 18.9738 11.2988 18.9738ZM20.087 17.3441C20.087 18.2442 20.7959 18.9738 21.6705 18.9738C22.545 18.9738 23.2539 18.2442 23.2539 17.3441C23.2539 16.444 22.545 15.7143 21.6705 15.7143C20.7959 15.7143 20.087 16.444 20.087 17.3441Z" fill="#F0611F"/>
</svg>
