<svg width="41" height="32" viewBox="0 0 41 32" fill="none" xmlns="http://www.w3.org/2000/svg">
<g clip-path="url(#clip0_1931_4848)">
<path d="M3.41427 19.5215V21.039H4.93671V22.2379H3.41427V23.7554H2.21221V22.2379H0.688965V21.039H2.21221V19.5215H3.41427Z" fill="#BB3413"/>
<path d="M29.86 1.70801V3.22556H31.3825C31.356 3.42016 31.4676 4.42359 31.262 4.42359H29.8592V5.86186H28.6572V4.42359H27.2544C27.0488 4.42359 27.1604 3.42016 27.1339 3.22556H28.6564V1.70801H29.8584H29.86Z" fill="#BB3413"/>
<path d="M41.0001 14.8084V15.2881C40.7929 16.2659 40.3705 17.1468 39.8767 18.0037L38.918 16.5214C38.7807 16.5806 37.9897 16.9282 37.9592 16.9714C37.842 17.1356 38.9734 18.7468 39.0673 19.0704L36.1902 22.1215L36.0794 22.1535C35.8683 22.1175 35.156 20.5094 35.0235 20.4806L34.031 21.078L35.1383 22.9311L35.0283 23.1161L31.8132 25.505C31.6599 25.5474 31.7225 25.4777 31.6847 25.4105C31.5386 25.1518 30.8842 23.8801 30.7404 23.7896C30.6545 23.7359 29.8556 24.1684 29.8138 24.2333C29.6259 24.5256 30.8778 25.9646 30.7292 26.2193L27.2403 28.2205C27.1624 28.2446 27.1399 28.1869 27.0957 28.1485C26.8572 27.9379 26.3931 26.8696 26.1603 26.5212C26.1113 26.4483 26.1145 26.3979 26.0077 26.4227C25.7556 26.4812 25.326 26.8864 25.0497 26.9897C25.1919 27.2115 26.1225 28.6826 26.0567 28.7899C24.8795 29.3897 23.6542 29.8887 22.424 30.3715L22.1229 30.3067L21.083 28.4688L20.0801 29.0286C20.154 29.3233 21.1481 30.7119 21.0413 30.8633C20.4053 31.0282 17.1886 32.0268 16.7935 31.7842C16.6506 31.6969 15.9167 30.1769 15.7465 29.9111C15.6067 29.811 14.8624 30.3051 14.717 30.4324L15.512 31.982C15.023 31.9444 14.4681 32.0333 13.9895 31.982C13.6635 31.9468 12.9649 31.7353 12.6534 31.5968C11.3935 31.0362 10.8073 29.0862 10.063 27.9883C12.4526 28.5473 15.0431 28.0492 17.3733 27.4053C24.2403 25.509 35.7663 18.9014 38.7678 12.2241C38.8979 11.9343 39.0368 11.6091 39.0753 11.292C39.1781 11.2976 39.203 11.4105 39.2488 11.4778C39.6655 12.0904 40.9101 14.1717 40.9977 14.8068L41.0001 14.8084Z" fill="#BB3413"/>
<path d="M34.0911 7.88241C40.3608 7.66699 38.0675 12.1948 35.4313 15.129C30.6817 20.4169 19.1068 27.3472 11.8655 27.1133C7.25965 26.9644 8.27381 23.7539 10.2411 21.0936C14.6173 15.1739 26.6845 8.13627 34.0919 7.88241H34.0911ZM33.13 9.48005C29.9124 9.7275 25.2014 12.0291 22.3532 13.5963C19.1694 15.3493 12.9166 19.2909 11.1734 22.4237C10.3182 23.9597 10.5591 25.3355 12.5111 25.5117C15.8852 25.816 22.3717 22.5302 25.3459 20.8133C28.1812 19.178 34.4412 15.1002 35.7244 12.1468C36.6783 9.95173 35.0443 9.3327 33.1292 9.48005H33.13Z" fill="#BB3413"/>
<path d="M33.6126 10.5954C34.7263 10.5642 35.131 10.8004 34.5737 11.8767C33.3572 14.2263 28.5522 17.4897 26.2477 18.9151C23.1634 20.8219 16.6304 24.3207 13.0684 24.3952C12.4686 24.408 11.6873 24.3679 11.884 23.6095C12.4878 21.2808 18.8803 16.9884 21.0203 15.7022C24.0684 13.87 30.1027 10.6947 33.6126 10.5954Z" fill="#BB3413"/>
<path d="M23.1282 9.85761L23.0792 10.021L17.8936 12.8791C15.4541 11.5017 13.0187 10.0786 10.7953 8.37048C9.64058 7.48397 6.52985 4.88451 6.17654 3.54874C6.02076 2.95773 6.26005 2.80958 6.81972 2.74712C8.50999 2.55812 11.4272 3.65765 13.0283 4.30792C16.6008 5.7582 19.9139 7.75946 23.1282 9.85841V9.85761Z" fill="#BB3413"/>
<path d="M16.7975 13.5315C16.8312 13.5675 16.8087 13.6412 16.7477 13.6965C16.6465 13.7878 15.4236 14.631 15.3297 14.6711C15.2831 14.6911 15.2461 14.7207 15.1956 14.6871C11.493 12.4768 7.55684 9.86695 4.85964 6.45866C3.05375 4.17792 1.08726 0.366016 5.69474 0.027269C11.4617 -0.397166 20.2921 4.22277 24.8385 7.63266C25.1348 7.85449 25.8037 8.30696 26.0157 8.53679C26.1185 8.6481 26.0895 8.65531 25.9643 8.72819C25.8238 8.81147 24.4691 9.37445 24.3848 9.36003C20.1451 6.49229 15.3626 3.54447 10.3857 2.14704C8.99578 1.75704 5.17842 0.776037 4.95359 3.04877C4.79701 4.63199 7.33361 7.00322 8.4618 7.97942C10.9518 10.1344 13.8923 12.0003 16.7975 13.5315Z" fill="#BB3413"/>
<path d="M9.25736 17.5995C9.08312 17.7188 6.18758 15.4709 5.85595 15.129L6.93997 13.1325L5.89931 12.5712L4.8964 14.3274C3.80917 13.3888 2.80384 12.3525 1.92699 11.221C1.95108 10.8742 3.10736 9.33103 2.97889 9.13563C2.92669 9.05555 2.07795 8.59027 1.97677 8.66315C1.92056 8.70399 1.44038 9.70261 1.31592 9.8828C1.26132 9.96208 1.20351 10.0334 1.12883 10.0942C0.407755 8.99629 -0.372738 7.52438 0.19336 6.20703L1.8507 3.46582C2.94356 6.5682 5.53155 9.14684 8.02319 11.2122C9.95997 12.8178 12.0871 14.1768 14.231 15.4877L10.8151 18.631C10.657 18.6005 10.2217 18.3691 10.2354 18.2185C10.2547 18.0063 11.0295 16.8507 11.1901 16.5264C11.2327 16.4407 11.321 16.4784 11.1861 16.3686C11.101 16.299 10.2699 15.8529 10.2241 15.8817L9.25736 17.6003V17.5995Z" fill="#BB3413"/>
</g>
<defs>
<clipPath id="clip0_1931_4848">
<rect width="41" height="32" fill="white"/>
</clipPath>
</defs>
</svg>
