<svg width="24" height="22" viewBox="0 0 24 22" fill="none" xmlns="http://www.w3.org/2000/svg">
<path fill-rule="evenodd" clip-rule="evenodd" d="M19.8401 0H20.9921C21.3334 0 21.6747 0.128 22.0161 0.384C22.3574 0.64 22.6134 0.938667 22.7841 1.28C22.9547 1.62133 23.0401 2.00533 23.0401 2.432V16.128C23.0401 16.5547 22.9547 16.9387 22.7841 17.28C22.6134 17.6213 22.3574 17.92 22.0161 18.176C21.6747 18.432 21.3334 18.56 20.9921 18.56C20.5654 18.6453 20.1814 18.6453 19.8401 18.56L7.29606 14.208C6.91206 14.08 6.78406 13.824 6.78406 13.44V5.12C6.78406 4.736 6.91206 4.48 7.29606 4.352L19.8401 0ZM20.8641 0C20.5227 0 20.1814 0.0426669 19.8401 0.128L20.8641 0Z" fill="#BB3413"/>
<path fill-rule="evenodd" clip-rule="evenodd" d="M4.096 14.2081C1.792 13.8241 0 11.7761 0 9.21612C0 6.52812 2.176 4.22412 4.864 4.22412H8.32V14.3361H5.76C5.248 16.5121 6.4 18.8161 8.32 19.7121C8.832 19.9681 9.088 20.3521 8.96 20.8641C8.832 21.2481 8.32 21.6321 7.936 21.3761C5.12 20.2241 3.584 17.2801 4.096 14.2081ZM1.664 9.21612C1.664 11.1361 3.2 12.5441 4.864 12.5441H6.656V6.01612H4.864C3.2 6.01612 1.664 7.42412 1.664 9.21612Z" fill="#BB3413"/>
<path fill-rule="evenodd" clip-rule="evenodd" d="M19.8401 0H20.9921C21.3334 0 21.6747 0.128 22.0161 0.384C22.3574 0.64 22.6134 0.938667 22.7841 1.28C22.9547 1.62133 23.0401 2.00533 23.0401 2.432V16.128C23.0401 16.5547 22.9547 16.9387 22.7841 17.28C22.6134 17.6213 22.3574 17.92 22.0161 18.176C21.6747 18.432 21.3334 18.56 20.9921 18.56C20.5654 18.6453 20.1814 18.6453 19.8401 18.56L7.29606 14.208C6.91206 14.08 6.78406 13.824 6.78406 13.44V5.12C6.78406 4.736 6.91206 4.48 7.29606 4.352L19.8401 0ZM20.8641 0C20.5227 0 20.1814 0.0426669 19.8401 0.128L20.8641 0Z" fill="#BB3413"/>
<path fill-rule="evenodd" clip-rule="evenodd" d="M4.096 14.2081C1.792 13.8241 0 11.7761 0 9.21612C0 6.52812 2.176 4.22412 4.864 4.22412H8.32V14.3361H5.76C5.248 16.5121 6.4 18.8161 8.32 19.7121C8.832 19.9681 9.088 20.3521 8.96 20.8641C8.832 21.2481 8.32 21.6321 7.936 21.3761C5.12 20.2241 3.584 17.2801 4.096 14.2081ZM1.664 9.21612C1.664 11.1361 3.2 12.5441 4.864 12.5441H6.656V6.01612H4.864C3.2 6.01612 1.664 7.42412 1.664 9.21612Z" fill="#BB3413"/>
</svg>
