<svg width="64" height="65" viewBox="0 0 64 65" fill="none" xmlns="http://www.w3.org/2000/svg">
<path d="M0 30.5358C0 31.9012 0 33.2724 0 34.6377C0.0228119 34.6262 0.0342216 34.5799 0.0627327 34.6262C0.0741386 34.6435 0.0855408 34.6609 0.0855408 34.6782C0.14827 35.4882 0.233807 36.2982 0.347858 37.1081C0.627285 39.0521 1.03217 40.9786 1.66515 42.83C2.6517 45.7112 3.92907 48.4593 5.70827 50.947C5.82803 51.1148 5.90217 51.3289 6.04473 51.4793C6.62069 52.1041 7.0826 52.8273 7.63575 53.4753C8.53675 54.534 9.46057 55.5696 10.4756 56.5069C11.5135 57.4673 12.6312 58.3293 13.7774 59.1624C15.0776 60.1055 16.4576 60.9097 17.9004 61.6039C20.1472 62.6858 22.451 63.623 24.9088 64.1148C26.1691 64.3636 27.418 64.6818 28.7011 64.7686C29.3626 64.8149 30.0241 64.8438 30.6856 64.8901C30.7711 64.8959 30.9137 64.8264 30.9422 65C31.0619 65 31.1817 65 31.3014 65C31.29 64.9711 31.2957 64.9479 31.3299 64.9479C31.3642 64.9479 31.3756 64.9711 31.3585 65C31.8204 65 32.2823 65 32.7442 65C32.7328 64.9711 32.7385 64.9479 32.7727 64.9479C32.8069 64.9479 32.8183 64.9711 32.8012 65C32.921 65 33.0407 65 33.1605 65C33.1491 64.9826 33.1377 64.9711 33.1263 64.9537C33.1263 64.9537 33.1377 64.9364 33.1491 64.9364C33.2574 64.8727 33.3829 64.8901 33.5026 64.8843C34.6545 64.7802 35.8122 64.7281 36.9527 64.5545C39.2679 64.1958 41.5033 63.5478 43.6931 62.6916C45.8373 61.8469 47.8503 60.7592 49.755 59.4806C50.9753 58.6591 52.1443 57.7566 53.2335 56.7499C54.8987 55.2052 56.4156 53.5274 57.7671 51.6934C58.3316 50.9239 58.8278 50.1081 59.3239 49.2982C59.706 48.6733 60.0595 48.0196 60.3903 47.3543C60.8294 46.4633 61.2685 45.5723 61.622 44.6466C62.2949 42.8821 62.8709 41.0886 63.2416 39.2256C63.5723 37.5999 63.8061 35.9568 63.8917 34.2964C63.8974 34.1923 63.7947 34.0245 64 33.9782C64 33.0814 64 32.1847 64 31.2822C63.9943 31.2879 63.9829 31.2937 63.9772 31.2995C63.9715 31.3053 63.9544 31.3111 63.9544 31.3111C63.8688 31.1722 63.8974 31.016 63.8859 30.8656C63.7548 29.4713 63.6978 28.0712 63.4126 26.6885C63.1275 25.3173 62.8538 23.9462 62.4261 22.6155C62.0611 21.47 61.6848 20.3302 61.1259 19.2599C60.9263 18.8781 60.818 18.4441 60.6241 18.0565C59.7003 16.1994 58.6168 14.4348 57.3793 12.7859C55.047 9.6907 52.2584 7.0988 48.9908 5.03338C47.6963 4.21184 46.3676 3.47129 44.9705 2.84068C42.5697 1.75879 40.0834 0.960392 37.4944 0.509123C36.3653 0.312417 35.2305 0.167779 34.09 0.109924C34.0045 0.104139 33.8619 0.17935 33.8391 0C32.6529 0 31.4668 0 30.2807 0C30.2921 0.0173565 30.3035 0.0289275 30.3149 0.0462839C30.3149 0.0462839 30.3035 0.0636404 30.2921 0.0636404C30.2065 0.0809969 30.1153 0.104139 30.0298 0.109924C28.8379 0.17935 27.6518 0.329773 26.4714 0.538051C22.1488 1.30174 18.1684 2.93903 14.4788 5.34001C13.4296 6.0227 12.443 6.79795 11.4907 7.60792C9.80843 9.04851 8.21171 10.5875 6.94574 12.4388C6.16449 13.5843 5.20075 14.5968 4.55636 15.8465C4.27693 16.3845 3.89486 16.8821 3.65535 17.4259C3.37022 18.0739 3.03947 18.6987 2.76004 19.3525C2.10995 20.8741 1.5568 22.4304 1.14051 24.0329C0.604473 26.0926 0.250916 28.1869 0.10265 30.316C0.10265 30.3912 0.165375 30.53 0 30.5358ZM35.9262 26.9141C35.8863 27.6142 35.8578 28.32 35.8179 29.02C35.6411 32.3988 35.4643 35.7833 35.2989 39.162C35.2875 39.4397 35.202 39.4918 34.9454 39.4918C33.1034 39.4744 31.2672 39.4744 29.4253 39.4802C29.1687 39.4802 29.1173 39.3992 29.1059 39.162C28.9748 36.4833 28.8322 33.8046 28.6897 31.1259C28.5357 28.1753 28.3817 25.219 28.2277 22.2684C28.0966 19.7632 27.9654 17.2581 27.8229 14.753C27.8058 14.4811 27.8514 14.3885 28.1479 14.3943C30.8395 14.4059 33.5368 14.4059 36.2285 14.3943C36.5307 14.3943 36.5649 14.4984 36.5478 14.7588C36.4623 16.2167 36.3881 17.6689 36.314 19.1268C36.1885 21.7245 36.0574 24.3222 35.9262 26.9141ZM27.8286 48.2221C27.8286 48.0774 27.8229 47.9386 27.8286 47.7939C27.8799 45.8384 29.0888 44.3632 30.9878 43.9871C31.98 43.7904 32.9666 43.883 33.9474 44.1144C35.2476 44.4268 36.0688 45.2483 36.4509 46.5385C36.736 47.4989 36.7702 48.4651 36.5592 49.437C36.2228 50.9702 35.3446 51.9942 33.8163 52.405C33.4285 52.5091 33.0293 52.5843 32.6301 52.6075C31.6949 52.6653 30.7711 52.5612 29.9385 52.1157C28.3988 51.2942 27.7943 49.9288 27.8286 48.2221Z" fill="#F0611F"/>
</svg>
