<svg width="40" height="41" viewBox="0 0 40 41" fill="none" xmlns="http://www.w3.org/2000/svg">
<path d="M13.0341 0.950195C13.753 0.950406 14.3484 1.5453 14.3485 2.26367V7.31934C14.3485 8.03784 13.7531 8.63358 13.0341 8.63379C12.3148 8.63379 11.7186 8.03796 11.7186 7.31934V2.26367C11.7188 1.54517 12.3149 0.950195 13.0341 0.950195Z" fill="#BB3413" stroke="#BB3413" stroke-width="0.1"/>
<path d="M26.5302 0.950195C27.2491 0.950406 27.8444 1.5453 27.8446 2.26367V7.31934C27.8446 8.03784 27.2492 8.63358 26.5302 8.63379C25.8109 8.63379 25.2147 8.03796 25.2147 7.31934V2.26367C25.2149 1.54517 25.811 0.950195 26.5302 0.950195Z" fill="#BB3413" stroke="#BB3413" stroke-width="0.1"/>
<path d="M10.9423 20.375C11.6059 19.7125 12.7981 19.7138 13.4774 20.374L13.4803 20.377C13.8004 20.7144 13.9969 21.1771 13.9969 21.6426C13.9969 21.7523 13.9793 21.8782 13.9628 21.9941L13.9618 21.9961C13.9439 22.1034 13.9073 22.2087 13.8563 22.3135L13.8573 22.3145C13.8204 22.4251 13.765 22.5341 13.6932 22.6416L13.6893 22.6494L13.6102 22.5869L13.6884 22.6494C13.6548 22.6914 13.6214 22.7335 13.5878 22.7754C13.5541 22.8174 13.5199 22.8593 13.4862 22.9014L13.4774 22.9121L13.4081 22.8389L13.4764 22.9121C13.1386 23.2317 12.6756 23.4277 12.2098 23.4277C11.7443 23.4276 11.2819 23.2316 10.9442 22.9121L10.9403 22.9082C10.6206 22.5711 10.4237 22.1254 10.4237 21.6426C10.4237 21.4084 10.4777 21.1763 10.5663 20.9639C10.6551 20.7509 10.7792 20.5555 10.9384 20.3789L10.9413 20.375H10.9423Z" fill="#BB3413" stroke="#BB3413" stroke-width="0.2"/>
<path d="M19.1042 19.999C19.7633 19.7328 20.5477 19.874 21.0496 20.375L21.0515 20.377C21.3715 20.7144 21.5681 21.1771 21.5681 21.6426C21.5681 21.7523 21.5505 21.8782 21.5339 21.9941L21.533 21.9961C21.5151 22.1034 21.4785 22.2087 21.4275 22.3135L21.4285 22.3145C21.392 22.4236 21.3367 22.5306 21.2664 22.6367L21.2673 22.6377C21.2376 22.6872 21.1992 22.7346 21.1628 22.7773C21.1244 22.8225 21.0899 22.8607 21.0574 22.9014L21.0486 22.9121L20.9792 22.8389L21.0476 22.9121C20.7098 23.2317 20.2467 23.4277 19.781 23.4277C19.5474 23.4277 19.3163 23.3732 19.1042 23.2852V23.2861C18.8708 23.1964 18.6919 23.071 18.5173 22.9141L18.5105 22.9082V22.9072C18.1912 22.5702 17.9949 22.1251 17.9949 21.6426C17.9949 21.4084 18.0489 21.1763 18.1375 20.9639C18.2263 20.7509 18.3504 20.5555 18.5095 20.3789L18.5164 20.3711L18.5173 20.3721C18.6483 20.2543 18.7813 20.1539 18.9382 20.0732L19.1042 19.999Z" fill="#BB3413" stroke="#BB3413" stroke-width="0.2"/>
<path d="M11.5331 27.5645C11.9573 27.3886 12.4552 27.3693 12.8866 27.5645C13.1176 27.6532 13.3158 27.779 13.4784 27.9414C13.6403 28.1031 13.7655 28.2997 13.8544 28.5293C13.943 28.7418 13.9969 28.9747 13.9969 29.209C13.9969 29.4431 13.9429 29.6753 13.8544 29.8877C13.7655 30.1174 13.6404 30.3138 13.4784 30.4756C13.3158 30.638 13.1186 30.7637 12.8876 30.8525L12.8866 30.8516C12.6747 30.9394 12.4433 30.9941 12.2098 30.9941C11.9763 30.9941 11.7451 30.9395 11.5331 30.8516C11.3022 30.7628 11.1047 30.6379 10.9423 30.4756C10.7803 30.3138 10.6551 30.1174 10.5663 29.8877L10.5067 29.7246C10.4542 29.5588 10.4237 29.3846 10.4237 29.209C10.4237 28.9747 10.4777 28.7418 10.5663 28.5293C10.6551 28.2997 10.7804 28.1031 10.9423 27.9414C11.1048 27.7791 11.3021 27.6532 11.5331 27.5645Z" fill="#BB3413" stroke="#BB3413" stroke-width="0.2"/>
<path d="M35.7875 12.8984C36.5066 12.8984 37.1027 13.4934 37.1029 14.2119C37.1029 14.9305 36.5067 15.5264 35.7875 15.5264H3.77576C3.05652 15.5264 2.46033 14.9305 2.46033 14.2119C2.46049 13.4934 3.05662 12.8984 3.77576 12.8984H35.7875Z" fill="#BB3413" stroke="#BB3413" stroke-width="0.1"/>
<path d="M31.5704 24.5234C33.8789 24.5236 36.0858 25.5235 37.6134 27.2529V27.2539C38.9201 28.7458 39.6329 30.6279 39.6329 32.5781C39.6329 34.0534 39.226 35.4952 38.462 36.7334L38.4611 36.7324C37.0349 39.1407 34.388 40.6336 31.5704 40.6338C29.5846 40.6338 27.6994 39.9214 26.256 38.6152V38.6143C25.6448 38.105 25.1021 37.461 24.6613 36.7158C23.9143 35.4946 23.507 34.0532 23.507 32.5781C23.5071 28.1351 27.123 24.5234 31.5704 24.5234ZM31.5704 27.1514C28.5784 27.1514 26.1369 29.5892 26.1368 32.5781C26.1368 33.4404 26.3421 34.2899 26.7404 35.0479L26.923 35.3662L26.924 35.3682C27.2074 35.8678 27.5743 36.2849 27.9757 36.6357L27.9767 36.6367C28.9794 37.5381 30.2331 38.0059 31.5704 38.0059C33.4927 38.0057 35.2307 37.0202 36.2169 35.3838C36.7351 34.5321 37.0031 33.5801 37.0031 32.5781C37.003 31.2762 36.5184 30.0067 35.6486 28.9873C34.6122 27.8188 33.1246 27.1515 31.5704 27.1514Z" fill="#BB3413" stroke="#BB3413" stroke-width="0.1"/>
<path d="M29.9908 35.3355C30.2174 35.5621 30.5275 35.7054 30.8852 35.7056L33.2459 35.7068C33.9374 35.7071 34.5094 35.1351 34.5091 34.4436C34.5087 33.7521 33.9361 33.1795 33.2446 33.1791L32.1 33.1786L32.1483 29.5063C32.1241 28.8147 31.5277 28.266 30.8362 28.2895C30.1447 28.313 29.5965 28.9088 29.6207 29.6004L29.6207 34.4888C29.6447 34.8227 29.7761 35.1208 29.9908 35.3355Z" fill="#BB3413"/>
<path d="M28.1959 3.48828C31.284 3.48828 33.7232 4.37576 35.3903 6.04102C37.0574 7.70644 37.9459 10.1434 37.9459 13.2285V28.1396C37.9459 28.6828 37.6125 29.1725 37.0865 29.3652C36.5779 29.5578 35.9994 29.4181 35.6315 28.998V28.9971C34.5951 27.8288 33.1074 27.1621 31.5533 27.1621C28.5612 27.1621 26.1207 29.5999 26.1207 32.5889C26.1207 33.4509 26.3252 34.2999 26.7233 35.0576L26.9059 35.377L26.9069 35.3789C27.1901 35.8781 27.5567 36.2948 27.9576 36.6455C28.378 36.9955 28.5355 37.5721 28.3444 38.0967L28.3453 38.0977C28.1866 38.6086 27.6937 38.9589 27.1334 38.959H11.3668C8.27859 38.959 5.83959 38.0707 4.17249 36.4053C2.5055 34.7399 1.61691 32.3036 1.61682 29.2188V13.2285C1.61682 10.1434 2.50537 7.70644 4.17249 6.04102C5.83959 4.3757 8.27868 3.48828 11.3668 3.48828H28.1959ZM11.3668 6.11621C8.96195 6.11621 7.18489 6.69991 6.00842 7.875C4.83197 9.05026 4.2467 10.8259 4.2467 13.2285V29.2188C4.24678 31.6211 4.83204 33.3961 6.00842 34.5713C7.18489 35.7465 8.9618 36.3311 11.3668 36.3311H24.4362C23.8332 35.1958 23.5065 33.9169 23.5065 32.5889C23.5065 28.1458 27.1225 24.5343 31.5699 24.5342C32.8826 24.5342 34.179 24.8587 35.316 25.4609V13.2285C35.316 10.826 34.7317 9.05026 33.5553 7.875C32.3788 6.69973 30.601 6.11621 28.1959 6.11621H11.3668Z" fill="#BB3413" stroke="#BB3413" stroke-width="0.1"/>
</svg>
