<svg width="38" height="44" viewBox="0 0 38 44" fill="none" xmlns="http://www.w3.org/2000/svg">
<path d="M0.00185895 33.229C0.082706 32.8434 0.147756 32.4532 0.246259 32.0723C1.22943 28.235 4.97535 26.0138 8.92291 26.9113C11.4896 27.4952 14.059 28.0699 16.6313 28.6317C17.0104 28.7147 17.1145 28.8088 16.897 29.1796C16.595 29.6943 16.3488 30.2422 16.0895 30.7809C15.7271 31.5308 15.6342 32.3103 15.9399 33.0962C16.0867 33.4734 15.9575 33.4873 15.6295 33.4615C14.7829 33.3941 13.9345 33.3498 13.0861 33.3249C12.7822 33.3157 12.6456 33.2677 12.5824 32.9172C12.1661 30.578 10.512 28.8982 8.20644 28.4213C5.06642 27.771 2.01096 29.9747 1.64854 33.1488C1.2666 36.4953 3.9104 39.3917 7.26416 39.3013C9.6682 39.2367 11.7804 37.6271 12.4272 35.3349C12.5257 34.9853 12.6344 34.8488 13.0378 34.8737C15.8423 35.0443 18.6497 35.1827 21.4561 35.3303C21.6261 35.3395 21.7962 35.3552 21.9653 35.346C22.4272 35.3201 22.7264 35.0222 22.7375 34.5933C22.7487 34.1616 22.4727 33.8479 22.0146 33.7889C21.8343 33.7659 21.6512 33.7695 21.4263 33.7585C21.9904 32.5842 22.5405 31.4423 23.0879 30.3003C23.2496 29.9636 23.5061 30.1924 23.6882 30.2321C25.8553 30.7016 28.0168 31.1941 30.1801 31.6766C31.9216 32.0649 33.1603 33.0436 33.7634 34.7325C34.8107 37.6705 32.625 40.839 29.4841 40.8519C21.9616 40.8823 14.4382 40.886 6.91475 40.85C3.45691 40.8334 0.491588 38.0745 0.09014 34.6366C0.0743423 34.5038 0.0306661 34.3746 0 34.2437C0 33.9061 0 33.5685 0 33.2308L0.00185895 33.229Z" fill="#B91C1C"/>
<path d="M26.0516 0C26.1761 0.141131 26.3648 0.112535 26.5209 0.164191C28.9314 0.954706 29.7176 3.91384 27.9957 5.76514C27.5979 6.19314 27.1835 6.60823 26.7476 6.99749C25.3946 8.20771 23.2963 8.13945 22.0083 6.85913C20.7148 5.57327 20.6497 3.5052 21.8782 2.15662C22.2918 1.70279 22.7462 1.28401 23.1857 0.85324C23.6494 0.397564 24.2628 0.226916 24.8463 0.000922421H26.0516V0Z" fill="#B91C1C"/>
<path d="M16.0415 22.8048C14.6049 22.8048 13.1691 22.8159 11.7325 22.802C9.94826 22.7845 8.65749 21.4986 8.72626 19.8254C8.74949 19.2599 8.95114 18.7517 9.26988 18.2858C11.6563 14.8019 14.0371 11.3151 16.43 7.83573C17.3118 6.55264 18.7727 6.32941 20.0067 7.27028C21.7882 8.62901 23.3113 10.2663 24.9412 11.7883C26.6594 13.3924 26.5572 13.3703 28.9018 13.3527C29.6582 13.3472 30.4156 13.3472 31.172 13.3527C31.9266 13.3592 32.4395 13.8324 32.447 14.5159C32.4553 15.2234 31.9433 15.7224 31.1674 15.727C29.5922 15.7363 28.0171 15.7335 26.442 15.727C25.8826 15.7243 25.39 15.5306 24.9579 15.1727C23.7257 14.1506 22.4916 13.1304 21.2548 12.1139C20.6665 11.6296 20.292 11.6748 19.8246 12.2919C18.321 14.2761 16.824 16.2648 15.3185 18.2471C15.0964 18.5395 14.984 18.8448 15.1411 19.1861C15.3111 19.556 15.6447 19.6298 16.0304 19.628C17.7133 19.6178 19.3971 19.6114 21.0801 19.628C22.9526 19.6455 24.3186 20.8788 24.5054 22.6969C24.5676 23.3066 24.4338 23.8859 24.1718 24.4347C22.855 27.1854 21.5391 29.9351 20.213 32.6812C19.8042 33.527 18.9418 33.8462 18.1714 33.4661C17.4011 33.0861 17.1213 32.2144 17.5377 31.3833C18.7494 28.9583 19.9761 26.5406 21.1944 24.1192C21.4434 23.6248 21.4016 23.2595 21.094 22.9865C20.8896 22.8048 20.6452 22.8066 20.397 22.8066C18.9455 22.8066 17.494 22.8066 16.0415 22.8066V22.8048Z" fill="#B91C1C"/>
<path d="M8.91609 33.0208C8.36131 33.0208 7.80653 33.0217 7.25175 33.0208C6.72206 33.019 6.41447 33.2579 6.37823 33.7025C6.33827 34.1812 6.6059 34.5078 7.13838 34.5456C8.24701 34.6231 9.35749 34.6664 10.4671 34.7282C10.993 34.7577 10.9939 34.7633 10.7951 35.2558C10.0805 37.0269 8.19404 38.0203 6.28159 37.632C4.44812 37.2603 3.12019 35.5676 3.16108 33.6545C3.20196 31.7838 4.63212 30.1936 6.539 29.9021C8.55274 29.594 10.4596 30.8577 10.9642 32.817C11.0413 33.1158 11.0302 33.2385 10.6724 33.2053C10.0888 33.15 9.50246 33.1306 8.91701 33.0955V33.0208H8.91609Z" fill="#B91C1C"/>
<path d="M32.3282 20.4315C33.1051 20.4315 33.1144 20.4334 32.988 21.1907C32.4964 24.1452 31.9974 27.0979 31.5067 30.0515C31.4621 30.3217 31.3711 30.4435 31.0876 30.2977C30.9947 30.2498 30.8813 30.2387 30.7773 30.2129C29.913 29.9952 29.9167 29.9952 30.0599 29.1466C30.5226 26.4042 31.0049 23.6655 31.4268 20.9176C31.5309 20.2378 31.9649 20.473 32.3282 20.4315Z" fill="#B91C1C"/>
<path d="M33.8182 17.2884C34.899 17.2884 35.9797 17.2838 37.0605 17.2902C37.645 17.2939 38.0018 17.602 37.9999 18.0743C37.9981 18.5429 37.6245 18.8629 37.0577 18.8639C35.0346 18.8666 33.0125 18.8694 30.9895 18.8639C30.2758 18.862 29.7684 18.0438 30.0741 17.4092C30.1643 17.221 30.3418 17.293 30.483 17.2921C31.5944 17.2856 32.7068 17.2884 33.8182 17.2893V17.2884Z" fill="#B91C1C"/>
<path d="M11.5931 24.3419C12.3496 24.3419 13.1069 24.3382 13.8633 24.3446C14.0473 24.3465 14.2397 24.3511 14.4125 24.4037C14.8279 24.53 15.0454 24.828 15.0417 25.2615C15.038 25.6655 14.7592 25.958 14.3373 26.053C13.2342 26.3029 12.1711 26.0871 11.1025 25.8251C10.1462 25.5908 9.19001 25.3436 8.20963 25.2246C7.96802 25.1951 7.96244 25.1112 8.06094 24.9359C8.3072 24.4959 8.70493 24.3446 9.18351 24.3437C9.98641 24.3428 10.7902 24.3437 11.5931 24.3437V24.3419Z" fill="#B91C1C"/>
<path d="M8.68574 43.9954C8.19322 43.9954 7.69978 44.0018 7.20726 43.9935C6.68686 43.9843 6.32259 43.6375 6.33839 43.1836C6.35325 42.7455 6.7008 42.4309 7.21098 42.4272C8.22761 42.4189 9.24424 42.418 10.2609 42.4291C10.759 42.4346 11.1112 42.7732 11.1093 43.2095C11.1074 43.643 10.7478 43.9834 10.2581 43.9935C9.73489 44.0037 9.21078 43.9954 8.68667 43.9963L8.68574 43.9954Z" fill="#B91C1C"/>
<path d="M26.8759 43.9968C26.3983 43.9968 25.9216 44.0014 25.4439 43.9959C24.8873 43.9894 24.5583 43.7026 24.5481 43.2266C24.5379 42.7442 24.8585 42.4333 25.4077 42.4287C26.4234 42.4204 27.44 42.4195 28.4557 42.4306C28.9687 42.4361 29.292 42.7562 29.2893 43.2137C29.2865 43.6638 28.9482 43.9858 28.4455 43.995C27.9223 44.0051 27.3991 43.9968 26.875 43.9977L26.8759 43.9968Z" fill="#B91C1C"/>
</svg>
