<svg width="32" height="32" viewBox="0 0 32 32" fill="none" xmlns="http://www.w3.org/2000/svg">
<g clip-path="url(#clip0_1365_4474)">
<path d="M12.5642 -0.000350376C14.211 0.694717 15.3381 2.06231 15.7182 3.81375C16.7207 4.03166 17.5573 4.54451 18.2949 5.2402L25.8096 2.6528C26.4076 2.50878 27.0902 3.06295 27.5573 3.41111C29.6813 4.99098 31.1565 7.48195 31.7195 10.0612C31.8328 10.5797 31.8873 11.1069 32 11.6242V25.7484C31.7339 29.0854 29.2874 31.6196 25.9706 32.0003L0.509706 23.1473C0.204759 23.0007 0.00814026 22.682 0 22.3445V12.2773C0.0325611 11.9078 0.139637 11.6818 0.469004 11.4964L10.114 8.11002C10.2805 6.08743 11.7564 4.29967 13.752 3.87324C13.5817 3.25081 13.2192 2.65656 12.7101 2.25956C12.1559 1.82811 11.3093 1.75109 11.3757 0.843749C11.4095 0.382876 11.6894 0.191263 12.0651 -0.000976562H12.5648L12.5642 -0.000350376ZM3.87727 12.2497C3.9618 12.3906 4.19599 12.4432 4.34502 12.5002C8.56982 14.1202 12.9631 15.3381 17.186 16.9706C17.4026 17.1547 17.5924 17.3563 17.6281 17.6537C17.8284 19.3231 17.4627 21.3676 17.6418 23.0771C17.8491 24.1197 19.3137 24.1072 19.4865 23.0771C19.6894 21.8692 19.3507 20.2098 19.5003 18.9662C19.5579 18.4866 20.0739 18.0626 20.5654 18.149L25.8134 19.975C25.8817 20.0088 25.9305 19.99 25.9969 19.9681C26.1209 19.9274 26.9155 19.2348 27.0645 19.0933C29.0902 17.1653 30.4177 14.3193 30.0551 11.4758C29.7163 8.81886 28.263 6.0029 25.9086 4.6303L19.2511 6.93779C21.0225 12.8377 12.7351 15.7226 10.4001 10.0562L3.87727 12.2491V12.2497ZM14.551 5.64284C10.6299 6.00979 11.603 12.1063 15.5034 11.157C18.7902 10.3574 17.9925 5.32098 14.551 5.64284ZM15.7514 18.4358L1.87727 13.6242V16.593L15.7514 21.4365V18.4365V18.4358ZM27.0006 29.8105C28 29.4235 28.8566 28.803 29.402 27.8681C29.8817 27.0453 30.0789 26.0409 30.1284 25.0947C30.243 22.9124 30.0369 20.6281 30.1246 18.4358C29.2254 19.6287 28.2173 20.7164 27.0006 21.5918V29.8099V29.8105ZM25.1259 29.7479V26.7791C23.6005 26.1335 21.9925 25.6808 20.4433 25.0891C18.9674 26.2431 16.8441 25.8586 16.0094 24.1466C15.8986 23.92 15.8723 23.538 15.6731 23.4209L1.87727 18.6237V21.5924L25.1252 29.7485L25.1259 29.7479ZM25.1259 24.7484V21.7797L21.3763 20.4359V23.4359L25.1259 24.7484Z" fill="#BB3413"/>
<path d="M25.5466 7.32709C26.8797 7.11043 27.072 8.97145 25.9549 9.17246C24.6481 9.4079 24.4026 7.51306 25.5466 7.32709Z" fill="#BB3413"/>
<path d="M21.7971 11.0771C23.1302 10.8604 23.3225 12.7215 22.2054 12.9225C20.8985 13.1579 20.6531 11.2631 21.7971 11.0771Z" fill="#BB3413"/>
<path d="M26.7966 11.7021C28.1297 11.4854 28.322 13.3465 27.2049 13.5475C25.8981 13.7829 25.6526 11.8881 26.7966 11.7021Z" fill="#BB3413"/>
<path d="M23.6721 15.4511C25.0052 15.2344 25.1975 17.0955 24.0804 17.2965C22.7735 17.5319 22.5281 15.6371 23.6721 15.4511Z" fill="#BB3413"/>
</g>
<defs>
<clipPath id="clip0_1365_4474">
<rect width="32" height="32" fill="white"/>
</clipPath>
</defs>
</svg>
