<svg width="44" height="44" viewBox="0 0 44 44" fill="none" xmlns="http://www.w3.org/2000/svg">
<path d="M44 22.0008C44 33.1121 35.7636 42.2981 25.0638 43.7888C24.0633 43.9276 23.0398 44 22.0008 44C20.8015 44 19.6237 43.9044 18.4768 43.7194C8.00056 42.033 0 32.9503 0 22.0008C0 9.8504 9.8504 0 21.9992 0C34.1481 0 44 9.8504 44 22.0008Z" fill="#1877F2"/>
<path d="M25.0636 17.6645V22.4571H30.9923L30.0535 28.9131H25.0636V43.7874C24.0631 43.9261 23.0396 43.9985 22.0006 43.9985C20.8012 43.9985 19.6235 43.903 18.4766 43.718V28.9131H13.0088V22.4571H18.4766V16.5932C18.4766 12.9551 21.4256 10.0046 25.0651 10.0046V10.0077C25.0759 10.0077 25.0852 10.0046 25.096 10.0046H30.9939V15.5881H27.14C25.9947 15.5881 25.0651 16.5176 25.0651 17.663L25.0636 17.6645Z" fill="white"/>
</svg>
