<svg width="32" height="32" viewBox="0 0 32 32" fill="none" xmlns="http://www.w3.org/2000/svg">
<g clip-path="url(#clip0_1365_4488)">
<path d="M31.2198 17.2288C31.2076 17.04 31.1088 16.0657 30.9875 15.7971C30.9245 15.6581 30.7783 15.5244 30.6373 15.3947C30.5598 15.3241 30.4801 15.2511 30.4339 15.1938C30.1628 14.8575 29.9352 14.4678 29.8242 14.1517C29.7468 13.9312 29.7063 13.7141 29.6699 13.523C29.5567 12.9215 29.4498 12.3541 28.2414 12.5191C27.8288 12.5759 26.8903 12.9661 26.6401 13.3736C26.4772 13.6394 26.4546 14.0574 26.4309 14.5002C26.409 14.9043 26.3847 15.3623 26.2345 15.4914C26.1975 15.5232 26.1403 15.5475 26.0802 15.5736C26.0114 15.6031 25.9334 15.6367 25.8658 15.6905C25.7421 15.7895 25.5988 16.1317 25.2584 17.047C25.1608 17.3098 25.0683 17.5576 25.0175 17.6682C24.9302 17.8575 24.8216 18.0763 24.7366 18.2321C24.58 17.9241 24.3997 17.6433 24.224 17.3695C23.7889 16.6909 23.3775 16.0495 23.4352 15.1423C23.4526 14.8719 23.4977 14.6021 23.5462 14.3167C23.5965 14.0197 23.6485 13.7123 23.6647 13.4061C23.7161 12.4456 23.6647 11.0481 23.1249 9.84272C22.6031 8.67732 21.7432 7.93281 20.5667 7.62887C20.6551 6.95904 21.0561 6.29558 21.5953 5.94475C21.6797 5.88975 21.7929 5.84054 21.9131 5.78844C22.2795 5.62923 22.7811 5.41155 22.6713 4.82972C22.6095 4.50378 22.428 4.36136 22.287 4.29884C21.7871 4.07884 21.0301 4.50899 20.81 4.6462C19.8842 5.22282 19.2416 6.25043 19.0694 7.41582C17.8455 7.44709 16.8197 7.95481 16.0194 8.92742C15.3508 9.73909 14.8509 10.879 14.5736 12.2233C14.5129 12.518 14.4794 12.819 14.4476 13.1102C14.3713 13.8055 14.2991 14.4626 13.8714 14.9923C13.5831 15.3495 13.23 15.6651 12.8561 15.9997C12.299 16.4976 11.7241 17.0117 11.3565 17.6902C10.7717 17.4847 10.1638 17.3625 9.57379 17.2444L9.56339 17.2421C9.70208 16.6255 10.0251 16.1074 10.4845 15.7704C10.5747 15.7039 10.7382 15.6298 10.896 15.558C11.1843 15.4271 11.4328 15.3142 11.5253 15.1504C11.6998 14.8418 11.638 14.4198 11.3843 14.1894C10.9595 13.8032 10.4296 14.0776 10.1129 14.2415C10.0783 14.2594 10.0372 14.2808 10.0008 14.2982C9.57957 12.958 8.50183 11.9495 7.21664 11.7092C6.78613 11.6287 5.70377 11.5818 5.29175 11.9668C4.76472 12.4595 4.98316 13.8681 5.07042 14.2183C5.40328 15.551 6.68558 16.6348 8.10426 16.8143C8.09674 16.8525 8.08923 16.8924 8.08172 16.9341C8.06554 17.0209 8.03838 17.1691 8.01295 17.245C5.44951 17.4962 3.24203 19.0339 2.09668 21.3699C0.950759 23.7071 1.10274 26.4066 2.50235 28.5927C3.56853 30.2571 5.21373 31.4023 7.13574 31.8179C9.10282 32.2434 11.1335 31.8741 12.8648 30.7776C14.0257 31.2471 14.9451 31.5377 15.8351 31.7178C16.7648 31.9059 17.6837 31.9997 18.5828 31.9997C20.6695 31.9997 22.6505 31.4966 24.4171 30.5061C26.8846 29.1218 28.8378 26.8484 30.0652 23.9311C30.7396 22.328 31.1395 20.7365 31.2221 19.3286C31.2602 18.6726 31.2602 17.8285 31.2221 17.2276L31.2198 17.2288ZM8.61567 15.3328C8.5654 15.3368 8.46716 15.3293 8.43076 15.3264C7.2727 15.2361 6.45269 14.3271 6.47003 13.1843C6.97509 13.167 7.46397 13.3343 7.8575 13.6643C8.30131 14.0365 8.56945 14.5622 8.61163 15.1452C8.61914 15.2494 8.61856 15.3044 8.61567 15.3333V15.3328ZM22.9521 18.1921C23.2879 18.7218 23.6051 19.2232 23.7924 19.7593C21.9484 22.3958 19.152 24.3502 16.0778 25.1567C16.1916 23.8576 15.9344 22.5446 15.3294 21.3433C14.7348 20.1634 13.8333 19.1393 12.7163 18.3733C13.0468 17.8668 13.5276 17.4256 13.9934 16.9984C14.7261 16.3268 15.4843 15.6321 15.7409 14.6375C15.8772 14.1095 15.9506 13.5977 16.0211 13.1033C16.1714 12.0543 16.3135 11.0637 17.033 10.0679C17.6542 9.20821 18.6493 8.79021 19.6958 8.94942C20.7331 9.10805 21.5525 9.79756 21.8871 10.7939C22.2835 11.9749 22.1558 12.8804 22.0212 13.8397C21.9518 14.3335 21.8796 14.8436 21.8721 15.4173C21.8582 16.4652 22.4141 17.3434 22.9521 18.1921ZM14.5111 25.4456L13.7865 25.4879C13.9471 24.5836 13.857 23.5594 13.5438 22.819C13.4034 22.4872 13.1635 22.2528 12.9023 22.1926C12.7544 22.1584 12.5273 22.1625 12.2834 22.3749C11.8945 22.7142 12.0523 23.1901 12.1794 23.5722C12.2205 23.6949 12.2586 23.8107 12.2782 23.9149C12.384 24.4689 12.369 24.9714 12.2291 25.4844C11.8466 25.4456 11.4311 25.3906 10.9341 25.3119C10.7313 25.28 10.5596 25.2343 10.4077 25.1943C9.89856 25.0606 9.53045 24.9633 8.87283 25.5463C8.56887 25.8155 7.6096 26.9682 7.97539 27.605C8.18805 27.9755 9.46862 28.8613 9.85579 29.1241C10.0517 29.2573 10.2904 29.3905 10.5203 29.5196C10.7671 29.6579 11.0214 29.8003 11.2178 29.9393C10.974 30.0354 10.566 30.1848 10.4637 30.216C8.94795 30.6722 7.46339 30.5738 6.17011 29.9312C5.00859 29.3546 4.04527 28.3553 3.457 27.117C2.37926 24.8481 2.56303 21.6941 5.40212 19.7622C6.41629 19.0721 7.56048 18.7265 8.70525 18.7265C9.85001 18.7265 10.8833 19.0391 11.8604 19.6667C13.8345 20.9334 14.8411 23.138 14.51 25.4444L14.5111 25.4456ZM9.92918 26.6608C10.1384 26.6938 10.3516 26.7378 10.5579 26.7806C10.8492 26.8408 11.1508 26.9034 11.4536 26.9381C14.6776 27.3074 17.8368 26.5901 20.5892 24.8649C23.2486 23.1982 25.348 20.7192 26.6598 17.696C26.7014 17.5999 26.7488 17.4488 26.7985 17.289C26.8493 17.1269 26.9239 16.886 26.9672 16.8125C26.9863 16.798 27.0285 16.7714 27.0602 16.7506C27.1706 16.6799 27.3076 16.5925 27.3989 16.4901C27.845 15.9887 27.893 15.3287 27.9398 14.6907C27.9519 14.5211 27.964 14.3596 27.9831 14.2038L28.2559 14.1158C28.383 14.7579 28.6835 15.4184 29.0978 15.9551C29.1649 16.0425 29.2492 16.1184 29.3307 16.1925C29.407 16.2614 29.4792 16.3268 29.5197 16.3853C29.6884 16.6319 29.752 18.0775 29.7225 18.7664C29.5613 22.5393 27.9045 25.9562 25.1775 28.1417C22.7302 30.1025 19.6184 30.8638 16.4147 30.2838C14.228 29.8883 11.9887 28.8324 9.57206 27.0579C9.65874 26.9282 9.84192 26.7169 9.92918 26.6608Z" fill="#BB3413"/>
<path d="M18.0241 29.4712C18.1397 29.492 18.2703 29.5019 18.413 29.5019C19.4278 29.5019 21.0343 29.0167 21.7716 28.6914L21.8433 28.6601C22.2016 28.5038 22.6916 28.2896 22.8216 27.8976C22.8817 27.7158 22.8552 27.5231 22.743 27.3262C22.3755 26.6825 21.5919 27.0588 21.073 27.3077C20.9331 27.3749 20.8008 27.4385 20.6951 27.4762C20.1449 27.6719 19.5994 27.805 18.8707 27.9214C18.7921 27.9341 18.676 27.9416 18.5523 27.9492C18.1143 27.9769 17.7912 28.0088 17.6237 28.1651C17.4127 28.3608 17.3359 28.6445 17.4168 28.9235C17.5 29.2089 17.7323 29.4191 18.0235 29.4718L18.0241 29.4712Z" fill="#BB3413"/>
<path d="M23.4446 27.61C23.4671 27.61 23.4896 27.6094 23.5133 27.6077C23.8028 27.5862 24.0323 27.4299 24.1432 27.1793C24.2623 26.9095 24.2224 26.5743 24.0438 26.3456C23.8791 26.1343 23.6197 26.0422 23.3325 26.0926C22.8754 26.1731 22.676 26.6003 22.7211 26.9616C22.7609 27.2817 23.0031 27.61 23.4446 27.61Z" fill="#BB3413"/>
<path d="M20.3199 9.85026C20.0223 9.70553 19.7062 9.7119 19.4745 9.86763C19.256 10.0147 19.1422 10.274 19.1612 10.5797C19.1809 10.89 19.3618 11.0232 19.5068 11.1303C19.5894 11.1911 19.6675 11.2484 19.7218 11.3381C20.0714 11.9153 19.9581 12.8833 19.8668 13.6608C19.8397 13.8941 19.8137 14.1141 19.8009 14.311C19.7992 14.3353 19.7975 14.359 19.7957 14.3833C19.7784 14.6242 19.7588 14.8968 19.9524 15.129C20.0882 15.2917 20.2933 15.3912 20.5158 15.4017C20.5291 15.4022 20.5424 15.4028 20.5557 15.4028C20.7492 15.4028 20.9261 15.3334 21.0555 15.2054C21.3762 14.8882 21.4716 13.3065 21.4722 13.2909C21.5294 12.243 21.456 10.4026 20.3199 9.85026Z" fill="#BB3413"/>
<path d="M11.6123 20.7807C11.1789 20.8809 11.0281 21.3157 11.1061 21.6734C11.1726 21.9791 11.4199 22.2692 11.8204 22.2692C11.8793 22.2692 11.9417 22.2628 12.0076 22.2495C12.2717 22.1951 12.4693 22.0202 12.5502 21.7701C12.6375 21.4998 12.5722 21.1929 12.3844 20.9874C12.1966 20.7825 11.9226 20.7089 11.6129 20.7807H11.6123Z" fill="#BB3413"/>
<path d="M5.39698 0C5.42575 0.0261068 5.4529 0.0435114 5.47733 0.0761449C5.69666 0.375829 6.09894 1.09594 6.26181 1.43914C6.33673 1.59687 6.32913 1.69477 6.13694 1.7323C5.62662 1.69586 5.0555 1.77853 4.55223 1.73284C4.42085 1.72087 4.34105 1.66213 4.36439 1.5229L5.19176 0.0761449L5.27211 0H5.39698Z" fill="#BB3413"/>
<path d="M10.6667 5.27965V5.40474C10.6406 5.43357 10.6232 5.46076 10.5906 5.48524C10.2915 5.70497 9.57272 6.10799 9.23015 6.27116C9.07271 6.34622 8.97499 6.3386 8.93753 6.14607C8.97391 5.63481 8.89139 5.06263 8.93699 4.55845C8.94893 4.42682 9.00757 4.34687 9.14655 4.37026L10.5906 5.19915L10.6667 5.27965Z" fill="#BB3413"/>
<path d="M5.14253 2.4053C7.53615 2.23289 9.11217 4.94092 7.78805 6.95441C6.62789 8.7188 4.03991 8.71771 2.88028 6.95441C1.63868 5.06602 2.91883 2.5652 5.14253 2.4053Z" fill="#BB3413"/>
<path d="M6.26596 8.99866C6.29962 9.03238 6.32948 9.13083 6.29745 9.17434L5.46899 10.6195C5.28387 10.781 5.21221 10.6314 5.12263 10.4884C4.85552 10.0625 4.63348 9.60401 4.3718 9.17434C4.32566 9.0313 4.41904 8.96168 4.55259 8.94971C5.05531 8.90403 5.62698 8.9867 6.1373 8.95026C6.1715 8.95406 6.24316 8.97528 6.26651 8.99866H6.26596Z" fill="#BB3413"/>
<path d="M1.68338 4.40908C1.70619 4.43193 1.72736 4.50372 1.7317 4.53853C1.69533 5.04979 1.77785 5.62196 1.73224 6.12615C1.7203 6.25995 1.65081 6.3535 1.50803 6.30726L0.0785861 5.4849C-0.0251068 5.41909 -0.0272784 5.2668 0.0785861 5.19881L1.50803 4.37699C1.55146 4.3449 1.64972 4.37482 1.68338 4.40854V4.40908Z" fill="#BB3413"/>
<path d="M1.64217 1.65192C1.67366 1.64485 1.7046 1.64431 1.73609 1.65247C2.20244 1.83521 2.82622 1.88362 3.27737 2.07072C3.40169 2.12239 3.43101 2.19962 3.3778 2.32744L2.21058 3.49517C2.12534 3.58328 1.99559 3.55663 1.94945 3.44296C1.83435 3.00023 1.69049 2.56131 1.58679 2.11641C1.55476 1.97989 1.43424 1.69815 1.64217 1.65247V1.65192Z" fill="#BB3413"/>
<path d="M8.93282 1.65266C9.10872 1.63526 9.16084 1.71847 9.14075 1.88273C9.08212 2.3619 8.81284 2.93951 8.72489 3.42738C8.68635 3.55084 8.55008 3.58892 8.45833 3.49537L7.29111 2.32763C7.24116 2.21777 7.26451 2.12367 7.37526 2.07581C7.8226 1.8849 8.46756 1.8403 8.93228 1.65266H8.93282Z" fill="#BB3413"/>
<path d="M2.05844 7.41138C2.11327 7.39996 2.15833 7.41192 2.19959 7.44945L3.36736 8.61664C3.45639 8.79558 3.3641 8.84997 3.20992 8.89947C2.72077 9.0572 2.20502 9.14313 1.71533 9.30249C1.54106 9.31391 1.50414 9.20677 1.52803 9.05067C1.60186 8.56552 1.85539 8.01619 1.93846 7.52125C1.95583 7.47338 2.00958 7.42171 2.05898 7.41138H2.05844Z" fill="#BB3413"/>
<path d="M8.53626 7.41095C8.61607 7.39409 8.68773 7.43597 8.72356 7.50668L9.1405 9.05024C9.17796 9.19383 9.11227 9.32436 8.95321 9.30206L7.37935 8.87456C7.27295 8.849 7.24037 8.7152 7.29086 8.62709L8.45809 7.45936C8.48034 7.43869 8.5064 7.41748 8.53626 7.41095Z" fill="#BB3413"/>
</g>
<defs>
<clipPath id="clip0_1365_4488">
<rect width="32" height="32" fill="white"/>
</clipPath>
</defs>
</svg>
