<svg width="41" height="45" viewBox="0 0 41 45" fill="none" xmlns="http://www.w3.org/2000/svg">
<path d="M12.8728 0.1875C12.9911 0.1875 13.1094 0.1875 13.2276 0.1875C13.3086 0.214571 13.3877 0.256488 13.4713 0.266094C15.6849 0.537681 17.8994 0.802282 20.1131 1.07474C26.1527 1.81877 32.1905 2.57328 38.2328 3.2946C38.7335 3.35398 38.8056 3.52165 38.8047 3.95828C38.7931 15.2567 38.7949 26.555 38.7949 37.8534V38.4446H40.9285V41.5569C36.1846 41.7482 31.5538 42.5673 26.8909 43.0922C22.2182 43.6179 17.5553 44.2318 12.8452 44.8125V44.1872C12.8452 29.7084 12.8452 15.2296 12.8461 0.751633C12.8461 0.56388 12.863 0.375253 12.8719 0.1875L12.8728 0.1875ZM17.7411 19.3331V25.666H20.9286V19.3331H17.7411Z" fill="#F0611F"/>
<path d="M0.36084 38.449H2.56823V3.40381H9.55681V6.55282H5.83039V38.4324H9.56837V41.5849C9.45453 41.5972 9.34247 41.6199 9.2313 41.6199C6.4067 41.6216 3.5821 41.6216 0.757494 41.6199C0.624979 41.6199 0.493354 41.5989 0.36084 41.5876C0.36084 40.5414 0.36084 39.4961 0.36084 38.4499L0.36084 38.449Z" fill="#F0611F"/>
</svg>
