<svg width="67" height="40" viewBox="0 0 67 40" fill="none" xmlns="http://www.w3.org/2000/svg">
<g clip-path="url(#clip0_777_883)">
<path d="M18.3034 29.6277C18.3755 29.2867 18.4335 28.9416 18.5213 28.6046C19.398 25.2105 22.738 23.2458 26.2579 24.0396C28.5465 24.5561 30.8376 25.0644 33.1311 25.5613C33.4692 25.6347 33.562 25.7179 33.3681 26.0459C33.0988 26.5012 32.8792 26.9858 32.648 27.4623C32.3249 28.1257 32.242 28.8151 32.5146 29.5102C32.6455 29.8439 32.5304 29.8562 32.2379 29.8333C31.483 29.7738 30.7265 29.7346 29.97 29.7126C29.6991 29.7044 29.5773 29.662 29.5209 29.352C29.1497 27.2828 27.6748 25.7971 25.6191 25.3753C22.8193 24.8001 20.0948 26.7492 19.7717 29.5567C19.4311 32.5168 21.7885 35.0788 24.7789 34.9988C26.9225 34.9417 28.8058 33.5179 29.3825 31.4904C29.4704 31.1812 29.5673 31.0605 29.9269 31.0825C32.4276 31.2334 34.9308 31.3558 37.4332 31.4863C37.5848 31.4945 37.7364 31.5084 37.8872 31.5002C38.299 31.4774 38.5659 31.2138 38.5758 30.8344C38.5857 30.4526 38.3396 30.1752 37.9311 30.123C37.7704 30.1026 37.6072 30.1058 37.4066 30.0961C37.9096 29.0574 38.4001 28.0473 38.8882 27.0372C39.0324 26.7394 39.261 26.9418 39.4234 26.9769C41.3557 27.3922 43.283 27.8279 45.212 28.2546C46.7648 28.5981 47.8693 29.4637 48.4071 30.9576C49.3409 33.5563 47.392 36.3589 44.5914 36.3703C37.8839 36.3972 31.1756 36.4005 24.4673 36.3687C21.3841 36.354 18.7401 33.9137 18.3821 30.8728C18.368 30.7553 18.3291 30.6411 18.3018 30.5252C18.3018 30.2266 18.3018 29.928 18.3018 29.6294L18.3034 29.6277Z" fill="#375000"/>
<path d="M41.5306 0.235779C41.6416 0.360611 41.8098 0.335319 41.949 0.381009C44.0984 1.08023 44.7994 3.69764 43.264 5.33515C42.9094 5.71373 42.5398 6.08088 42.1512 6.42519C40.9448 7.49565 39.0738 7.43528 37.9254 6.30281C36.772 5.16544 36.714 3.3362 37.8094 2.14335C38.1781 1.74193 38.5833 1.37151 38.9752 0.990486C39.3887 0.587432 39.9356 0.43649 40.4559 0.236595H41.5306V0.235779Z" fill="#375000"/>
<path d="M32.605 20.4073C31.324 20.4073 30.0438 20.4171 28.7628 20.4048C27.1719 20.3893 26.021 19.252 26.0823 17.7719C26.103 17.2718 26.2828 16.8222 26.567 16.4102C28.6949 13.3285 30.8177 10.2444 32.9513 7.16685C33.7377 6.03194 35.0402 5.83449 36.1406 6.66671C37.729 7.86853 39.0871 9.31675 40.5404 10.663C42.0725 12.0818 41.9814 12.0622 44.0719 12.0467C44.7464 12.0419 45.4217 12.0419 46.0962 12.0467C46.769 12.0525 47.2264 12.471 47.233 13.0756C47.2404 13.7014 46.7839 14.1428 46.092 14.1469C44.6875 14.155 43.2831 14.1526 41.8786 14.1469C41.3798 14.1444 40.9406 13.9731 40.5553 13.6565C39.4566 12.7525 38.3563 11.8501 37.2534 10.951C36.7289 10.5226 36.395 10.5626 35.9782 11.1085C34.6375 12.8635 33.3027 14.6225 31.9603 16.3759C31.7623 16.6346 31.662 16.9046 31.8021 17.2065C31.9537 17.5337 32.2512 17.5989 32.595 17.5973C34.0956 17.5883 35.597 17.5826 37.0976 17.5973C38.7672 17.6128 39.9853 18.7037 40.1518 20.3118C40.2073 20.8511 40.088 21.3635 39.8544 21.849C38.6802 24.282 37.507 26.7142 36.3245 29.1431C35.96 29.8913 35.191 30.1736 34.5041 29.8374C33.8172 29.5013 33.5678 28.7303 33.939 27.9951C35.0195 25.8501 36.1133 23.7117 37.1995 21.5699C37.4216 21.1326 37.3843 20.8095 37.1101 20.568C36.9278 20.4073 36.7098 20.4089 36.4886 20.4089C35.1943 20.4089 33.9001 20.4089 32.605 20.4089V20.4073Z" fill="#375000"/>
<path d="M26.2522 29.4434C25.7575 29.4434 25.2628 29.4442 24.7682 29.4434C24.2959 29.4417 24.0216 29.653 23.9893 30.0463C23.9537 30.4698 24.1923 30.7586 24.6671 30.792C25.6556 30.8606 26.6458 30.8989 27.6351 30.9536C28.1041 30.9797 28.1049 30.9846 27.9276 31.4203C27.2904 32.9868 25.6084 33.8655 23.9031 33.522C22.2683 33.1932 21.0842 31.6961 21.1207 30.0039C21.1572 28.3492 22.4324 26.9426 24.1326 26.6848C25.9282 26.4123 27.6285 27.5301 28.0784 29.263C28.1472 29.5274 28.1372 29.6359 27.8182 29.6065C27.2979 29.5576 26.775 29.5405 26.253 29.5094V29.4434H26.2522Z" fill="#375000"/>
<path d="M47.1277 18.308C47.8204 18.308 47.8287 18.3096 47.716 18.9794C47.2776 21.5928 46.8327 24.2045 46.3952 26.817C46.3554 27.056 46.2742 27.1637 46.0215 27.0348C45.9386 26.9924 45.8376 26.9826 45.7447 26.9598C44.9742 26.7672 44.9775 26.7672 45.1051 26.0166C45.5177 23.5909 45.9478 21.1685 46.3239 18.7379C46.4167 18.1366 46.8037 18.3447 47.1277 18.308Z" fill="#375000"/>
<path d="M48.4559 15.5274C49.4196 15.5274 50.3833 15.5233 51.3469 15.529C51.8681 15.5323 52.1863 15.8048 52.1846 16.2225C52.183 16.637 51.8499 16.9201 51.3444 16.9209C49.5406 16.9234 47.7376 16.9258 45.9337 16.9209C45.2973 16.9193 44.8449 16.1956 45.1175 15.6343C45.1979 15.4678 45.3562 15.5314 45.4821 15.5306C46.4731 15.5249 47.4649 15.5274 48.4559 15.5282V15.5274Z" fill="#375000"/>
<path d="M28.6385 21.7666C29.313 21.7666 29.9883 21.7633 30.6628 21.769C30.8268 21.7706 30.9983 21.7747 31.1525 21.8212C31.5228 21.933 31.7167 22.1965 31.7134 22.58C31.7101 22.9374 31.4615 23.196 31.0853 23.28C30.1018 23.5012 29.1539 23.3102 28.201 23.0785C27.3484 22.8713 26.4958 22.6526 25.6216 22.5474C25.4062 22.5213 25.4012 22.447 25.489 22.292C25.7086 21.9028 26.0632 21.769 26.49 21.7682C27.2059 21.7674 27.9226 21.7682 28.6385 21.7682V21.7666Z" fill="#375000"/>
<path d="M26.0466 39.1509C25.6074 39.1509 25.1675 39.1566 24.7283 39.1493C24.2643 39.1411 23.9395 38.8343 23.9536 38.4329C23.9668 38.0454 24.2767 37.7671 24.7316 37.7639C25.6381 37.7565 26.5446 37.7557 27.4511 37.7655C27.8952 37.7704 28.2092 38.0698 28.2076 38.4558C28.2059 38.8392 27.8852 39.1403 27.4486 39.1493C26.9821 39.1583 26.5148 39.1509 26.0474 39.1517L26.0466 39.1509Z" fill="#375000"/>
<path d="M42.2671 39.1517C41.8412 39.1517 41.4162 39.1558 40.9903 39.1509C40.4939 39.1452 40.2006 38.8915 40.1915 38.4705C40.1824 38.0437 40.4682 37.7688 40.9579 37.7647C41.8636 37.7574 42.7701 37.7565 43.6757 37.7663C44.1331 37.7712 44.4215 38.0544 44.419 38.459C44.4165 38.8572 44.1149 39.1419 43.6666 39.1501C43.2001 39.1591 42.7336 39.1517 42.2663 39.1526L42.2671 39.1517Z" fill="#375000"/>
<path d="M48.4355 23.6241C48.4639 23.49 48.4867 23.3547 48.5211 23.2218C48.8658 21.888 50.1781 21.1161 51.561 21.4282C52.4607 21.6311 53.3609 21.831 54.2617 22.0262C54.3949 22.0553 54.431 22.088 54.3551 22.2167C54.2497 22.3959 54.1629 22.5864 54.0719 22.7733C53.9448 23.0337 53.9122 23.3049 54.0195 23.5778C54.0707 23.7089 54.0255 23.7137 53.9104 23.7048C53.614 23.6816 53.3163 23.6662 53.0192 23.6573C52.9126 23.6543 52.865 23.6377 52.8427 23.5155C52.6969 22.702 52.1172 22.1188 51.3098 21.9527C50.2095 21.7266 49.1387 22.4926 49.0122 23.5956C48.8784 24.7585 49.8046 25.7654 50.9802 25.734C51.8225 25.7114 52.5625 25.1519 52.7891 24.3551C52.8234 24.2334 52.8614 24.186 53.003 24.1949C53.9858 24.2542 54.9691 24.3023 55.9525 24.3539C56.0122 24.3569 56.0718 24.3628 56.1309 24.3592C56.293 24.3503 56.3978 24.2471 56.4014 24.0976C56.4056 23.9475 56.3086 23.8383 56.1484 23.8181C56.0851 23.8098 56.0206 23.8116 55.9423 23.8074C56.1399 23.3992 56.3327 23.0023 56.5244 22.6053C56.581 22.4885 56.6708 22.568 56.7346 22.5816C57.4939 22.7448 58.2513 22.9156 59.0093 23.0836C59.6191 23.2188 60.0536 23.5588 60.2645 24.1456C60.6314 25.1668 59.8656 26.268 58.7653 26.2727C56.1291 26.2834 53.4935 26.2846 50.8572 26.2721C49.6455 26.2662 48.6067 25.3074 48.4657 24.1124C48.4602 24.0661 48.4452 24.021 48.4343 23.9759C48.4343 23.8585 48.4343 23.7416 48.4343 23.6241H48.4355Z" fill="#375000"/>
<path d="M50.8392 27.3674C50.7952 27.3152 50.7265 27.2897 50.6922 27.225C50.5909 27.0375 50.7157 26.8263 50.9416 26.8221C51.2978 26.8156 51.6539 26.8221 52.0106 26.8192C52.1564 26.818 52.2625 26.8714 52.3095 27.0126C52.3577 27.1568 52.2926 27.2582 52.1733 27.3359C52.1606 27.3443 52.1504 27.3567 52.1389 27.3674H50.8398H50.8392Z" fill="#375000"/>
<path d="M57.2052 27.3674C57.1606 27.3098 57.0889 27.279 57.0576 27.2066C56.981 27.028 57.0919 26.8298 57.2902 26.8251C57.6728 26.8162 58.056 26.8209 58.4392 26.8233C58.5694 26.8239 58.6508 26.9016 58.6869 27.0167C58.7219 27.1277 58.6857 27.2268 58.5953 27.3027C58.567 27.3264 58.5345 27.346 58.5043 27.3674H57.2052Z" fill="#375000"/>
<path d="M54.0575 20.0006C53.5544 20.0006 53.0512 20.0041 52.5475 19.9994C51.9214 19.9934 51.4689 19.5484 51.4918 18.967C51.4996 18.77 51.5695 18.5932 51.681 18.4312C52.5198 17.2161 53.3567 15.9991 54.1985 14.7858C54.5004 14.3509 55.0162 14.2773 55.4422 14.5995C56.0665 15.0712 56.6003 15.6408 57.1716 16.1694C57.7741 16.7277 57.7386 16.7206 58.5587 16.7147C58.8238 16.7129 59.0889 16.7129 59.3541 16.7147C59.6192 16.7171 59.7993 16.8802 59.803 17.117C59.8066 17.3632 59.6276 17.5382 59.3565 17.54C58.8045 17.5436 58.2526 17.5424 57.7006 17.54C57.5048 17.5394 57.3312 17.473 57.18 17.3484C56.748 16.993 56.3159 16.6387 55.8827 16.2851C55.6748 16.1154 55.5446 16.1303 55.3813 16.3439C54.8547 17.0333 54.3299 17.7245 53.8026 18.414C53.7213 18.5202 53.6815 18.6306 53.7454 18.754C53.8075 18.8738 53.9201 18.8958 54.0485 18.8952C54.6384 18.8922 55.2283 18.8898 55.8182 18.8952C56.4798 18.9011 56.9643 19.3378 57.0221 19.9756C57.0408 20.1815 56.9944 20.3785 56.9046 20.5642C56.4431 21.5201 55.9821 22.4759 55.5175 23.4306C55.3741 23.7249 55.0728 23.8371 54.8035 23.7065C54.5335 23.5754 54.4335 23.2722 54.5787 22.9832C54.9909 22.1639 55.4079 21.3468 55.823 20.5292C55.8423 20.4913 55.8628 20.4533 55.8797 20.4147C55.9821 20.1857 55.8688 20.0029 55.6157 20.0012C55.0963 19.9976 54.5769 20 54.0575 20V20.0006Z" fill="#375000"/>
<path d="M57.4595 12.0754C57.8735 12.1004 58.2561 12.3276 58.4622 12.7904C58.6653 13.2461 58.5893 13.678 58.2615 14.0566C58.1212 14.218 57.9639 14.3669 57.803 14.5093C57.3288 14.9288 56.5912 14.9021 56.1423 14.4553C55.6952 14.0103 55.6699 13.2971 56.0923 12.8325C56.2399 12.67 56.3996 12.5169 56.5623 12.3691C56.7792 12.1716 57.0588 12.0754 57.4589 12.076L57.4595 12.0754Z" fill="#375000"/>
<path d="M49.5425 23.8181C49.5425 23.1109 50.0625 22.5496 50.8073 22.4529C51.4448 22.3704 52.0967 22.8261 52.2739 23.4657C52.3149 23.6128 52.2667 23.6217 52.1407 23.6128C51.7629 23.5867 51.3851 23.5701 51.0067 23.5529C50.794 23.5434 50.6825 23.6247 50.6693 23.789C50.6554 23.9647 50.7536 24.0703 50.9694 24.0845C51.3417 24.1094 51.7147 24.1237 52.0871 24.1427C52.2884 24.1533 52.2884 24.1539 52.2094 24.3426C51.9539 24.9508 51.2996 25.2878 50.6349 25.1531C50.0113 25.0267 49.5431 24.4542 49.5431 23.8175L49.5425 23.8181Z" fill="#375000"/>
<path d="M58.9394 22.3906C59.0346 21.8245 59.134 21.2324 59.2335 20.6408C59.3058 20.2113 59.3829 19.7823 59.448 19.3521C59.4679 19.2198 59.5094 19.1456 59.6577 19.1747C59.6782 19.1789 59.7011 19.1747 59.7221 19.1747C60.0439 19.1747 60.0397 19.1741 59.9873 19.4791C59.8149 20.4842 59.645 21.4899 59.4769 22.4956C59.4606 22.5941 59.4456 22.657 59.3178 22.6042C59.225 22.5656 59.1208 22.5508 59.0202 22.5341C58.9454 22.5217 58.9147 22.4891 58.9394 22.39V22.3906Z" fill="#375000"/>
<path d="M60.2909 18.0829C60.6639 18.0829 61.0375 18.0817 61.4105 18.0829C61.625 18.0841 61.7539 18.1939 61.7485 18.363C61.7431 18.5255 61.6135 18.63 61.4111 18.6306C60.7133 18.6318 60.0155 18.6318 59.3172 18.6306C59.0418 18.6306 58.8755 18.3885 58.9689 18.1328C58.996 18.0586 59.0575 18.0841 59.1051 18.0835C59.4998 18.0811 59.895 18.0823 60.2897 18.0823L60.2909 18.0829Z" fill="#375000"/>
<path d="M52.4913 20.5346C52.7565 20.5346 53.0216 20.5334 53.2867 20.5346C53.3458 20.5346 53.4066 20.5376 53.4639 20.55C53.6133 20.5827 53.7085 20.7037 53.7061 20.8485C53.7031 20.995 53.6073 21.1007 53.4476 21.1297C53.1186 21.1897 52.7974 21.1677 52.4721 21.084C52.0912 20.9867 51.708 20.8924 51.317 20.8414C51.2175 20.8283 51.2278 20.7927 51.2645 20.731C51.3507 20.5868 51.4857 20.5352 51.6472 20.5346C51.9286 20.534 52.21 20.5346 52.4913 20.5346Z" fill="#375000"/>
<path d="M5.74999 23.6352C5.77839 23.5007 5.80135 23.3651 5.83579 23.2318C6.18144 21.8942 7.49754 21.1201 8.88435 21.4331C9.78652 21.6366 10.6893 21.8371 11.5927 22.0328C11.7262 22.062 11.7625 22.0947 11.6864 22.2238C11.5806 22.4035 11.4936 22.5945 11.4023 22.782C11.2748 23.0432 11.2422 23.3151 11.3498 23.5888C11.4011 23.7203 11.3558 23.7251 11.2404 23.7161C10.9431 23.6929 10.6446 23.6775 10.3467 23.6685C10.2397 23.6656 10.192 23.6489 10.1696 23.5263C10.0234 22.7106 9.44209 22.1257 8.63236 21.9591C7.52896 21.7324 6.45517 22.5005 6.32828 23.6066C6.19413 24.7729 7.12289 25.7826 8.30183 25.7511C9.1466 25.7285 9.88865 25.1674 10.1159 24.3683C10.1503 24.2463 10.1884 24.1987 10.3304 24.2076C11.3159 24.2671 12.3021 24.3153 13.2883 24.3671C13.3481 24.37 13.4079 24.376 13.4671 24.3724C13.6297 24.3635 13.7348 24.26 13.7385 24.11C13.7427 23.9595 13.6454 23.85 13.4847 23.8298C13.4212 23.8214 13.3566 23.8232 13.278 23.8191C13.4762 23.4097 13.6696 23.0116 13.8617 22.6136C13.9185 22.4964 14.0086 22.5761 14.0726 22.5898C14.834 22.7534 15.5936 22.9248 16.3537 23.0931C16.9653 23.2288 17.401 23.5698 17.6124 24.1582C17.9804 25.1822 17.2124 26.2866 16.109 26.2913C13.4653 26.3021 10.8222 26.3033 8.17856 26.2908C6.96337 26.2848 5.9216 25.3233 5.7802 24.1249C5.77476 24.0785 5.75966 24.0333 5.74878 23.9881C5.74878 23.8702 5.74878 23.753 5.74878 23.6352H5.74999Z" fill="#375000"/>
<path d="M8.1604 27.3891C8.11629 27.3368 8.0474 27.3112 8.01296 27.2463C7.91144 27.0583 8.03653 26.8465 8.26313 26.8423C8.62025 26.8358 8.97738 26.8423 9.33511 26.8393C9.48134 26.8381 9.58769 26.8917 9.63483 27.0333C9.68317 27.1779 9.61791 27.2796 9.49826 27.3576C9.48557 27.3659 9.4753 27.3784 9.46382 27.3891H8.16101H8.1604Z" fill="#375000"/>
<path d="M14.5446 27.3891C14.4998 27.3314 14.4279 27.3004 14.3965 27.2279C14.3198 27.0488 14.431 26.85 14.6298 26.8453C15.0135 26.8363 15.3978 26.8411 15.7821 26.8435C15.9126 26.8441 15.9942 26.922 16.0305 27.0374C16.0655 27.1487 16.0292 27.2481 15.9386 27.3242C15.9102 27.348 15.8776 27.3677 15.8474 27.3891H14.5446Z" fill="#375000"/>
<path d="M11.3879 20.0014C10.8833 20.0014 10.3788 20.005 9.8736 20.0002C9.24577 19.9943 8.79196 19.548 8.81492 18.9649C8.82278 18.7674 8.89287 18.59 9.00466 18.4276C9.84581 17.209 10.6851 15.9886 11.5293 14.7718C11.8321 14.3357 12.3493 14.2619 12.7765 14.585C13.4026 15.058 13.9379 15.6293 14.5108 16.1594C15.1151 16.7193 15.0794 16.7122 15.9018 16.7062C16.1677 16.7044 16.4336 16.7044 16.6995 16.7062C16.9653 16.7086 17.146 16.8722 17.1496 17.1097C17.1533 17.3566 16.9738 17.5321 16.7019 17.5339C16.1484 17.5375 15.5949 17.5363 15.0413 17.5339C14.8449 17.5333 14.6709 17.4667 14.5192 17.3417C14.086 16.9853 13.6527 16.6301 13.2182 16.2754C13.0098 16.1053 12.8793 16.1201 12.7155 16.3343C12.1874 17.0258 11.661 17.7189 11.1323 18.4104C11.0507 18.5169 11.0108 18.6275 11.0749 18.7513C11.1371 18.8715 11.2501 18.8935 11.3788 18.8929C11.9704 18.8899 12.562 18.8876 13.1536 18.8929C13.8171 18.8989 14.3029 19.3368 14.3609 19.9764C14.3797 20.1829 14.3331 20.3804 14.2431 20.5667C13.7802 21.5253 13.318 22.4838 12.8521 23.4412C12.7082 23.7363 12.4061 23.8488 12.136 23.7179C11.8653 23.5864 11.765 23.2823 11.9106 22.9926C12.3239 22.1708 12.7421 21.3515 13.1584 20.5316C13.1778 20.4935 13.1983 20.4554 13.2152 20.4167C13.318 20.1871 13.2044 20.0038 12.9506 20.002C12.4297 19.9984 11.9088 20.0008 11.3879 20.0008V20.0014Z" fill="#375000"/>
<path d="M14.7996 12.0538C15.2147 12.0788 15.5984 12.3067 15.8051 12.7708C16.0087 13.2278 15.9326 13.661 15.6039 14.0406C15.4631 14.2024 15.3054 14.3518 15.144 14.4946C14.6685 14.9153 13.9288 14.8885 13.4787 14.4404C13.0303 13.9942 13.0049 13.279 13.4285 12.8131C13.5765 12.65 13.7367 12.4965 13.8998 12.3484C14.1174 12.1502 14.3978 12.0538 14.799 12.0544L14.7996 12.0538Z" fill="#375000"/>
<path d="M6.85999 23.8298C6.85999 23.1205 7.38147 22.5576 8.12835 22.4607C8.76767 22.378 9.42149 22.8349 9.59915 23.4764C9.64024 23.6239 9.5919 23.6328 9.46561 23.6239C9.08673 23.5977 8.70785 23.5811 8.32837 23.5638C8.11506 23.5543 8.00327 23.6358 7.98997 23.8006C7.97608 23.9768 8.07457 24.0827 8.2909 24.097C8.66434 24.1219 9.03839 24.1362 9.41183 24.1553C9.61365 24.166 9.61365 24.1666 9.53449 24.3558C9.27828 24.9657 8.62204 25.3036 7.95553 25.1686C7.33011 25.0418 6.86059 24.4676 6.86059 23.8292L6.85999 23.8298Z" fill="#375000"/>
<path d="M16.2843 22.3982C16.3798 21.8306 16.4795 21.2367 16.5792 20.6435C16.6517 20.2127 16.729 19.7825 16.7943 19.3511C16.8142 19.2184 16.8559 19.1441 17.0046 19.1732C17.0251 19.1774 17.0481 19.1732 17.0692 19.1732C17.3919 19.1732 17.3877 19.1726 17.3351 19.4785C17.1623 20.4864 16.9919 21.495 16.8233 22.5035C16.807 22.6023 16.7919 22.6654 16.6638 22.6124C16.5707 22.5737 16.4662 22.5589 16.3653 22.5422C16.2903 22.5297 16.2595 22.497 16.2843 22.3976V22.3982Z" fill="#375000"/>
<path d="M17.6396 18.0784C18.0136 18.0784 18.3883 18.0772 18.7623 18.0784C18.9774 18.0795 19.1068 18.1896 19.1013 18.3592C19.0959 18.5222 18.966 18.627 18.7629 18.6275C18.0632 18.6287 17.3634 18.6287 16.6631 18.6275C16.3869 18.6275 16.2202 18.3848 16.3138 18.1283C16.341 18.054 16.4026 18.0795 16.4504 18.0789C16.8462 18.0766 17.2426 18.0778 17.6384 18.0778L17.6396 18.0784Z" fill="#375000"/>
<path d="M9.81728 20.537C10.0832 20.537 10.349 20.5358 10.6149 20.537C10.6741 20.537 10.7352 20.5399 10.7926 20.5524C10.9424 20.5852 11.0379 20.7065 11.0355 20.8517C11.0325 20.9987 10.9364 21.1046 10.7763 21.1338C10.4463 21.1939 10.1243 21.1718 9.79795 21.088C9.41605 20.9904 9.03173 20.8958 8.63956 20.8446C8.53985 20.8315 8.55013 20.7958 8.58699 20.7339C8.6734 20.5893 8.80875 20.5376 8.9707 20.537C9.25289 20.5364 9.53509 20.537 9.81728 20.537Z" fill="#375000"/>
</g>
<defs>
<clipPath id="clip0_777_883">
<rect width="66" height="39" fill="white" transform="translate(0.748779 0.154175)"/>
</clipPath>
</defs>
</svg>
