<svg width="67" height="40" viewBox="0 0 67 40" fill="none" xmlns="http://www.w3.org/2000/svg">
<g clip-path="url(#clip0_859_4107)">
<path d="M18.3034 29.6279C18.3755 29.2868 18.4335 28.9417 18.5213 28.6047C19.398 25.2106 22.738 23.2459 26.2579 24.0398C28.5465 24.5563 30.8376 25.0646 33.1311 25.5614C33.4692 25.6349 33.562 25.7181 33.3681 26.0461C33.0988 26.5014 32.8792 26.986 32.648 27.4625C32.3249 28.1258 32.242 28.8152 32.5146 29.5104C32.6455 29.8441 32.5304 29.8563 32.2379 29.8335C31.483 29.7739 30.7265 29.7348 29.97 29.7127C29.6991 29.7046 29.5773 29.6621 29.5209 29.3521C29.1497 27.283 27.6748 25.7972 25.6191 25.3754C22.8193 24.8002 20.0948 26.7494 19.7717 29.5569C19.4311 32.517 21.7885 35.0789 24.7789 34.999C26.9225 34.9418 28.8058 33.5181 29.3825 31.4906C29.4704 31.1814 29.5673 31.0606 29.9269 31.0826C32.4276 31.2336 34.9308 31.356 37.4332 31.4865C37.5848 31.4947 37.7364 31.5085 37.8872 31.5004C38.299 31.4775 38.5659 31.214 38.5758 30.8346C38.5857 30.4528 38.3396 30.1754 37.9311 30.1231C37.7704 30.1027 37.6072 30.106 37.4066 30.0962C37.9096 29.0576 38.4001 28.0475 38.8882 27.0374C39.0324 26.7396 39.261 26.9419 39.4234 26.977C41.3557 27.3923 43.283 27.828 45.212 28.2547C46.7648 28.5982 47.8693 29.4639 48.4071 30.9578C49.3409 33.5564 47.392 36.3591 44.5914 36.3705C37.8839 36.3974 31.1756 36.4007 24.4673 36.3688C21.3841 36.3542 18.7401 33.9138 18.3821 30.8729C18.368 30.7555 18.3291 30.6412 18.3018 30.5254C18.3018 30.2268 18.3018 29.9281 18.3018 29.6295L18.3034 29.6279Z" fill="#BB3413"/>
<path d="M41.5306 0.236328C41.6416 0.361161 41.8098 0.335868 41.949 0.381558C44.0984 1.08078 44.7994 3.69819 43.264 5.3357C42.9094 5.71428 42.5398 6.08143 42.1512 6.42574C40.9448 7.4962 39.0738 7.43583 37.9254 6.30336C36.772 5.16599 36.714 3.33675 37.8094 2.1439C38.1781 1.74248 38.5833 1.37206 38.9752 0.991035C39.3887 0.587981 39.9356 0.437039 40.4559 0.237144H41.5306V0.236328Z" fill="#BB3413"/>
<path d="M32.605 20.4075C31.324 20.4075 30.0438 20.4173 28.7628 20.4051C27.1719 20.3896 26.021 19.2522 26.0823 17.7722C26.103 17.272 26.2828 16.8225 26.567 16.4105C28.6949 13.3288 30.8177 10.2447 32.9513 7.16713C33.7377 6.03221 35.0402 5.83476 36.1406 6.66698C37.729 7.8688 39.0871 9.31702 40.5404 10.6633C42.0725 12.0821 41.9814 12.0625 44.0719 12.047C44.7464 12.0421 45.4217 12.0421 46.0962 12.047C46.769 12.0527 47.2264 12.4713 47.233 13.0759C47.2404 13.7017 46.7839 14.1431 46.092 14.1471C44.6875 14.1553 43.2831 14.1529 41.8786 14.1471C41.3798 14.1447 40.9406 13.9734 40.5553 13.6568C39.4566 12.7528 38.3563 11.8504 37.2534 10.9513C36.7289 10.5229 36.395 10.5629 35.9782 11.1087C34.6375 12.8637 33.3027 14.6228 31.9603 16.3762C31.7623 16.6348 31.662 16.9049 31.8021 17.2068C31.9537 17.5339 32.2512 17.5992 32.595 17.5976C34.0956 17.5886 35.597 17.5829 37.0976 17.5976C38.7672 17.6131 39.9853 18.7039 40.1518 20.3121C40.2073 20.8514 40.088 21.3638 39.8544 21.8492C38.6802 24.2823 37.507 26.7144 36.3245 29.1434C35.96 29.8916 35.191 30.1739 34.5041 29.8377C33.8172 29.5016 33.5678 28.7305 33.939 27.9954C35.0195 25.8504 36.1133 23.7119 37.1995 21.5702C37.4216 21.1329 37.3843 20.8098 37.1101 20.5683C36.9278 20.4075 36.7098 20.4092 36.4886 20.4092C35.1943 20.4092 33.9001 20.4092 32.605 20.4092V20.4075Z" fill="#BB3413"/>
<path d="M26.2522 29.4439C25.7575 29.4439 25.2628 29.4447 24.7682 29.4439C24.2959 29.4423 24.0216 29.6536 23.9893 30.0469C23.9537 30.4703 24.1923 30.7591 24.6671 30.7926C25.6556 30.8611 26.6458 30.8995 27.6351 30.9541C28.1041 30.9802 28.1049 30.9851 27.9276 31.4208C27.2904 32.9874 25.6084 33.8661 23.9031 33.5226C22.2683 33.1938 21.0842 31.6966 21.1207 30.0044C21.1572 28.3498 22.4324 26.9432 24.1326 26.6854C25.9282 26.4128 27.6285 27.5306 28.0784 29.2636C28.1472 29.5279 28.1372 29.6365 27.8182 29.6071C27.2979 29.5581 26.775 29.541 26.253 29.51V29.4439H26.2522Z" fill="#BB3413"/>
<path d="M47.1277 18.3081C47.8204 18.3081 47.8287 18.3098 47.716 18.9796C47.2776 21.5929 46.8327 24.2046 46.3952 26.8172C46.3554 27.0562 46.2742 27.1639 46.0215 27.035C45.9386 26.9926 45.8376 26.9828 45.7447 26.9599C44.9742 26.7674 44.9775 26.7674 45.1051 26.0168C45.5177 23.5911 45.9478 21.1687 46.3239 18.7381C46.4167 18.1368 46.8037 18.3449 47.1277 18.3081Z" fill="#BB3413"/>
<path d="M48.4559 15.5276C49.4196 15.5276 50.3833 15.5235 51.3469 15.5292C51.8681 15.5324 52.1863 15.805 52.1846 16.2227C52.183 16.6372 51.8499 16.9203 51.3444 16.9211C49.5406 16.9236 47.7376 16.926 45.9337 16.9211C45.2973 16.9195 44.8449 16.1958 45.1175 15.6344C45.1979 15.468 45.3562 15.5316 45.4821 15.5308C46.4731 15.5251 47.4649 15.5276 48.4559 15.5284V15.5276Z" fill="#BB3413"/>
<path d="M28.6385 21.7675C29.313 21.7675 29.9883 21.7643 30.6628 21.77C30.8268 21.7716 30.9983 21.7757 31.1525 21.8222C31.5228 21.934 31.7167 22.1975 31.7134 22.581C31.7101 22.9383 31.4615 23.197 31.0853 23.281C30.1018 23.5021 29.1539 23.3112 28.201 23.0795C27.3484 22.8723 26.4958 22.6536 25.6216 22.5483C25.4062 22.5222 25.4012 22.448 25.489 22.293C25.7086 21.9038 26.0632 21.77 26.49 21.7692C27.2059 21.7683 27.9226 21.7692 28.6385 21.7692V21.7675Z" fill="#BB3413"/>
<path d="M26.0466 39.1514C25.6074 39.1514 25.1675 39.1571 24.7283 39.1498C24.2643 39.1416 23.9395 38.8349 23.9536 38.4334C23.9668 38.0459 24.2767 37.7677 24.7316 37.7644C25.6381 37.7571 26.5446 37.7562 27.4511 37.766C27.8952 37.7709 28.2092 38.0704 28.2076 38.4563C28.2059 38.8398 27.8852 39.1408 27.4486 39.1498C26.9821 39.1588 26.5148 39.1514 26.0474 39.1522L26.0466 39.1514Z" fill="#BB3413"/>
<path d="M42.2671 39.1524C41.8412 39.1524 41.4162 39.1565 40.9903 39.1516C40.4939 39.1459 40.2006 38.8921 40.1915 38.4711C40.1824 38.0444 40.4682 37.7695 40.9579 37.7654C41.8636 37.758 42.7701 37.7572 43.6757 37.767C44.1331 37.7719 44.4215 38.055 44.419 38.4597C44.4165 38.8579 44.1149 39.1426 43.6666 39.1508C43.2001 39.1598 42.7336 39.1524 42.2663 39.1532L42.2671 39.1524Z" fill="#BB3413"/>
<path d="M48.4355 23.6234C48.4639 23.4893 48.4867 23.354 48.5211 23.2211C48.8658 21.8873 50.1781 21.1153 51.561 21.4274C52.4607 21.6304 53.3609 21.8303 54.2617 22.0255C54.3949 22.0546 54.431 22.0872 54.3551 22.216C54.2497 22.3952 54.1629 22.5856 54.0719 22.7725C53.9448 23.033 53.9122 23.3041 54.0195 23.5771C54.0707 23.7082 54.0255 23.7129 53.9104 23.704C53.614 23.6809 53.3163 23.6655 53.0192 23.6566C52.9126 23.6536 52.865 23.637 52.8427 23.5148C52.6969 22.7013 52.1172 22.1181 51.3098 21.9519C50.2095 21.7259 49.1387 22.4919 49.0122 23.5949C48.8784 24.7578 49.8046 25.7647 50.9802 25.7332C51.8225 25.7107 52.5625 25.1512 52.7891 24.3543C52.8234 24.2327 52.8614 24.1852 53.003 24.1941C53.9858 24.2535 54.9691 24.3015 55.9525 24.3532C56.0122 24.3561 56.0718 24.3621 56.1309 24.3585C56.293 24.3496 56.3978 24.2464 56.4014 24.0968C56.4056 23.9467 56.3086 23.8375 56.1484 23.8174C56.0851 23.8091 56.0206 23.8109 55.9423 23.8067C56.1399 23.3985 56.3327 23.0015 56.5244 22.6046C56.581 22.4877 56.6708 22.5672 56.7346 22.5809C57.4939 22.744 58.2513 22.9149 59.0093 23.0828C59.6191 23.2181 60.0536 23.5581 60.2645 24.1449C60.6314 25.166 59.8656 26.2672 58.7653 26.272C56.1291 26.2827 53.4935 26.2839 50.8572 26.2714C49.6455 26.2655 48.6067 25.3066 48.4657 24.1117C48.4602 24.0654 48.4452 24.0203 48.4343 23.9752C48.4343 23.8577 48.4343 23.7408 48.4343 23.6234H48.4355Z" fill="#BB3413"/>
<path d="M50.8392 27.3667C50.7952 27.3144 50.7265 27.2889 50.6922 27.2243C50.5909 27.0368 50.7157 26.8255 50.9416 26.8214C51.2978 26.8149 51.6539 26.8214 52.0106 26.8184C52.1564 26.8172 52.2625 26.8706 52.3095 27.0118C52.3577 27.156 52.2926 27.2575 52.1733 27.3352C52.1606 27.3435 52.1504 27.356 52.1389 27.3667H50.8398H50.8392Z" fill="#BB3413"/>
<path d="M57.2052 27.3668C57.1606 27.3093 57.0889 27.2784 57.0576 27.206C56.981 27.0274 57.0919 26.8293 57.2902 26.8245C57.6728 26.8156 58.056 26.8204 58.4392 26.8227C58.5694 26.8233 58.6508 26.9011 58.6869 27.0162C58.7219 27.1271 58.6857 27.2262 58.5953 27.3022C58.567 27.3259 58.5345 27.3455 58.5043 27.3668H57.2052Z" fill="#BB3413"/>
<path d="M54.0575 20.0006C53.5544 20.0006 53.0512 20.0042 52.5475 19.9994C51.9214 19.9935 51.4689 19.5485 51.4918 18.967C51.4996 18.77 51.5695 18.5932 51.681 18.4312C52.5198 17.2161 53.3567 15.9992 54.1985 14.7858C54.5004 14.3509 55.0162 14.2773 55.4422 14.5995C56.0665 15.0712 56.6003 15.6408 57.1716 16.1694C57.7741 16.7278 57.7386 16.7207 58.5587 16.7147C58.8238 16.7129 59.0889 16.7129 59.3541 16.7147C59.6192 16.7171 59.7993 16.8803 59.803 17.117C59.8066 17.3632 59.6276 17.5383 59.3565 17.54C58.8045 17.5436 58.2526 17.5424 57.7006 17.54C57.5048 17.5395 57.3312 17.473 57.18 17.3484C56.748 16.993 56.3159 16.6388 55.8827 16.2851C55.6748 16.1155 55.5446 16.1303 55.3813 16.3439C54.8547 17.0333 54.3299 17.7246 53.8026 18.414C53.7213 18.5202 53.6815 18.6306 53.7454 18.754C53.8075 18.8739 53.9201 18.8958 54.0485 18.8952C54.6384 18.8922 55.2283 18.8899 55.8182 18.8952C56.4798 18.9011 56.9643 19.3378 57.0221 19.9757C57.0408 20.1816 56.9944 20.3785 56.9046 20.5643C56.4431 21.5201 55.9821 22.476 55.5175 23.4307C55.3741 23.7249 55.0728 23.8371 54.8035 23.7066C54.5335 23.5754 54.4335 23.2722 54.5787 22.9833C54.9909 22.1639 55.4079 21.3469 55.823 20.5293C55.8423 20.4913 55.8628 20.4533 55.8797 20.4147C55.9821 20.1857 55.8688 20.003 55.6157 20.0012C55.0963 19.9976 54.5769 20 54.0575 20V20.0006Z" fill="#BB3413"/>
<path d="M57.4595 12.0752C57.8735 12.1001 58.2561 12.3274 58.4622 12.7902C58.6653 13.2458 58.5893 13.6778 58.2615 14.0563C58.1212 14.2177 57.9639 14.3666 57.803 14.509C57.3288 14.9285 56.5912 14.9018 56.1423 14.4551C55.6952 14.0101 55.6699 13.2969 56.0923 12.8323C56.2399 12.6697 56.3996 12.5166 56.5623 12.3689C56.7792 12.1713 57.0588 12.0752 57.4589 12.0758L57.4595 12.0752Z" fill="#BB3413"/>
<path d="M49.5425 23.8183C49.5425 23.111 50.0625 22.5497 50.8073 22.453C51.4448 22.3705 52.0967 22.8262 52.2739 23.4658C52.3149 23.613 52.2667 23.6219 52.1407 23.613C51.7629 23.5869 51.3851 23.5703 51.0067 23.553C50.794 23.5436 50.6825 23.6248 50.6693 23.7892C50.6554 23.9648 50.7536 24.0704 50.9694 24.0847C51.3417 24.1096 51.7147 24.1238 52.0871 24.1428C52.2884 24.1535 52.2884 24.1541 52.2094 24.3428C51.9539 24.9509 51.2996 25.2879 50.6349 25.1533C50.0113 25.0269 49.5431 24.4543 49.5431 23.8177L49.5425 23.8183Z" fill="#BB3413"/>
<path d="M58.9394 22.3901C59.0346 21.8241 59.134 21.2319 59.2335 20.6404C59.3058 20.2108 59.3829 19.7818 59.448 19.3516C59.4679 19.2193 59.5094 19.1452 59.6577 19.1742C59.6782 19.1784 59.7011 19.1742 59.7221 19.1742C60.0439 19.1742 60.0397 19.1736 59.9873 19.4786C59.8149 20.4837 59.645 21.4894 59.4769 22.4951C59.4606 22.5936 59.4456 22.6565 59.3178 22.6037C59.225 22.5651 59.1208 22.5503 59.0202 22.5337C58.9454 22.5212 58.9147 22.4886 58.9394 22.3895V22.3901Z" fill="#BB3413"/>
<path d="M60.2909 18.0823C60.6639 18.0823 61.0375 18.0811 61.4105 18.0823C61.625 18.0835 61.7539 18.1932 61.7485 18.3623C61.7431 18.5249 61.6135 18.6293 61.4111 18.6299C60.7133 18.6311 60.0155 18.6311 59.3172 18.6299C59.0418 18.6299 58.8755 18.3878 58.9689 18.1321C58.996 18.058 59.0575 18.0835 59.1051 18.0829C59.4998 18.0805 59.895 18.0817 60.2897 18.0817L60.2909 18.0823Z" fill="#BB3413"/>
<path d="M52.4913 20.5347C52.7565 20.5347 53.0216 20.5335 53.2867 20.5347C53.3458 20.5347 53.4066 20.5377 53.4639 20.5501C53.6133 20.5828 53.7085 20.7038 53.7061 20.8486C53.7031 20.9951 53.6073 21.1007 53.4476 21.1298C53.1186 21.1897 52.7974 21.1678 52.4721 21.0841C52.0912 20.9868 51.708 20.8925 51.317 20.8415C51.2175 20.8284 51.2278 20.7928 51.2645 20.7311C51.3507 20.5869 51.4857 20.5353 51.6472 20.5347C51.9286 20.5341 52.21 20.5347 52.4913 20.5347Z" fill="#BB3413"/>
<path d="M5.74999 23.6347C5.77839 23.5002 5.80135 23.3645 5.83579 23.2312C6.18144 21.8936 7.49754 21.1195 8.88435 21.4325C9.78652 21.636 10.6893 21.8365 11.5927 22.0323C11.7262 22.0614 11.7625 22.0942 11.6864 22.2233C11.5806 22.403 11.4936 22.594 11.4023 22.7814C11.2748 23.0426 11.2422 23.3145 11.3498 23.5882C11.4011 23.7197 11.3558 23.7245 11.2404 23.7156C10.9431 23.6924 10.6446 23.6769 10.3467 23.668C10.2397 23.665 10.192 23.6483 10.1696 23.5258C10.0234 22.71 9.44209 22.1251 8.63236 21.9585C7.52896 21.7318 6.45517 22.5 6.32828 23.6061C6.19413 24.7723 7.12289 25.7821 8.30183 25.7505C9.1466 25.7279 9.88865 25.1668 10.1159 24.3677C10.1503 24.2457 10.1884 24.1981 10.3304 24.2071C11.3159 24.2666 12.3021 24.3148 13.2883 24.3665C13.3481 24.3695 13.4079 24.3755 13.4671 24.3719C13.6297 24.363 13.7348 24.2594 13.7385 24.1095C13.7427 23.9589 13.6454 23.8495 13.4847 23.8292C13.4212 23.8209 13.3566 23.8227 13.278 23.8185C13.4762 23.4091 13.6696 23.0111 13.8617 22.613C13.9185 22.4958 14.0086 22.5755 14.0726 22.5892C14.834 22.7528 15.5936 22.9242 16.3537 23.0926C16.9653 23.2283 17.401 23.5692 17.6124 24.1577C17.9804 25.1817 17.2124 26.286 16.109 26.2908C13.4653 26.3015 10.8222 26.3027 8.17856 26.2902C6.96337 26.2843 5.9216 25.3227 5.7802 24.1244C5.77476 24.0779 5.75966 24.0327 5.74878 23.9875C5.74878 23.8697 5.74878 23.7525 5.74878 23.6347H5.74999Z" fill="#BB3413"/>
<path d="M8.1604 27.3887C8.11629 27.3364 8.0474 27.3108 8.01296 27.2459C7.91144 27.0579 8.03653 26.8461 8.26313 26.8419C8.62025 26.8354 8.97738 26.8419 9.33511 26.8389C9.48134 26.8377 9.58769 26.8913 9.63483 27.0329C9.68317 27.1775 9.61791 27.2792 9.49826 27.3572C9.48557 27.3655 9.4753 27.378 9.46382 27.3887H8.16101H8.1604Z" fill="#BB3413"/>
<path d="M14.5446 27.3889C14.4998 27.3312 14.4279 27.3002 14.3965 27.2276C14.3198 27.0485 14.431 26.8498 14.6298 26.845C15.0135 26.8361 15.3978 26.8409 15.7821 26.8433C15.9126 26.8439 15.9942 26.9218 16.0305 27.0372C16.0655 27.1485 16.0292 27.2479 15.9386 27.324C15.9102 27.3478 15.8776 27.3675 15.8474 27.3889H14.5446Z" fill="#BB3413"/>
<path d="M11.3879 20.0008C10.8833 20.0008 10.3788 20.0044 9.8736 19.9997C9.24577 19.9937 8.79196 19.5474 8.81492 18.9643C8.82278 18.7668 8.89287 18.5895 9.00466 18.427C9.84581 17.2084 10.6851 15.9881 11.5293 14.7713C11.8321 14.3351 12.3493 14.2613 12.7765 14.5844C13.4026 15.0575 13.9379 15.6287 14.5108 16.1588C15.1151 16.7187 15.0794 16.7116 15.9018 16.7057C16.1677 16.7039 16.4336 16.7039 16.6995 16.7057C16.9653 16.708 17.146 16.8717 17.1496 17.1091C17.1533 17.356 16.9738 17.5315 16.7019 17.5333C16.1484 17.5369 15.5949 17.5357 15.0413 17.5333C14.8449 17.5327 14.6709 17.4661 14.5192 17.3411C14.086 16.9847 13.6527 16.6295 13.2182 16.2749C13.0098 16.1047 12.8793 16.1196 12.7155 16.3338C12.1874 17.0252 11.661 17.7184 11.1323 18.4098C11.0507 18.5163 11.0108 18.627 11.0749 18.7507C11.1371 18.8709 11.2501 18.8929 11.3788 18.8923C11.9704 18.8894 12.562 18.887 13.1536 18.8923C13.8171 18.8983 14.3029 19.3362 14.3609 19.9759C14.3797 20.1823 14.3331 20.3799 14.2431 20.5661C13.7802 21.5247 13.318 22.4832 12.8521 23.4406C12.7082 23.7357 12.4061 23.8482 12.136 23.7173C11.8653 23.5858 11.765 23.2817 11.9106 22.992C12.3239 22.1703 12.7421 21.3509 13.1584 20.531C13.1778 20.4929 13.1983 20.4548 13.2152 20.4162C13.318 20.1865 13.2044 20.0032 12.9506 20.0014C12.4297 19.9979 11.9088 20.0002 11.3879 20.0002V20.0008Z" fill="#BB3413"/>
<path d="M14.7996 12.0537C15.2147 12.0787 15.5984 12.3066 15.8051 12.7707C16.0087 13.2277 15.9326 13.6608 15.6039 14.0405C15.4631 14.2023 15.3054 14.3517 15.144 14.4945C14.6685 14.9151 13.9288 14.8884 13.4787 14.4403C13.0303 13.9941 13.0049 13.2788 13.4285 12.8129C13.5765 12.6499 13.7367 12.4964 13.8998 12.3482C14.1174 12.1501 14.3978 12.0537 14.799 12.0543L14.7996 12.0537Z" fill="#BB3413"/>
<path d="M6.85999 23.83C6.85999 23.1207 7.38147 22.5578 8.12835 22.4608C8.76767 22.3781 9.42149 22.8351 9.59915 23.4765C9.64024 23.6241 9.5919 23.633 9.46561 23.6241C9.08673 23.5979 8.70785 23.5813 8.32837 23.564C8.11506 23.5545 8.00327 23.636 7.98997 23.8008C7.97608 23.9769 8.07457 24.0829 8.2909 24.0971C8.66434 24.1221 9.03839 24.1364 9.41183 24.1554C9.61365 24.1662 9.61365 24.1668 9.53449 24.356C9.27828 24.9659 8.62204 25.3038 7.95553 25.1688C7.33011 25.042 6.86059 24.4678 6.86059 23.8294L6.85999 23.83Z" fill="#BB3413"/>
<path d="M16.2843 22.3983C16.3798 21.8306 16.4795 21.2368 16.5792 20.6436C16.6517 20.2128 16.729 19.7826 16.7943 19.3512C16.8142 19.2185 16.8559 19.1441 17.0046 19.1733C17.0251 19.1774 17.0481 19.1733 17.0692 19.1733C17.3919 19.1733 17.3877 19.1727 17.3351 19.4785C17.1623 20.4865 16.9919 21.495 16.8233 22.5036C16.807 22.6023 16.7919 22.6654 16.6638 22.6125C16.5707 22.5738 16.4662 22.5589 16.3653 22.5423C16.2903 22.5298 16.2595 22.497 16.2843 22.3977V22.3983Z" fill="#BB3413"/>
<path d="M17.6396 18.0784C18.0136 18.0784 18.3883 18.0772 18.7623 18.0784C18.9774 18.0796 19.1068 18.1896 19.1013 18.3592C19.0959 18.5223 18.966 18.627 18.7629 18.6276C18.0632 18.6288 17.3634 18.6288 16.6631 18.6276C16.3869 18.6276 16.2202 18.3848 16.3138 18.1284C16.341 18.054 16.4026 18.0796 16.4504 18.079C16.8462 18.0766 17.2426 18.0778 17.6384 18.0778L17.6396 18.0784Z" fill="#BB3413"/>
<path d="M9.81728 20.5367C10.0832 20.5367 10.349 20.5355 10.6149 20.5367C10.6741 20.5367 10.7352 20.5396 10.7926 20.5521C10.9424 20.5849 11.0379 20.7062 11.0355 20.8514C11.0325 20.9984 10.9364 21.1043 10.7763 21.1335C10.4463 21.1936 10.1243 21.1715 9.79795 21.0876C9.41605 20.9901 9.03173 20.8955 8.63956 20.8443C8.53985 20.8312 8.55013 20.7955 8.58699 20.7336C8.6734 20.589 8.80875 20.5373 8.9707 20.5367C9.25289 20.5361 9.53509 20.5367 9.81728 20.5367Z" fill="#BB3413"/>
</g>
<defs>
<clipPath id="clip0_859_4107">
<rect width="66" height="39" fill="white" transform="translate(0.748779 0.154297)"/>
</clipPath>
</defs>
</svg>
