<svg width="56" height="51" viewBox="0 0 56 51" fill="none" xmlns="http://www.w3.org/2000/svg">
<g clip-path="url(#clip0_536_1819)">
<path d="M27.8223 35.9211C35.8436 35.9211 43.8648 35.9211 51.886 35.9211C52.2759 35.9211 52.6666 35.9226 53.0566 35.9376C54.5663 35.9961 55.6571 37.0775 55.6415 38.4947C55.6267 39.882 54.4663 40.9792 52.9722 40.9844C50.9679 40.9911 48.9635 40.9694 46.96 40.9702C43.106 40.9724 39.2521 40.9859 35.3982 40.9866C26.4916 40.9881 17.585 40.9844 8.67843 40.9829C6.67488 40.9829 4.67133 40.9941 2.66857 40.9844C1.27218 40.9777 0.129747 39.9884 0.0117536 38.7136C-0.113273 37.3631 0.814267 36.1902 2.20284 35.9563C2.39351 35.9241 2.59121 35.9219 2.78656 35.9226C6.41936 35.9249 10.0514 35.9316 13.6842 35.9331C18.3969 35.9354 23.1104 35.9331 27.8231 35.9331V35.9196L27.8223 35.9211Z" fill="#375000"/>
<path d="M27.8074 45.2045C19.0306 45.2045 10.2537 45.2045 1.47762 45.2045C0.593057 45.2045 0.00152534 44.6957 0.004651 43.9432C0.00777666 43.184 0.596964 42.6707 1.46902 42.6707C19.0352 42.6707 36.6022 42.6707 54.1685 42.6707C55.0452 42.6707 55.6344 43.178 55.6406 43.935C55.6469 44.6912 55.0561 45.2045 54.1771 45.2045C45.3877 45.2045 36.5976 45.2045 27.8082 45.2045H27.8074Z" fill="#375000"/>
<path d="M21.5975 30.3924C21.7225 30.8196 21.7772 31.1996 21.9405 31.5301C22.4687 32.5988 23.372 33.1511 24.6114 33.1526C29.3507 33.1571 34.0899 33.1556 38.8292 33.1534C40.4976 33.1526 41.8017 31.9355 41.7955 30.3947C41.7892 28.8515 40.4929 27.6322 38.8269 27.6284C35.4027 27.6209 31.9786 27.6254 28.5536 27.6247C28.2942 27.6247 28.0355 27.6247 27.6808 27.6247C28.2879 27.0656 28.9373 26.7673 29.6703 26.6332C29.9625 26.58 30.2649 26.5612 30.5626 26.5605C33.3617 26.5552 36.1615 26.5515 38.9605 26.559C40.6882 26.5642 42.2182 27.6307 42.7426 29.1955C43.5795 31.695 41.6861 34.2551 38.7722 34.2408C32.8741 34.2131 26.9759 34.2341 21.0778 34.2311C19.5298 34.2303 17.9826 34.2071 16.4346 34.2086C13.9888 34.2109 11.543 34.2236 9.09715 34.2333C8.19227 34.2371 7.49681 33.8841 7.12954 33.0784C6.78494 32.323 6.92794 31.611 7.50775 30.998C7.94925 30.5318 8.52437 30.3894 9.16513 30.3902C13.1886 30.3954 17.2114 30.3924 21.2349 30.3924C21.3638 30.3924 21.492 30.3924 21.5975 30.3924Z" fill="#375000"/>
<path d="M22.2835 13.7112C21.2724 13.4811 20.4105 13.7711 19.6939 14.4509C18.5906 15.4971 18.5413 17.1961 19.6369 18.2671C21.9335 20.5132 24.259 22.733 26.6016 24.9349C26.8947 25.21 27.0088 25.4326 26.9119 25.7923C26.8673 25.9602 26.8376 26.1408 26.8517 26.3117C26.897 26.876 26.4274 27.1623 26.1437 27.546C26.0953 27.6112 25.9359 27.6172 25.8265 27.621C25.3193 27.6359 24.8106 27.618 24.3051 27.6532C23.3408 27.7199 22.6117 28.183 22.1069 28.961C21.9741 29.1663 21.8373 29.2465 21.5834 29.245C19.9432 29.2345 18.3022 29.2413 16.662 29.2413C16.5604 29.2413 16.4589 29.2263 16.3245 29.2158C16.4182 28.4551 16.5073 27.7139 16.6019 26.9734C16.9574 24.1742 17.313 21.375 17.6708 18.5758C17.7912 17.6345 17.8912 16.6902 18.0459 15.7549C18.2772 14.3504 19.5806 13.3806 21.0637 13.4961C21.474 13.5275 21.8772 13.6385 22.2843 13.7127L22.2835 13.7112Z" fill="#375000"/>
<path d="M36.1867 24.4987C36.1797 25.2549 35.4467 25.844 34.6778 25.6671C32.9844 25.2789 31.2974 24.8645 29.6095 24.4575C29.1203 24.3398 28.6296 24.2237 28.149 24.0783C27.9709 24.0243 27.7912 23.9172 27.6583 23.7897C25.3805 21.6156 23.1066 19.4369 20.8389 17.2523C20.3841 16.8139 20.3427 16.1611 20.7029 15.6762C21.064 15.1913 21.7305 15.0204 22.2994 15.2962C22.4916 15.3892 22.6619 15.5383 22.8167 15.6859C24.871 17.651 26.9168 19.6243 28.9773 21.5834C29.1594 21.7565 29.4196 21.8936 29.6681 21.9551C31.4794 22.4025 33.2978 22.8252 35.113 23.2591C35.8124 23.4263 36.1929 23.8714 36.1875 24.498L36.1867 24.4987Z" fill="#375000"/>
<path d="M31.7614 29.1723C34.1424 29.1723 36.5241 29.17 38.9051 29.1745C39.4732 29.176 39.9139 29.4841 40.1007 29.9757C40.2882 30.4703 40.1679 31.0129 39.7194 31.3187C39.4802 31.4814 39.1544 31.6118 38.8668 31.6133C34.1307 31.6327 29.3937 31.632 24.6568 31.6282C23.8433 31.6282 23.2846 31.1081 23.2854 30.3954C23.2862 29.6617 23.8457 29.173 24.6951 29.1723C27.0503 29.1708 29.4054 29.1723 31.7606 29.1723H31.7614Z" fill="#375000"/>
<path d="M44.5986 28.1329C44.6173 26.284 46.1715 24.821 48.104 24.8323C50.0146 24.8435 51.5703 26.3672 51.5477 28.2033C51.525 30.0627 49.952 31.5189 47.9907 31.4979C46.0926 31.4769 44.5798 29.9765 44.5986 28.1329Z" fill="#375000"/>
<path d="M25.4842 12.4618C23.5698 12.4648 22.0202 11.0034 22.0007 9.17625C21.9811 7.32736 23.5307 5.79998 25.4311 5.79548C27.4034 5.79098 28.9576 7.27565 28.9568 9.16351C28.9561 10.9764 27.3963 12.4581 25.485 12.4611L25.4842 12.4618Z" fill="#375000"/>
<path d="M22.2837 13.7119C22.5658 13.7157 22.8494 13.6977 23.1284 13.7269C23.9684 13.8153 24.8108 13.9 25.6453 14.0259C27.1925 14.2598 28.2373 15.6477 28.013 17.1279C27.956 17.5056 27.913 17.8848 27.8458 18.396C27.1378 17.696 26.5104 17.0702 25.8766 16.4511C25.2476 15.8366 24.6123 15.228 23.9778 14.618C23.5035 14.1616 22.9948 13.7614 22.2837 13.7097V13.7112V13.7119Z" fill="#375000"/>
</g>
<defs>
<clipPath id="clip0_536_1819">
<rect width="55.6415" height="39.4091" fill="white" transform="translate(0 5.79547)"/>
</clipPath>
</defs>
</svg>
