<svg width="56" height="51" viewBox="0 0 56 51" fill="none" xmlns="http://www.w3.org/2000/svg">
<g clip-path="url(#clip0_859_4159)">
<path d="M27.8223 35.9214C35.8436 35.9214 43.8648 35.9214 51.886 35.9214C52.2759 35.9214 52.6666 35.9229 53.0566 35.9379C54.5663 35.9964 55.6571 37.0778 55.6415 38.495C55.6267 39.8823 54.4663 40.9795 52.9722 40.9847C50.9679 40.9915 48.9635 40.9697 46.96 40.9705C43.106 40.9727 39.2521 40.9862 35.3982 40.987C26.4916 40.9885 17.585 40.9847 8.67843 40.9832C6.67488 40.9832 4.67133 40.9944 2.66857 40.9847C1.27218 40.978 0.129747 39.9887 0.0117536 38.7139C-0.113273 37.3634 0.814267 36.1905 2.20284 35.9566C2.39351 35.9244 2.59121 35.9222 2.78656 35.9229C6.41936 35.9252 10.0514 35.9319 13.6842 35.9334C18.3969 35.9357 23.1104 35.9334 27.8231 35.9334V35.9199L27.8223 35.9214Z" fill="#BB3413"/>
<path d="M27.8074 45.2048C19.0306 45.2048 10.2537 45.2048 1.47762 45.2048C0.593057 45.2048 0.00152534 44.6959 0.004651 43.9435C0.00777666 43.1843 0.596964 42.6709 1.46902 42.6709C19.0352 42.6709 36.6022 42.6709 54.1685 42.6709C55.0452 42.6709 55.6344 43.1783 55.6406 43.9352C55.6469 44.6914 55.0561 45.2048 54.1771 45.2048C45.3877 45.2048 36.5976 45.2048 27.8082 45.2048H27.8074Z" fill="#BB3413"/>
<path d="M21.5976 30.3933C21.7226 30.8205 21.7773 31.2005 21.9406 31.531C22.4689 32.5997 23.3722 33.152 24.6115 33.1535C29.3508 33.158 34.0901 33.1565 38.8293 33.1543C40.4977 33.1535 41.8019 31.9364 41.7956 30.3956C41.7894 28.8525 40.493 27.6331 38.827 27.6294C35.4028 27.6219 31.9787 27.6264 28.5537 27.6256C28.2943 27.6256 28.0357 27.6256 27.6809 27.6256C28.2881 27.0665 28.9374 26.7682 29.6704 26.6341C29.9626 26.5809 30.265 26.5621 30.5628 26.5614C33.3618 26.5561 36.1616 26.5524 38.9606 26.5599C40.6883 26.5651 42.2183 27.6316 42.7427 29.1965C43.5796 31.6959 41.6862 34.256 38.7723 34.2417C32.8742 34.214 26.9761 34.235 21.0779 34.232C19.5299 34.2313 17.9827 34.208 16.4348 34.2095C13.9889 34.2118 11.5431 34.2245 9.09727 34.2343C8.19239 34.238 7.49693 33.885 7.12966 33.0794C6.78506 32.3239 6.92806 31.6119 7.50787 30.9989C7.94937 30.5327 8.52449 30.3903 9.16525 30.3911C13.1888 30.3963 17.2115 30.3933 21.235 30.3933C21.3639 30.3933 21.4921 30.3933 21.5976 30.3933Z" fill="#BB3413"/>
<path d="M22.2837 13.7117C21.2725 13.4816 20.4106 13.7717 19.694 14.4514C18.5907 15.4976 18.5415 17.1966 19.637 18.2676C21.9336 20.5137 24.2591 22.7336 26.6018 24.9355C26.8948 25.2105 27.0089 25.4331 26.912 25.7928C26.8674 25.9607 26.8377 26.1413 26.8518 26.3122C26.8971 26.8765 26.4275 27.1628 26.1439 27.5466C26.0954 27.6118 25.936 27.6178 25.8266 27.6215C25.3195 27.6365 24.8108 27.6185 24.3052 27.6537C23.3409 27.7204 22.6119 28.1836 22.1071 28.9615C21.9742 29.1669 21.8375 29.2471 21.5835 29.2456C19.9433 29.2351 18.3023 29.2418 16.6622 29.2418C16.5606 29.2418 16.459 29.2268 16.3246 29.2163C16.4184 28.4556 16.5074 27.7144 16.602 26.974C16.9575 24.1748 17.3131 21.3756 17.671 18.5764C17.7913 17.6351 17.8913 16.6908 18.046 15.7555C18.2773 14.351 19.5807 13.3812 21.0639 13.4966C21.4741 13.5281 21.8773 13.639 22.2844 13.7132L22.2837 13.7117Z" fill="#BB3413"/>
<path d="M36.1866 24.4995C36.1795 25.2557 35.4466 25.8447 34.6777 25.6678C32.9843 25.2796 31.2972 24.8652 29.6094 24.4582C29.1202 24.3406 28.6295 24.2244 28.1489 24.079C27.9708 24.0251 27.791 23.9179 27.6582 23.7905C25.3804 21.6163 23.1065 19.4377 20.8388 17.253C20.384 16.8146 20.3426 16.1618 20.7028 15.6769C21.0638 15.192 21.7304 15.0212 22.2992 15.297C22.4915 15.3899 22.6618 15.539 22.8165 15.6867C24.8709 17.6517 26.9166 19.625 28.9772 21.5841C29.1593 21.7572 29.4195 21.8944 29.668 21.9558C31.4793 22.4032 33.2977 22.8259 35.1129 23.2599C35.8123 23.427 36.1928 23.8722 36.1873 24.4987L36.1866 24.4995Z" fill="#BB3413"/>
<path d="M31.7614 29.1725C34.1424 29.1725 36.5241 29.1703 38.9051 29.1748C39.4732 29.1763 39.9139 29.4843 40.1007 29.976C40.2882 30.4706 40.1679 31.0132 39.7194 31.319C39.4802 31.4816 39.1544 31.612 38.8668 31.6135C34.1307 31.633 29.3937 31.6322 24.6568 31.6285C23.8433 31.6285 23.2846 31.1084 23.2854 30.3956C23.2862 29.6619 23.8457 29.1733 24.6951 29.1725C27.0503 29.171 29.4054 29.1725 31.7606 29.1725H31.7614Z" fill="#BB3413"/>
<path d="M44.5986 28.1337C44.6173 26.2848 46.1715 24.8218 48.104 24.8331C50.0146 24.8443 51.5703 26.3679 51.5477 28.2041C51.525 30.0635 49.952 31.5197 47.9907 31.4987C46.0926 31.4777 44.5798 29.9773 44.5986 28.1337Z" fill="#BB3413"/>
<path d="M25.4843 12.4623C23.5699 12.4653 22.0203 11.0038 22.0008 9.17668C21.9813 7.32778 23.5308 5.80041 25.4312 5.79591C27.4035 5.79141 28.9577 7.27607 28.957 9.16394C28.9562 10.9769 27.3965 12.4585 25.4851 12.4615L25.4843 12.4623Z" fill="#BB3413"/>
<path d="M22.2836 13.7122C22.5657 13.716 22.8493 13.698 23.1283 13.7272C23.9683 13.8156 24.8107 13.9003 25.6452 14.0262C27.1924 14.2601 28.2372 15.648 28.0129 17.1282C27.9559 17.5059 27.9129 17.8851 27.8457 18.3963C27.1377 17.6963 26.5102 17.0705 25.8765 16.4514C25.2475 15.8369 24.6122 15.2283 23.9777 14.6183C23.5034 14.1619 22.9947 13.7617 22.2836 13.71V13.7115V13.7122Z" fill="#BB3413"/>
</g>
<defs>
<clipPath id="clip0_859_4159">
<rect width="55.6415" height="39.4091" fill="white" transform="translate(0 5.7959)"/>
</clipPath>
</defs>
</svg>
