<svg width="33" height="35" viewBox="0 0 33 35" fill="none" xmlns="http://www.w3.org/2000/svg">
<g clip-path="url(#clip0_777_2745)">
<path d="M3.70122 26.747C3.53976 26.39 3.52734 26.0946 3.52734 25.7869C3.52734 23.799 3.52734 21.8111 3.53355 19.8294C3.53355 19.5279 3.55839 19.2202 3.6267 18.9247C3.83784 18.0077 4.52095 17.5215 5.46487 17.5769C6.39016 17.6323 7.0981 18.2662 7.17883 19.1709C7.31545 20.6664 7.43344 22.1619 7.5328 23.6575C7.55764 24.076 7.64458 24.2544 8.13517 24.236C13.6931 23.9898 19.2573 23.996 24.8215 24.236C25.2996 24.2544 25.4984 24.1621 25.5294 23.6452C25.6039 22.2112 25.7468 20.7772 25.8585 19.3432C25.9517 18.1308 26.9701 17.3738 28.1687 17.6262C28.9077 17.78 29.479 18.4016 29.4914 19.2509C29.5287 21.6019 29.51 23.9529 29.5038 26.3039C29.5038 26.4639 29.4914 26.63 29.3237 26.79C28.4978 26.0884 27.5352 25.7069 26.4237 25.7438C24.9581 25.793 23.8776 26.4577 23.2441 27.7563C23.0206 28.224 22.766 28.4763 22.2443 28.4148C21.791 28.3594 21.6544 28.5502 21.6606 28.9995C21.6854 30.8212 21.6606 32.649 21.6792 34.4707C21.6792 34.8954 21.5612 35.0185 21.1327 35.0185C18.065 35 14.9972 34.9938 11.9295 35.0185C11.4389 35.0185 11.3644 34.84 11.3706 34.4215C11.3892 32.6183 11.3706 30.815 11.3892 29.0118C11.3892 28.5687 11.2774 28.3717 10.8117 28.4148C10.29 28.464 9.99818 28.2548 9.74978 27.7501C8.74996 25.713 6.17281 25.1037 4.2415 26.3962C4.07382 26.5069 3.91236 26.6239 3.70743 26.7777L3.70122 26.747Z" fill="#375000"/>
<path d="M21.3128 4.81273C21.3066 7.47143 19.1579 9.57007 16.4504 9.56392C13.8359 9.55776 11.6997 7.42835 11.6935 4.82504C11.6873 2.16019 13.8546 -0.018463 16.4938 1.43416e-07C19.189 0.0246177 21.3128 2.14788 21.3066 4.81273H21.3128Z" fill="#375000"/>
<path d="M16.4939 14.2966C19.0027 14.309 20.9526 16.2537 20.9588 18.7463C20.9651 21.1772 18.9095 23.1959 16.4442 23.1651C13.9974 23.1343 11.9978 21.1403 11.9978 18.7278C11.9978 16.2722 14.0161 14.2782 16.4939 14.2905V14.2966Z" fill="#375000"/>
<path d="M16.6179 10.7948C18.4437 10.8256 20.2446 10.9548 21.9772 11.5949C24.1383 12.3949 25.4734 13.9089 26.051 16.0999C26.1006 16.2784 26.1565 16.4445 25.9454 16.5738C25.7591 16.6907 25.6163 16.7646 25.3989 16.6107C24.4239 15.946 23.3869 15.866 22.3312 16.4014C21.9399 16.5984 21.9337 16.2845 21.8281 16.0937C20.3688 13.2996 17.2141 12.0872 14.283 13.2196C12.8795 13.7674 11.8176 14.7213 11.1593 16.0753C10.9917 16.4199 10.8675 16.4938 10.4887 16.3214C9.55716 15.8968 8.61945 15.9706 7.73763 16.5122C7.52028 16.6476 7.3464 16.7584 7.08558 16.5738C6.79371 16.3645 6.93654 16.1553 6.99864 15.9337C7.86183 12.8073 10.203 11.5149 13.1962 11.0287C14.3264 10.844 15.4691 10.764 16.6179 10.7886V10.7948Z" fill="#375000"/>
<path d="M25.8647 30.735C24.3681 30.7719 24.0079 30.3965 24.1073 29.1841C24.188 28.1871 24.6786 27.4486 25.6411 27.1162C26.6037 26.7839 27.5414 26.907 28.3301 27.5963C28.9324 28.1255 28.9883 28.821 28.8145 29.5472C28.653 30.218 28.0941 30.3719 27.5228 30.4765C26.8831 30.5935 26.2373 30.6735 25.8647 30.7289V30.735Z" fill="#375000"/>
<path d="M7.19123 30.735C6.8 30.6796 6.11069 30.5996 5.4338 30.4704C4.88111 30.3719 4.34704 30.1934 4.19179 29.5534C4.03033 28.8764 4.06759 28.224 4.57682 27.6824C5.29718 26.9131 6.74411 26.7162 7.69424 27.2516C8.61953 27.7747 9.14738 29.0056 8.88035 30.0211C8.74994 30.5258 8.30903 30.7535 7.19123 30.735Z" fill="#375000"/>
<path d="M32.9876 19.534C32.9876 19.7556 33.0001 19.9771 32.9876 20.1987C32.9255 20.9988 32.3045 21.5711 31.5407 21.5527C30.8141 21.5404 30.218 20.9618 30.1621 20.1864C30.131 19.7617 30.131 19.3371 30.1621 18.9124C30.218 18.1062 30.8203 17.5338 31.5842 17.5338C32.3542 17.5338 32.9255 18.0939 32.9876 18.9247C33.0063 19.1278 32.9876 19.3309 32.9876 19.5279C32.9876 19.5279 32.9876 19.5279 32.9814 19.5279L32.9876 19.534Z" fill="#375000"/>
<path d="M2.84413 19.6694C2.8255 19.9094 2.88139 20.2295 2.77582 20.5495C2.56468 21.1834 1.98094 21.5957 1.34131 21.5465C0.639579 21.4911 0.105518 21.0172 0.0372078 20.3279C-0.00626226 19.8479 -0.00626226 19.3555 0.0309978 18.8755C0.0806779 18.1001 0.683049 17.5462 1.42204 17.5462C2.14861 17.5462 2.76961 18.1124 2.84413 18.8694C2.86897 19.1094 2.84413 19.3555 2.84413 19.6756V19.6694Z" fill="#375000"/>
<path d="M25.0946 19.5525C25.0946 19.774 25.107 19.9956 25.0946 20.2172C25.0449 20.9803 24.4612 21.5342 23.6973 21.5527C22.977 21.5711 22.3311 20.9865 22.2815 20.2295C22.2504 19.7679 22.2504 19.3002 22.2815 18.8386C22.3311 18.0816 22.9646 17.5277 23.7098 17.54C24.4674 17.5523 25.0387 18.1062 25.0884 18.8878C25.1008 19.1094 25.0884 19.3309 25.0884 19.5525H25.0946Z" fill="#375000"/>
<path d="M10.7184 19.5463C10.7184 19.7679 10.7309 19.9894 10.7184 20.211C10.6626 20.9865 10.0167 21.5773 9.2591 21.5465C8.51389 21.5219 7.93015 20.9434 7.90531 20.1741C7.89289 19.7494 7.88668 19.3248 7.90531 18.9001C7.94257 18.1062 8.56357 17.5154 9.32741 17.5338C10.1099 17.5523 10.6812 18.1247 10.7247 18.9309C10.7371 19.134 10.7247 19.3371 10.7247 19.534L10.7184 19.5463Z" fill="#375000"/>
</g>
<defs>
<clipPath id="clip0_777_2745">
<rect width="33" height="35" fill="white"/>
</clipPath>
</defs>
</svg>
