<svg width="33" height="35" viewBox="0 0 33 35" fill="none" xmlns="http://www.w3.org/2000/svg">
<g clip-path="url(#clip0_859_3997)">
<path d="M3.70122 26.7466C3.53976 26.3896 3.52734 26.0942 3.52734 25.7865C3.52734 23.7986 3.52734 21.8107 3.53355 19.829C3.53355 19.5275 3.55839 19.2198 3.6267 18.9243C3.83784 18.0073 4.52095 17.5211 5.46487 17.5765C6.39016 17.6319 7.0981 18.2658 7.17883 19.1705C7.31545 20.666 7.43344 22.1615 7.5328 23.6571C7.55764 24.0756 7.64458 24.254 8.13517 24.2356C13.6931 23.9894 19.2573 23.9956 24.8215 24.2356C25.2996 24.254 25.4984 24.1617 25.5294 23.6448C25.6039 22.2108 25.7468 20.7768 25.8585 19.3428C25.9517 18.1304 26.9701 17.3734 28.1687 17.6258C28.9077 17.7796 29.479 18.4012 29.4914 19.2505C29.5287 21.6015 29.51 23.9525 29.5038 26.3035C29.5038 26.4635 29.4914 26.6296 29.3237 26.7896C28.4978 26.088 27.5352 25.7065 26.4237 25.7434C24.9581 25.7926 23.8776 26.4573 23.2441 27.7559C23.0206 28.2236 22.766 28.4759 22.2443 28.4144C21.791 28.359 21.6544 28.5498 21.6606 28.9991C21.6854 30.8208 21.6606 32.6486 21.6792 34.4703C21.6792 34.895 21.5612 35.0181 21.1327 35.0181C18.065 34.9996 14.9972 34.9934 11.9295 35.0181C11.4389 35.0181 11.3644 34.8396 11.3706 34.4211C11.3892 32.6179 11.3706 30.8146 11.3892 29.0114C11.3892 28.5683 11.2774 28.3713 10.8117 28.4144C10.29 28.4636 9.99818 28.2544 9.74978 27.7497C8.74996 25.7126 6.17281 25.1033 4.2415 26.3958C4.07382 26.5065 3.91236 26.6235 3.70743 26.7773L3.70122 26.7466Z" fill="#BB3413"/>
<path d="M21.3128 4.81285C21.3066 7.47154 19.1579 9.57019 16.4504 9.56403C13.8359 9.55788 11.6997 7.42846 11.6935 4.82516C11.6873 2.16031 13.8546 -0.0183467 16.4938 0.000116492C19.189 0.024734 21.3128 2.148 21.3066 4.81285H21.3128Z" fill="#BB3413"/>
<path d="M16.4939 14.2963C19.0027 14.3086 20.9526 16.2533 20.9588 18.7459C20.9651 21.1769 18.9095 23.1955 16.4442 23.1647C13.9974 23.134 11.9978 21.1399 11.9978 18.7274C11.9978 16.2718 14.0161 14.2778 16.4939 14.2901V14.2963Z" fill="#BB3413"/>
<path d="M16.6179 10.7947C18.4437 10.8255 20.2446 10.9547 21.9772 11.5947C24.1383 12.3948 25.4734 13.9088 26.051 16.0998C26.1006 16.2782 26.1565 16.4444 25.9454 16.5736C25.7591 16.6906 25.6163 16.7644 25.3989 16.6106C24.4239 15.9459 23.3869 15.8659 22.3312 16.4013C21.9399 16.5983 21.9337 16.2844 21.8281 16.0936C20.3688 13.2995 17.2141 12.0871 14.283 13.2195C12.8795 13.7672 11.8176 14.7212 11.1593 16.0751C10.9917 16.4198 10.8675 16.4936 10.4887 16.3213C9.55716 15.8967 8.61945 15.9705 7.73763 16.5121C7.52028 16.6475 7.3464 16.7583 7.08558 16.5736C6.79371 16.3644 6.93654 16.1551 6.99864 15.9336C7.86183 12.8072 10.203 11.5147 13.1962 11.0285C14.3264 10.8439 15.4691 10.7639 16.6179 10.7885V10.7947Z" fill="#BB3413"/>
<path d="M25.8647 30.7351C24.3681 30.772 24.0079 30.3966 24.1073 29.1842C24.188 28.1872 24.6786 27.4486 25.6411 27.1163C26.6037 26.784 27.5414 26.907 28.3301 27.5963C28.9324 28.1256 28.9883 28.8211 28.8145 29.5473C28.653 30.2181 28.0941 30.372 27.5228 30.4766C26.8831 30.5935 26.2373 30.6735 25.8647 30.7289V30.7351Z" fill="#BB3413"/>
<path d="M7.19123 30.7355C6.8 30.6801 6.11069 30.6001 5.4338 30.4709C4.88111 30.3724 4.34704 30.1939 4.19179 29.5538C4.03033 28.8769 4.06759 28.2245 4.57682 27.6829C5.29718 26.9136 6.74411 26.7167 7.69424 27.2521C8.61953 27.7752 9.14738 29.0061 8.88035 30.0216C8.74994 30.5262 8.30903 30.754 7.19123 30.7355Z" fill="#BB3413"/>
<path d="M32.9876 19.5344C32.9876 19.7559 33.0001 19.9775 32.9876 20.199C32.9255 20.9991 32.3045 21.5715 31.5407 21.553C30.8141 21.5407 30.218 20.9622 30.1621 20.1867C30.131 19.7621 30.131 19.3374 30.1621 18.9128C30.218 18.1065 30.8203 17.5342 31.5842 17.5342C32.3542 17.5342 32.9255 18.0942 32.9876 18.9251C33.0063 19.1282 32.9876 19.3313 32.9876 19.5282C32.9876 19.5282 32.9876 19.5282 32.9814 19.5282L32.9876 19.5344Z" fill="#BB3413"/>
<path d="M2.84413 19.6692C2.8255 19.9092 2.88139 20.2292 2.77582 20.5492C2.56468 21.1831 1.98094 21.5955 1.34131 21.5462C0.639579 21.4909 0.105518 21.017 0.0372078 20.3277C-0.00626226 19.8476 -0.00626226 19.3553 0.0309978 18.8752C0.0806779 18.0998 0.683049 17.5459 1.42204 17.5459C2.14861 17.5459 2.76961 18.1121 2.84413 18.8691C2.86897 19.1091 2.84413 19.3553 2.84413 19.6753V19.6692Z" fill="#BB3413"/>
<path d="M25.0946 19.5527C25.0946 19.7743 25.107 19.9958 25.0946 20.2174C25.0449 20.9805 24.4612 21.5344 23.6973 21.5529C22.977 21.5714 22.3311 20.9867 22.2815 20.2297C22.2504 19.7681 22.2504 19.3004 22.2815 18.8388C22.3311 18.0818 22.9646 17.5279 23.7098 17.5402C24.4674 17.5525 25.0387 18.1064 25.0884 18.8881C25.1008 19.1096 25.0884 19.3312 25.0884 19.5527H25.0946Z" fill="#BB3413"/>
<path d="M10.7184 19.5461C10.7184 19.7677 10.7309 19.9892 10.7184 20.2108C10.6626 20.9862 10.0167 21.5771 9.2591 21.5463C8.51389 21.5217 7.93015 20.9432 7.90531 20.1739C7.89289 19.7492 7.88668 19.3246 7.90531 18.8999C7.94257 18.106 8.56357 17.5152 9.32741 17.5336C10.1099 17.5521 10.6812 18.1244 10.7247 18.9307C10.7371 19.1338 10.7247 19.3369 10.7247 19.5338L10.7184 19.5461Z" fill="#BB3413"/>
</g>
<defs>
<clipPath id="clip0_859_3997">
<rect width="33" height="35" fill="white"/>
</clipPath>
</defs>
</svg>
