<svg width="26" height="27" viewBox="0 0 26 27" fill="none" xmlns="http://www.w3.org/2000/svg">
<path fill-rule="evenodd" clip-rule="evenodd" d="M26 13.5C26 6.3203 20.1797 0.5 13 0.5C5.8203 0.5 0 6.3203 0 13.5C0 20.6797 5.8203 26.5 13 26.5C20.1797 26.5 26 20.6797 26 13.5ZM16.7173 8C17.0575 8 17.3837 8.13512 17.6243 8.37565C17.8649 8.61625 18 8.94254 18 9.28275C18 9.62296 17.8649 9.94924 17.6243 10.1898L14.3064 13.5077L17.6243 16.8256C17.8581 17.0676 17.9874 17.3917 17.9845 17.7281C17.9815 18.0645 17.8466 18.3863 17.6087 18.6242C17.3708 18.8621 17.049 18.997 16.7126 19C16.3762 19.0029 16.0521 18.8736 15.8102 18.6398L12.4923 15.3219L9.17435 18.6398C8.93237 18.8736 8.60828 19.0029 8.27188 19C7.93547 18.997 7.61367 18.8621 7.37579 18.6242C7.13791 18.3863 7.00297 18.0645 7.00005 17.7281C6.99713 17.3917 7.12645 17.0676 7.36016 16.8256L10.6781 13.5077L7.36016 10.1898C7.12645 9.94787 6.99713 9.62377 7.00005 9.28737C7.00297 8.95096 7.13791 8.62916 7.37579 8.39128C7.61367 8.1534 7.93547 8.01846 8.27188 8.01554C8.60828 8.01262 8.93237 8.14194 9.17435 8.37565L12.4923 11.6936L15.8102 8.37565C16.0508 8.13512 16.377 8 16.7173 8Z" fill="#B91C1C"/>
</svg>
