<svg width="41" height="32" viewBox="0 0 41 32" fill="none" xmlns="http://www.w3.org/2000/svg">
<g clip-path="url(#clip0_1764_3603)">
<path d="M3.41427 19.522V21.0395H4.93671V22.2384H3.41427V23.7559H2.21221V22.2384H0.688965V21.0395H2.21221V19.522H3.41427Z" fill="#375000"/>
<path d="M29.8604 1.7085V3.22605H31.3828C31.3563 3.42065 31.468 4.42408 31.2624 4.42408H29.8596V5.86235H28.6575V4.42408H27.2547C27.0492 4.42408 27.1608 3.42065 27.1343 3.22605H28.6567V1.7085H29.8588H29.8604Z" fill="#375000"/>
<path d="M41.0001 14.8089V15.2886C40.7929 16.2664 40.3705 17.1473 39.8767 18.0042L38.918 16.5218C38.7807 16.5811 37.9897 16.9287 37.9592 16.9719C37.842 17.1361 38.9734 18.7473 39.0673 19.0709L36.1903 22.122L36.0794 22.154C35.8683 22.118 35.156 20.5099 35.0235 20.4811L34.031 21.0785L35.1383 22.9316L35.0283 23.1166L31.8132 25.5054C31.6599 25.5479 31.7225 25.4782 31.6847 25.411C31.5386 25.1523 30.8842 23.8806 30.7404 23.7901C30.6545 23.7364 29.8556 24.1689 29.8138 24.2337C29.6259 24.526 30.8778 25.9651 30.7292 26.2198L27.2403 28.221C27.1624 28.2451 27.1399 28.1874 27.0957 28.149C26.8572 27.9383 26.3931 26.87 26.1603 26.5217C26.1113 26.4488 26.1145 26.3984 26.0077 26.4232C25.7556 26.4817 25.326 26.8869 25.0497 26.9902C25.1919 27.212 26.1225 28.6831 26.0567 28.7904C24.8795 29.3902 23.6542 29.8891 22.424 30.372L22.1229 30.3072L21.083 28.4693L20.0801 29.0291C20.154 29.3238 21.1481 30.7124 21.0413 30.8637C20.4053 31.0287 17.1886 32.0273 16.7935 31.7847C16.6506 31.6974 15.9167 30.1774 15.7465 29.9116C15.6067 29.8115 14.8624 30.3056 14.717 30.4329L15.512 31.9825C15.023 31.9448 14.4681 32.0337 13.9895 31.9825C13.6635 31.9473 12.9649 31.7358 12.6534 31.5973C11.3935 31.0367 10.8073 29.0867 10.063 27.9888C12.4526 28.5478 15.0431 28.0497 17.3733 27.4058C24.2403 25.5095 35.7663 18.9019 38.7678 12.2246C38.8979 11.9347 39.0368 11.6096 39.0753 11.2925C39.1781 11.2981 39.203 11.411 39.2488 11.4783C39.6655 12.0909 40.9101 14.1722 40.9977 14.8073L41.0001 14.8089Z" fill="#375000"/>
<path d="M34.0912 7.88241C40.3609 7.66699 38.0676 12.1948 35.4314 15.129C30.6818 20.4169 19.1069 27.3472 11.8657 27.1133C7.25978 26.9644 8.27394 23.7539 10.2412 21.0936C14.6175 15.1739 26.6846 8.13627 34.0921 7.88241H34.0912ZM33.1301 9.48005C29.9126 9.7275 25.2015 12.0291 22.3533 13.5963C19.1695 15.3493 12.9167 19.2909 11.1735 22.4237C10.3183 23.9597 10.5592 25.3355 12.5112 25.5117C15.8854 25.816 22.3718 22.5302 25.346 20.8133C28.1813 19.178 34.4413 15.1002 35.7245 12.1468C36.6784 9.95173 35.0444 9.3327 33.1293 9.48005H33.1301Z" fill="#375000"/>
<path d="M33.6127 10.5954C34.7264 10.5642 35.1311 10.8004 34.5738 11.8767C33.3573 14.2263 28.5523 17.4897 26.2478 18.9151C23.1635 20.8219 16.6305 24.3207 13.0685 24.3952C12.4687 24.408 11.6874 24.3679 11.8841 23.6095C12.488 21.2808 18.8805 16.9884 21.0204 15.7022C24.0685 13.87 30.1029 10.6947 33.6127 10.5954Z" fill="#375000"/>
<path d="M23.1282 9.85761L23.0792 10.021L17.8936 12.8791C15.4541 11.5017 13.0187 10.0786 10.7953 8.37048C9.64058 7.48397 6.52985 4.88451 6.17654 3.54874C6.02076 2.95773 6.26005 2.80958 6.81972 2.74712C8.50999 2.55812 11.4272 3.65765 13.0283 4.30792C16.6008 5.7582 19.9139 7.75946 23.1282 9.85841V9.85761Z" fill="#375000"/>
<path d="M16.7975 13.5315C16.8312 13.5675 16.8087 13.6412 16.7477 13.6965C16.6465 13.7878 15.4236 14.631 15.3297 14.6711C15.2831 14.6911 15.2461 14.7207 15.1956 14.6871C11.493 12.4768 7.55684 9.86695 4.85964 6.45866C3.05375 4.17792 1.08726 0.366016 5.69474 0.027269C11.4617 -0.397166 20.2921 4.22277 24.8385 7.63266C25.1348 7.85449 25.8037 8.30696 26.0157 8.53679C26.1185 8.6481 26.0896 8.65531 25.9643 8.72819C25.8238 8.81147 24.4691 9.37445 24.3848 9.36003C20.1451 6.49229 15.3626 3.54447 10.3857 2.14704C8.99578 1.75704 5.17842 0.776037 4.95359 3.04877C4.79701 4.63199 7.33361 7.00322 8.4618 7.97942C10.9518 10.1344 13.8923 12.0003 16.7975 13.5315Z" fill="#375000"/>
<path d="M9.25761 17.6C9.08336 17.7193 6.18783 15.4714 5.8562 15.1295L6.94022 13.133L5.89956 12.5716L4.89664 14.3278C3.80941 13.3893 2.80408 12.353 1.92723 11.2215C1.95132 10.8747 3.10761 9.33152 2.97913 9.13612C2.92694 9.05604 2.07819 8.59076 1.97702 8.66364C1.92081 8.70448 1.44063 9.7031 1.31617 9.88329C1.26156 9.96257 1.20375 10.0338 1.12907 10.0947C0.408 8.99678 -0.372494 7.52487 0.193605 6.20752L1.85095 3.46631C2.9438 6.56869 5.53179 9.14733 8.02343 11.2126C9.96021 12.8183 12.0873 14.1773 14.2312 15.4882L10.8154 18.6315C10.6572 18.601 10.222 18.3696 10.2356 18.219C10.2549 18.0068 11.0298 16.8512 11.1904 16.5269C11.2329 16.4412 11.3213 16.4788 11.1864 16.3691C11.1012 16.2995 10.2702 15.8534 10.2244 15.8822L9.25761 17.6008V17.6Z" fill="#375000"/>
</g>
<defs>
<clipPath id="clip0_1764_3603">
<rect width="41" height="32" fill="white"/>
</clipPath>
</defs>
</svg>
