<svg width="44" height="44" viewBox="0 0 44 44" fill="none" xmlns="http://www.w3.org/2000/svg">
<path d="M44 22C44 9.84974 34.1503 0 22 0C9.84975 0 0 9.84974 0 22C0 34.1503 9.84975 44 22 44C34.1503 44 44 34.1503 44 22Z" fill="#FF0209"/>
<path d="M31.3391 31.7439C30.6836 31.815 30.0127 31.8274 29.3696 31.8258C24.3531 31.8212 19.3365 31.8165 14.3216 31.8135C12.7432 31.8135 11.0241 31.7624 9.8044 30.7591C8.43007 29.626 8.14408 27.6611 8.03278 25.8833C7.87819 23.4469 7.86582 21.0028 7.99258 18.5649C8.06215 17.2261 8.18427 15.8549 8.7609 14.6429C9.17521 13.7726 9.86623 12.9903 10.7505 12.5791C11.7785 12.1014 12.8545 12.1864 13.9614 12.1849C16.6111 12.1818 19.2608 12.1803 21.9105 12.1772C24.6654 12.1741 27.4217 12.1725 30.1766 12.1694C31.4782 12.1694 32.8758 12.1957 33.9378 12.9486C35.309 13.9194 35.6816 15.7668 35.8532 17.4379C36.1701 20.5159 36.1747 23.6263 35.8656 26.7042C35.7372 27.9734 35.5239 29.3152 34.6875 30.2784C33.8589 31.2337 32.6299 31.6017 31.3406 31.7423L31.3391 31.7439Z" fill="white"/>
<path d="M26.4864 22L19.0103 17.6838V26.3163L26.4864 22Z" fill="#FF0209"/>
</svg>
