<svg width="98" height="238" viewBox="0 0 98 238" fill="none" xmlns="http://www.w3.org/2000/svg">
<path d="M9.91083 122.116C9.1804 121.933 9.10656 123.433 8.98263 123.924C8.31021 126.616 7.9885 129.414 7.6246 132.161C7.45056 132.849 6.85725 133.389 6.12154 133.459C5.71808 133.384 5.20124 132.515 5.1986 132.086L6.48016 121.341C5.81038 121.791 5.45966 122.786 5.11686 123.492C4.45235 124.868 2.94665 129.528 2.2795 130.276C1.57544 131.064 0.438911 130.739 0.209496 129.683C-0.077931 128.37 0.639319 127.964 0.95839 126.911C2.09228 123.146 3.64808 119.391 3.31846 115.393L2.94138 117.474C-1.59154 122.657 0.109292 114.539 1.51479 112.196C2.71724 110.189 5.9976 109.61 6.583 107.598C7.26597 105.245 8.1388 100.132 8.32866 97.6726C8.63191 93.7702 8.18363 89.7385 8.93253 85.8516C9.72361 81.7345 12.6111 77.4881 13.323 73.6064C13.9586 70.1358 15.016 63.3137 15.1847 59.9156C15.3034 57.5751 14.544 55.1468 14.6521 52.6667C14.7602 50.1634 15.4906 47.3213 16.7273 45.1334C21.4633 36.757 30.2206 38.6113 37.3747 33.8322C39.413 32.4693 40.0063 32.221 40.2358 29.6556C40.3175 28.7401 40.0274 22.0913 39.7057 21.7784C39.5897 21.6672 38.2897 22.0266 37.6357 21.093C36.8077 19.9112 34.6771 13.8261 38.1288 15.0467C36.9659 6.9419 40.837 -0.614682 50.1349 0.0396011C57.9033 0.587854 60.8435 8.39012 59.7492 15.0493C63.2168 13.8364 61.0545 19.9396 60.2423 21.0956C59.5883 22.0292 58.2857 21.6672 58.1723 21.7809C57.8506 22.0939 57.5605 28.7427 57.6423 29.6582C57.869 32.1848 58.3648 32.3607 60.3478 33.7287C67.9817 39.0044 78.5638 36.7234 82.2371 47.4325C83.9748 52.4986 82.4639 55.3149 82.6933 59.9156C82.8647 63.3137 83.9195 70.1333 84.555 73.6064C85.2643 77.4881 88.1518 81.7371 88.9455 85.8516C89.6944 89.7385 89.2461 93.7702 89.5493 97.6726C89.7418 100.132 90.612 105.245 91.295 107.598C91.8804 109.613 95.1581 110.189 96.3632 112.196C96.9697 113.207 98.2829 117.599 97.9454 118.579C97.4681 119.965 95.2715 118.542 94.9366 117.474L94.5595 115.393C94.2537 119.375 95.7884 123.156 96.9196 126.911C97.2361 127.964 97.9559 128.37 97.6685 129.683C97.4391 130.739 96.3026 131.064 95.5985 130.276C94.9287 129.528 93.4257 124.865 92.7611 123.492C92.421 122.786 92.0676 121.788 91.3978 121.341L92.6794 132.086C92.6768 132.513 92.1599 133.381 91.7565 133.459C91.0181 133.389 90.4274 132.849 90.2534 132.161C89.8921 129.414 89.5678 126.616 88.8954 123.924C88.7714 123.433 88.6976 121.935 87.9672 122.116V132.332C87.9672 132.774 86.7041 132.872 86.2241 132.487C85.4726 131.876 85.2406 124.54 85.0797 123.009C85.0375 122.613 85.1298 122.083 84.6657 121.86C84.141 121.607 84.2649 122.406 84.199 122.685C83.9485 123.746 83.2391 128.328 82.034 128.336C81.6939 128.336 81.5277 128.194 81.417 127.896C81.5647 125.23 81.6649 122.585 81.649 119.908C81.6411 118.563 81.2957 117.268 81.3616 115.773C81.4117 114.65 81.8626 113.251 81.8996 112.157C82.0789 106.949 76.296 97.2899 74.6506 91.8617C73.4059 87.7627 73.3216 84.0387 72.5885 79.9191C72.1086 77.214 71.1434 74.5658 70.8244 71.8246C70.5791 71.4211 70.4657 72.0366 70.4262 72.2021C69.3635 76.7097 67.5967 81.4604 67.9132 86.0559C68.0925 88.6239 68.6489 90.7781 68.728 93.5556C69.1103 107.107 73.5035 120.593 72.4039 134.403C71.4335 146.578 66.3495 156.806 67.1353 169.315C67.4543 174.387 68.7781 178.39 68.4617 183.81C67.7154 196.586 58.85 214.748 64.3638 227.117C65.3738 229.383 68.2296 232.139 68.1637 234.72C68.1162 236.58 67.1115 237.089 65.3738 237.361C64.2241 237.539 62.2806 237.185 61.189 237.319C60.8092 237.366 60.4532 237.956 59.6121 237.997C57.0832 238.119 54.6493 234.524 54.2722 232.359C54.0455 231.053 54.3355 229.528 53.7422 228.224C53.3678 227.402 52.3235 227.053 51.7223 226.326C49.5732 223.714 52.0097 222.222 52.3393 219.729C52.669 217.236 52.872 215.521 53.344 212.956C55.0238 203.85 50.4434 192.445 51.0446 182.512C51.2608 178.936 52.7059 175.191 52.371 171.638C52.226 170.089 51.2371 168.276 50.8574 166.657C49.5706 161.195 49.8237 154.029 49.9766 148.363C50.0083 147.24 50.533 145.841 50.5357 144.753C50.5436 142.185 49.8211 138.911 49.7129 136.229C49.5073 131.176 50.0399 126.133 49.9898 121.087H47.8776C47.8275 126.133 48.3602 131.176 48.1545 136.229C48.0438 138.911 47.3239 142.185 47.3318 144.753C47.3344 145.839 47.8618 147.238 47.8908 148.363C48.0438 154.031 48.2969 161.195 47.0101 166.657C46.6277 168.276 45.6415 170.089 45.4965 171.638C45.1695 175.129 46.6013 178.977 46.8229 182.512C47.4425 192.451 42.8411 203.827 44.5234 212.956C44.9954 215.519 45.1932 217.176 45.5281 219.729C45.863 222.271 48.3866 223.838 46.0318 226.473C45.4569 227.117 44.4997 227.404 44.1253 228.224C43.5319 229.528 43.8246 231.053 43.5952 232.359C43.2208 234.511 40.7921 238.119 38.2554 237.997C37.4142 237.958 37.0582 237.369 36.6785 237.319C35.5103 237.175 33.5669 237.55 32.3249 237.327C30.6979 237.035 29.8646 236.634 29.7354 234.93C29.5324 232.22 32.3618 229.59 33.4219 227.293C39.0992 214.973 30.1547 196.586 29.4084 183.81C29.092 178.39 30.4158 174.387 30.7348 169.315C31.5206 156.809 26.4366 146.578 25.4662 134.403C24.5934 123.438 27.1196 110.836 28.3985 99.7829C28.678 97.3752 29.0735 96.0667 29.1447 93.553C29.2555 89.6454 30.3076 85.7585 29.9174 81.9362C29.5851 78.6984 27.4334 75.1244 27.3094 71.6927L25.01 81.1992C25.8697 91.6315 17.4341 101.226 16.0365 110.67C15.7807 112.4 16.4346 114.087 16.5111 115.77C16.577 117.265 16.2316 118.563 16.2237 119.905C16.2105 122.582 16.3081 125.228 16.4557 127.894C16.345 128.191 16.1789 128.336 15.8387 128.333C14.6362 128.328 13.9243 123.743 13.6738 122.683C13.6078 122.404 13.7318 121.604 13.207 121.858C12.7429 122.08 12.8352 122.61 12.793 123.006C12.5346 125.46 12.5425 128.09 12.2762 130.516C12.2208 131.026 12.0257 132.187 11.6486 132.484C11.1634 132.864 9.9082 132.776 9.9082 132.329V122.114L9.91083 122.116Z" fill="#E84915"/>
</svg>
