<svg width="32" height="32" viewBox="0 0 32 32" fill="none" xmlns="http://www.w3.org/2000/svg">
<g clip-path="url(#clip0_1332_3526)">
<path d="M31.9617 17.997C32.0249 17.4685 31.9968 16.8759 31.97 16.3032C31.9464 15.7938 31.9215 15.2678 31.9623 14.7987C31.9661 14.752 31.9502 14.7066 31.9176 14.6733C31.7185 14.4692 31.5194 14.2644 31.3203 14.0596C30.0848 12.7894 28.8065 11.4762 27.4849 10.2604C27.4555 10.2335 27.4172 10.2181 27.377 10.2181H22.2825V9.51615H24.8294C24.9915 9.51615 25.3393 9.16739 25.3393 9.00485V0.511147C25.3393 0.379963 25.2245 0.258377 24.9979 0.0664004L24.966 0.0395236C24.9373 0.0145666 24.8996 0.000488281 24.8613 0.000488281H7.15518C7.11498 0.000488281 7.07605 0.0158464 7.04669 0.0433631L6.79844 0.273735C6.76845 0.301892 6.74994 0.340287 6.74739 0.381882C6.64656 2.08856 6.66124 3.84067 6.67591 5.53518C6.68485 6.60578 6.69442 7.7122 6.67464 8.79495C6.63188 8.97925 6.75824 9.18275 6.81695 9.26402C6.88523 9.35873 7.02372 9.51743 7.18709 9.51743H9.73405V10.2194H4.6395C4.59993 10.2194 4.56228 10.2341 4.53292 10.2604C3.62288 11.0814 2.74795 11.9722 1.90173 12.8335C1.36757 13.3774 0.814915 13.9399 0.259703 14.4781C0.148023 14.5869 0.0822905 14.7117 0.0586781 14.8601C-0.0376863 15.4732 -0.00450125 17.4224 0.0708034 18.0143C0.167168 18.7758 0.631759 19.3972 1.07082 19.9226V31.3638C1.07848 31.6543 1.27249 31.9013 1.55392 31.9781C1.56732 31.9819 1.58136 31.9838 1.59604 31.9838L30.2424 32.0005C30.2539 32.0005 30.2648 32.0011 30.2756 32.0011C30.5392 32.0011 30.7568 31.8712 30.8774 31.6402C30.8889 31.6185 30.8946 31.5948 30.8953 31.5705C30.9642 29.1829 30.954 26.7474 30.9438 24.3918C30.9374 22.9264 30.931 21.4117 30.9438 19.9232C31.4039 19.3716 31.8749 18.7144 31.961 17.9983L31.9617 17.997ZM24.0011 1.34177V8.17423H8.01544V1.34177H24.0011ZM18.6959 11.5594C21.382 11.5671 24.1594 11.5748 26.8888 11.562L26.9967 11.6215L29.6381 14.306H2.37844L5.02304 11.6196C9.57131 11.5338 14.2102 11.5473 18.6966 11.5601L18.6959 11.5594ZM18.9059 9.51615V10.2181H13.1106V9.51615H18.9059ZM20.2441 10.2181V9.51615H20.9442V10.2181H20.2441ZM11.7724 9.51615V10.2181H11.0723V9.51615H11.7724ZM27.2034 22.4772C25.8435 22.3536 24.3687 22.41 22.9424 22.4644C21.643 22.5136 20.3003 22.5648 19.054 22.4797C18.8938 22.4503 18.7227 22.5616 18.6334 22.6327C18.5447 22.7024 18.3966 22.8419 18.3966 22.9916V30.6547H13.6205V22.9916C13.6205 22.6506 13.1598 22.4983 12.937 22.4778C11.5771 22.3543 10.1023 22.4106 8.67595 22.465C7.37727 22.5143 6.03391 22.5655 4.78755 22.4803C4.62737 22.4509 4.45634 22.5623 4.367 22.6333C4.27829 22.703 4.13023 22.8425 4.13023 22.9923V30.6554H2.41099V20.6738C3.7569 20.9727 5.02942 20.5331 5.80991 19.4983C5.82331 19.5188 5.83927 19.5399 5.85841 19.5604C6.30896 20.0269 6.70463 20.3993 7.34791 20.6041C8.68999 21.0309 10.0659 20.5964 10.9045 19.4977C10.9179 19.5188 10.9338 19.5399 10.9536 19.5604C11.4042 20.0269 11.8005 20.4 12.4431 20.6041C13.7852 21.0309 15.1604 20.5964 15.9996 19.4977C16.013 19.5188 16.029 19.5399 16.0488 19.561C16.4993 20.0275 16.8956 20.4006 17.5383 20.6047C18.8804 21.0316 20.2556 20.5971 21.0948 19.4983C21.1082 19.5194 21.1242 19.5405 21.144 19.5617C21.1752 19.5943 21.2084 19.6295 21.2435 19.6653C21.3801 19.8093 21.5352 19.9725 21.6743 20.0832C22.3629 20.6323 23.2602 20.8677 24.137 20.7295C24.9577 20.6003 25.6961 20.1555 26.1907 19.4996C26.2041 19.5201 26.2194 19.5412 26.2392 19.561C27.2711 20.6284 28.2583 20.958 29.6055 20.6713V30.656H27.8863V22.9929C27.8863 22.6518 27.4255 22.4995 27.2028 22.4791L27.2034 22.4772ZM10.2439 17.7545C10.2439 18.5986 9.20181 19.4081 8.39452 19.4196C8.38814 19.4196 8.38239 19.4196 8.37601 19.4196C7.91844 19.4196 7.37408 19.1726 6.98351 18.7861C6.66315 18.4693 6.48701 18.1033 6.48701 17.7539V15.6466H10.2439V17.7539V17.7545ZM15.3391 17.7545C15.3391 18.5986 14.297 19.4081 13.4897 19.4196C13.4833 19.4196 13.4776 19.4196 13.4712 19.4196C13.0136 19.4196 12.4693 19.1726 12.0787 18.7861C11.7583 18.4693 11.5822 18.1033 11.5822 17.7545V15.6473H15.3391V17.7545ZM20.4343 17.7545C20.4343 18.5986 19.3922 19.4081 18.5849 19.4196C18.5785 19.4196 18.5728 19.4196 18.5664 19.4196C18.1088 19.4196 17.5645 19.1726 17.1739 18.7861C16.8535 18.4693 16.6774 18.1033 16.6774 17.7545V15.6473H20.4343V17.7545ZM25.5295 17.7545C25.5295 18.5986 24.4874 19.4081 23.6801 19.4196C23.6737 19.4196 23.668 19.4196 23.6616 19.4196C23.204 19.4196 22.6596 19.1726 22.2691 18.7861C21.9487 18.4693 21.7726 18.1033 21.7726 17.7545V15.6473H25.5295V17.7545ZM28.7568 19.4196C28.2992 19.4196 27.7548 19.1726 27.3643 18.7861C27.0439 18.4693 26.8678 18.1033 26.8678 17.7539V15.6466H30.6247V17.7539C30.6247 18.5979 29.5826 19.4074 28.7753 19.419C28.7689 19.419 28.7631 19.419 28.7568 19.419V19.4196ZM5.14876 17.7545C5.14876 18.5986 4.10662 19.4081 3.29933 19.4196C3.29295 19.4196 3.2872 19.4196 3.28082 19.4196C2.82325 19.4196 2.27889 19.1726 1.88833 18.7861C1.56796 18.4693 1.39183 18.1033 1.39183 17.7539V15.6466H5.14876V17.7539V17.7545ZM8.20626 23.8216V30.6541H5.46849V23.8216H8.20626ZM12.2823 23.8216V30.6541H9.54451V23.8216H12.2823ZM22.4727 23.8216V30.6541H19.7349V23.8216H22.4727ZM26.5487 23.8216V30.6541H23.8109V23.8216H26.5487Z" fill="#375000"/>
<path d="M12.9511 7.47242H13.9703C14.0584 7.47242 14.1299 7.40075 14.1299 7.31244V6.45047H14.8299V7.31244C14.8299 7.40075 14.9014 7.47242 14.9895 7.47242H16.0086C16.0967 7.47242 16.1682 7.40075 16.1682 7.31244V3.38459C16.1682 3.25981 15.9167 2.82914 15.9142 2.8253C15.583 2.3076 15.0188 2.01324 14.4081 2.03372C13.8076 2.05483 13.2772 2.38311 12.9894 2.91169C12.9875 2.91553 12.7922 3.29501 12.7922 3.38459V7.31244C12.7922 7.40075 12.8637 7.47242 12.9518 7.47242H12.9511ZM14.8299 3.67256V5.10855H14.1426C14.1509 4.90697 14.1375 4.6894 14.1241 4.47758C14.1062 4.19026 14.0877 3.89269 14.1273 3.66808C14.1509 3.5337 14.2702 3.45051 14.3743 3.41723C14.477 3.38459 14.6212 3.38331 14.7227 3.47546C14.7457 3.51258 14.8057 3.62329 14.8299 3.67256Z" fill="#375000"/>
<path d="M20.9551 7.28187C21.061 7.35354 21.2499 7.47321 21.3265 7.47321H23.1415C23.2295 7.47321 23.301 7.40153 23.301 7.31322V6.29127C23.301 6.20296 23.2295 6.13129 23.1415 6.13129H21.7726V5.42929H23.1415C23.2295 5.42929 23.301 5.35762 23.301 5.26931V4.24735C23.301 4.15904 23.2295 4.08737 23.1415 4.08737H21.7726V3.38538H23.1415C23.2295 3.38538 23.301 3.3137 23.301 3.2254V2.20344C23.301 2.11513 23.2295 2.04346 23.1415 2.04346H21.3265C21.0004 2.04346 20.4873 2.67954 20.4407 2.98158C20.3392 3.63943 20.3622 5.68142 20.4324 6.40517C20.4669 6.76097 20.6577 7.08029 20.9551 7.28123V7.28187Z" fill="#375000"/>
<path d="M9.58156 7.27449C9.58539 7.27641 9.9651 7.47223 10.0532 7.47223H11.932C12.02 7.47223 12.0915 7.40056 12.0915 7.31225V6.29029C12.0915 6.20198 12.02 6.13031 11.932 6.13031H10.3078C10.1751 6.13031 10.0659 5.85898 10.0493 5.67213C10.0104 5.2389 9.99701 4.15167 10.0557 3.72996C10.0768 3.58086 10.2319 3.3844 10.3078 3.3844H11.932C12.02 3.3844 12.0915 3.31273 12.0915 3.22442V2.20246C12.0915 2.11415 12.02 2.04248 11.932 2.04248H10.0532C9.56305 2.04248 8.87127 2.82447 8.76342 3.26153C8.64025 3.76003 8.6728 5.3496 8.713 5.88906C8.75767 6.48227 9.08187 6.99997 9.58092 7.27321L9.58156 7.27449Z" fill="#375000"/>
<path d="M17.0272 7.47223H18.0463C18.1344 7.47223 18.2059 7.40056 18.2059 7.31225V5.42831H19.5748C19.6628 5.42831 19.7343 5.35664 19.7343 5.26833V4.24638C19.7343 4.15807 19.6628 4.0864 19.5748 4.0864H18.2059V3.3844H19.5748C19.6628 3.3844 19.7343 3.31273 19.7343 3.22442V2.20246C19.7343 2.11415 19.6628 2.04248 19.5748 2.04248H17.7598C17.5096 2.04248 16.8676 2.68624 16.8676 2.93709V7.31161C16.8676 7.39992 16.9391 7.47223 17.0272 7.47223Z" fill="#375000"/>
</g>
<defs>
<clipPath id="clip0_1332_3526">
<rect width="32" height="32" fill="white"/>
</clipPath>
</defs>
</svg>
