<svg width="51" height="51" viewBox="0 0 51 51" fill="none" xmlns="http://www.w3.org/2000/svg">
<path d="M17.8728 3.1875C17.9911 3.1875 18.1094 3.1875 18.2276 3.1875C18.3086 3.21457 18.3877 3.25649 18.4713 3.26609C20.6849 3.53768 22.8994 3.80228 25.1131 4.07474C31.1527 4.81877 37.1905 5.57328 43.2328 6.2946C43.7335 6.35398 43.8056 6.52165 43.8047 6.95828C43.7931 18.2567 43.7949 29.555 43.7949 40.8534V41.4446H45.9285V44.5569C41.1846 44.7482 36.5538 45.5673 31.8909 46.0922C27.2182 46.6179 22.5553 47.2318 17.8452 47.8125V47.1872C17.8452 32.7084 17.8452 18.2296 17.8461 3.75163C17.8461 3.56388 17.863 3.37525 17.8719 3.1875L17.8728 3.1875ZM22.7411 22.3331V28.666H25.9286V22.3331H22.7411Z" fill="#8DCA0A"/>
<path d="M5.36084 41.449H7.56823V6.40381H14.5568V9.55282H10.8304V41.4324H14.5684V44.5849C14.4545 44.5972 14.3425 44.6199 14.2313 44.6199C11.4067 44.6216 8.5821 44.6216 5.75749 44.6199C5.62498 44.6199 5.49335 44.5989 5.36084 44.5876C5.36084 43.5414 5.36084 42.4961 5.36084 41.4499L5.36084 41.449Z" fill="#8DCA0A"/>
</svg>
