<svg width="32" height="32" viewBox="0 0 32 32" fill="none" xmlns="http://www.w3.org/2000/svg">
<path d="M31.5475 18.7522C31.3405 16.8778 29.297 14.5875 27.2075 14.5875H25.7405V13.8169C25.7405 13.5929 25.4789 13.3707 25.3662 13.2858C25.2725 13.2151 24.9527 12.9935 24.6869 13.0434H1.09909C0.59557 13.0469 0.169843 13.426 0.0644826 13.966L0.0620323 13.9892C-0.0182127 16.3924 -0.100908 18.8775 0.370149 21.1263C0.888985 23.6055 2.01119 25.5571 3.90154 27.2682C4.30644 27.6347 4.75729 27.9544 5.19404 28.2633C5.34105 28.3673 5.49052 28.4736 5.63815 28.5812H0.919001C0.802002 28.5812 0.469383 28.7968 0.46632 28.7992C0.168005 29.0267 0.0222161 29.363 0.0675454 29.7213C0.114712 30.0967 0.368924 30.4288 0.730945 30.5875L0.759736 30.5999H0.791589C4.39894 30.6516 8.04488 30.6677 11.6731 30.6677C14.7389 30.6677 17.7931 30.6564 20.7996 30.6451C22.1735 30.6398 23.5463 30.635 24.919 30.6308H24.9374L24.9552 30.6267C25.3466 30.5334 25.6437 30.234 25.7307 29.8442C25.8201 29.4438 25.6725 29.0404 25.346 28.7915C25.3435 28.7891 25.044 28.5818 24.9454 28.5818H20.2182C22.0792 27.3216 23.5046 25.796 24.4596 24.0392C24.8492 24.0148 25.2504 24.016 25.6388 24.0166C26.5741 24.019 27.5408 24.0214 28.4529 23.6792C30.1074 23.0595 31.3797 21.4607 31.5469 19.7907C31.5751 19.5115 31.5751 19.0065 31.5469 18.7522H31.5475ZM25.7392 19.7556C25.7686 19.3113 25.7472 18.8235 25.7264 18.3518C25.7019 17.7986 25.6767 17.2265 25.7362 16.737C25.7398 16.7043 25.7447 16.6805 25.7484 16.6639H26.6568C27.7619 16.6639 28.7181 17.2931 29.1524 18.3054C29.5775 19.297 29.3656 20.3777 28.5986 21.1269C28.3077 21.4114 27.4795 21.8814 27.085 21.8814H25.3423C25.3846 21.6633 25.4348 21.4441 25.4838 21.2308C25.5928 20.7532 25.7061 20.2589 25.7398 19.7562L25.7392 19.7556ZM2.27214 15.1216H23.599C23.5947 15.5963 23.6014 16.0716 23.6075 16.5326C23.6363 18.6886 23.6633 20.7252 22.7083 22.7179C21.7092 24.8038 20.0553 26.4335 17.9267 27.431C15.9806 28.3429 13.6743 28.6923 11.4311 28.416C9.23325 28.1451 7.23508 27.3163 5.65346 26.0194C3.94136 24.6161 2.81732 22.7185 2.40262 20.5321C2.19802 19.4532 2.2311 18.2763 2.26356 17.138C2.28255 16.4708 2.30154 15.7828 2.27275 15.1222L2.27214 15.1216Z" fill="#BB3413"/>
<path d="M6.3306 10.3456C6.56643 10.5191 6.83351 10.6082 7.09384 10.6082C7.27761 10.6082 7.45709 10.5643 7.62003 10.4746C7.99553 10.2678 8.18726 9.87035 8.13397 9.4105C8.10211 9.13543 7.8626 8.85858 7.609 8.56568C7.41666 8.34289 7.21758 8.11297 7.13305 7.90384C6.7698 7.00792 7.31436 6.50471 7.9453 5.92248C8.26015 5.63196 8.58542 5.33134 8.81084 4.96418C9.31253 4.14728 9.42156 3.17293 9.11773 2.22176C8.83412 1.33297 8.20502 0.532112 7.39155 0.024741L7.35357 0.000976562H6.78266L6.7502 0.0170176C6.42983 0.175051 6.0917 0.393684 6.01084 0.817879C5.90364 1.3811 6.17562 1.6627 6.43841 1.9354C6.54193 2.04294 6.64974 2.15463 6.74223 2.2889C7.53182 3.43315 6.95908 3.96132 6.23442 4.63029C5.8822 4.95527 5.51773 5.29153 5.26903 5.73118C4.86781 6.44114 4.76306 7.32339 4.97439 8.21634C5.18021 9.08612 5.67455 9.86262 6.33182 10.3468L6.3306 10.3456Z" fill="#BB3413"/>
<path d="M12.3041 10.4421C12.4921 10.5544 12.7016 10.6108 12.9105 10.6108C13.1194 10.6108 13.3111 10.5585 13.4888 10.454C13.8422 10.2454 14.0345 9.88066 14.0033 9.47785C13.98 9.17842 13.7344 8.88314 13.4734 8.57005C13.278 8.33537 13.0765 8.09298 12.984 7.86187C12.6238 6.96298 13.0863 6.56789 13.6713 6.06706C13.8875 5.88229 14.1111 5.69099 14.3047 5.46166C14.7071 4.98518 15.1494 4.13204 15.1672 3.38584C15.1978 2.14949 14.3396 0.639857 13.2541 0.0207939L13.218 0H12.5852L12.5497 0.0196057C12.1724 0.230515 11.7534 0.562623 11.8679 1.26486C11.909 1.51795 12.1178 1.74253 12.3194 1.95938C12.4088 2.05562 12.4933 2.14652 12.5509 2.22851C13.395 3.42921 12.8413 3.93895 12.0744 4.64476C11.6946 4.99469 11.2639 5.39096 11.0103 5.91615C10.4805 7.01288 10.6091 8.25517 11.3718 9.41428C11.5273 9.65073 12.0413 10.2841 12.3041 10.4421Z" fill="#BB3413"/>
<path d="M18.7828 10.6302C18.8024 10.6314 18.822 10.632 18.8416 10.632C19.1393 10.632 19.4033 10.4876 19.6275 10.2019C20.1506 9.53586 19.6974 9.0071 19.2974 8.54072C19.1234 8.33754 18.9433 8.12782 18.852 7.9175C18.4539 7.00138 18.9151 6.60392 19.4989 6.10012C19.6839 5.9403 19.875 5.77573 20.0483 5.58502C20.7608 4.80139 21.0781 3.87161 20.9653 2.89608C20.8392 1.79994 20.1721 0.754903 19.1356 0.0288998L19.0952 0.000976562H18.4496L18.411 0.0253351C18.1163 0.213668 17.7494 0.447748 17.6845 0.884419C17.6177 1.33297 17.9099 1.67815 18.2193 2.04353C18.5598 2.44634 18.9127 2.86281 18.8183 3.46286C18.7442 3.93518 18.3681 4.25243 17.9706 4.5887C17.7825 4.74733 17.5883 4.9113 17.4303 5.0931C16.3503 6.33182 16.2413 7.76303 17.1142 9.23168C17.2477 9.45625 17.9552 10.5785 18.7828 10.6302Z" fill="#BB3413"/>
</svg>
