<svg width="44" height="44" viewBox="0 0 44 44" fill="none" xmlns="http://www.w3.org/2000/svg">
<path d="M22.0501 0H21.9499C9.82731 0 0 9.82731 0 21.9499V22.0501C0 34.1727 9.82731 44 21.9499 44H22.0501C34.1727 44 44 34.1727 44 22.0501V21.9499C44 9.82731 34.1727 0 22.0501 0Z" fill="url(#paint0_linear_1196_3518)"/>
<path d="M28.8083 8.95166H15.1935C11.4321 8.95166 8.37219 12.0116 8.37219 15.7729V28.2285C8.37219 31.9899 11.4321 35.0498 15.1935 35.0498H28.8083C32.5696 35.0498 35.6296 31.9899 35.6296 28.2285V15.7729C35.6296 12.0116 32.5696 8.95166 28.8083 8.95166ZM10.7785 15.7729C10.7785 13.3389 12.7594 11.358 15.1935 11.358H28.8083C31.2424 11.358 33.2233 13.3389 33.2233 15.7729V28.2285C33.2233 30.6626 31.2424 32.6435 28.8083 32.6435H15.1935C12.7594 32.6435 10.7785 30.6626 10.7785 28.2285V15.7729Z" fill="white"/>
<path d="M22.0011 28.3442C25.4989 28.3442 28.3461 25.4985 28.3461 21.9993C28.3461 18.5 25.5004 15.6543 22.0011 15.6543C18.5019 15.6543 15.6562 18.5 15.6562 21.9993C15.6562 25.4985 18.5019 28.3442 22.0011 28.3442ZM22.0011 18.0622C24.1732 18.0622 25.9398 19.8288 25.9398 22.0008C25.9398 24.1728 24.1732 25.9394 22.0011 25.9394C19.8291 25.9394 18.0625 24.1728 18.0625 22.0008C18.0625 19.8288 19.8291 18.0622 22.0011 18.0622Z" fill="white"/>
<path d="M28.9331 16.6794C29.8749 16.6794 30.6426 15.9132 30.6426 14.9698C30.6426 14.0264 29.8765 13.2603 28.9331 13.2603C27.9896 13.2603 27.2235 14.0264 27.2235 14.9698C27.2235 15.9132 27.9896 16.6794 28.9331 16.6794Z" fill="white"/>
<defs>
<linearGradient id="paint0_linear_1196_3518" x1="6.4282" y1="37.5718" x2="37.5718" y2="6.42974" gradientUnits="userSpaceOnUse">
<stop stop-color="#FAAD4F"/>
<stop offset="0.35" stop-color="#DD2A7B"/>
<stop offset="0.62" stop-color="#9537B0"/>
<stop offset="1" stop-color="#515BD4"/>
</linearGradient>
</defs>
</svg>
