<svg width="37" height="37" viewBox="0 0 37 37" fill="none" xmlns="http://www.w3.org/2000/svg">
<g clip-path="url(#clip0_859_3988)">
<path d="M16.4389 0.0400391C17.1201 0.120574 17.8029 0.189029 18.4826 0.284866C21.3393 0.686736 24.0946 1.40753 26.5448 3.01662C27.0959 3.37902 27.6174 3.8123 28.0774 4.28666C29.7833 6.04554 29.7737 8.17409 28.0806 9.94666C26.8571 11.228 25.3325 12.0277 23.708 12.6462C21.4359 13.512 19.076 13.9565 16.6553 14.1168C13.2347 14.3431 9.87647 14.0298 6.60206 12.9756C4.88659 12.4231 3.24619 11.6991 1.87973 10.4879C1.3686 10.0353 0.899004 9.49728 0.539618 8.91662C-0.195926 7.72712 -0.167175 6.47882 0.544409 5.27241C1.33985 3.92264 2.57374 3.06977 3.91785 2.36509C6.10611 1.21746 8.45969 0.61667 10.8891 0.285671C11.5688 0.193056 12.2516 0.12138 12.9328 0.0400391C14.1021 0.0400391 15.2705 0.0400391 16.4397 0.0400391H16.4389ZM14.6683 10.3292C15.9054 10.2905 17.1025 10.1633 18.2542 9.76063C19.1646 9.44251 20.0295 9.0342 20.6389 8.23771C21.2003 7.50323 21.2427 6.67694 20.6261 6.00044C20.1885 5.52045 19.6438 5.07107 19.0584 4.81013C16.4205 3.63674 13.7107 3.62627 10.9898 4.51699C10.0969 4.80933 9.2759 5.24824 8.69848 6.03346C8.18496 6.7317 8.1578 7.51289 8.70727 8.17811C9.0387 8.57998 9.46038 8.93997 9.90841 9.20413C11.3811 10.0739 13.0255 10.272 14.6691 10.33L14.6683 10.3292Z" fill="#BB3413"/>
<path d="M37 21.9774C36.8363 22.5243 36.7085 23.0864 36.4969 23.6139C36.326 24.0399 36.0537 24.4257 35.826 24.8308C35.3684 24.5425 34.9587 24.3001 34.5706 24.0263C34.4899 23.9699 34.4572 23.7991 34.4564 23.68C34.4468 22.7828 34.4516 21.8856 34.4516 20.9885C34.4516 20.8951 34.4548 20.8008 34.4508 20.7074C34.4324 20.2733 34.1745 19.9753 33.8159 19.9737C33.4565 19.9721 33.1842 20.2685 33.1786 20.7026C33.169 21.4524 33.1754 22.2021 33.1754 22.9519C33.1754 23.0977 33.1754 23.2443 33.1754 23.3916C32.3296 23.3022 31.5086 23.2145 30.6245 23.121C30.6245 22.5404 30.6341 21.917 30.6213 21.2937C30.6142 20.9281 30.4153 20.676 30.0527 20.6293C29.746 20.5898 29.5096 20.7469 29.409 21.0513C29.3643 21.1866 29.3547 21.3388 29.3531 21.4838C29.3467 22.0314 29.3507 22.579 29.3507 23.1549H26.8015C26.8015 22.7015 26.8015 22.2513 26.8015 21.8003C26.8015 21.0908 26.8015 20.3804 26.8015 19.6709C26.8015 19.0226 26.5922 18.6972 26.1729 18.6892C25.7489 18.6811 25.526 19.0121 25.5252 19.6516C25.5252 20.6824 25.5252 21.7141 25.5252 22.7449V23.1605H22.976C22.976 22.8158 22.976 22.4607 22.976 22.1055C22.976 21.8244 22.9896 21.5417 22.9696 21.2623C22.9441 20.887 22.6589 20.6132 22.3315 20.6172C22.0001 20.6212 21.7174 20.8942 21.7062 21.2744C21.6886 21.8897 21.7014 22.5049 21.7014 23.1516H19.1497C19.1497 22.9761 19.1497 22.7941 19.1497 22.6121C19.1497 21.5675 19.1529 20.523 19.1481 19.4784C19.1457 19.0057 18.9006 18.7021 18.5292 18.6892C18.1451 18.6755 17.8767 18.992 17.8751 19.4825C17.8711 20.6994 17.8735 21.9154 17.8735 23.1581H15.3243C15.3243 22.5758 15.3275 22.004 15.3235 21.4314C15.3203 20.9329 15.0711 20.6196 14.6886 20.618C14.3036 20.6164 14.0528 20.9289 14.0496 21.4274C14.0457 21.9992 14.0489 22.5718 14.0489 23.2064C13.1895 23.1476 12.3733 23.092 11.4996 23.0333C11.4996 22.8674 11.4996 22.7264 11.4996 22.5855C11.4996 21.5273 11.5052 20.4698 11.4964 19.4116C11.4924 18.9799 11.2113 18.6828 10.8527 18.69C10.4933 18.6964 10.2418 18.9928 10.225 19.4301C10.2218 19.5107 10.225 19.5912 10.225 19.6709C10.225 20.5818 10.225 21.4918 10.225 22.4027V22.8641C9.35367 22.6781 8.52069 22.5001 7.67574 22.3197C7.67574 21.5474 7.67414 20.825 7.67574 20.1026C7.67653 19.7257 7.53198 19.4486 7.15423 19.3496C6.76369 19.2481 6.4115 19.5791 6.40271 20.0631C6.39233 20.6631 6.40031 21.2639 6.40031 21.9638C5.55616 21.5909 4.7679 21.2526 3.99323 20.8862C3.90777 20.8459 3.85826 20.6462 3.85746 20.5206C3.84708 19.3286 3.86465 18.1367 3.83989 16.9456C3.8351 16.7161 3.73447 16.4318 3.57714 16.2804C3.45335 16.162 3.10994 16.1169 2.97656 16.2071C2.78888 16.3343 2.6044 16.6122 2.59402 16.8337C2.55169 17.7292 2.57645 18.6272 2.57565 19.5243C2.57565 19.6693 2.57565 19.8143 2.57565 20.0518C1.22436 19.0258 0.0751186 17.9523 0.0335895 16.1797C-0.0103354 14.3081 0.0240059 12.434 0.0240059 10.5624C0.0679309 10.5592 0.103071 10.5463 0.112654 10.5568C1.81535 12.4574 4.01239 13.514 6.38115 14.263C9.15082 15.1384 12.0027 15.4622 14.8938 15.4662C20.299 15.4742 25.7041 15.4678 31.1101 15.4686C34.1122 15.4686 36.3619 17.3555 36.9306 20.345C36.9425 20.4086 36.9769 20.469 37.0008 20.5302V21.9766L37 21.9774Z" fill="#BB3413"/>
<path d="M37.0001 30.9768C36.9458 31.1958 36.8938 31.4149 36.8379 31.6331C36.4282 33.2277 35.5114 34.4374 34.1106 35.2781C34.0347 35.3241 33.9509 35.3563 33.8135 35.4231C33.8135 34.8022 33.8159 34.2336 33.8135 33.6642C33.8103 33.1407 33.5531 32.8162 33.1586 32.8299C32.7761 32.8428 32.5405 33.1528 32.5389 33.6578C32.5357 34.3931 32.5389 35.1284 32.5389 35.9514H29.9896C29.9896 35.8032 29.9896 35.5947 29.9896 35.3853C29.9896 34.3673 29.9928 33.3501 29.988 32.3322C29.9856 31.8602 29.7397 31.5566 29.3691 31.5437C28.9849 31.5308 28.7166 31.8465 28.715 32.337C28.711 33.5531 28.7134 34.77 28.7134 36.0118H26.1642C26.1642 35.4304 26.1674 34.8586 26.1634 34.2868C26.1602 33.7882 25.9126 33.475 25.5293 33.4717C25.1443 33.4693 24.8927 33.7818 24.8887 34.2795C24.8848 34.8521 24.8879 35.4247 24.8879 36.0167H22.3387C22.3387 35.8789 22.3387 35.738 22.3387 35.5971C22.3387 34.4857 22.3443 33.3743 22.3355 32.2629C22.3315 31.8321 22.0488 31.5349 21.6902 31.5429C21.3308 31.551 21.0793 31.8465 21.0641 32.2847C21.0601 32.4047 21.0633 32.5255 21.0633 32.6463C21.0633 33.7568 21.0633 34.8666 21.0633 36.0078H17.8368V28.3247C17.9486 28.3247 18.0987 28.3247 18.2481 28.3247C22.2716 28.3247 26.2959 28.266 30.3179 28.3449C33.0516 28.3988 35.3109 27.5693 37.0025 25.3506V30.9752L37.0001 30.9768Z" fill="#BB3413"/>
<path d="M11.4988 32.1814C11.4988 31.1643 11.498 30.1479 11.4988 29.1308C11.4996 28.538 11.7032 28.3262 12.2766 28.3254C13.4578 28.3238 14.6382 28.3238 15.8194 28.3254C16.3776 28.3262 16.5965 28.5405 16.5973 29.0905C16.5989 31.1506 16.5989 33.2115 16.5973 35.2716C16.5973 35.8216 16.3768 36.0367 15.8194 36.0375C14.6382 36.0391 13.4578 36.0391 12.2766 36.0375C11.704 36.0367 11.5004 35.8232 11.4996 35.2313C11.498 34.2142 11.4996 33.1978 11.4996 32.1806L11.4988 32.1814ZM13.4115 32.1718C13.4115 32.5865 13.4003 33.0013 13.4147 33.4152C13.4291 33.8228 13.7014 34.1054 14.0488 34.1046C14.3922 34.1046 14.6749 33.8179 14.6813 33.4144C14.6941 32.5986 14.6933 31.7828 14.6821 30.967C14.6765 30.5554 14.413 30.2712 14.0672 30.2575C13.7102 30.2438 13.4259 30.5418 13.4131 30.9678C13.4011 31.3688 13.4107 31.7699 13.4115 32.1718Z" fill="#BB3413"/>
<path d="M23.3865 14.1526C25.6658 13.3319 27.7111 12.3236 29.3171 10.4834V14.1526H23.3865Z" fill="#BB3413"/>
</g>
<defs>
<clipPath id="clip0_859_3988">
<rect width="37" height="36" fill="white" transform="translate(0 0.0400391)"/>
</clipPath>
</defs>
</svg>
