<svg width="196" height="175" viewBox="0 0 196 175" fill="none" xmlns="http://www.w3.org/2000/svg">
<g clip-path="url(#clip0_71_8491)">
<path d="M123.967 26.6828C123.933 30.5777 123.35 34.4318 123.127 38.3117C122.947 41.4448 122.759 44.5843 122.407 47.7024C122 51.2839 121.958 54.8891 121.516 58.4707C121.216 60.9042 121.207 63.3807 120.995 65.8356C120.661 69.6726 120.472 73.5224 120.098 77.3529C119.651 81.9324 119.445 86.529 118.948 91.1042C118.69 93.4733 118.654 95.8746 118.448 98.2588C118.108 102.167 117.887 106.085 117.555 109.993C117.019 116.326 114.272 121.422 109.108 125.135C105.575 127.675 101.614 128.86 97.3027 128.731C91.7199 128.566 87.0044 126.362 83.2329 122.216C80.9155 119.669 79.4231 116.688 78.6173 113.276C77.937 110.392 78.0242 107.469 77.7117 104.572C77.1653 99.5056 76.8357 94.4132 76.4446 89.3273C76.2128 86.3037 76.0598 83.2779 75.7813 80.2564C75.3114 75.1426 74.9308 70.0202 74.5397 64.9C74.3079 61.8785 74.14 58.8506 73.8636 55.8312C73.398 50.7174 73.0387 45.5929 72.622 40.4727C72.3797 37.4855 72.3074 34.4876 71.9396 31.509C71.6866 29.4489 71.6228 27.3781 71.6823 25.3051C71.8333 20.1527 73.4682 15.4938 76.3553 11.277C79.304 6.9701 83.2541 3.87993 88.0057 1.8563C90.6186 0.744698 93.3824 0.156708 96.2206 0.0300968C105.809 -0.396947 113.456 3.38422 119.158 11.0968C121.292 13.9831 122.672 17.2685 123.397 20.8565C123.791 22.8008 123.967 24.7192 123.967 26.6806V26.6828ZM98.1871 47.9277C95.164 48.1079 92.5596 49.3011 90.3741 51.4213C89.7512 52.0264 89.6491 52.7904 90.1083 53.5758C90.5314 54.299 91.2011 54.4042 91.9473 54.3054C92.4512 54.2389 92.7148 53.8205 93.0486 53.5222C95.1215 51.6809 97.4409 50.8741 100.169 51.7389C101.47 52.1509 102.499 53.0136 103.543 53.8548C104.372 54.5222 105.18 54.4213 105.875 53.6338C106.336 53.1123 106.296 51.9599 105.722 51.3848C103.64 49.314 101.155 48.1208 98.1893 47.9277H98.1871ZM91.7645 38.6937C91.7688 36.464 90.0297 34.7086 87.825 34.7194C85.7012 34.7301 83.8303 36.6271 83.8643 38.7344C83.8983 40.816 85.7649 42.6851 87.8208 42.698C89.9489 42.7109 91.7603 40.8718 91.7645 38.6937ZM111.572 38.6743C111.566 36.4426 109.806 34.6829 107.616 34.7194C105.524 34.7537 103.704 36.5735 103.679 38.6572C103.653 40.7516 105.571 42.698 107.654 42.6959C109.793 42.6959 111.581 40.8589 111.575 38.6743H111.572Z" fill="#8DCA0A"/>
<path d="M186.745 60.1403C184.522 60.4879 182.708 59.3269 180.818 58.4943C176.828 56.7368 172.814 55.0436 168.704 53.5865C165.858 52.5779 163.038 51.4899 160.168 50.5543C157.63 49.726 155.049 49.0328 152.474 48.3311C149.57 47.5392 146.664 46.7409 143.73 46.065C140.99 45.4341 138.222 44.9319 135.456 44.4233C133.034 43.977 130.604 43.5757 128.17 43.213C127.468 43.1079 127.292 42.8096 127.375 42.1529C127.779 38.8975 127.908 35.6163 128.321 32.3588C128.589 30.2407 128.608 28.0905 128.872 25.9639C128.982 25.0626 129.063 24.466 130.334 24.672C132.873 25.084 135.413 25.4961 137.95 25.9209C140.735 26.3888 143.496 26.9574 146.249 27.5562C149.234 28.2042 152.19 29.0004 155.151 29.7493C159.105 30.7472 162.985 31.9833 166.876 33.1743C171.426 34.5648 175.871 36.2945 180.295 38.0692C183.584 39.3889 186.837 40.7924 190.092 42.1894C194.724 44.1787 197.116 49.3783 195.492 53.8376C194.401 56.8312 192.437 58.7389 189.571 59.8548C188.648 60.2154 187.685 60.0887 186.745 60.1381V60.1403Z" fill="#8DCA0A"/>
<path d="M9.13331 60.1166C4.96636 60.2712 1.41382 57.3033 0.386958 53.5586C-0.905648 48.8375 1.06728 44.2989 5.82313 42.183C9.80088 40.4147 13.8126 38.728 17.8924 37.2258C21.9828 35.7215 26.0839 34.2322 30.2891 33.0584C32.7574 32.3695 35.1704 31.4596 37.6536 30.833C40.7533 30.0519 43.8445 29.2321 46.9654 28.5261C49.5719 27.936 52.1826 27.3544 54.8019 26.833C57.6996 26.2579 60.5995 25.6527 63.544 25.3372C64.4539 25.2407 65.3617 25.0712 66.2482 24.8415C66.8988 24.672 67.1454 24.9617 67.1475 25.5046C67.156 27.9381 67.6238 30.3266 67.8194 32.7408C68.0787 35.9704 68.3679 39.2001 68.6634 42.4276C68.7144 42.992 68.6953 43.2924 67.9767 43.4233C65.4467 43.8911 62.8977 44.2409 60.3677 44.698C57.7421 45.1744 55.1399 45.7881 52.5377 46.3869C49.5251 47.08 46.4956 47.7216 43.5256 48.5714C39.6754 49.6745 35.8252 50.7775 32.0239 52.0543C28.1546 53.3548 24.2981 54.6788 20.5138 56.211C17.7797 57.3183 15.0478 58.4299 12.3414 59.6038C11.2955 60.0566 10.2303 60.1124 9.13544 60.1102L9.13331 60.1166Z" fill="#8DCA0A"/>
<path d="M116.282 156.386C116.103 166.76 108.186 175.009 97.8045 174.998C87.4785 174.989 79.4082 166.82 79.3891 156.371C79.3699 146.221 87.419 137.789 97.8619 137.806C108.198 137.824 116.158 146.234 116.282 156.388V156.386Z" fill="#8DCA0A"/>
<path d="M166.091 80.4323C166.291 84.9817 161.206 89.4753 155.642 88.7844C153.708 88.544 151.99 87.5225 150.197 86.7972C147.565 85.7285 144.889 84.7864 142.214 83.8336C139.729 82.9474 137.197 82.2242 134.678 81.4688C132.388 80.7843 130.026 80.3486 127.694 79.8164C126.699 79.589 125.702 79.3572 124.694 79.2027C124.09 79.1104 123.931 78.8121 123.982 78.2606C124.082 77.1962 124.148 76.1275 124.25 75.0632C124.664 70.7004 125.094 66.3377 125.498 61.9729C125.64 60.4428 125.606 60.5179 127.154 60.7153C129.85 61.0565 132.482 61.7089 135.105 62.3548C139.812 63.5137 144.459 64.8892 149.049 66.4836C153.136 67.9021 157.22 69.3421 161.097 71.2391C164.389 72.8485 166.06 75.737 166.087 80.4366L166.091 80.4323Z" fill="#8DCA0A"/>
<path d="M120.706 113.521C121.127 109.373 121.554 105.225 121.962 101.074C122.066 100.01 122.06 98.9326 122.196 97.8746C122.351 96.6665 122.555 96.5484 123.797 96.9068C125.353 97.3575 126.914 97.8102 128.432 98.3703C130.271 99.0485 132.169 99.5721 133.859 100.654C137.086 102.72 138.632 107.237 137.482 110.965C136.553 113.978 134.648 115.982 131.823 117.109C129.907 117.871 127.889 117.963 125.916 117.283C124.49 116.791 123.1 116.203 121.641 115.8C120.897 115.594 120.434 115.167 120.748 114.276C120.827 114.055 120.761 113.78 120.761 113.529L120.706 113.523V113.521Z" fill="#8DCA0A"/>
<path d="M67.5068 117.774C62.6382 117.519 58.4713 113.926 58.2183 108.903C57.9844 104.231 61.0714 100.516 65.0278 99.308C67.443 98.5698 69.8496 97.7758 72.2584 97.0011C73.551 96.587 73.6636 96.6342 73.8103 97.9325C74.1059 100.585 74.3376 103.246 74.5885 105.905C74.8606 108.776 75.12 111.649 75.4006 114.519C75.4474 115.001 75.5239 115.405 74.9074 115.615C72.4242 116.461 69.9899 117.478 67.5046 117.774H67.5068Z" fill="#8DCA0A"/>
<path d="M72.0395 78.4473C71.7823 76.7155 71.7716 74.958 71.5505 73.2327C71.0722 69.4837 70.9871 65.7004 70.4216 61.96C70.2303 60.6939 70.1941 60.4922 68.9759 60.8248C66.8308 61.4106 64.6134 61.6231 62.4661 62.1853C59.4089 62.9836 56.3348 63.7068 53.2988 64.5931C50.0864 65.5308 46.8996 66.5394 43.7574 67.6875C41.2827 68.591 38.842 69.5867 36.361 70.4708C32.3896 71.8893 29.7045 75.6125 29.8746 79.8529C29.9915 82.7971 31.3351 85.2028 33.6716 86.9946C34.1436 87.3552 34.4752 87.3036 34.5348 86.5483C34.6177 85.5032 35.3745 85.044 36.2016 85.4324C37.3496 85.971 37.7535 87.235 37.0711 88.3766C37.8194 88.6513 38.5125 88.7328 39.2268 88.72C41.136 88.6813 42.8262 87.9431 44.5759 87.2543C50.0057 85.1191 55.5162 83.2092 61.1735 81.7521C64.5517 80.8808 67.9299 80.016 71.3677 79.4216C72.0012 79.3121 72.116 78.9623 72.0395 78.4495V78.4473Z" fill="#8DCA0A"/>
<path d="M35.7976 85.9087C35.4234 85.7928 35.0982 86.1491 35.1215 86.5268C35.1619 87.1813 35.6297 87.6083 36.1973 87.8057C36.5949 87.9431 36.8138 87.5997 36.884 87.1448C36.7522 86.5675 36.3844 86.0868 35.7976 85.9087Z" fill="#8DCA0A"/>
<path d="M98.1871 47.9276C101.153 48.1207 103.64 49.3139 105.719 51.3847C106.296 51.9577 106.334 53.1122 105.873 53.6337C105.177 54.4191 104.367 54.5221 103.54 53.8547C102.496 53.0135 101.467 52.1508 100.166 51.7388C97.4387 50.874 95.1193 51.6809 93.0464 53.5221C92.7126 53.8182 92.449 54.2388 91.9451 54.3054C91.1989 54.4041 90.5292 54.3011 90.1062 53.5758C89.6469 52.7903 89.749 52.0264 90.3719 51.4212C92.5574 49.301 95.1618 48.1079 98.1849 47.9276H98.1871Z" fill="#1F2937"/>
<path d="M91.7644 38.6936C91.7602 40.8717 89.9488 42.7108 87.8207 42.6979C85.7627 42.6851 83.8961 40.8159 83.8642 38.7344C83.8302 36.627 85.7032 34.73 87.825 34.7193C90.0296 34.7086 91.7687 36.4639 91.7644 38.6936Z" fill="#1F2937"/>
<path d="M111.572 38.6744C111.579 40.8611 109.791 42.6959 107.652 42.6959C105.569 42.6959 103.651 40.7495 103.676 38.6572C103.702 36.5735 105.522 34.7516 107.614 34.7194C109.804 34.685 111.564 36.4447 111.57 38.6744H111.572Z" fill="#1F2937"/>
</g>
<defs>
<clipPath id="clip0_71_8491">
<rect width="196" height="175" fill="white"/>
</clipPath>
</defs>
</svg>
