<svg width="43" height="38" viewBox="0 0 43 38" fill="none" xmlns="http://www.w3.org/2000/svg">
<g clip-path="url(#clip0_859_6297)">
<path d="M0 8.93737C0.310092 8.33373 0.912247 8.39463 1.44409 8.33731C5.13094 7.93965 8.81959 7.55544 12.5073 7.16674C13.6224 7.04941 14.7375 6.93209 15.8534 6.81566C16.406 6.75834 16.7621 7.0521 16.8234 7.61186C16.8676 8.01041 16.9063 8.40985 16.9622 8.8075C17.0514 9.44787 16.7981 9.81238 16.1482 9.8903C15.2134 10.0031 14.2741 10.0864 13.3376 10.185C11.1967 10.4098 9.05576 10.6399 6.91487 10.862C4.96688 11.0645 3.01799 11.2678 1.06819 11.4558C0.533646 11.5078 0.25871 11.2687 0.172173 10.7447C0.112679 10.3811 0.0576915 10.0166 0 9.65207C0 9.41383 0 9.1756 0 8.93737Z" fill="#F0611F"/>
<path d="M8.09683 0C8.57549 0.282118 9.06316 0.550803 9.5265 0.855311C9.65991 0.943081 9.72481 1.13474 9.86363 1.34253C8.38529 1.49836 6.98266 1.64614 5.52686 1.80018C5.745 0.98428 6.21194 0.471988 6.93218 0.176436C7.08002 0.115534 7.22875 0.0582149 7.37749 0C7.61727 0 7.85705 0 8.09683 0Z" fill="#F0611F"/>
<path d="M18.1359 36.2999C17.8862 35.9282 17.9331 35.441 18.2314 35.1069C18.8805 34.3797 18.8444 33.4384 18.6921 32.4613C18.6632 32.2768 18.6335 32.0932 18.6037 31.9087C18.5334 31.4779 18.7624 31.0534 19.1617 30.8742C20.4237 30.3073 20.6346 29.7234 20.5175 27.9912C20.4922 27.6205 20.4697 27.2461 20.3976 26.8834C20.1506 25.6403 19.0067 24.8736 17.7275 25.0501C17.5094 25.0805 17.2912 25.1065 17.0677 25.1307C16.3691 25.2077 15.8219 24.5422 16.0364 23.8768C16.1563 23.506 16.2834 23.146 16.4367 22.7976C18.4829 18.1717 22.0328 15.3586 27.033 14.5149C34.5293 13.2503 41.6911 18.4816 42.8278 25.9475C43.4201 29.8407 42.47 33.3416 40.1037 36.4861C39.3276 37.5179 38.345 38.0033 37.0289 37.9961C31.843 37.9657 26.6562 37.9594 21.4703 37.9997C20.0316 38.0114 18.9445 37.5215 18.1602 36.3375C18.1521 36.3249 18.1431 36.3124 18.135 36.299L18.1359 36.2999ZM29.7066 15.8879C29.5417 15.8879 29.3767 15.8834 29.2126 15.8879C28.7385 15.9023 28.4284 16.1942 28.4275 16.6214C28.4275 17.0325 28.7087 17.3209 29.1649 17.3576C29.5976 17.3926 30.0366 17.3827 30.4638 17.4481C34.2093 18.0159 36.9938 19.9504 38.7678 23.283C39.3736 24.4213 39.7314 25.6438 39.8639 26.929C39.9297 27.564 40.2497 27.865 40.7582 27.805C41.217 27.7512 41.4487 27.4127 41.3792 26.8019C41.3225 26.3021 41.2296 25.8033 41.116 25.3125C39.9 20.0409 35.0079 16.0079 29.7057 15.887L29.7066 15.8879Z" fill="#F0611F"/>
<path d="M42.0655 17.8829C42.1277 18.5215 41.329 18.8645 40.9035 18.3809C40.5267 17.9528 40.1598 17.5166 39.8209 17.0598C39.5505 16.6953 39.5829 16.1006 39.5036 15.6071C39.2296 13.8912 39.0186 12.1635 38.6878 10.4592C38.3462 8.70465 36.82 7.50632 35.0235 7.50005C31.2014 7.48662 27.3794 7.49199 23.5573 7.49557C21.2902 7.49736 19.8128 8.88467 19.5126 11.2043C19.2728 13.06 18.9708 14.9086 18.6896 16.7589C18.6725 16.8709 18.6256 16.9945 18.5526 17.0795C18.1911 17.5005 17.8287 17.9196 17.4645 18.3388C17.0409 18.8269 16.2368 18.4839 16.2999 17.8426C16.3071 17.7718 16.3143 17.7002 16.3215 17.6294C16.5198 15.6618 16.7254 13.695 16.9165 11.7273C16.9453 11.4273 17.0192 11.2348 17.3221 11.0673C18.1695 10.598 18.5598 9.84208 18.4768 8.87392C18.4246 8.26759 18.3281 7.66395 18.2785 7.05762C18.2668 6.91701 18.3209 6.72714 18.4164 6.62772C19.2656 5.73659 20.3076 5.19922 21.5498 5.19474C26.6312 5.17683 31.7116 5.17862 36.793 5.19205C39.0583 5.19832 41.0108 7.11315 41.21 9.39159C41.4345 11.9539 41.7256 14.51 41.9843 17.0688C42.0123 17.3411 42.0384 17.6133 42.0655 17.8847V17.8829Z" fill="#F0611F"/>
<path d="M11.6103 25.6882C10.7062 25.7831 9.81109 25.8772 8.90154 25.9721C8.37962 26.0267 7.91177 25.6506 7.85679 25.1329C7.43852 21.2074 7.02296 17.299 6.602 13.3466C6.54701 12.8281 6.92471 12.3633 7.44664 12.3086C8.34807 12.2137 9.24679 12.1197 10.1581 12.0238C10.6801 11.9692 11.1479 12.3454 11.2029 12.8639C11.6212 16.7966 12.0358 20.7068 12.455 24.6511C12.51 25.1696 12.1314 25.6345 11.6094 25.6891L11.6103 25.6882Z" fill="#F0611F"/>
<path d="M19.0697 28.6627C19.076 29.2394 18.8489 29.526 18.3206 29.586C16.6854 29.7714 15.0493 29.9434 13.4133 30.1162C11.5843 30.3097 9.75345 30.4978 7.92445 30.6903C6.37759 30.8533 4.83164 31.028 3.28298 31.1802C2.60691 31.2465 2.31305 30.9796 2.24634 30.3195C2.20578 29.9201 2.1562 29.5224 2.10482 29.1239C2.03631 28.5829 2.2869 28.2104 2.82866 28.1486C4.46296 27.9614 6.09995 27.7948 7.73695 27.6211C9.58127 27.4249 11.4256 27.2288 13.2699 27.0335C14.787 26.8732 16.3032 26.7031 17.8221 26.558C18.5866 26.4845 18.8335 26.6887 18.9399 27.4294C19.0012 27.8557 19.031 28.2865 19.0688 28.6618L19.0697 28.6627Z" fill="#F0611F"/>
<path d="M1.80712 4.56816C1.78819 3.9681 2.0451 3.67345 2.66799 3.60448C3.90114 3.46656 5.137 3.35192 6.37106 3.22206C8.51196 2.99636 10.6547 2.77694 12.7937 2.53423C13.6591 2.43571 13.9377 2.61304 14.0666 3.46746C14.1216 3.83466 14.1621 4.20455 14.1973 4.57354C14.2532 5.16017 14.0179 5.48617 13.4257 5.55603C11.8364 5.74142 10.2454 5.90352 8.65438 6.0728C6.79564 6.26983 4.93599 6.45612 3.07904 6.6648C2.38584 6.74271 2.05952 6.53314 1.96127 5.85427C1.89727 5.41362 1.854 4.9694 1.80622 4.56816H1.80712Z" fill="#F0611F"/>
<path d="M6.17044 35.4784C5.34654 35.5062 5.11307 35.3055 5.02833 34.649C4.97515 34.2362 4.91836 33.8242 4.87689 33.4104C4.821 32.8471 5.11307 32.5041 5.67376 32.444C8.95947 32.0939 12.2452 31.7473 15.5309 31.3899C16.9164 31.2394 17.0804 31.3666 17.1859 32.7557C17.2048 33.0074 17.258 33.2573 17.267 33.5089C17.2851 34.0167 17.021 34.3392 16.5198 34.3929C14.4681 34.6123 12.4155 34.8192 10.363 35.0333C8.90538 35.1855 7.44867 35.3423 6.17225 35.4784H6.17044Z" fill="#F0611F"/>
<path d="M9.26416 36.666C10.692 36.5155 12.0811 36.3695 13.4756 36.2227C13.4441 37.0144 12.6653 37.7748 11.7287 37.9584C10.7407 38.1518 9.70045 37.6252 9.26416 36.666Z" fill="#F0611F"/>
</g>
<defs>
<clipPath id="clip0_859_6297">
<rect width="43" height="38" fill="white"/>
</clipPath>
</defs>
</svg>
