<svg width="44" height="44" viewBox="0 0 44 44" fill="none" xmlns="http://www.w3.org/2000/svg">
<path d="M22.0501 0H21.9499C9.8273 0 0 9.82731 0 21.9499V22.0501C0 34.1727 9.8273 44 21.9499 44H22.0501C34.1727 44 44 34.1727 44 22.0501V21.9499C44 9.82731 34.1727 0 22.0501 0Z" fill="black"/>
<path d="M33.1556 17.4749V21.6294C32.4296 21.5584 31.4861 21.3935 30.4425 21.0112C29.0798 20.5117 28.0655 19.8288 27.4011 19.3001V27.6968L27.3841 27.6706C27.3949 27.8371 27.4011 28.0067 27.4011 28.1778C27.4011 32.3476 24.0082 35.7421 19.8368 35.7421C15.6654 35.7421 12.2725 32.3476 12.2725 28.1778C12.2725 24.0079 15.6654 20.6119 19.8368 20.6119C20.2453 20.6119 20.6461 20.6443 21.0376 20.7075V24.8018C20.6615 24.6677 20.2576 24.5953 19.8368 24.5953C17.8621 24.5953 16.2542 26.2015 16.2542 28.1778C16.2542 30.154 17.8621 31.7603 19.8368 31.7603C21.8115 31.7603 23.4193 30.1525 23.4193 28.1778C23.4193 28.1038 23.4178 28.0298 23.4131 27.9558V11.6387H27.5645C27.5799 11.9901 27.5938 12.3447 27.6092 12.6962C27.6369 13.3883 27.8836 14.0527 28.3137 14.5969C28.8177 15.2366 29.5623 15.9796 30.6075 16.5731C31.5863 17.1281 32.5051 17.3655 33.1556 17.478V17.4749Z" fill="#FF004F"/>
<path d="M31.7281 14.102V18.2565C31.002 18.1855 30.0586 18.0206 29.015 17.6383C27.6522 17.1388 26.6379 16.4559 25.9735 15.9272V24.3239L25.9566 24.2977C25.9673 24.4642 25.9735 24.6338 25.9735 24.8049C25.9735 28.9747 22.5806 32.3692 18.4092 32.3692C14.2378 32.3692 10.8449 28.9747 10.8449 24.8049C10.8449 20.635 14.2378 17.239 18.4092 17.239C18.8177 17.239 19.2185 17.2714 19.6101 17.3346V21.4289C19.2339 21.2948 18.8301 21.2224 18.4092 21.2224C16.4345 21.2224 14.8267 22.8286 14.8267 24.8049C14.8267 26.7811 16.4345 28.3874 18.4092 28.3874C20.3839 28.3874 21.9917 26.7796 21.9917 24.8049C21.9917 24.7309 21.9902 24.6569 21.9856 24.5829V8.2627H26.1369C26.1523 8.61417 26.1662 8.96872 26.1816 9.32019C26.2094 10.0123 26.456 10.6767 26.8861 11.2209C27.3902 11.8606 28.1348 12.6037 29.1799 13.1971C30.1588 13.7506 31.0775 13.9895 31.7281 14.102Z" fill="#00F7EF"/>
<path d="M32.636 15.918V20.0725C31.9099 20.0016 30.9665 19.8366 29.9229 19.4543C28.5601 18.9549 27.5458 18.272 26.8814 17.7432V26.1399L26.8645 26.1137C26.8753 26.2802 26.8814 26.4498 26.8814 26.6209C26.8814 30.7908 23.4885 34.1852 19.3171 34.1852C15.1457 34.1852 11.7528 30.7908 11.7528 26.6209C11.7528 22.4511 15.1457 19.0551 19.3171 19.0551C19.7256 19.0551 20.1264 19.0874 20.518 19.1506V23.2449C20.1418 23.1108 19.738 23.0384 19.3171 23.0384C17.3424 23.0384 15.7346 24.6447 15.7346 26.6209C15.7346 28.5972 17.3424 30.2034 19.3171 30.2034C21.2918 30.2034 22.8996 28.5956 22.8996 26.6209C22.8996 26.5469 22.8981 26.4729 22.8935 26.3989V10.0818H27.0448C27.0602 10.4333 27.0741 10.7878 27.0895 11.1393C27.1173 11.8314 27.3639 12.4958 27.794 13.04C28.2981 13.6797 29.0426 14.4227 30.0878 15.0162C31.0667 15.5696 31.9854 15.8086 32.636 15.9211V15.918Z" fill="white"/>
</svg>
