<svg width="36" height="37" viewBox="0 0 36 37" fill="none" xmlns="http://www.w3.org/2000/svg">
<g clip-path="url(#clip0_584_551)">
<path d="M14.3976 9.91676H34.1506C35.0978 9.91676 35.8721 10.5726 35.982 11.4574C36.0451 11.9013 35.941 12.3527 35.6898 12.724C35.4387 13.0953 35.0585 13.3597 34.6232 13.466C34.5155 13.496 34.4043 13.5118 34.2925 13.513C32.518 13.513 30.7439 13.513 28.9701 13.513C28.9168 13.5096 28.8638 13.5033 28.8112 13.494V12.3162H29.2049C30.8165 12.3162 32.4281 12.3162 34.0397 12.3162C34.6032 12.3162 34.9389 11.9113 34.7141 11.4954C34.6242 11.3344 34.4144 11.2305 34.2355 11.1305C34.1596 11.0875 34.0357 11.1175 33.9358 11.1175H14.4286V12.3122H27.5753V13.501H17.5669C17.7297 13.6739 17.8237 13.7779 17.9226 13.8769C21.7193 17.676 25.5187 21.4752 29.3208 25.2743C29.7864 25.7392 30.0861 26.2531 30.0082 26.935C29.9845 27.2551 29.8711 27.5621 29.6809 27.8207C29.4907 28.0792 29.2315 28.2789 28.9331 28.3967C28.6419 28.5318 28.3188 28.5829 28.0002 28.5442C27.6816 28.5056 27.3801 28.3786 27.1296 28.1777C26.9832 28.0611 26.8452 27.9342 26.717 27.7978C22.7404 23.8213 18.7672 19.8436 14.7973 15.8644C14.6983 15.7524 14.6065 15.6342 14.5225 15.5105L14.4056 15.5645V35.4471C14.4056 36.1679 14.2557 36.3159 13.5264 36.3159H0.853266C0.160862 36.3159 0.00699471 36.1589 0.00699471 35.4521C0.00699471 26.678 0.00466265 17.9043 0 9.13094C0 7.70425 0.0399666 6.29557 0.375677 4.89688C0.689407 3.59017 0.912215 2.26046 1.18498 0.943756C1.28989 0.436868 1.44875 0.316895 1.94832 0.316895H12.4393C12.9508 0.316895 13.1127 0.432868 13.2146 0.928758C13.6116 2.859 14.0016 4.79057 14.3846 6.72347C14.4031 6.85961 14.4082 6.99725 14.3996 7.13438C14.3976 8.04118 14.3976 8.95198 14.3976 9.91676ZM1.22894 7.53229V30.2872H13.1787V7.53229H1.22894ZM13.1846 31.542H1.23494V35.0972H13.1846V31.542ZM1.35483 6.29457H13.0578C12.758 4.8169 12.4503 3.36922 12.1865 1.91254C12.1236 1.56362 11.9867 1.50463 11.6789 1.51263C10.6049 1.52863 9.53079 1.51863 8.45672 1.51863H2.64972C2.48286 1.51863 2.30502 1.46864 2.25006 1.73258C1.96231 3.24624 1.65857 4.75891 1.35483 6.29457ZM14.4436 13.516L14.3526 13.6019C14.4372 13.7373 14.5321 13.866 14.6364 13.9869C17.9409 17.2941 21.2447 20.5997 24.5479 23.9037C25.607 24.9648 26.667 26.0248 27.7281 27.0839C28.0279 27.3839 28.3696 27.4049 28.6214 27.1639C28.8731 26.923 28.8671 26.5641 28.5584 26.2441C28.1588 25.8322 27.7471 25.4293 27.3405 25.0224C23.5864 21.2672 19.8309 17.5131 16.0742 13.7599C15.9592 13.6376 15.8078 13.5559 15.6425 13.527C15.2459 13.494 14.8452 13.516 14.4466 13.516H14.4436Z" fill="#DC2626"/>
<path d="M7.20361 9.91663H11.2122C11.8116 9.91663 12.0015 10.0966 12.0015 10.6865C12.0015 12.9719 12.0015 15.2581 12.0015 17.5449C12.0015 18.1338 11.8146 18.3158 11.2132 18.3158H3.19606C2.59657 18.3158 2.40674 18.1348 2.40674 17.5449C2.40674 15.2594 2.40674 12.9736 2.40674 10.6875C2.40674 10.0966 2.59158 9.91663 3.19506 9.91663H7.20361ZM10.7765 17.1V11.1454H3.62569V17.1H10.7765Z" fill="#DC2626"/>
<path d="M7.24083 2.11638H10.0494C10.6019 2.11638 10.7998 2.30933 10.8008 2.84921C10.8008 3.57305 10.8008 4.29722 10.8008 5.02173C10.8008 5.49662 10.5899 5.71358 10.1233 5.71458C8.17569 5.71458 6.22836 5.71458 4.28137 5.71458C3.81478 5.71458 3.60796 5.49763 3.60596 5.01973C3.60596 4.28256 3.60596 3.54606 3.60596 2.81022C3.60596 2.31933 3.81578 2.11837 4.32034 2.11738C5.2945 2.11438 6.26766 2.11638 7.24083 2.11638ZM4.82591 3.33411V4.49185H9.57382V3.33411H4.82591Z" fill="#DC2626"/>
<path d="M7.68453 11.9602C8.24105 12.5111 8.85152 13.099 9.44102 13.7058C9.6878 13.9598 9.67781 14.2877 9.42603 14.5466C8.84453 15.1465 8.24605 15.7284 7.65855 16.3152L6.84226 15.4334L7.50868 14.7336H4.83398V13.5339H7.43175L7.49669 13.4429L6.6724 12.858L7.68453 11.9602Z" fill="#DC2626"/>
</g>
<defs>
<clipPath id="clip0_584_551">
<rect width="36" height="36" fill="white" transform="translate(0 0.315796)"/>
</clipPath>
</defs>
</svg>
