<svg width="44" height="44" viewBox="0 0 44 44" fill="none" xmlns="http://www.w3.org/2000/svg">
<path d="M43.9969 22.0008C43.9969 33.1121 35.7608 42.2981 25.0614 43.7888C24.061 43.9276 23.0374 44 21.9985 44C20.7992 44 19.6215 43.9044 18.4746 43.7194C8.00028 42.033 0 32.9503 0 22.0008C0 9.8504 9.85005 0 22 0C34.1499 0 44 9.8504 44 22.0008H43.9969Z" fill="#1C1C1B"/>
<path d="M8.92173 9.70239L19.0677 23.2679L8.85852 34.2976H11.1569L20.0959 24.6414L27.3177 34.2976H35.1377L24.4213 19.969L33.9245 9.70239H31.6262L23.3947 18.5955L16.7432 9.70239H8.92325H8.92173ZM12.3006 11.395H15.8923L31.7557 32.605H28.164L12.3006 11.395Z" fill="white"/>
</svg>
