<svg width="32" height="32" viewBox="0 0 32 32" fill="none" xmlns="http://www.w3.org/2000/svg">
<g clip-path="url(#clip0_1332_3508)">
<path d="M12.5642 0.000137905C14.211 0.695205 15.3381 2.0628 15.7182 3.81424C16.7207 4.03215 17.5573 4.545 18.2949 5.24069L25.8096 2.65329C26.4076 2.50927 27.0902 3.06344 27.5573 3.4116C29.6813 4.99147 31.1565 7.48244 31.7195 10.0617C31.8328 10.5802 31.8873 11.1074 32 11.6247V25.7489C31.7339 29.0859 29.2874 31.62 25.9706 32.0008L0.509706 23.1477C0.204759 23.0012 0.00814026 22.6825 0 22.345V12.2778C0.032561 11.9083 0.139637 11.6823 0.469004 11.4969L10.114 8.1105C10.2805 6.08792 11.7564 4.30016 13.752 3.87373C13.5817 3.2513 13.2192 2.65705 12.7101 2.26004C12.1559 1.8286 11.3093 1.75158 11.3757 0.844237C11.4095 0.383364 11.6894 0.191751 12.0651 -0.000488281H12.5648L12.5642 0.000137905ZM3.87727 12.2502C3.9618 12.3911 4.19599 12.4437 4.34502 12.5007C8.56982 14.1206 12.9631 15.3386 17.186 16.971C17.4026 17.1551 17.5924 17.3568 17.6281 17.6542C17.8284 19.3236 17.4627 21.3681 17.6418 23.0776C17.8491 24.1202 19.3137 24.1077 19.4865 23.0776C19.6894 21.8697 19.3507 20.2103 19.5003 18.9667C19.5579 18.487 20.0739 18.0631 20.5654 18.1495L25.8134 19.9755C25.8817 20.0093 25.9305 19.9905 25.9969 19.9686C26.1209 19.9279 26.9155 19.2353 27.0645 19.0938C29.0902 17.1658 30.4177 14.3198 30.0551 11.4763C29.7163 8.81935 28.263 6.00339 25.9086 4.63079L19.2511 6.93828C21.0225 12.8382 12.7351 15.7231 10.4001 10.0567L3.87727 12.2496V12.2502ZM14.551 5.64333C10.6299 6.01027 11.603 12.1068 15.5034 11.1575C18.7902 10.3579 17.9925 5.32147 14.551 5.64333ZM15.7514 18.4363L1.87727 13.6247V16.5935L15.7514 21.437V18.4369V18.4363ZM27.0006 29.811C28 29.424 28.8566 28.8035 29.402 27.8686C29.8817 27.0458 30.0789 26.0414 30.1284 25.0952C30.243 22.9129 30.0369 20.6286 30.1246 18.4363C29.2254 19.6292 28.2173 20.7169 27.0006 21.5923V29.8104V29.811ZM25.1259 29.7484V26.7796C23.6005 26.134 21.9925 25.6813 20.4433 25.0895C18.9674 26.2436 16.8441 25.8591 16.0094 24.1471C15.8986 23.9205 15.8723 23.5385 15.6731 23.4214L1.87727 18.6242V21.5929L25.1252 29.749L25.1259 29.7484ZM25.1259 24.7489V21.7802L21.3763 20.4364V23.4364L25.1259 24.7489Z" fill="#375000"/>
<path d="M25.5467 7.32709C26.8798 7.11043 27.072 8.97145 25.9549 9.17246C24.6481 9.4079 24.4027 7.51306 25.5467 7.32709Z" fill="#375000"/>
<path d="M21.7971 11.0776C23.1302 10.8609 23.3225 12.7219 22.2054 12.9229C20.8985 13.1584 20.6531 11.2636 21.7971 11.0776Z" fill="#375000"/>
<path d="M26.7965 11.7026C28.1296 11.4859 28.3219 13.3469 27.2048 13.5479C25.8979 13.7834 25.6525 11.8886 26.7965 11.7026Z" fill="#375000"/>
<path d="M23.6719 15.4521C25.005 15.2354 25.1972 17.0965 24.0801 17.2975C22.7733 17.5329 22.5278 15.6381 23.6719 15.4521Z" fill="#375000"/>
</g>
<defs>
<clipPath id="clip0_1332_3508">
<rect width="32" height="32" fill="white"/>
</clipPath>
</defs>
</svg>
