<svg width="31" height="32" viewBox="0 0 31 32" fill="none" xmlns="http://www.w3.org/2000/svg">
<g clip-path="url(#clip0_1739_4701)">
<path d="M16.5682 31.9996C15.3346 31.1645 14.1232 30.2974 12.9915 29.318C11.0738 27.6586 9.34088 25.8308 8.08661 23.5714C7.2954 22.1471 6.80381 20.6313 6.68902 18.9818C6.49316 16.1793 8.669 13.783 11.4078 13.783C12.9098 13.783 14.1238 14.4484 15.2348 15.399C15.5584 15.6763 15.8541 15.9836 16.1349 16.3076C16.478 16.7031 16.7919 16.7037 17.1408 16.3076C18.0066 15.3235 18.9911 14.5098 20.222 14.0643C23.0166 13.0541 25.9207 14.7403 26.4998 17.7245C26.7333 18.9291 26.5251 20.1115 26.173 21.2653C25.4888 23.5086 24.1852 25.3578 22.643 27.046C20.9717 28.8751 19.0696 30.4163 17.0267 31.7792C16.9333 31.842 16.8016 31.864 16.7634 31.9996H16.5695H16.5682ZM16.2199 24.029C16.12 23.9856 16.1278 23.9108 16.1096 23.8493C15.7348 22.566 15.3567 21.284 14.987 19.9993C14.9014 19.702 14.7419 19.4969 14.4312 19.4869C14.1303 19.4775 13.976 19.68 13.8735 19.9525C13.6057 20.6653 13.3216 21.3721 13.0557 22.0856C12.9882 22.2673 12.8994 22.3408 12.7022 22.3341C12.2171 22.3181 11.732 22.3275 11.2463 22.3295C10.8319 22.3308 10.5802 22.5366 10.5692 22.8766C10.5582 23.2287 10.8202 23.4592 11.2482 23.4618C11.8844 23.4658 12.5207 23.4645 13.1569 23.4618C13.5868 23.4605 13.7263 23.3623 13.8891 22.9521C14.0356 22.584 14.1783 22.2146 14.3463 21.7863C14.3917 21.9086 14.4137 21.9587 14.4286 22.0101C14.7964 23.2721 15.1647 24.5347 15.5299 25.7974C15.6064 26.0626 15.738 26.2617 16.0305 26.2857C16.3327 26.3104 16.5124 26.1468 16.6259 25.8749C16.7783 25.5081 16.9365 25.144 17.0935 24.7792C17.4826 23.8794 17.873 22.9802 18.2816 22.0369C18.349 22.1912 18.3983 22.3007 18.4444 22.4116C18.7641 23.1746 19.0858 23.9368 19.401 24.7024C19.4944 24.9296 19.613 25.1119 19.8744 25.1447C20.1604 25.1801 20.3381 25.0284 20.4827 24.7966C20.722 24.4138 20.9782 24.043 21.2117 23.6569C21.3038 23.5046 21.4095 23.4551 21.5794 23.4585C22.108 23.4692 22.6365 23.4672 23.1644 23.4605C23.5587 23.4551 23.8246 23.2073 23.8123 22.8739C23.8006 22.5493 23.5458 22.3308 23.1625 22.3288C22.5049 22.3255 21.8466 22.3375 21.189 22.3235C20.8855 22.3174 20.6792 22.4397 20.5171 22.6942C20.3738 22.9187 20.2609 23.1712 20.0352 23.3676C19.6377 22.415 19.2499 21.4911 18.8679 20.5638C18.757 20.2946 18.6273 20.0621 18.3004 20.0587C17.9748 20.0554 17.8354 20.2765 17.7213 20.5484C17.4482 21.1998 17.1648 21.8458 16.8846 22.4938C16.6635 23.0055 16.441 23.5159 16.2192 24.027L16.2199 24.029Z" fill="#375000"/>
<path d="M0.0648193 0.532878C0.0907608 0.500143 0.119296 0.468744 0.141995 0.434005C0.296347 0.201521 0.503878 0.0679089 0.776263 0.157429C1.05319 0.248285 1.17446 0.46674 1.17317 0.772043C1.16863 2.21639 1.17122 3.66073 1.17187 5.10507C1.17187 5.62616 1.32038 6.08712 1.6894 6.45989C2.16478 6.93956 2.84574 7.0892 3.45017 6.82198C4.09482 6.53739 4.4593 6.02432 4.46773 5.30014C4.48524 3.84511 4.47421 2.38941 4.47421 0.933713C4.47421 0.789412 4.46902 0.645779 4.53063 0.508828C4.64089 0.26365 4.81599 0.113337 5.08643 0.142063C5.34844 0.170122 5.52419 0.323775 5.57283 0.598347C5.59618 0.727951 5.60007 0.862899 5.60072 0.995842C5.60266 2.37338 5.60526 3.75158 5.60072 5.12912C5.59877 5.83192 5.86532 6.38173 6.46132 6.73313C7.48861 7.33906 8.82783 6.6249 8.87128 5.40703C8.92187 3.98674 8.89009 2.56311 8.89463 1.14148C8.89463 1.00787 8.88879 0.874256 8.90047 0.74198C8.93289 0.371207 9.15858 0.134047 9.46664 0.136719C9.78442 0.139391 10.0192 0.399266 10.0198 0.784068C10.0231 3.23985 10.0393 5.69563 10.0134 8.15075C9.99714 9.69129 8.83302 10.8744 7.34398 10.9399C7.16109 10.9479 6.97756 10.9412 6.79402 10.9479C6.34589 10.9639 6.14808 11.1704 6.14679 11.6347C6.14419 13.0015 6.14354 14.3677 6.14808 15.7345C6.14873 15.9597 6.11306 16.1654 6.02875 16.3779C5.44896 17.8369 5.49047 19.3394 5.86597 20.8232C6.08128 21.6736 6.15651 22.5133 6.15132 23.3811C6.13641 25.7254 6.12668 28.0702 6.15781 30.4145C6.16754 31.1487 5.9652 31.6838 5.30693 31.9998H4.7894C4.1454 31.7526 3.9249 31.2723 3.92685 30.5735C3.94241 24.3959 3.93593 18.2184 3.93593 12.0402C3.93593 11.0227 3.87821 10.9579 2.90151 10.9466C1.67967 10.9325 0.809338 10.3533 0.289861 9.22031C0.189987 9.00319 0.138752 8.76269 0.0654679 8.53288C0.0654679 5.86599 0.0654679 3.19977 0.0654679 0.532878H0.0648193Z" fill="#375000"/>
<path d="M27.9584 31.9996C27.3183 31.7237 27.1036 31.2253 27.1121 30.5212C27.1386 28.3113 27.1315 26.1006 27.1179 23.8907C27.1108 22.7697 27.1704 21.6748 27.4525 20.5725C27.8267 19.1101 27.7917 17.6257 27.1763 16.206C27.125 16.0885 27.1218 15.9709 27.1218 15.8493C27.1218 10.7179 27.1237 5.58658 27.1172 0.455218C27.1172 0.193339 27.1562 0.119185 27.4357 0.181314C29.524 0.643611 30.9909 2.45472 30.9955 4.64328C31.0039 8.80795 30.9987 12.9733 30.9974 17.138C30.9974 17.8234 30.6109 18.2603 29.9513 18.3365C29.5272 18.3852 29.3631 18.5649 29.3463 19.0025C29.3424 19.1021 29.345 19.2023 29.345 19.3025C29.345 23.0229 29.3346 26.744 29.3534 30.4644C29.3573 31.1886 29.1374 31.711 28.4759 31.9989H27.9584V31.9996Z" fill="#375000"/>
</g>
<defs>
<clipPath id="clip0_1739_4701">
<rect width="31" height="32" fill="white"/>
</clipPath>
</defs>
</svg>
