<svg width="32" height="32" viewBox="0 0 32 32" fill="none" xmlns="http://www.w3.org/2000/svg">
<g clip-path="url(#clip0_1764_3620)">
<path d="M11.2592 32.0003H6.38631C6.08336 31.8063 5.80732 31.6141 5.76038 31.2209L5.79105 19.5014C5.87868 19.1652 6.28428 18.9285 6.61039 18.8841C7.98368 18.6969 9.78635 18.9899 11.1997 18.9066C11.5709 18.9849 11.9408 19.3912 11.9489 19.7818C11.9026 23.6554 12.0266 27.5502 11.8863 31.4106C11.7712 31.7243 11.5327 31.8513 11.2585 32.001L11.2592 32.0003Z" fill="#375000"/>
<path d="M32 7.38123V7.94345C31.5024 8.75735 30.7682 9.40095 30.2036 10.1691C30.2117 10.9868 30.4727 11.9885 30.377 12.7874C30.3094 13.3509 29.7166 13.6821 29.1846 13.5393L26.8567 12.5833C26.1238 12.7924 25.3163 13.3233 24.5996 13.5074C23.7158 13.7353 23.2138 13.1486 23.3171 12.2865L23.4905 10.1115C22.9284 9.19435 20.7289 7.83639 22.2393 6.83467L24.8137 6.16038C25.526 5.32081 26.095 2.85345 27.5634 3.97538L28.9392 6.16101C29.8919 6.62368 31.4241 6.38139 31.9994 7.3806L32 7.38123Z" fill="#375000"/>
<path d="M4.93295 3.70889C6.13161 3.48788 6.57414 5.48319 7.23575 6.18752C7.87858 6.46675 9.63431 6.55816 10.0624 7.0465C10.3491 7.37331 10.3817 7.76962 10.1883 8.15215L8.52391 10.1111L8.69291 12.7801C8.17276 14.5018 6.2111 12.8076 5.15766 12.5823L2.82983 13.5383C2.29779 13.6817 1.70504 13.3498 1.63744 12.7864C1.5423 11.9919 1.79517 10.9801 1.81082 10.1681C1.77952 10.001 0.479468 8.64424 0.2654 8.34686C-0.0231534 7.94617 -0.123928 7.51856 0.201555 7.09909C0.662239 6.50557 2.43988 6.53875 3.10774 6.1318C3.5991 5.5652 3.94837 4.54031 4.4222 4.01003C4.54363 3.87417 4.75269 3.74144 4.93233 3.70826L4.93295 3.70889Z" fill="#375000"/>
<path d="M15.7402 0.0227809C15.995 -0.0298095 16.3054 0.0108855 16.5289 0.142361C17.0396 0.442878 17.6205 2.02998 18.1068 2.50016C18.7972 2.80193 20.2181 2.82948 20.7858 3.25772C21.9945 4.16928 19.8432 5.64682 19.3931 6.42566C19.375 7.29403 19.5214 8.1624 19.564 9.03014C19.0414 10.842 17.1279 9.1516 16.0275 8.89553L13.6496 9.86595C13.0907 10.0187 12.4704 9.53788 12.4428 8.97254C12.4153 8.40719 12.6087 7.58077 12.6325 6.97473C12.6394 6.79254 12.6456 6.6066 12.6206 6.42566C12.1893 5.7952 11.4908 5.21984 11.0714 4.60065C10.8674 4.29951 10.8141 4.00337 10.9249 3.64275C11.1734 2.83574 13.2634 2.84138 13.9419 2.47387C14.4295 1.87158 14.7575 0.973164 15.2301 0.387783C15.3515 0.237525 15.5462 0.0634758 15.7396 0.023407L15.7402 0.0227809Z" fill="#375000"/>
<path d="M19.7556 19.5031H24.7223C26.2459 19.5031 27.1685 21.1435 27.0571 22.5258C26.878 24.7415 26.1107 27.2302 25.8014 29.4559C25.3451 30.6911 24.2191 31.5595 22.9028 31.6803C20.6012 31.8913 17.8891 31.6127 15.5681 31.5971C14.8965 31.4537 14.3138 31.1306 13.8312 30.6473V20.1073C14.1022 19.8763 14.4377 19.7893 14.7256 19.5645C16.2003 18.4138 16.3224 15.3191 17.1505 13.6794C17.7883 12.4172 19.3775 13.1322 20.0673 13.9749C21.5063 15.7335 20.2063 17.6424 19.7562 19.5038L19.7556 19.5031Z" fill="#375000"/>
</g>
<defs>
<clipPath id="clip0_1764_3620">
<rect width="32" height="32" fill="white"/>
</clipPath>
</defs>
</svg>
