<svg width="36" height="32" viewBox="0 0 36 32" fill="none" xmlns="http://www.w3.org/2000/svg">
<g clip-path="url(#clip0_1739_4689)">
<path d="M0 7.52605C0.259612 7.01772 0.763742 7.069 1.20901 7.02074C4.29567 6.68587 7.38384 6.36232 10.4713 6.035C11.4048 5.93619 12.3384 5.83739 13.2727 5.73935C13.7353 5.69108 14.0334 5.93846 14.0847 6.40983C14.1217 6.74545 14.1541 7.08183 14.2009 7.41669C14.2756 7.95595 14.0636 8.26291 13.5194 8.32852C12.7368 8.42355 11.9504 8.49369 11.1663 8.57665C9.37395 8.76596 7.58157 8.95979 5.78919 9.14683C4.15832 9.31728 2.52669 9.48848 0.894302 9.64686C0.446774 9.69061 0.216595 9.48924 0.144145 9.04803C0.0943357 8.74182 0.0482999 8.43486 0 8.1279C0 7.92729 0 7.72667 0 7.52605Z" fill="#375000"/>
<path d="M6.77856 0C7.1793 0.237573 7.58758 0.463834 7.97549 0.720262C8.08719 0.794174 8.14152 0.955573 8.25774 1.13055C7.02006 1.26178 5.84577 1.38622 4.62695 1.51594C4.80959 0.828867 5.20051 0.397464 5.80351 0.148578C5.92728 0.097292 6.0518 0.0490231 6.17632 0C6.37707 0 6.57781 0 6.77856 0Z" fill="#375000"/>
<path d="M15.1835 30.5686C14.9745 30.2556 15.0137 29.8453 15.2635 29.564C15.8069 28.9516 15.7767 28.1589 15.6492 27.3361C15.625 27.1807 15.6001 27.0261 15.5752 26.8708C15.5163 26.508 15.708 26.1505 16.0424 25.9997C17.0989 25.5223 17.2755 25.0305 17.1774 23.5719C17.1563 23.2596 17.1374 22.9444 17.077 22.6389C16.8702 21.5921 15.9125 20.9465 14.8416 21.0951C14.659 21.1207 14.4764 21.1426 14.2892 21.163C13.7043 21.2278 13.2462 20.6675 13.4259 20.1071C13.5262 19.7948 13.6326 19.4917 13.7609 19.1983C15.4741 15.3028 18.446 12.9339 22.6323 12.2234C28.9082 11.1585 34.9042 15.5638 35.8559 21.8508C36.3517 25.1293 35.5563 28.0775 33.5752 30.7255C32.9254 31.5943 32.1028 32.0031 31.001 31.9971C26.6593 31.9714 22.3168 31.9661 17.9751 32.0001C16.7706 32.0099 15.8605 31.5973 15.2039 30.6003C15.1971 30.5897 15.1896 30.5792 15.1828 30.5679L15.1835 30.5686ZM24.8707 13.3796C24.7326 13.3796 24.5944 13.3758 24.4571 13.3796C24.0601 13.3917 23.8005 13.6375 23.7998 13.9973C23.7998 14.3435 24.0352 14.5863 24.4171 14.6173C24.7793 14.6467 25.1469 14.6384 25.5046 14.6934C28.6403 15.1716 30.9715 16.8007 32.4568 19.607C32.9639 20.5656 33.2635 21.5951 33.3745 22.6774C33.4296 23.2121 33.6975 23.4655 34.1231 23.415C34.5072 23.3698 34.7012 23.0847 34.6431 22.5703C34.5955 22.1495 34.5178 21.7294 34.4227 21.3161C33.4046 16.8768 29.309 13.4807 24.8699 13.3789L24.8707 13.3796Z" fill="#375000"/>
<path d="M35.2174 15.0591C35.2695 15.5968 34.6008 15.8857 34.2446 15.4784C33.9292 15.1179 33.622 14.7506 33.3383 14.366C33.1118 14.059 33.139 13.5582 33.0726 13.1427C32.8432 11.6976 32.6666 10.2428 32.3896 8.80751C32.1036 7.33003 30.8259 6.32091 29.3218 6.31563C26.1219 6.30431 22.9221 6.30884 19.7222 6.31186C17.8242 6.31336 16.5873 7.48162 16.3359 9.435C16.1352 10.9977 15.8824 12.5544 15.6469 14.1126C15.6326 14.2068 15.5933 14.3109 15.5322 14.3826C15.2296 14.737 14.9262 15.09 14.6213 15.443C14.2666 15.854 13.5934 15.5652 13.6462 15.0251C13.6523 14.9656 13.6583 14.9052 13.6644 14.8456C13.8304 13.1887 14.0025 11.5324 14.1625 9.87546C14.1866 9.6228 14.2485 9.46065 14.5021 9.31961C15.2115 8.92441 15.5382 8.28786 15.4688 7.47257C15.425 6.96198 15.3443 6.45365 15.3028 5.94305C15.293 5.82464 15.3383 5.66475 15.4182 5.58104C16.1292 4.83061 17.0016 4.37808 18.0415 4.37431C22.2957 4.35923 26.5491 4.36074 30.8033 4.37205C32.6998 4.37733 34.3344 5.98981 34.5012 7.9085C34.6891 10.0663 34.9329 12.2188 35.1495 14.3735C35.1729 14.6028 35.1948 14.8321 35.2174 15.0606V15.0591Z" fill="#375000"/>
<path d="M9.72031 21.6319C8.96336 21.7118 8.21396 21.791 7.45248 21.871C7.01552 21.917 6.62384 21.6002 6.5778 21.1643C6.22763 17.8586 5.87972 14.5673 5.52728 11.239C5.48124 10.8023 5.79746 10.4109 6.23442 10.3649C6.9891 10.2849 7.74153 10.2057 8.50451 10.125C8.94148 10.079 9.33316 10.3958 9.37919 10.8325C9.72937 14.1442 10.0765 17.437 10.4275 20.7585C10.4735 21.1952 10.1565 21.5866 9.71956 21.6326L9.72031 21.6319Z" fill="#375000"/>
<path d="M15.9654 24.1367C15.9707 24.6224 15.7805 24.8638 15.3382 24.9143C13.9692 25.0704 12.5995 25.2152 11.2297 25.3608C9.69847 25.5237 8.1657 25.6821 6.63444 25.8442C5.3394 25.9815 4.04512 26.1286 2.74857 26.2568C2.18255 26.3126 1.93653 26.0878 1.88068 25.532C1.84672 25.1956 1.80521 24.8608 1.76219 24.5251C1.70484 24.0696 1.91464 23.7558 2.36821 23.7038C3.73645 23.5462 5.10696 23.4059 6.47747 23.2596C8.02155 23.0944 9.56564 22.9292 11.1097 22.7648C12.3799 22.6298 13.6492 22.4865 14.9209 22.3643C15.5609 22.3025 15.7676 22.4745 15.8567 23.0982C15.908 23.4572 15.9329 23.82 15.9646 24.136L15.9654 24.1367Z" fill="#375000"/>
<path d="M1.51314 3.84716C1.49729 3.34184 1.71238 3.09371 2.23387 3.03564C3.26628 2.91949 4.30095 2.82295 5.33411 2.71359C7.12649 2.52353 8.92038 2.33876 10.7112 2.13437C11.4357 2.05141 11.6689 2.20074 11.7769 2.92024C11.8229 3.22947 11.8569 3.54095 11.8863 3.85168C11.9331 4.34569 11.7361 4.62021 11.2403 4.67904C9.90977 4.83516 8.57775 4.97167 7.24573 5.11422C5.68957 5.28014 4.13265 5.43701 2.578 5.61274C1.99765 5.67836 1.72445 5.50188 1.64219 4.93019C1.58861 4.55912 1.55239 4.18504 1.51239 3.84716H1.51314Z" fill="#375000"/>
<path d="M5.16579 29.8768C4.47601 29.9002 4.28055 29.7313 4.20961 29.1785C4.16508 28.8308 4.11754 28.4838 4.08282 28.1354C4.03603 27.661 4.28055 27.3721 4.74996 27.3216C7.50079 27.0267 10.2516 26.7348 13.0024 26.4339C14.1624 26.3072 14.2998 26.4143 14.388 27.5841C14.4039 27.796 14.4484 28.0064 14.456 28.2184C14.4711 28.646 14.2499 28.9175 13.8303 28.9628C12.1127 29.1475 10.3943 29.3218 8.67583 29.502C7.45551 29.6302 6.23594 29.7622 5.1673 29.8768H5.16579Z" fill="#375000"/>
<path d="M7.75586 30.8772C8.95128 30.7505 10.1143 30.6276 11.2818 30.5039C11.2553 31.1706 10.6033 31.8109 9.81917 31.9655C8.99203 32.1285 8.12113 31.685 7.75586 30.8772Z" fill="#375000"/>
</g>
<defs>
<clipPath id="clip0_1739_4689">
<rect width="36" height="32" fill="white"/>
</clipPath>
</defs>
</svg>
