<svg width="43" height="39" viewBox="0 0 43 39" fill="none" xmlns="http://www.w3.org/2000/svg">
<g clip-path="url(#clip0_859_3946)">
<path d="M0 8.967C0.310092 8.36133 0.912247 8.42243 1.44409 8.36492C5.13094 7.96593 8.81959 7.58041 12.5073 7.19041C13.6224 7.07269 14.7375 6.95497 15.8534 6.83814C16.406 6.78063 16.7621 7.07538 16.8234 7.63703C16.8676 8.03692 16.9063 8.43771 16.9622 8.8367C17.0514 9.47922 16.7981 9.84497 16.1482 9.92315C15.2134 10.0364 14.2741 10.1199 13.3376 10.2188C11.1967 10.4444 9.05576 10.6753 6.91487 10.8982C4.96688 11.1013 3.01799 11.3052 1.06819 11.494C0.533646 11.5461 0.25871 11.3061 0.172173 10.7804C0.112679 10.4156 0.0576915 10.0499 0 9.68411C0 9.44508 0 9.20604 0 8.967Z" fill="#BB3413"/>
<path d="M8.09665 0C8.57531 0.283069 9.06298 0.552659 9.52632 0.858194C9.65973 0.94626 9.72463 1.13857 9.86345 1.34705C8.38511 1.50341 6.98248 1.65169 5.52667 1.80625C5.74482 0.987597 6.21176 0.473579 6.932 0.177031C7.07984 0.115924 7.22857 0.0584111 7.37731 0C7.61709 0 7.85687 0 8.09665 0Z" fill="#BB3413"/>
<path d="M18.1359 36.4227C17.8862 36.0498 17.9331 35.5609 18.2314 35.2258C18.8805 34.4961 18.8444 33.5516 18.6921 32.5712C18.6632 32.3861 18.6335 32.2019 18.6037 32.0167C18.5334 31.5845 18.7624 31.1586 19.1617 30.9788C20.4237 30.41 20.6346 29.8241 20.5175 28.0861C20.4922 27.7141 20.4697 27.3385 20.3976 26.9745C20.1506 25.7272 19.0067 24.958 17.7275 25.135C17.5094 25.1656 17.2912 25.1916 17.0677 25.2159C16.3691 25.2932 15.8219 24.6255 16.0364 23.9578C16.1563 23.5858 16.2834 23.2245 16.4367 22.875C18.4829 18.2335 22.0328 15.4109 27.033 14.5644C34.5293 13.2955 41.6911 18.5445 42.8278 26.0354C43.4201 29.9418 42.47 33.4546 40.1037 36.6097C39.3276 37.6449 38.345 38.1319 37.0289 38.1247C31.843 38.0942 26.6562 38.0879 21.4703 38.1283C20.0316 38.14 18.9445 37.6485 18.1602 36.4605C18.1521 36.4479 18.1431 36.4353 18.135 36.4218L18.1359 36.4227ZM29.7066 15.942C29.5417 15.942 29.3767 15.9375 29.2126 15.942C28.7385 15.9564 28.4284 16.2493 28.4275 16.678C28.4275 17.0905 28.7087 17.3798 29.1649 17.4167C29.5976 17.4517 30.0366 17.4418 30.4638 17.5074C34.2093 18.0772 36.9938 20.0182 38.7678 23.362C39.3736 24.5042 39.7314 25.7308 39.8639 27.0203C39.9297 27.6575 40.2497 27.9594 40.7582 27.8992C41.217 27.8453 41.4487 27.5056 41.3792 26.8927C41.3225 26.3913 41.2296 25.8908 41.116 25.3983C39.9 20.109 35.0079 16.0624 29.7057 15.9411L29.7066 15.942Z" fill="#BB3413"/>
<path d="M42.0652 17.9433C42.1274 18.584 41.3287 18.9282 40.9033 18.4429C40.5265 18.0134 40.1596 17.5757 39.8207 17.1174C39.5502 16.7517 39.5827 16.155 39.5034 15.6599C39.2293 13.9381 39.0184 12.2046 38.6876 10.4945C38.3459 8.7341 36.8198 7.53173 35.0232 7.52544C31.2012 7.51196 27.3791 7.51735 23.5571 7.52095C21.29 7.52275 19.8125 8.91473 19.5123 11.2422C19.2726 13.1042 18.9706 14.9589 18.6893 16.8155C18.6722 16.9278 18.6253 17.0518 18.5523 17.1372C18.1908 17.5596 17.8285 17.9801 17.4643 18.4007C17.0406 18.8904 16.2365 18.5463 16.2996 17.9028C16.3069 17.8319 16.3141 17.76 16.3213 17.689C16.5196 15.7147 16.7251 13.7413 16.9162 11.767C16.9451 11.4659 17.019 11.2727 17.3219 11.1047C18.1692 10.6338 18.5595 9.87537 18.4766 8.90394C18.4243 8.29557 18.3279 7.68989 18.2783 7.08152C18.2666 6.94043 18.3207 6.74992 18.4162 6.65017C19.2654 5.75604 20.3074 5.21686 21.5496 5.21236C26.6309 5.19439 31.7114 5.19619 36.7928 5.20967C39.058 5.21596 41.0105 7.13723 41.2098 9.42335C41.4342 11.9943 41.7254 14.559 41.9841 17.1264C42.012 17.3996 42.0382 17.6728 42.0652 17.9451V17.9433Z" fill="#BB3413"/>
<path d="M11.6104 25.7743C10.7063 25.8696 9.81115 25.9639 8.90161 26.0592C8.37968 26.114 7.91184 25.7366 7.85685 25.2172C7.43859 21.2785 7.02303 17.3568 6.60206 13.3912C6.54707 12.8709 6.92477 12.4045 7.4467 12.3496C8.34813 12.2544 9.24685 12.16 10.1582 12.0639C10.6801 12.0091 11.148 12.3865 11.203 12.9068C11.6212 16.8527 12.0359 20.7761 12.455 24.7337C12.51 25.254 12.1314 25.7204 11.6095 25.7752L11.6104 25.7743Z" fill="#BB3413"/>
<path d="M19.0697 28.7587C19.076 29.3374 18.8489 29.6249 18.3206 29.6852C16.6854 29.8712 15.0493 30.0437 13.4133 30.2171C11.5843 30.4113 9.75345 30.6 7.92445 30.7932C6.37759 30.9567 4.83164 31.132 3.28298 31.2847C2.60691 31.3512 2.31305 31.0834 2.24634 30.4211C2.20578 30.0203 2.1562 29.6214 2.10482 29.2215C2.03631 28.6787 2.2869 28.3049 2.82866 28.2429C4.46296 28.055 6.09995 27.8879 7.73695 27.7136C9.58127 27.5168 11.4256 27.32 13.2699 27.1241C14.787 26.9632 16.3032 26.7925 17.8221 26.6469C18.5866 26.5732 18.8335 26.7781 18.9399 27.5212C19.0012 27.949 19.031 28.3812 19.0688 28.7578L19.0697 28.7587Z" fill="#BB3413"/>
<path d="M1.80737 4.58389C1.78844 3.98181 2.04534 3.68616 2.66823 3.61696C3.90139 3.47857 5.13725 3.36355 6.37131 3.23325C8.5122 3.00679 10.6549 2.78663 12.794 2.5431C13.6594 2.44425 13.9379 2.62218 14.0668 3.47947C14.1218 3.84791 14.1624 4.21905 14.1975 4.58928C14.2534 5.17789 14.0181 5.50499 13.4259 5.57508C11.8367 5.7611 10.2457 5.92375 8.65463 6.09359C6.79588 6.29129 4.93623 6.47821 3.07928 6.68759C2.38609 6.76577 2.05977 6.55549 1.96151 5.87433C1.89751 5.4322 1.85424 4.98648 1.80647 4.58389H1.80737Z" fill="#BB3413"/>
<path d="M6.17026 35.5988C5.34635 35.6266 5.11288 35.4253 5.02815 34.7666C4.97496 34.3524 4.91817 33.939 4.87671 33.5238C4.82082 32.9586 5.11288 32.6144 5.67357 32.5542C8.95928 32.2028 12.245 31.8551 15.5307 31.4965C16.9162 31.3455 17.0803 31.4732 17.1857 32.8669C17.2047 33.1194 17.2578 33.3702 17.2669 33.6227C17.2849 34.1322 17.0208 34.4557 16.5196 34.5096C14.4679 34.7298 12.4154 34.9374 10.3628 35.1522C8.9052 35.3049 7.44849 35.4622 6.17206 35.5988H6.17026Z" fill="#BB3413"/>
<path d="M9.26404 36.7895C10.6919 36.6386 12.081 36.4921 13.4755 36.3447C13.444 37.1391 12.6651 37.9021 11.7285 38.0863C10.7406 38.2804 9.70033 37.752 9.26404 36.7895Z" fill="#BB3413"/>
</g>
<defs>
<clipPath id="clip0_859_3946">
<rect width="43" height="38.1281" fill="white"/>
</clipPath>
</defs>
</svg>
