<svg width="32" height="32" viewBox="0 0 32 32" fill="none" xmlns="http://www.w3.org/2000/svg">
<path d="M31.5475 18.7517C31.3405 16.8773 29.297 14.587 27.2075 14.587H25.7405V13.8164C25.7405 13.5924 25.4789 13.3702 25.3662 13.2853C25.2725 13.2146 24.9527 12.993 24.6869 13.0429H1.09909C0.59557 13.0465 0.169842 13.4255 0.0644826 13.9655L0.0620323 13.9887C-0.0182127 16.3919 -0.100908 18.8771 0.370149 21.1258C0.888985 23.605 2.01119 25.5566 3.90154 27.2677C4.30644 27.6343 4.75729 27.9539 5.19404 28.2628C5.34105 28.3668 5.49052 28.4731 5.63815 28.5807H0.919001C0.802002 28.5807 0.469383 28.7963 0.46632 28.7987C0.168005 29.0263 0.0222161 29.3625 0.0675454 29.7208C0.114712 30.0962 0.368924 30.4284 0.730945 30.587L0.759736 30.5995H0.791589C4.39894 30.6511 8.04488 30.6672 11.6731 30.6672C14.7389 30.6672 17.7931 30.6559 20.7996 30.6446C22.1735 30.6393 23.5463 30.6345 24.919 30.6304H24.9374L24.9552 30.6262C25.3466 30.5329 25.6437 30.2335 25.7306 29.8438C25.8201 29.4433 25.6725 29.0399 25.346 28.791C25.3435 28.7886 25.044 28.5813 24.9454 28.5813H20.2182C22.0792 27.3212 23.5046 25.7955 24.4596 24.0387C24.8492 24.0143 25.2504 24.0155 25.6388 24.0161C26.5741 24.0185 27.5408 24.0209 28.4529 23.6787C30.1074 23.059 31.3797 21.4603 31.5469 19.7902C31.5751 19.511 31.5751 19.006 31.5469 18.7517H31.5475ZM25.7392 19.7552C25.7686 19.3108 25.7472 18.823 25.7264 18.3513C25.7019 17.7982 25.6767 17.226 25.7362 16.7365C25.7398 16.7038 25.7447 16.68 25.7484 16.6634H26.6568C27.7619 16.6634 28.7181 17.2926 29.1524 18.3049C29.5775 19.2965 29.3656 20.3772 28.5986 21.1264C28.3077 21.4109 27.4795 21.8809 27.085 21.8809H25.3423C25.3846 21.6628 25.4348 21.4436 25.4838 21.2303C25.5928 20.7527 25.7061 20.2584 25.7398 19.7558L25.7392 19.7552ZM2.27214 15.1211H23.599C23.5947 15.5958 23.6014 16.0711 23.6075 16.5321C23.6363 18.6881 23.6633 20.7247 22.7083 22.7174C21.7092 24.8033 20.0553 26.433 17.9267 27.4305C15.9806 28.3424 13.6743 28.6918 11.4311 28.4155C9.23325 28.1446 7.23508 27.3158 5.65346 26.0189C3.94136 24.6156 2.81732 22.718 2.40262 20.5317C2.19802 19.4528 2.2311 18.2758 2.26356 17.1375C2.28255 16.4703 2.30154 15.7823 2.27275 15.1217L2.27214 15.1211Z" fill="#375000"/>
<path d="M6.33035 10.3456C6.56619 10.5191 6.83326 10.6082 7.0936 10.6082C7.27737 10.6082 7.45685 10.5643 7.61979 10.4746C7.99528 10.2678 8.18701 9.87035 8.13372 9.4105C8.10187 9.13543 7.86236 8.85857 7.60876 8.56568C7.41642 8.34289 7.21734 8.11297 7.1328 7.90384C6.76956 7.00792 7.31412 6.50471 7.94505 5.92248C8.25991 5.63196 8.58518 5.33134 8.8106 4.96418C9.31228 4.14728 9.42132 3.17293 9.11749 2.22176C8.83388 1.33297 8.20478 0.532112 7.3913 0.024741L7.35332 0.000976562H6.78242L6.74995 0.0170176C6.42959 0.175051 6.09145 0.393684 6.0106 0.817879C5.9034 1.3811 6.17537 1.6627 6.43816 1.9354C6.54168 2.04294 6.64949 2.15463 6.74199 2.2889C7.53158 3.43315 6.95884 3.96132 6.23418 4.63029C5.88196 4.95527 5.51749 5.29153 5.26879 5.73118C4.86756 6.44114 4.76282 7.32339 4.97415 8.21634C5.17997 9.08612 5.6743 9.86262 6.33158 10.3468L6.33035 10.3456Z" fill="#375000"/>
<path d="M12.3041 10.4421C12.4921 10.5544 12.7016 10.6108 12.9105 10.6108C13.1194 10.6108 13.3111 10.5585 13.4888 10.454C13.8422 10.2454 14.0345 9.88066 14.0033 9.47785C13.98 9.17842 13.7344 8.88314 13.4734 8.57005C13.278 8.33537 13.0765 8.09298 12.984 7.86187C12.6238 6.96298 13.0863 6.56789 13.6713 6.06706C13.8875 5.88229 14.1111 5.69099 14.3047 5.46166C14.7071 4.98518 15.1494 4.13204 15.1672 3.38584C15.1978 2.14949 14.3396 0.639857 13.2541 0.0207939L13.218 0H12.5852L12.5497 0.0196057C12.1724 0.230515 11.7534 0.562623 11.8679 1.26486C11.909 1.51795 12.1178 1.74253 12.3194 1.95938C12.4088 2.05562 12.4933 2.14652 12.5509 2.22851C13.395 3.42921 12.8413 3.93895 12.0744 4.64476C11.6946 4.99469 11.2639 5.39096 11.0103 5.91615C10.4805 7.01288 10.6091 8.25517 11.3718 9.41428C11.5273 9.65073 12.0413 10.2841 12.3041 10.4421Z" fill="#375000"/>
<path d="M18.783 10.6302C18.8027 10.6314 18.8223 10.632 18.8419 10.632C19.1396 10.632 19.4036 10.4876 19.6278 10.2019C20.1509 9.53586 19.6976 9.0071 19.2976 8.54072C19.1236 8.33754 18.9435 8.12782 18.8523 7.9175C18.4541 7.00138 18.9154 6.60392 19.4991 6.10012C19.6841 5.9403 19.8752 5.77573 20.0486 5.58502C20.761 4.80139 21.0783 3.87161 20.9656 2.89608C20.8394 1.79994 20.1723 0.754903 19.1359 0.0288998L19.0955 0.000976562H18.4498L18.4112 0.0253351C18.1166 0.213668 17.7497 0.447748 17.6847 0.884419C17.618 1.33297 17.9102 1.67815 18.2195 2.04353C18.5601 2.44634 18.9129 2.86281 18.8186 3.46286C18.7445 3.93518 18.3683 4.25243 17.9708 4.5887C17.7827 4.74733 17.5886 4.9113 17.4305 5.0931C16.3506 6.33182 16.2415 7.76303 17.1144 9.23168C17.248 9.45625 17.9555 10.5785 18.783 10.6302Z" fill="#375000"/>
</svg>
