<svg width="36" height="30" viewBox="0 0 36 30" fill="none" xmlns="http://www.w3.org/2000/svg">
<circle cx="15" cy="9" r="6" fill="#375000" stroke="#375000" stroke-width="1.5"/>
<path d="M3 24.2492C3 23.122 3.5263 22.0566 4.51943 21.5236C6.42943 20.4985 10.0654 19 15 19C19.9346 19 23.5706 20.4985 25.4806 21.5236C26.4737 22.0566 27 23.122 27 24.2492C27 25.526 26.3243 26.7064 25.1373 27.1768C23.1519 27.9636 19.6534 29 15 29C10.3466 29 6.84809 27.9636 4.86274 27.1768C3.67569 26.7064 3 25.526 3 24.2492Z" stroke="#375000" stroke-width="1.5"/>
<path d="M36 13C36 13.2653 35.8983 13.5217 35.7081 13.7074C35.5223 13.8976 35.2658 14.0037 35.0004 14.0037H31.0018V18.0007C31.0018 18.266 30.8957 18.5225 30.7055 18.7082C30.5197 18.8939 30.2676 19 30.0022 19C29.7368 19 29.4803 18.8939 29.2945 18.7082C29.1043 18.5225 28.9982 18.266 28.9982 18.0007V14.0037H24.9996C24.7342 14.0037 24.4777 13.8976 24.2919 13.7074C24.1062 13.5217 24 13.2653 24 13C24 12.7347 24.1062 12.4827 24.2919 12.2926C24.4777 12.1069 24.7342 12.0007 24.9996 12.0007H28.9982V8.00368C28.9982 7.73839 29.1043 7.48195 29.2945 7.29624C29.4803 7.10612 29.7368 7 30.0022 7C30.2676 7 30.5197 7.10612 30.7055 7.29624C30.8957 7.48195 31.0018 7.73839 31.0018 8.00368V12.0007H35.0004C35.2658 12.0007 35.5223 12.1069 35.7081 12.2926C35.8983 12.4827 36 12.7347 36 13Z" fill="#375000"/>
</svg>
