<svg width="37" height="37" viewBox="0 0 37 37" fill="none" xmlns="http://www.w3.org/2000/svg">
<g clip-path="url(#clip0_777_2736)">
<path d="M16.4389 0.0399208C17.1201 0.120456 17.8029 0.188911 18.4826 0.284748C21.3393 0.686618 24.0946 1.40741 26.5448 3.0165C27.0959 3.37891 27.6174 3.81219 28.0774 4.28654C29.7833 6.04542 29.7737 8.17397 28.0806 9.94655C26.8571 11.2279 25.3325 12.0276 23.708 12.6461C21.4359 13.5118 19.076 13.9564 16.6553 14.1167C13.2347 14.343 9.87647 14.0297 6.60206 12.9755C4.88659 12.423 3.24619 11.699 1.87973 10.4877C1.3686 10.0351 0.899004 9.49716 0.539618 8.9165C-0.195926 7.727 -0.167175 6.4787 0.544409 5.27229C1.33985 3.92252 2.57374 3.06965 3.91785 2.36497C6.10611 1.21734 8.45969 0.616552 10.8891 0.285553C11.5688 0.192938 12.2516 0.121261 12.9328 0.0399208C14.1021 0.0399208 15.2705 0.0399208 16.4397 0.0399208H16.4389ZM14.6683 10.3291C15.9054 10.2904 17.1025 10.1632 18.2542 9.76051C19.1646 9.4424 20.0295 9.03408 20.6389 8.23759C21.2003 7.50311 21.2427 6.67682 20.6261 6.00032C20.1885 5.52034 19.6438 5.07095 19.0584 4.81002C16.4205 3.63662 13.7107 3.62615 10.9898 4.51687C10.0969 4.80921 9.2759 5.24813 8.69848 6.03334C8.18496 6.73158 8.1578 7.51277 8.70727 8.17799C9.0387 8.57986 9.46038 8.93986 9.90841 9.20401C11.3811 10.0738 13.0255 10.2719 14.6691 10.3299L14.6683 10.3291Z" fill="#375000"/>
<path d="M37 21.9769C36.8363 22.5237 36.7085 23.0858 36.4969 23.6134C36.326 24.0394 36.0537 24.4251 35.826 24.8302C35.3684 24.5419 34.9587 24.2995 34.5706 24.0257C34.4899 23.9693 34.4572 23.7986 34.4564 23.6794C34.4468 22.7822 34.4516 21.8851 34.4516 20.9879C34.4516 20.8945 34.4548 20.8003 34.4508 20.7068C34.4324 20.2728 34.1745 19.9748 33.8159 19.9732C33.4565 19.9716 33.1842 20.2679 33.1786 20.702C33.169 21.4518 33.1754 22.2016 33.1754 22.9514C33.1754 23.0971 33.1754 23.2437 33.1754 23.3911C32.3296 23.3017 31.5086 23.2139 30.6245 23.1205C30.6245 22.5398 30.6341 21.9165 30.6213 21.2931C30.6142 20.9275 30.4153 20.6754 30.0527 20.6287C29.746 20.5893 29.5096 20.7463 29.409 21.0507C29.3643 21.186 29.3547 21.3382 29.3531 21.4832C29.3467 22.0308 29.3507 22.5785 29.3507 23.1543H26.8015C26.8015 22.7009 26.8015 22.2507 26.8015 21.7997C26.8015 21.0902 26.8015 20.3799 26.8015 19.6704C26.8015 19.022 26.5922 18.6967 26.1729 18.6886C25.7489 18.6806 25.526 19.0116 25.5252 19.651C25.5252 20.6819 25.5252 21.7135 25.5252 22.7444V23.1599H22.976C22.976 22.8152 22.976 22.4601 22.976 22.1049C22.976 21.8239 22.9896 21.5412 22.9696 21.2617C22.9441 20.8864 22.6589 20.6126 22.3315 20.6166C22.0001 20.6207 21.7174 20.8937 21.7062 21.2738C21.6886 21.8891 21.7014 22.5044 21.7014 23.1511H19.1497C19.1497 22.9755 19.1497 22.7935 19.1497 22.6115C19.1497 21.567 19.1529 20.5224 19.1481 19.4779C19.1457 19.0051 18.9006 18.7015 18.5292 18.6886C18.1451 18.6749 17.8767 18.9914 17.8751 19.4819C17.8711 20.6988 17.8735 21.9149 17.8735 23.1575H15.3243C15.3243 22.5753 15.3275 22.0035 15.3235 21.4309C15.3203 20.9323 15.0711 20.6191 14.6886 20.6174C14.3036 20.6158 14.0528 20.9283 14.0496 21.4268C14.0457 21.9986 14.0489 22.5712 14.0489 23.2058C13.1895 23.1471 12.3733 23.0915 11.4996 23.0327C11.4996 22.8668 11.4996 22.7259 11.4996 22.5849C11.4996 21.5267 11.5052 20.4693 11.4964 19.411C11.4924 18.9794 11.2113 18.6822 10.8527 18.6894C10.4933 18.6959 10.2418 18.9922 10.225 19.4296C10.2218 19.5101 10.225 19.5906 10.225 19.6704C10.225 20.5812 10.225 21.4913 10.225 22.4021V22.8636C9.35367 22.6775 8.52069 22.4996 7.67574 22.3192C7.67574 21.5468 7.67414 20.8244 7.67574 20.102C7.67653 19.7251 7.53198 19.4481 7.15423 19.349C6.76369 19.2475 6.4115 19.5785 6.40271 20.0626C6.39233 20.6625 6.40031 21.2633 6.40031 21.9632C5.55616 21.5903 4.7679 21.2521 3.99323 20.8856C3.90777 20.8454 3.85826 20.6456 3.85746 20.52C3.84708 19.3281 3.86465 18.1362 3.83989 16.945C3.8351 16.7155 3.73447 16.4312 3.57714 16.2798C3.45335 16.1614 3.10994 16.1163 2.97656 16.2065C2.78888 16.3338 2.6044 16.6116 2.59402 16.8331C2.55169 17.7287 2.57645 18.6266 2.57565 19.5238C2.57565 19.6687 2.57565 19.8137 2.57565 20.0513C1.22436 19.0253 0.0751186 17.9517 0.0335895 16.1792C-0.0103354 14.3075 0.0240059 12.4335 0.0240059 10.5618C0.0679309 10.5586 0.103071 10.5457 0.112654 10.5562C1.81535 12.4568 4.01239 13.5134 6.38115 14.2624C9.15082 15.1378 12.0027 15.4616 14.8938 15.4656C20.299 15.4737 25.7041 15.4672 31.1101 15.468C34.1122 15.468 36.3619 17.355 36.9306 20.3444C36.9425 20.4081 36.9769 20.4685 37.0008 20.5297V21.9761L37 21.9769Z" fill="#375000"/>
<path d="M37.0001 30.9767C36.9458 31.1957 36.8938 31.4148 36.8379 31.633C36.4282 33.2276 35.5114 34.4373 34.1106 35.2781C34.0347 35.324 33.9509 35.3562 33.8135 35.423C33.8135 34.8021 33.8159 34.2335 33.8135 33.6641C33.8103 33.1407 33.5531 32.8161 33.1586 32.8298C32.7761 32.8427 32.5405 33.1527 32.5389 33.6577C32.5357 34.393 32.5389 35.1283 32.5389 35.9513H29.9896C29.9896 35.8031 29.9896 35.5946 29.9896 35.3852C29.9896 34.3672 29.9928 33.35 29.988 32.3321C29.9856 31.8601 29.7397 31.5565 29.3691 31.5436C28.9849 31.5308 28.7166 31.8465 28.715 32.3369C28.711 33.553 28.7134 34.7699 28.7134 36.0117H26.1642C26.1642 35.4303 26.1674 34.8585 26.1634 34.2867C26.1602 33.7882 25.9126 33.4749 25.5293 33.4717C25.1443 33.4692 24.8927 33.7817 24.8887 34.2794C24.8848 34.852 24.8879 35.4246 24.8879 36.0166H22.3387C22.3387 35.8788 22.3387 35.7379 22.3387 35.597C22.3387 34.4856 22.3443 33.3742 22.3355 32.2628C22.3315 31.832 22.0488 31.5348 21.6902 31.5428C21.3308 31.5509 21.0793 31.8465 21.0641 32.2846C21.0601 32.4046 21.0633 32.5254 21.0633 32.6462C21.0633 33.7567 21.0633 34.8665 21.0633 36.0077H17.8368V28.3247C17.9486 28.3247 18.0987 28.3247 18.2481 28.3247C22.2716 28.3247 26.2959 28.2659 30.3179 28.3448C33.0516 28.3987 35.3109 27.5692 37.0025 25.3505V30.9751L37.0001 30.9767Z" fill="#375000"/>
<path d="M11.4988 32.1815C11.4988 31.1643 11.498 30.148 11.4988 29.1308C11.4996 28.5381 11.7032 28.3263 12.2766 28.3255C13.4578 28.3239 14.6382 28.3239 15.8194 28.3255C16.3776 28.3263 16.5965 28.5405 16.5973 29.0905C16.5989 31.1506 16.5989 33.2115 16.5973 35.2716C16.5973 35.8217 16.3768 36.0367 15.8194 36.0375C14.6382 36.0391 13.4578 36.0391 12.2766 36.0375C11.704 36.0367 11.5004 35.8233 11.4996 35.2313C11.498 34.2142 11.4996 33.1978 11.4996 32.1807L11.4988 32.1815ZM13.4115 32.1718C13.4115 32.5866 13.4003 33.0013 13.4147 33.4153C13.4291 33.8228 13.7014 34.1055 14.0488 34.1047C14.3922 34.1047 14.6749 33.818 14.6813 33.4145C14.6941 32.5987 14.6933 31.7828 14.6821 30.967C14.6765 30.5555 14.413 30.2712 14.0672 30.2575C13.7102 30.2438 13.4259 30.5418 13.4131 30.9678C13.4011 31.3689 13.4107 31.7699 13.4115 32.1718Z" fill="#375000"/>
<path d="M23.3865 14.1521C25.6658 13.3314 27.7111 12.3231 29.3171 10.4829V14.1521H23.3865Z" fill="#375000"/>
</g>
<defs>
<clipPath id="clip0_777_2736">
<rect width="37" height="36" fill="white" transform="translate(0 0.0399208)"/>
</clipPath>
</defs>
</svg>
