<svg width="47" height="34" viewBox="0 0 47 34" fill="none" xmlns="http://www.w3.org/2000/svg">
<g clip-path="url(#clip0_71_9172)">
<path d="M23.5009 25.9908C30.2764 25.9908 37.0519 25.9908 43.8274 25.9908C44.1567 25.9908 44.4868 25.9921 44.8161 26.005C46.0914 26.0554 47.0128 26.9884 46.9996 28.2111C46.9871 29.408 46.0069 30.3546 44.7449 30.3591C43.0518 30.3649 41.3588 30.3462 39.6664 30.3468C36.411 30.3487 33.1556 30.3604 29.9002 30.361C22.3769 30.3623 14.8535 30.3591 7.3302 30.3578C5.63782 30.3578 3.94543 30.3675 2.25371 30.3591C1.07419 30.3533 0.109184 29.4998 0.00951577 28.3999C-0.0960933 27.2348 0.687394 26.2229 1.86031 26.0212C2.02137 25.9934 2.18836 25.9914 2.35338 25.9921C5.42198 25.994 8.48993 25.9998 11.5585 26.0011C15.5393 26.003 19.5208 26.0011 23.5016 26.0011V25.9895L23.5009 25.9908Z" fill="#8DCA0A"/>
<path d="M23.4887 34C16.075 34 8.66122 34 1.24812 34C0.500939 34 0.00127644 33.561 0.00391666 32.9118C0.00655689 32.2568 0.50424 31.8139 1.24086 31.8139C16.0789 31.8139 30.9177 31.8139 45.7557 31.8139C46.4963 31.8139 46.994 32.2516 46.9993 32.9047C47.0046 33.5571 46.5056 34 45.763 34C38.3387 34 30.9137 34 23.4894 34H23.4887Z" fill="#8DCA0A"/>
<path d="M18.2434 21.2209C18.349 21.5894 18.3952 21.9173 18.5332 22.2024C18.9794 23.1244 19.7424 23.601 20.7892 23.6023C24.7925 23.6061 28.7957 23.6049 32.799 23.6029C34.2082 23.6023 35.3098 22.5522 35.3045 21.2228C35.2993 19.8915 34.2042 18.8395 32.797 18.8363C29.9046 18.8298 27.0123 18.8337 24.1192 18.8331C23.9001 18.8331 23.6816 18.8331 23.3819 18.8331C23.8948 18.3507 24.4433 18.0934 25.0624 17.9776C25.3093 17.9317 25.5647 17.9156 25.8162 17.9149C28.1806 17.9104 30.5455 17.9071 32.9099 17.9136C34.3692 17.9181 35.6616 18.8382 36.1045 20.1883C36.8115 22.3447 35.2121 24.5534 32.7508 24.5411C27.7687 24.5172 22.7866 24.5353 17.8045 24.5327C16.4969 24.5321 15.19 24.512 13.8824 24.5133C11.8164 24.5152 9.75045 24.5262 7.68447 24.5346C6.92012 24.5379 6.33267 24.2333 6.02245 23.5383C5.73136 22.8865 5.85215 22.2722 6.34192 21.7433C6.71485 21.3412 7.20065 21.2183 7.7419 21.219C11.1405 21.2235 14.5385 21.2209 17.9371 21.2209C18.046 21.2209 18.1543 21.2209 18.2434 21.2209Z" fill="#8DCA0A"/>
<path d="M18.8227 6.82922C17.9685 6.63072 17.2405 6.88095 16.6352 7.4674C15.7032 8.37003 15.6616 9.83584 16.587 10.7598C18.5269 12.6976 20.4913 14.6128 22.4701 16.5125C22.7176 16.7498 22.814 16.9418 22.7322 17.2522C22.6945 17.397 22.6695 17.5528 22.6813 17.7002C22.7196 18.1871 22.3229 18.4341 22.0833 18.7652C22.0424 18.8214 21.9078 18.8266 21.8154 18.8298C21.387 18.8428 20.9573 18.8272 20.5302 18.8576C19.7157 18.9152 19.0999 19.3148 18.6735 19.9859C18.5613 20.1631 18.4458 20.2323 18.2312 20.231C16.8458 20.2219 15.4597 20.2277 14.0742 20.2277C13.9884 20.2277 13.9026 20.2148 13.7891 20.2058C13.8683 19.5495 13.9435 18.91 14.0234 18.2712C14.3237 15.8562 14.624 13.4412 14.9263 11.0262C15.028 10.2141 15.1125 9.39939 15.2432 8.59245C15.4385 7.38076 16.5395 6.54408 17.7923 6.64365C18.1388 6.67081 18.4794 6.7665 18.8233 6.83051L18.8227 6.82922Z" fill="#8DCA0A"/>
<path d="M30.567 16.1362C30.5611 16.7886 29.9419 17.2968 29.2924 17.1442C27.8621 16.8093 26.437 16.4517 25.0113 16.1006C24.5981 15.9991 24.1836 15.8989 23.7777 15.7734C23.6272 15.7269 23.4754 15.6344 23.3631 15.5245C21.4391 13.6488 19.5183 11.7691 17.6028 9.88434C17.2187 9.50609 17.1837 8.94292 17.488 8.52458C17.7929 8.10624 18.356 7.95882 18.8365 8.19676C18.9988 8.27693 19.1427 8.40561 19.2734 8.53298C21.0087 10.2283 22.7367 11.9308 24.4773 13.621C24.6311 13.7703 24.8509 13.8886 25.0608 13.9417C26.5908 14.3277 28.1268 14.6923 29.6601 15.0667C30.2508 15.2109 30.5723 15.595 30.5677 16.1355L30.567 16.1362Z" fill="#8DCA0A"/>
<path d="M26.8286 20.1683C28.8398 20.1683 30.8516 20.1663 32.8628 20.1702C33.3427 20.1715 33.715 20.4372 33.8727 20.8614C34.0311 21.2882 33.9295 21.7563 33.5506 22.0201C33.3486 22.1604 33.0734 22.2729 32.8305 22.2742C28.8299 22.291 24.8286 22.2904 20.8273 22.2871C20.1402 22.2871 19.6683 21.8384 19.6689 21.2235C19.6696 20.5905 20.1422 20.1689 20.8597 20.1683C22.8491 20.167 24.8385 20.1683 26.8279 20.1683H26.8286Z" fill="#8DCA0A"/>
<path d="M37.672 19.2714C37.6879 17.6763 39.0007 16.4142 40.633 16.4239C42.2469 16.4336 43.561 17.7481 43.5419 19.3322C43.5228 20.9364 42.1941 22.1927 40.5373 22.1746C38.9341 22.1565 37.6562 20.862 37.672 19.2714Z" fill="#8DCA0A"/>
<path d="M21.5267 5.75138C19.9095 5.75396 18.6006 4.49312 18.5841 2.91675C18.5676 1.32163 19.8765 0.0038883 21.4818 8.78923e-06C23.1478 -0.00387072 24.4606 1.27701 24.46 2.90576C24.4593 4.46985 23.1418 5.74815 21.5273 5.75073L21.5267 5.75138Z" fill="#8DCA0A"/>
<path d="M18.8232 6.82988C19.0615 6.83311 19.3011 6.8176 19.5368 6.84281C20.2463 6.91911 20.9579 6.99217 21.6628 7.1008C22.9697 7.30253 23.8522 8.50001 23.6628 9.77701C23.6146 10.1029 23.5783 10.4301 23.5215 10.871C22.9235 10.2671 22.3935 9.72723 21.8582 9.19315C21.3268 8.66295 20.7902 8.13792 20.2542 7.6116C19.8536 7.21783 19.4239 6.87256 18.8232 6.82794V6.82924V6.82988Z" fill="#8DCA0A"/>
</g>
<defs>
<clipPath id="clip0_71_9172">
<rect width="47" height="34" fill="white"/>
</clipPath>
</defs>
</svg>
