<svg width="39" height="38" viewBox="0 0 39 38" fill="none" xmlns="http://www.w3.org/2000/svg">
<path d="M4.38867 0.230469H26.5928C26.8683 0.282605 27.1489 0.323486 27.4229 0.388672C29.2053 0.813126 30.465 2.33002 30.4961 4.12695C30.5188 5.44697 30.5072 8.01847 30.5039 9.33887C30.5034 9.55883 30.4514 9.72801 30.3486 9.8418C30.2452 9.95605 30.0931 10.0118 29.9023 10.0098C29.7145 10.0077 29.5677 9.94938 29.4678 9.83301C29.3682 9.71706 29.3182 9.54617 29.3174 9.32324C29.3133 8.12199 29.2982 5.67048 29.3193 4.46875L29.3184 4.28613C29.2564 2.42861 27.7371 1.43083 26.2217 1.43848C19.0662 1.4758 11.9094 1.47439 4.75391 1.43945C3.09583 1.4318 1.69863 2.68355 1.70508 4.42871C1.73999 13.3145 1.73999 24.7001 1.70508 33.585C1.69782 35.3223 3.0839 36.5905 4.79004 36.5811C11.9326 36.5421 19.0751 36.5437 26.2168 36.5811C27.7859 36.589 29.3547 35.525 29.3193 33.5547C29.3015 32.5516 29.3133 30.2977 29.3174 29.2939C29.3182 29.0537 29.3661 28.8734 29.4648 28.7529C29.5642 28.6316 29.713 28.5741 29.9082 28.5732C30.1042 28.5725 30.2544 28.629 30.3555 28.749C30.456 28.8686 30.505 29.0479 30.5059 29.2861C30.5099 30.3037 30.4669 32.5715 30.5156 33.585C30.616 35.6661 28.981 37.7798 26.2461 37.7695C22.8305 37.7576 19.4148 37.7666 15.999 37.7666C12.2723 37.7666 8.54605 37.7652 4.81934 37.7676C3.47504 37.7684 2.32385 37.3391 1.44336 36.3145C0.97259 35.7663 0.670759 35.1368 0.560547 34.4238C0.555201 34.389 0.542784 34.3548 0.52832 34.3193C0.51421 34.2848 0.496859 34.2472 0.483398 34.2109L0.481445 34.2031H0.482422C0.479986 24.9077 0.480469 13.1116 0.480469 3.81543V3.80664H0.482422C0.495073 3.77691 0.511344 3.74645 0.524414 3.71875C0.538108 3.68972 0.54948 3.66119 0.554688 3.63281C0.718911 2.77417 1.05968 2.07426 1.5752 1.53223C2.09071 0.99027 2.77959 0.60675 3.6377 0.378906C3.88289 0.314373 4.13787 0.278637 4.38574 0.230469L4.38867 0.229492V0.230469Z" fill="#8DCA0A" stroke="#8DCA0A" stroke-width="0.04"/>
<path d="M25.8877 30.2334C26.0157 30.2334 26.1552 30.2194 26.2842 30.2471C26.5829 30.3114 26.8099 30.5423 26.7637 30.8535C26.7467 30.9664 26.6866 31.0782 26.6094 31.1797C26.5318 31.2816 26.4359 31.375 26.3477 31.4512C26.291 31.5 26.2097 31.5147 26.127 31.5186C26.0852 31.5205 26.0421 31.5199 26 31.5186C25.9576 31.5172 25.9163 31.5156 25.8779 31.5156C21.0506 31.5182 16.2238 31.5176 11.3965 31.5176C11.3449 31.5176 11.2915 31.5184 11.2393 31.5176C11.0049 31.5098 10.8137 31.4442 10.6816 31.3311C10.5492 31.2176 10.478 31.0571 10.4805 30.8633C10.483 30.6686 10.5551 30.5105 10.6885 30.4014C10.8214 30.2926 11.013 30.2344 11.25 30.2344C13.7008 30.2327 16.1517 30.2344 18.6025 30.2344L18.6016 30.2334H25.8877Z" fill="#8DCA0A" stroke="#8DCA0A" stroke-width="0.04"/>
<path d="M25.8047 7.73047C26.1462 7.73047 26.3904 7.77717 26.5479 7.88379C26.7072 7.99189 26.7746 8.15952 26.7695 8.39062C26.7643 8.6127 26.6939 8.77251 26.5371 8.875C26.3824 8.97615 26.147 9.01949 25.8174 9.01953H18.6123V9.01855H11.4893C11.3355 9.01857 11.1776 9.02621 11.0234 9.00586C10.8454 8.9816 10.7076 8.90686 10.6152 8.79395C10.5231 8.68118 10.4779 8.53133 10.4805 8.3584C10.4831 8.196 10.5301 8.05425 10.6201 7.94727C10.7102 7.84038 10.842 7.77046 11.0098 7.74609V7.74512C11.0797 7.73491 11.1514 7.73148 11.2227 7.73047H25.8047Z" fill="#8DCA0A" stroke="#8DCA0A" stroke-width="0.04"/>
<path d="M11.4609 27.7314H24.5693C24.6533 27.7314 24.7383 27.7298 24.8232 27.7324C25.0451 27.7409 25.2171 27.7967 25.335 27.9014C25.4533 28.0065 25.5144 28.1588 25.5195 28.3535C25.5247 28.5595 25.4678 28.7261 25.3486 28.8408C25.2297 28.9552 25.0513 29.0152 24.8203 29.0156C22.5586 29.0209 20.2968 29.0186 18.0352 29.0186H11.46C11.3071 29.0186 11.1468 29.0276 10.9941 29.001C10.8289 28.9718 10.6998 28.8973 10.6123 28.7881C10.525 28.679 10.4805 28.5366 10.4805 28.373C10.4805 28.2097 10.5249 28.0676 10.6123 27.959C10.7 27.8502 10.8297 27.7764 10.9951 27.748C11.1485 27.7223 11.3089 27.7314 11.4609 27.7314Z" fill="#8DCA0A" stroke="#8DCA0A" stroke-width="0.04"/>
<path d="M8.5791 20.2393C8.79983 20.2416 8.97125 20.3074 9.08789 20.4307C9.20433 20.5538 9.26393 20.7318 9.2666 20.9531C9.27363 21.5648 9.26856 22.1758 9.26855 22.7871C9.26855 23.3688 9.27285 23.9522 9.26758 24.5342C9.26534 24.7765 9.21186 24.959 9.0957 25.0811C8.97932 25.2032 8.80301 25.2609 8.56348 25.2627C7.35163 25.2723 6.13958 25.2723 4.92773 25.2627C4.70176 25.2609 4.52818 25.2012 4.41113 25.082C4.29414 24.9629 4.23713 24.7873 4.23535 24.5625C4.22832 23.3691 4.2292 22.1758 4.23535 20.9824C4.23669 20.7482 4.29567 20.5628 4.41504 20.4355C4.53476 20.3082 4.71218 20.2416 4.94238 20.2393C6.15434 20.227 7.36715 20.227 8.5791 20.2393ZM5.57422 23.9521H7.94238V21.5771H5.57422V23.9521Z" fill="#8DCA0A" stroke="#8DCA0A" stroke-width="0.04"/>
<path d="M8.59668 6.49414C8.82542 6.49769 8.99296 6.55988 9.10352 6.68262C9.21354 6.80495 9.26394 6.9842 9.2666 7.21484C9.27275 7.80991 9.26855 8.40527 9.26855 9C9.26856 9.5799 9.27197 10.1611 9.26758 10.7412C9.2658 10.9908 9.21028 11.1826 9.09082 11.3125C8.97102 11.4427 8.79023 11.5071 8.5459 11.5098C7.34878 11.5229 6.15024 11.5229 4.95312 11.5098C4.71783 11.5071 4.53814 11.4425 4.41699 11.3174C4.29601 11.1923 4.23672 11.0102 4.23535 10.7783C4.22832 9.58823 4.2292 8.39797 4.23535 7.20703C4.23669 6.98153 4.29047 6.80362 4.4043 6.68164C4.51843 6.55949 4.6896 6.49633 4.91699 6.49316C6.14315 6.47569 7.37051 6.47579 8.59668 6.49414ZM5.57617 10.1768H7.94141V7.79785H5.57617V10.1768Z" fill="#8DCA0A" stroke="#8DCA0A" stroke-width="0.04"/>
<path d="M8.60254 27.7451C8.82999 27.7487 8.99603 27.8109 9.10547 27.9346C9.21449 28.0578 9.26438 28.2382 9.2666 28.4707C9.27187 29.0658 9.26855 29.661 9.26855 30.2559C9.26855 30.8506 9.27363 31.4468 9.2666 32.042C9.26393 32.2644 9.20669 32.443 9.0918 32.5664C8.97668 32.6901 8.80605 32.7561 8.58301 32.7588C7.37107 32.7745 6.15915 32.7729 4.94727 32.7598C4.71351 32.7571 4.53511 32.6918 4.41504 32.5654C4.29521 32.4393 4.23669 32.2551 4.23535 32.0215C4.2292 30.8315 4.22832 29.6402 4.23535 28.4502C4.23675 28.2263 4.29203 28.0497 4.40723 27.9287C4.52262 27.8078 4.69532 27.7453 4.92383 27.7422C6.14975 27.7256 7.37659 27.7259 8.60254 27.7451ZM5.56055 31.4111H7.94336V29.0645H5.56055V31.4111Z" fill="#8DCA0A" stroke="#8DCA0A" stroke-width="0.04"/>
<path d="M6.74902 13.9814C7.34706 13.9814 7.94557 13.9772 8.54395 13.9834C8.783 13.9856 8.9646 14.0421 9.08594 14.1611C9.20737 14.2803 9.26474 14.459 9.26562 14.6953C9.2709 15.8923 9.2709 17.0892 9.26562 18.2861C9.26474 18.5228 9.20678 18.7049 9.08691 18.8281C8.96681 18.9515 8.788 19.0129 8.55371 19.0146C7.35706 19.0217 6.16042 19.0217 4.96289 19.0146C4.72693 19.0133 4.54417 18.9535 4.4209 18.832C4.2976 18.7105 4.23669 18.5304 4.23535 18.2969C4.22832 17.0997 4.22832 15.9022 4.23535 14.7051C4.23674 14.4681 4.2959 14.2881 4.41699 14.167C4.53822 14.0458 4.71863 13.987 4.95312 13.9844C5.54825 13.9774 6.14354 13.9833 6.73828 13.9834L6.74023 13.9814H6.74902ZM5.56934 17.6768H7.95703V15.292H5.56934V17.6768Z" fill="#8DCA0A" stroke="#8DCA0A" stroke-width="0.04"/>
<path d="M22.1357 10.2334C22.252 10.2334 22.378 10.2216 22.4971 10.2441C22.6477 10.2725 22.7738 10.3357 22.8643 10.4346C22.9547 10.5334 23.0087 10.6661 23.0186 10.8291C23.0284 10.9913 22.9941 11.1325 22.918 11.2432C22.8416 11.3539 22.7239 11.4328 22.5703 11.4717C22.4152 11.5106 22.2507 11.5186 22.0928 11.5186C18.5309 11.5211 14.969 11.5211 11.4062 11.5186C11.2481 11.5186 11.083 11.5095 10.9277 11.4697C10.7745 11.4304 10.6572 11.3505 10.5811 11.2393C10.505 11.1279 10.4715 10.9863 10.4824 10.8262C10.4935 10.6659 10.5471 10.5327 10.6377 10.4336C10.7283 10.3346 10.8548 10.2714 11.0068 10.2451V10.2441C11.1259 10.2233 11.2517 10.2344 11.3691 10.2344H16.707L16.7061 10.2334H22.1357Z" fill="#8DCA0A" stroke="#8DCA0A" stroke-width="0.04"/>
<path d="M15.4951 3.98047L15.4961 3.98145C16.9352 3.98144 18.3743 3.98057 19.8135 3.98145C20.0462 3.98145 20.2236 4.03481 20.3428 4.14355C20.4623 4.25262 20.5195 4.41461 20.5195 4.625C20.5195 4.83479 20.4638 4.99725 20.3447 5.10645C20.226 5.21524 20.0481 5.26753 19.8125 5.26758C16.9406 5.27022 14.0692 5.27022 11.1973 5.26758C10.9736 5.26758 10.7939 5.20705 10.6699 5.09473C10.5457 4.98204 10.4801 4.81949 10.4805 4.62207C10.4805 4.42594 10.5478 4.265 10.6729 4.15332C10.7978 4.04186 10.9786 3.98092 11.1992 3.98047H15.4951Z" fill="#8DCA0A" stroke="#8DCA0A" stroke-width="0.04"/>
<path d="M19.791 13.9805C19.8504 13.9801 19.9102 13.9823 19.9678 13.9951C20.1266 14.0305 20.2614 14.093 20.3584 14.1904C20.4558 14.2883 20.5137 14.4206 20.5195 14.5928C20.5253 14.7609 20.4858 14.9011 20.4014 15.0088C20.3169 15.1165 20.189 15.1898 20.0225 15.2275C19.8661 15.263 19.6994 15.2676 19.54 15.2676C16.85 15.2701 14.1588 15.2686 11.4688 15.2686L11.2041 15.2656C10.7763 15.2302 10.4844 14.9768 10.4805 14.627C10.4759 14.2577 10.786 13.9862 11.2354 13.9844C12.6539 13.9784 14.0718 13.9824 15.4902 13.9824H15.5107V13.9834H19.6143C19.6431 13.9834 19.6726 13.9833 19.7021 13.9824C19.7316 13.9815 19.7614 13.9806 19.791 13.9805Z" fill="#8DCA0A" stroke="#8DCA0A" stroke-width="0.04"/>
<path d="M19.7021 16.4834C19.9729 16.4838 20.1801 16.5422 20.3184 16.6553C20.4573 16.769 20.524 16.9354 20.5195 17.1455C20.5155 17.3509 20.4428 17.5082 20.2988 17.6133C20.156 17.7175 19.9458 17.7691 19.6699 17.7695H15.4941V17.7686C14.1081 17.7686 12.721 17.7703 11.335 17.7686C11.0724 17.7685 10.8605 17.7095 10.7129 17.6006C10.5647 17.4913 10.4833 17.3327 10.4805 17.1367C10.4777 16.9416 10.5578 16.7769 10.7051 16.6621C10.8518 16.548 11.0638 16.4839 11.3242 16.4834C14.117 16.4791 16.9093 16.4791 19.7021 16.4834Z" fill="#8DCA0A" stroke="#8DCA0A" stroke-width="0.04"/>
<path d="M19.8418 21.4844C20.0608 21.5064 20.2333 21.577 20.3496 21.6904C20.4663 21.8045 20.5249 21.9607 20.5195 22.1494C20.5146 22.3342 20.4453 22.4881 20.3203 22.5957C20.1956 22.703 20.017 22.7629 19.7969 22.7646C18.8181 22.7723 17.8379 22.7666 16.8594 22.7666H15.5C14.1117 22.7666 12.7238 22.7787 11.3359 22.7549C11.0964 22.7506 10.8 22.6481 10.6338 22.4863C10.484 22.3407 10.4498 22.1424 10.5039 21.9639C10.558 21.7856 10.7001 21.6257 10.9014 21.5537C11.0637 21.4956 11.2501 21.4834 11.4229 21.4834C14.1552 21.4791 16.8888 21.4805 19.6211 21.4805C19.6931 21.4805 19.7685 21.4775 19.8418 21.4844Z" fill="#8DCA0A" stroke="#8DCA0A" stroke-width="0.04"/>
<path d="M15.5566 23.9844C16.9741 23.9843 18.3924 23.9684 19.8096 23.999C19.9241 24.0013 20.0522 24.0446 20.168 24.1094C20.2838 24.1742 20.389 24.2619 20.458 24.3535C20.4843 24.3885 20.5014 24.436 20.5107 24.4883C20.52 24.5408 20.5219 24.5995 20.5176 24.6582C20.5088 24.7753 20.4751 24.8971 20.4189 24.9707C20.3574 25.0516 20.258 25.1228 20.1494 25.1738C20.0407 25.2249 19.9199 25.2564 19.8145 25.2568C16.9447 25.2744 14.0748 25.2708 11.2051 25.2646C10.7784 25.2645 10.4823 24.9905 10.4805 24.6279C10.4787 24.2645 10.7724 23.9881 11.1992 23.9863C12.6486 23.9793 14.0986 23.9843 15.5479 23.9834H15.5576L15.5566 23.9844Z" fill="#8DCA0A" stroke="#8DCA0A" stroke-width="0.04"/>
<path d="M31.127 11.502C31.3013 11.4535 31.4887 11.4858 31.6387 11.5898L35.2451 14.1006C35.5242 14.2951 35.6029 14.683 35.4238 14.9775L35.4072 15.0049C35.3868 15.0393 35.3631 15.0776 35.3389 15.1152L34.7627 16C32.9637 18.76 31.1023 21.6147 29.2686 24.4199C29.1442 24.6111 28.96 24.7759 28.7646 24.8721C27.9869 25.2531 27.1941 25.6357 26.4277 26.0059L25.6826 26.3652L25.667 26.376C25.5983 26.4235 25.5205 26.4567 25.4395 26.4736L25.2744 26.5059C25.2377 26.5133 25.2009 26.516 25.1641 26.5166L25.1621 26.5195H25.1533C25.0298 26.5195 24.9076 26.482 24.8037 26.4102L24.542 26.2285C24.439 26.1566 24.3598 26.0554 24.3135 25.9385L24.2783 25.8164L24.2412 25.6191C24.2311 25.5638 24.2275 25.5077 24.2314 25.4512C24.2383 25.3465 24.2454 25.2423 24.2529 25.1377C24.2688 24.916 24.2856 24.6859 24.2969 24.4629C24.3143 24.1208 24.331 23.7776 24.3477 23.4355C24.3734 22.9069 24.4004 22.3593 24.4307 21.8213C24.4415 21.6223 24.5131 21.4144 24.6289 21.2354C25.9388 19.2198 27.2506 17.2064 28.5635 15.1924L29.4658 13.8086C29.8746 13.1817 30.2824 12.5545 30.6904 11.9268C30.693 11.9207 30.6956 11.9143 30.6982 11.9082C30.708 11.8857 30.7184 11.8631 30.7275 11.8428C30.807 11.6753 30.9519 11.5504 31.127 11.502ZM30.501 14.5283L29.5986 15.9111C28.2899 17.9195 26.9803 19.9266 25.6738 21.9365C25.6452 22.458 25.6196 22.988 25.5947 23.501C25.5781 23.8446 25.5604 24.1884 25.543 24.5312C25.5345 24.6962 25.5239 24.8612 25.5127 25.0234L25.8965 24.8379C26.6605 24.469 27.4499 24.0878 28.2236 23.708L28.2324 23.6992L33.7246 15.2822L34.0303 14.8115L31.4736 13.0332C31.1493 13.5319 30.8252 14.0304 30.501 14.5283Z" fill="#8DCA0A" stroke="#8DCA0A" stroke-width="0.04"/>
<path d="M34.377 7.74609C34.956 7.67685 35.5063 7.83313 36.0137 8.20996C36.1252 8.29248 36.239 8.37264 36.3604 8.45703C36.4595 8.52602 36.5609 8.59561 36.6621 8.66895L36.9658 8.90137L37.1357 9.05273C37.2991 9.20919 37.4438 9.38012 37.5879 9.55469H37.5889C37.7063 9.69748 37.7722 9.84804 37.8203 9.95703L37.8564 10.0361C37.8878 10.0975 37.9095 10.1642 37.9219 10.2324L38.0078 10.6953C38.0169 10.7444 38.0204 10.7949 38.0195 10.8457C38.0074 11.4371 37.8671 11.9313 37.5898 12.3545C37.4051 12.6357 37.2205 12.9288 37.042 13.2129L36.9004 13.4385C36.867 13.4916 36.8364 13.547 36.8076 13.5996L36.7588 13.6846C36.6645 13.8476 36.5107 13.9625 36.334 14.0039C36.2876 14.0144 36.2405 14.0195 36.1934 14.0195C36.0948 14.0195 35.9974 13.9963 35.9082 13.9512L35.8223 13.8994L32.0225 11.1836C31.7225 10.9692 31.6404 10.5396 31.8379 10.2188C31.9278 10.0723 32.0177 9.92324 32.1084 9.77246C32.3327 9.40066 32.5653 9.01522 32.8164 8.63867C33.0695 8.25913 33.4478 7.99047 33.9395 7.83984L33.9521 7.83398H33.9531C33.971 7.82575 33.991 7.81641 34.0098 7.80859C34.0495 7.79105 34.0907 7.77735 34.1328 7.76855L34.1914 7.75684C34.2452 7.74547 34.3003 7.74256 34.3545 7.74512C34.3626 7.74513 34.3701 7.74536 34.377 7.74609ZM35.2529 9.36035C35.0024 9.1745 34.7629 9.10731 34.498 9.14648C34.4665 9.15078 34.436 9.15241 34.4082 9.15332C34.3813 9.16388 34.3516 9.17668 34.3184 9.18652C34.1142 9.24719 33.9737 9.33636 33.8984 9.44922C33.6925 9.75804 33.4937 10.0829 33.3008 10.4023L36.001 12.332C36.163 12.0743 36.3312 11.812 36.501 11.5527V11.5518C36.6164 11.3757 36.6778 11.1622 36.6914 10.8838L36.6387 10.5967C36.635 10.5888 36.6313 10.5809 36.6279 10.5732L36.6182 10.5498C36.6052 10.5205 36.5883 10.4832 36.5791 10.4658C36.4294 10.2841 36.2946 10.126 36.1562 10.0137C35.9955 9.88215 35.8203 9.76051 35.6338 9.63086C35.5101 9.54482 35.3809 9.45512 35.2529 9.36035Z" fill="#8DCA0A" stroke="#8DCA0A" stroke-width="0.04"/>
</svg>
