<svg width="36" height="37" viewBox="0 0 36 37" fill="none" xmlns="http://www.w3.org/2000/svg">
<g clip-path="url(#clip0_859_6600)">
<path d="M14.3976 9.91627H34.1506C35.0978 9.91627 35.8721 10.5721 35.982 11.4569C36.0451 11.9008 35.941 12.3523 35.6898 12.7235C35.4387 13.0948 35.0585 13.3592 34.6232 13.4655C34.5155 13.4955 34.4043 13.5113 34.2925 13.5125C32.518 13.5125 30.7439 13.5125 28.9701 13.5125C28.9168 13.5091 28.8638 13.5028 28.8112 13.4935V12.3157H29.2049C30.8165 12.3157 32.4281 12.3157 34.0397 12.3157C34.6032 12.3157 34.9389 11.9108 34.7141 11.4949C34.6242 11.334 34.4144 11.23 34.2355 11.13C34.1596 11.087 34.0357 11.117 33.9358 11.117H14.4286V12.3117H27.5753V13.5005H17.5669C17.7297 13.6734 17.8237 13.7774 17.9226 13.8764C21.7193 17.6755 25.5187 21.4747 29.3208 25.2739C29.7864 25.7388 30.0861 26.2526 30.0082 26.9345C29.9845 27.2546 29.8711 27.5616 29.6809 27.8202C29.4907 28.0787 29.2315 28.2784 28.9331 28.3962C28.6419 28.5313 28.3188 28.5824 28.0002 28.5438C27.6816 28.5051 27.3801 28.3781 27.1296 28.1772C26.9832 28.0607 26.8452 27.9337 26.717 27.7973C22.7404 23.8208 18.7672 19.8431 14.7973 15.864C14.6983 15.7519 14.6065 15.6337 14.5225 15.51L14.4056 15.564V35.4466C14.4056 36.1674 14.2557 36.3154 13.5264 36.3154H0.853266C0.160862 36.3154 0.00699471 36.1584 0.00699471 35.4516C0.00699471 26.6775 0.00466265 17.9038 0 9.13045C0 7.70376 0.0399666 6.29508 0.375677 4.89639C0.689407 3.58968 0.912215 2.25997 1.18498 0.943267C1.28989 0.43638 1.44875 0.316406 1.94832 0.316406H12.4393C12.9508 0.316406 13.1127 0.43238 13.2146 0.92827C13.6116 2.85851 14.0016 4.79008 14.3846 6.72298C14.4031 6.85912 14.4082 6.99676 14.3996 7.13389C14.3976 8.04069 14.3976 8.95149 14.3976 9.91627ZM1.22894 7.5318V30.2867H13.1787V7.5318H1.22894ZM13.1846 31.5415H1.23494V35.0967H13.1846V31.5415ZM1.35483 6.29408H13.0578C12.758 4.81641 12.4503 3.36873 12.1865 1.91205C12.1236 1.56313 11.9867 1.50414 11.6789 1.51214C10.6049 1.52814 9.53079 1.51814 8.45672 1.51814H2.64972C2.48286 1.51814 2.30502 1.46815 2.25006 1.73209C1.96231 3.24576 1.65857 4.75842 1.35483 6.29408ZM14.4436 13.5155L14.3526 13.6015C14.4372 13.7369 14.5321 13.8655 14.6364 13.9864C17.9409 17.2936 21.2447 20.5992 24.5479 23.9032C25.607 24.9643 26.667 26.0244 27.7281 27.0835C28.0279 27.3834 28.3696 27.4044 28.6214 27.1634C28.8731 26.9225 28.8671 26.5636 28.5584 26.2436C28.1588 25.8317 27.7471 25.4288 27.3405 25.0219C23.5864 21.2668 19.8309 17.5126 16.0742 13.7594C15.9592 13.6371 15.8078 13.5554 15.6425 13.5265C15.2459 13.4935 14.8452 13.5155 14.4466 13.5155H14.4436Z" fill="#DC2626"/>
<path d="M7.2041 9.91602H11.2126C11.8121 9.91602 12.002 10.096 12.002 10.6858C12.002 12.9713 12.002 15.2575 12.002 17.5443C12.002 18.1332 11.8151 18.3152 11.2136 18.3152H3.19655C2.59706 18.3152 2.40723 18.1342 2.40723 17.5443C2.40723 15.2588 2.40723 12.973 2.40723 10.6868C2.40723 10.096 2.59207 9.91602 3.19555 9.91602H7.2041ZM10.777 17.0994V11.1447H3.62618V17.0994H10.777Z" fill="#DC2626"/>
<path d="M7.24034 2.11589H10.0489C10.6014 2.11589 10.7993 2.30884 10.8003 2.84872C10.8003 3.57256 10.8003 4.29674 10.8003 5.02124C10.8003 5.49614 10.5895 5.71309 10.1229 5.71409C8.1752 5.71409 6.22788 5.71409 4.28089 5.71409C3.81429 5.71409 3.60747 5.49714 3.60547 5.01924C3.60547 4.28207 3.60547 3.54557 3.60547 2.80973C3.60547 2.31884 3.81529 2.11789 4.31985 2.11689C5.29401 2.11389 6.26718 2.11589 7.24034 2.11589ZM4.82542 3.33362V4.49136H9.57333V3.33362H4.82542Z" fill="#DC2626"/>
<path d="M7.68453 11.96C8.24105 12.5108 8.85152 13.0987 9.44102 13.7056C9.6878 13.9595 9.67781 14.2874 9.42603 14.5464C8.84453 15.1463 8.24605 15.7281 7.65855 16.315L6.84226 15.4332L7.50868 14.7333H4.83398V13.5336H7.43175L7.49669 13.4426L6.6724 12.8578L7.68453 11.96Z" fill="#DC2626"/>
</g>
<defs>
<clipPath id="clip0_859_6600">
<rect width="36" height="36" fill="white" transform="translate(0 0.31543)"/>
</clipPath>
</defs>
</svg>
