<svg width="36" height="37" viewBox="0 0 36 37" fill="none" xmlns="http://www.w3.org/2000/svg">
<g clip-path="url(#clip0_859_6556)">
<path d="M14.3976 10.4954H34.1506C35.0978 10.4954 35.8721 11.1512 35.982 12.036C36.0451 12.4799 35.941 12.9314 35.6898 13.3026C35.4387 13.6739 35.0585 13.9383 34.6232 14.0446C34.5155 14.0746 34.4043 14.0904 34.2925 14.0916C32.518 14.0916 30.7439 14.0916 28.9701 14.0916C28.9168 14.0882 28.8638 14.0819 28.8112 14.0726V12.8948H29.2049C30.8165 12.8948 32.4281 12.8948 34.0397 12.8948C34.6032 12.8948 34.9389 12.4899 34.7141 12.074C34.6242 11.9131 34.4144 11.8091 34.2355 11.7091C34.1596 11.6661 34.0357 11.6961 33.9358 11.6961H14.4286V12.8908H27.5753V14.0796H17.5669C17.7297 14.2525 17.8237 14.3565 17.9226 14.4555C21.7193 18.2547 25.5187 22.0538 29.3208 25.853C29.7864 26.3179 30.0861 26.8317 30.0082 27.5136C29.9845 27.8337 29.8711 28.1407 29.6809 28.3993C29.4907 28.6578 29.2315 28.8575 28.9331 28.9753C28.6419 29.1104 28.3188 29.1615 28.0002 29.1229C27.6816 29.0842 27.3801 28.9572 27.1296 28.7563C26.9832 28.6398 26.8452 28.5128 26.717 28.3764C22.7404 24.4 18.7672 20.4222 14.7973 16.4431C14.6983 16.331 14.6065 16.2128 14.5225 16.0891L14.4056 16.1431V36.0257C14.4056 36.7465 14.2557 36.8945 13.5264 36.8945H0.853266C0.160862 36.8945 0.00699471 36.7375 0.00699471 36.0307C0.00699471 27.2566 0.00466265 18.4829 0 9.70955C0 8.28287 0.0399666 6.87418 0.375677 5.47549C0.689407 4.16878 0.912215 2.83908 1.18498 1.52237C1.28989 1.01548 1.44875 0.895508 1.94832 0.895508H12.4393C12.9508 0.895508 13.1127 1.01148 13.2146 1.50737C13.6116 3.43761 14.0016 5.36918 14.3846 7.30208C14.4031 7.43822 14.4082 7.57586 14.3996 7.71299C14.3976 8.61979 14.3976 9.53059 14.3976 10.4954ZM1.22894 8.1109V30.8659H13.1787V8.1109H1.22894ZM13.1846 32.1206H1.23494V35.6758H13.1846V32.1206ZM1.35483 6.87318H13.0578C12.758 5.39551 12.4503 3.94783 12.1865 2.49115C12.1236 2.14223 11.9867 2.08324 11.6789 2.09124C10.6049 2.10724 9.53079 2.09724 8.45672 2.09724H2.64972C2.48286 2.09724 2.30502 2.04725 2.25006 2.31119C1.96231 3.82486 1.65857 5.33752 1.35483 6.87318ZM14.4436 14.0946L14.3526 14.1806C14.4372 14.316 14.5321 14.4446 14.6364 14.5655C17.9409 17.8727 21.2447 21.1783 24.5479 24.4823C25.607 25.5434 26.667 26.6035 27.7281 27.6626C28.0279 27.9625 28.3696 27.9835 28.6214 27.7425C28.8731 27.5016 28.8671 27.1427 28.5584 26.8227C28.1588 26.4108 27.7471 26.0079 27.3405 25.601C23.5864 21.8459 19.8309 18.0917 16.0742 14.3385C15.9592 14.2162 15.8078 14.1345 15.6425 14.1056C15.2459 14.0726 14.8452 14.0946 14.4466 14.0946H14.4436Z" fill="#E84915"/>
<path d="M7.2041 10.4951H11.2126C11.8121 10.4951 12.002 10.6751 12.002 11.2649C12.002 13.5504 12.002 15.8366 12.002 18.1234C12.002 18.7123 11.8151 18.8943 11.2136 18.8943H3.19655C2.59706 18.8943 2.40723 18.7133 2.40723 18.1234C2.40723 15.8379 2.40723 13.5521 2.40723 11.2659C2.40723 10.6751 2.59207 10.4951 3.19555 10.4951H7.2041ZM10.777 17.6785V11.7238H3.62618V17.6785H10.777Z" fill="#E84915"/>
<path d="M7.24034 2.69499H10.0489C10.6014 2.69499 10.7993 2.88795 10.8003 3.42783C10.8003 4.15167 10.8003 4.87584 10.8003 5.60034C10.8003 6.07524 10.5895 6.29219 10.1229 6.29319C8.1752 6.29319 6.22788 6.29319 4.28089 6.29319C3.81429 6.29319 3.60747 6.07624 3.60547 5.59835C3.60547 4.86118 3.60547 4.12467 3.60547 3.38884C3.60547 2.89794 3.81529 2.69699 4.31985 2.69599C5.29401 2.69299 6.26718 2.69499 7.24034 2.69499ZM4.82542 3.91272V5.07046H9.57333V3.91272H4.82542Z" fill="#E84915"/>
<path d="M7.68453 12.5391C8.24105 13.0899 8.85152 13.6778 9.44102 14.2847C9.6878 14.5386 9.67781 14.8665 9.42603 15.1255C8.84453 15.7254 8.24605 16.3072 7.65855 16.8941L6.84226 16.0123L7.50868 15.3124H4.83398V14.1127H7.43175L7.49669 14.0217L6.6724 13.4369L7.68453 12.5391Z" fill="#E84915"/>
</g>
<defs>
<clipPath id="clip0_859_6556">
<rect width="36" height="36" fill="white" transform="translate(0 0.894531)"/>
</clipPath>
</defs>
</svg>
