<svg width="36" height="37" viewBox="0 0 36 37" fill="none" xmlns="http://www.w3.org/2000/svg">
<g clip-path="url(#clip0_584_540)">
<path d="M14.3976 10.4957H34.1506C35.0978 10.4957 35.8721 11.1516 35.982 12.0364C36.0451 12.4802 35.941 12.9317 35.6898 13.303C35.4387 13.6742 35.0585 13.9387 34.6232 14.045C34.5155 14.075 34.4043 14.0908 34.2925 14.0919C32.518 14.0919 30.7439 14.0919 28.9701 14.0919C28.9168 14.0886 28.8638 14.0822 28.8112 14.0729V12.8952H29.2049C30.8165 12.8952 32.4281 12.8952 34.0397 12.8952C34.6032 12.8952 34.9389 12.4903 34.7141 12.0744C34.6242 11.9134 34.4144 11.8094 34.2355 11.7095C34.1596 11.6665 34.0357 11.6965 33.9358 11.6965H14.4286V12.8912H27.5753V14.0799H17.5669C17.7297 14.2529 17.8237 14.3569 17.9226 14.4559C21.7193 18.255 25.5187 22.0542 29.3208 25.8533C29.7864 26.3182 30.0861 26.8321 30.0082 27.514C29.9845 27.8341 29.8711 28.1411 29.6809 28.3997C29.4907 28.6582 29.2315 28.8578 28.9331 28.9756C28.6419 29.1108 28.3188 29.1619 28.0002 29.1232C27.6816 29.0845 27.3801 28.9576 27.1296 28.7567C26.9832 28.6401 26.8452 28.5132 26.717 28.3768C22.7404 24.4003 18.7672 20.4225 14.7973 16.4434C14.6983 16.3314 14.6065 16.2132 14.5225 16.0895L14.4056 16.1435V36.0261C14.4056 36.7469 14.2557 36.8949 13.5264 36.8949H0.853266C0.160862 36.8949 0.00699471 36.7379 0.00699471 36.0311C0.00699471 27.257 0.00466265 18.4833 0 9.70992C0 8.28323 0.0399666 6.87455 0.375677 5.47586C0.689407 4.16915 0.912215 2.83944 1.18498 1.52274C1.28989 1.01585 1.44875 0.895874 1.94832 0.895874H12.4393C12.9508 0.895874 13.1127 1.01185 13.2146 1.50774C13.6116 3.43798 14.0016 5.36955 14.3846 7.30245C14.4031 7.43859 14.4082 7.57623 14.3996 7.71336C14.3976 8.62016 14.3976 9.53096 14.3976 10.4957ZM1.22894 8.11127V30.8662H13.1787V8.11127H1.22894ZM13.1846 32.1209H1.23494V35.6761H13.1846V32.1209ZM1.35483 6.87355H13.0578C12.758 5.39587 12.4503 3.9482 12.1865 2.49152C12.1236 2.1426 11.9867 2.08361 11.6789 2.09161C10.6049 2.10761 9.53079 2.09761 8.45672 2.09761H2.64972C2.48286 2.09761 2.30502 2.04762 2.25006 2.31156C1.96231 3.82522 1.65857 5.33789 1.35483 6.87355ZM14.4436 14.0949L14.3526 14.1809C14.4372 14.3163 14.5321 14.445 14.6364 14.5658C17.9409 17.8731 21.2447 21.1787 24.5479 24.4826C25.607 25.5437 26.667 26.6038 27.7281 27.6629C28.0279 27.9629 28.3696 27.9839 28.6214 27.7429C28.8731 27.502 28.8671 27.143 28.5584 26.8231C28.1588 26.4112 27.7471 26.0083 27.3405 25.6014C23.5864 21.8462 19.8309 18.0921 16.0742 14.3389C15.9592 14.2166 15.8078 14.1349 15.6425 14.1059C15.2459 14.0729 14.8452 14.0949 14.4466 14.0949H14.4436Z" fill="#8DCA0A"/>
<path d="M7.20361 10.4956H11.2122C11.8116 10.4956 12.0015 10.6756 12.0015 11.2654C12.0015 13.5509 12.0015 15.8371 12.0015 18.1239C12.0015 18.7128 11.8146 18.8947 11.2132 18.8947H3.19606C2.59657 18.8947 2.40674 18.7138 2.40674 18.1239C2.40674 15.8384 2.40674 13.5526 2.40674 11.2664C2.40674 10.6756 2.59158 10.4956 3.19506 10.4956H7.20361ZM10.7765 17.679V11.7243H3.62569V17.679H10.7765Z" fill="#8DCA0A"/>
<path d="M7.24083 2.69536H10.0494C10.6019 2.69536 10.7998 2.88831 10.8008 3.42819C10.8008 4.15203 10.8008 4.8762 10.8008 5.60071C10.8008 6.0756 10.5899 6.29256 10.1233 6.29356C8.17569 6.29356 6.22836 6.29356 4.28137 6.29356C3.81478 6.29356 3.60796 6.07661 3.60596 5.59871C3.60596 4.86154 3.60596 4.12504 3.60596 3.3892C3.60596 2.89831 3.81578 2.69735 4.32034 2.69635C5.2945 2.69336 6.26766 2.69536 7.24083 2.69536ZM4.82591 3.91309V5.07083H9.57382V3.91309H4.82591Z" fill="#8DCA0A"/>
<path d="M7.68453 12.5392C8.24105 13.0901 8.85152 13.6779 9.44102 14.2848C9.6878 14.5387 9.67781 14.8667 9.42603 15.1256C8.84453 15.7255 8.24605 16.3073 7.65855 16.8942L6.84226 16.0124L7.50868 15.3126H4.83398V14.1128H7.43175L7.49669 14.0219L6.6724 13.437L7.68453 12.5392Z" fill="#8DCA0A"/>
</g>
<defs>
<clipPath id="clip0_584_540">
<rect width="36" height="36" fill="white" transform="translate(0 0.894775)"/>
</clipPath>
</defs>
</svg>
